<svg xmlns="http://www.w3.org/2000/svg" xmlns:xlink="http://www.w3.org/1999/xlink" width="1024" height="620" viewBox="0 0 1024 620">
  <defs>
    <style>
      .cls-1 {
        isolation: isolate;
      }

      .cls-2 {
        fill: none;
      }

      .cls-3, .cls-4 {
        fill: #51b2fb;
      }

      .cls-3, .cls-32 {
        opacity: 0.1;
      }

      .cls-4 {
        opacity: 0.2;
      }

      .cls-5 {
        fill: #9fbcfb;
      }

      .cls-6 {
        fill: #e3ebfc;
      }

      .cls-7 {
        fill: #ccddfa;
      }

      .cls-8 {
        fill: #fafbff;
      }

      .cls-9 {
        fill: #80a7f6;
      }

      .cls-10 {
        fill: #b8d0f9;
      }

      .cls-11, .cls-29, .cls-31 {
        fill: #207bff;
      }

      .cls-11, .cls-37 {
        opacity: 0.4;
      }

      .cls-12 {
        fill: #004bff;
        opacity: 0.5;
        mix-blend-mode: multiply;
      }

      .cls-13 {
        fill: #c5d8fa;
      }

      .cls-14 {
        fill: url(#_ÂÁ_Ï_ÌÌ_È_ËÂÌÚ_30);
      }

      .cls-15 {
        fill: #4aebff;
      }

      .cls-16, .cls-30 {
        fill: #fff;
      }

      .cls-17 {
        fill: #bef9ff;
      }

      .cls-18 {
        fill: url(#linear-gradient);
      }

      .cls-19 {
        fill: #ec1c24;
      }

      .cls-20 {
        fill: url(#linear-gradient-2);
      }

      .cls-21 {
        fill: url(#linear-gradient-3);
      }

      .cls-22 {
        fill: url(#linear-gradient-4);
      }

      .cls-23 {
        fill: url(#linear-gradient-5);
      }

      .cls-24 {
        fill: url(#linear-gradient-6);
      }

      .cls-25 {
        fill: url(#linear-gradient-7);
      }

      .cls-26 {
        fill: url(#_ÂÁ_Ï_ÌÌ_È_ËÂÌÚ_14);
      }

      .cls-27 {
        fill: url(#_ÂÁ_Ï_ÌÌ_È_ËÂÌÚ_18);
      }

      .cls-28 {
        fill: #4880f8;
      }

      .cls-30 {
        opacity: 0.8;
      }

      .cls-31 {
        opacity: 0.72;
      }

      .cls-32, .cls-33, .cls-34, .cls-35 {
        fill: #3ae6fb;
      }

      .cls-33 {
        opacity: 0.3;
      }

      .cls-35 {
        opacity: 0.7;
      }

      .cls-36 {
        fill: #93b4fb;
      }

      .cls-37 {
        mix-blend-mode: lighten;
        fill: url(#radial-gradient);
      }

      .cls-38 {
        fill: #00ffda;
      }

      .cls-39 {
        fill: #7fd1ca;
      }

      .cls-40 {
        fill: #1e1e1e;
      }
    </style>
    <radialGradient id="_ÂÁ_Ï_ÌÌ_È_ËÂÌÚ_30" data-name="¡ÂÁ˚ÏˇÌÌ˚È „‡‰ËÂÌÚ 30" cx="4448.18" cy="524.05" r="6.2" gradientTransform="translate(-3966.24 23.46) scale(0.93 0.92)" gradientUnits="userSpaceOnUse">
      <stop offset="0" stop-color="#4aebff"/>
      <stop offset="1" stop-color="#00709e"/>
    </radialGradient>
    <linearGradient id="linear-gradient" x1="120.79" y1="404.8" x2="120.79" y2="436.16" gradientTransform="translate(45.19)" gradientUnits="userSpaceOnUse">
      <stop offset="0.02" stop-color="#dd2a21"/>
      <stop offset="0.06" stop-color="#c8201b"/>
      <stop offset="0.1" stop-color="#b71717"/>
      <stop offset="0.15" stop-color="#ac1113"/>
      <stop offset="0.22" stop-color="#a50e12"/>
      <stop offset="0.43" stop-color="#a30d11"/>
      <stop offset="0.79" stop-color="#6b0006"/>
    </linearGradient>
    <linearGradient id="linear-gradient-2" x1="111.59" y1="406.2" x2="111.59" y2="428.7" gradientTransform="translate(45.19)" gradientUnits="userSpaceOnUse">
      <stop offset="0" stop-color="#ad1a27"/>
      <stop offset="0.08" stop-color="#9e151f"/>
      <stop offset="0.28" stop-color="#7d090e"/>
      <stop offset="0.44" stop-color="#680304"/>
      <stop offset="0.56" stop-color="#610000"/>
      <stop offset="0.73" stop-color="#520000"/>
      <stop offset="1" stop-color="#3f0000"/>
    </linearGradient>
    <linearGradient id="linear-gradient-3" x1="824.49" y1="417.79" x2="839.21" y2="417.79" gradientTransform="matrix(-1, 0, 0, 1, 1015.73, 0)" gradientUnits="userSpaceOnUse">
      <stop offset="0" stop-color="#be1349"/>
      <stop offset="0.24" stop-color="#be124e"/>
      <stop offset="0.25" stop-color="#be124e"/>
      <stop offset="1" stop-color="#7a0025"/>
    </linearGradient>
    <linearGradient id="linear-gradient-4" x1="819.61" y1="425.27" x2="839.28" y2="425.27" gradientTransform="matrix(-1, 0, 0, 1, 1015.73, 0)" gradientUnits="userSpaceOnUse">
      <stop offset="0" stop-color="#282881"/>
      <stop offset="0.27" stop-color="#26257d"/>
      <stop offset="0.55" stop-color="#1f1b70"/>
      <stop offset="0.84" stop-color="#150c5b"/>
      <stop offset="1" stop-color="#0d004c"/>
    </linearGradient>
    <linearGradient id="linear-gradient-5" x1="824.26" y1="425.27" x2="839.21" y2="425.27" xlink:href="#linear-gradient-3"/>
    <linearGradient id="linear-gradient-6" x1="827.29" y1="417.73" x2="846.08" y2="417.73" xlink:href="#linear-gradient-4"/>
    <linearGradient id="linear-gradient-7" x1="125.94" y1="424.52" x2="125.94" y2="413.87" gradientTransform="translate(45.19)" gradientUnits="userSpaceOnUse">
      <stop offset="0" stop-color="#ed2d24"/>
      <stop offset="0.12" stop-color="#ed2824"/>
      <stop offset="0.25" stop-color="#ec1c24"/>
      <stop offset="1" stop-color="#74020d"/>
    </linearGradient>
    <linearGradient id="_ÂÁ_Ï_ÌÌ_È_ËÂÌÚ_14" data-name="¡ÂÁ˚ÏˇÌÌ˚È „‡‰ËÂÌÚ 14" x1="4391.41" y1="550.49" x2="4455.35" y2="550.49" gradientTransform="translate(-4295.07 14.34) rotate(-2.88)" gradientUnits="userSpaceOnUse">
      <stop offset="0" stop-color="#003a6b"/>
      <stop offset="1" stop-color="#00204c"/>
    </linearGradient>
    <linearGradient id="_ÂÁ_Ï_ÌÌ_È_ËÂÌÚ_18" data-name="¡ÂÁ˚ÏˇÌÌ˚È „‡‰ËÂÌÚ 18" x1="4420.69" y1="315.1" x2="4452.9" y2="369.35" gradientTransform="translate(-4284.51)" gradientUnits="userSpaceOnUse">
      <stop offset="0" stop-color="#cbd7e1"/>
      <stop offset="0.05" stop-color="#aec0d0"/>
      <stop offset="0.15" stop-color="#7998b2"/>
      <stop offset="0.26" stop-color="#4e7698"/>
      <stop offset="0.35" stop-color="#2c5c85"/>
      <stop offset="0.44" stop-color="#144976"/>
      <stop offset="0.53" stop-color="#053e6e"/>
      <stop offset="0.6" stop-color="#003a6b"/>
      <stop offset="1" stop-color="#00204c"/>
    </linearGradient>
    <radialGradient id="radial-gradient" cx="2969.35" cy="547.32" r="13.13" gradientTransform="matrix(0.69, 0.02, -0.02, 0.75, -1944.91, -51.78)" gradientUnits="userSpaceOnUse">
      <stop offset="0" stop-color="#00ddde" stop-opacity="0.52"/>
      <stop offset="0.09" stop-color="#2de6e7" stop-opacity="0.65"/>
      <stop offset="0.2" stop-color="#63f1f1" stop-opacity="0.8"/>
      <stop offset="0.3" stop-color="#8af8f9" stop-opacity="0.91"/>
      <stop offset="0.38" stop-color="#a2fdfd" stop-opacity="0.98"/>
      <stop offset="0.43" stop-color="#abffff"/>
      <stop offset="0.46" stop-color="#9ffcfd"/>
      <stop offset="0.51" stop-color="#7ff6f6"/>
      <stop offset="0.58" stop-color="#4aebeb"/>
      <stop offset="0.66" stop-color="#03dcdd"/>
      <stop offset="0.66" stop-color="#00dbdc"/>
      <stop offset="0.69" stop-color="#08dcdd" stop-opacity="0.97"/>
      <stop offset="0.74" stop-color="#1fdfe0" stop-opacity="0.88"/>
      <stop offset="0.8" stop-color="#44e5e5" stop-opacity="0.73"/>
      <stop offset="0.87" stop-color="#78eced" stop-opacity="0.53"/>
      <stop offset="0.94" stop-color="#baf5f6" stop-opacity="0.27"/>
      <stop offset="1" stop-color="#fff" stop-opacity="0"/>
    </radialGradient>
  </defs>
  
  <g class="cls-1">
    <g id="Robot">
      <g id="fondo">
        <rect class="cls-2" width="1024" height="620"/>
      </g>
      <g id="sombra">
        <g>
          <ellipse class="cls-3" cx="141.15" cy="536.76" rx="46.08" ry="10.24"/>
          <path class="cls-4" d="M177.05,536.76c0,3.6-16.07,6.51-35.9,6.51s-35.89-2.91-35.89-6.51,16.07-6.51,35.89-6.51S177.05,533.17,177.05,536.76Z"/>
          <ellipse class="cls-4" cx="141.15" cy="536.76" rx="21.61" ry="3.92"/>
        </g>
      </g>
      <g id="brazoIzquierdo">
        <path class="cls-5" d="M200.66,405.32c.58,9.92-2.43,18.15-6.74,18.4s-8.27-7.58-8.86-17.49,2.42-18.15,6.73-18.4S200.07,395.41,200.66,405.32Z"/>
        <g id="BrazoIzqArriba">
          <g>
            <g>
              <path class="cls-6" d="M227.39,370C218,406,200.94,418.18,200.94,418.18s-7.32,1.48-14.25-9.73a19.23,19.23,0,0,1-2.07-15.34s29.12-33.52,36.51-44.46S230.94,356.4,227.39,370Z"/>
              <path class="cls-6" d="M227.39,370C218,406,200.94,418.18,200.94,418.18s-7.32,1.48-14.25-9.73a19.23,19.23,0,0,1-2.07-15.34s29.12-33.52,36.51-44.46S230.94,356.4,227.39,370Z"/>
              <path class="cls-7" d="M225.29,364.13c-6.6,21.31-12.62,31.48-18.53,37.13-10.15,9.69-17.78,8-22.58.61a18.59,18.59,0,0,0,2.51,6.58c6.93,11.21,14.25,9.73,14.25,9.73S218,406,227.39,370c2.45-9.36,2.05-21.18-.86-24C226.74,347,229.23,351.43,225.29,364.13Z"/>
              <path class="cls-6" d="M208.84,365.18c1.64-2.24,2.56-6.88,2.46-9.13a21.1,21.1,0,0,0-1.41-5.43,3.27,3.27,0,0,1,3.55.89c1.76,1.71,2.27,4.68,2.62,6S208.84,365.18,208.84,365.18Z"/>
              <path class="cls-8" d="M206.75,391.93a114.62,114.62,0,0,1-8.61,9.52c-1.52,1.43,0,2.87,1.36,1.89,3-2.14,7.41-7.25,12.88-14.64,3.2-4.33,11.82-21.76,12.76-33.25C224.84,356,220.46,375.18,206.75,391.93Z"/>
              <path class="cls-9" d="M227,373.67h0a.4.4,0,0,1-.55-.13c-3.81-6.12-11.75-10.71-18.95-7.16a.39.39,0,1,1-.35-.7c7.62-3.76,16,1,20,7.45A.39.39,0,0,1,227,373.67Z"/>
            </g>
            <path class="cls-5" d="M201.64,405.24c.59,9.91-2.43,18.15-6.73,18.4s-8.28-7.58-8.87-17.5,2.43-18.14,6.73-18.4S201.05,395.33,201.64,405.24Z"/>
          </g>
        </g>
      </g>
      <g id="torso">
        <g>
          <path class="cls-6" d="M99.48,381.62C95,381.33,79.28,397,84,412.11s31.55,65.73,37.63,83.44,9.71,22.07,18.35,23.67,21.68,2.2,36.81-29.06,17.46-66.37,18.14-83.05-1.07-23.3-7-25.21C174.25,377.46,99.48,381.62,99.48,381.62Z"/>
          <path class="cls-8" d="M170.71,486.48c11.73-32.89,10.32-68.24,9.23-85-.73-11.13-2.06-17.7-4.65-21.23-12.49-.69-30.74-.39-46.21.1,8.27,21.59,20.49,57.95,22.53,95.41,1.36,25-2.13,37.2-7,43.45C152.53,517.66,162,511,170.71,486.48Z"/>
          <path class="cls-10" d="M189.3,383.29c0,3.24-23.14,8.27-46.48,8.31s-46.51-4.92-46.52-8.16,23.15-3.53,46.5-3.57S189.29,380.05,189.3,383.29Z"/>
          <path class="cls-11" d="M175.18,384c0,2.24-15.93,5.72-32,5.75s-32-3.4-32-5.64,15.94-2.45,32-2.48S175.18,381.71,175.18,384Z"/>
          <path class="cls-12" d="M165.4,385.12c0,.85-11,1.94-21.71,2s-21-1-21-1.89,10.25-1.2,21-1.22S165.4,384.26,165.4,385.12Z"/>
          <path class="cls-13" d="M131.25,499.21c-2.48-13.25-6.18-56.59-15-87.18-4.41-15.33-14.8-26.15-24.85-22.72-7.14,2.43-10,14.6-7.4,22.8,4.74,15.16,31.55,65.73,37.63,83.44s9.71,22.07,18.35,23.67c4.44.83,10.06,1.38,16.53-2.55C147.78,518,135.36,521.16,131.25,499.21Z"/>
          <path class="cls-14" d="M162.15,505.67a15.89,15.89,0,0,1-5.32.86,24.36,24.36,0,0,1-6-.43,2.37,2.37,0,0,1-2.08-2.19h0a2.15,2.15,0,0,1,2.09-2.18s4.58.51,5.69.5a41.8,41.8,0,0,0,5.78-.54c1.15,0,2.22.33,1.88,2A2.89,2.89,0,0,1,162.15,505.67Z"/>
          <path class="cls-15" d="M161.42,505.42a16.4,16.4,0,0,1-4.6.62,25.39,25.39,0,0,1-5.14-.31c-1-.19-1.8-.7-1.8-1.56h0a1.68,1.68,0,0,1,1.8-1.55s4,.36,4.92.35a43.86,43.86,0,0,0,5-.38c1,0,1.92.24,1.62,1.4C163.08,504.52,162.62,505.06,161.42,505.42Z"/>
          <path class="cls-9" d="M155.55,495.67c-10.52,0-23.42-2.26-37.33-7.91a.37.37,0,0,1-.2-.49.39.39,0,0,1,.49-.2c25.92,10.55,48.22,9.21,58,3.5a.37.37,0,1,1,.38.64C172.22,493.92,164.8,495.67,155.55,495.67Z"/>
          <path class="cls-16" d="M155.27,494.84c-10.51,0-23.41-2.25-37.32-7.91a.37.37,0,0,1,.28-.68c25.92,10.54,48.22,9.2,58,3.5a.37.37,0,0,1,.51.13.35.35,0,0,1-.13.5C172,493.1,164.53,494.84,155.27,494.84Z"/>
          <path class="cls-8" d="M193,390.17c2,40.08-3.86,59-3.86,59s5.59-30.28.44-59.55C188.87,385.65,192.68,383.9,193,390.17Z"/>
          <path class="cls-16" d="M99.87,387.37s4.61,2.74,21.46,4.29,39,1.26,39,1.26-20.44,2.67-39.11.68S99.87,387.37,99.87,387.37Z"/>
          <path class="cls-17" d="M159.3,502.84c-.82.07-1.76.12-2.7.13s-4.92-.35-4.92-.35a2.43,2.43,0,0,0-.38,0l1.82,3.28a36.55,36.55,0,0,0,3.7.11,16.66,16.66,0,0,0,4.29-.54Z"/>
          <g>
            <path class="cls-18" d="M155.25,417.63a14.17,14.17,0,0,1,8.92-13.12,13.53,13.53,0,0,1,1.59.21,13.08,13.08,0,0,1,11,12.41c0,.14,0,.28,0,.43v.16a8.12,8.12,0,0,0-8.16-8.07,8.4,8.4,0,0,0-2.67.44c.81-.28.78-.28-.05,0a7.9,7.9,0,0,0-2.75-.48,7.77,7.77,0,0,0-7.79,8v.07a7.65,7.65,0,0,0,7.72,7.93,7.91,7.91,0,0,0,2.51-.4,8.24,8.24,0,0,0,3,.57,8.12,8.12,0,0,0,8.16-7.94,13,13,0,0,1-10.88,12.68,14.93,14.93,0,0,1-1.67.21A14.15,14.15,0,0,1,155.25,417.63Z"/>
            <path class="cls-19" d="M160.4,417.73a8.08,8.08,0,0,0,5.14,7.5,7.91,7.91,0,0,1-2.51.4,7.65,7.65,0,0,1-7.72-7.93v-.07a7.77,7.77,0,0,1,7.79-8,7.9,7.9,0,0,1,2.75.48c.83-.3.86-.3.05,0A8.1,8.1,0,0,0,160.4,417.73Z"/>
            <path class="cls-20" d="M163,404.47c.38,0,.76,0,1.14,0a14.11,14.11,0,0,0,0,26.24c-.35,0-.71,0-1.08,0-7.94,0-13.71-5.93-13.71-13.16v-.07C149.39,410.32,155.09,404.47,163,404.47Z"/>
            <path class="cls-21" d="M176.73,417.73v0Z"/>
            <path class="cls-22" d="M165.76,425.15c.86.3.84.31,0,0Z"/>
            <path class="cls-23" d="M165.76,425.15c.86.3.84.31,0,0Z"/>
            <path class="cls-24" d="M168.57,425.8a8.24,8.24,0,0,1-3-.57l.22-.08c.84.31.86.3,0,0a7.89,7.89,0,0,0,5.26-7.52v-.07a7.76,7.76,0,0,0-5.16-7.45l0,0a8.4,8.4,0,0,1,2.67-.44,8.12,8.12,0,0,1,8.16,8.07v.14A8.12,8.12,0,0,1,168.57,425.8Z"/>
            <path class="cls-25" d="M168.57,425.8a8.24,8.24,0,0,1-3-.57l.22-.08c.84.31.86.3,0,0a7.89,7.89,0,0,0,5.26-7.52v-.07a7.76,7.76,0,0,0-5.16-7.45l0,0a8.4,8.4,0,0,1,2.67-.44,8.12,8.12,0,0,1,8.16,8.07v.14A8.12,8.12,0,0,1,168.57,425.8Z"/>
          </g>
        </g>
      </g>
      <g id="cabeza">
        <g>
          <g>
            <path class="cls-6" d="M103,369.29c10.62,13.54,43.14,11,52.2,10.1s24.41-2.41,29.94-18.92,2.76-41.69-12.44-54.78-55.89-10.95-69.7,6.69S99.34,364.6,103,369.29Z"/>
            <path class="cls-16" d="M105.83,316c.61-.21,13.17-9.87,35.9-11.8,7.83-.67,20,0,27.86,1.07-.78-.82-12-7.24-35.22-4.85A45.93,45.93,0,0,0,105.83,316Z"/>
            <path class="cls-8" d="M147.17,312c-7.32.12-14.65.63-21.55,3.22l-.16.07c7.16,15,7.75,34.57,3.55,48.56a29.45,29.45,0,0,1-6.09,11.33c12.65,2.21,26.81,1.06,32.31.54,6-.56,14.73-1.44,21.57-6.75a34.35,34.35,0,0,0,2-5.12c4.25-14.17,3.59-34.06-3.84-49.15A119.87,119.87,0,0,0,147.17,312Z"/>
            <path class="cls-26" d="M120.7,325.31c4.22-5.68,15.72-7.16,30.14-8,18.59-1.1,24.88,2.23,26.78,4.36s5.2,12.69,4.49,23-.83,13.36-5.1,15.91-16.6,5.06-24.57,5.25c-15.09.37-22.7-.36-27.75-3.3-2.58-1.5-5.86-9.58-6.38-19.54S118.52,328.25,120.7,325.31Z"/>
            <path class="cls-27" d="M150.31,318.88c-8.95.52-16.72,1.28-22.2,3.19,4.79,13.15,4.82,28.75,1.27,40.29l-.13.39c4.78,1.37,11.63,1.7,22.61,1.44,7.64-.18,19.47-2.52,23.57-4.91a7.25,7.25,0,0,0,3.21-3.31,68.18,68.18,0,0,0-2.36-32.68c-.1-.12-.18-.24-.27-.33C174.19,321,168.16,317.86,150.31,318.88Z"/>
            <path class="cls-5" d="M110.93,334.75c-.25,5.58-3.4,10-7,9.81s-6.37-4.81-6.12-10.39,3.4-10,7-9.81S111.18,329.17,110.93,334.75Z"/>
            <path class="cls-28" d="M108.05,334.33c-.18,3.92-2.1,7-4.31,6.92s-3.84-3.35-3.67-7.27,2.11-7,4.31-6.91S108.23,330.42,108.05,334.33Z"/>
            <path class="cls-29" d="M108.11,334.63l-.37,0,.37,0a13.56,13.56,0,0,0-1.66-7.43,6,6,0,0,0-4.82-3.35c-3.82-.17-7.17,4.39-7.43,10.16s2.65,10.61,6.49,10.78h.2C104.64,344.8,107.86,340.3,108.11,334.63Zm-6.52-10a5.34,5.34,0,0,1,4.22,3,12.93,12.93,0,0,1,1.56,7c-.25,5.37-3.23,9.6-6.65,9.46s-6-4.64-5.77-10,3.12-9.47,6.47-9.47Z"/>
            <path class="cls-8" d="M101.14,347.68l2.67.09s1.13,11,4.32,17.4,7.73,8.51,7.73,8.51-6.83-2.19-10.92-10.54C102,357.13,101.14,347.68,101.14,347.68Z"/>
            <path class="cls-30" d="M123.21,326.15v0a1.41,1.41,0,0,0,2,.47c1.3-.88,3.27-2.19,4.41-2.8,1.8-1,10.68-4.21,10.68-4.21s-8.9.18-16.46,4.24A1.67,1.67,0,0,0,123.21,326.15Z"/>
          </g>
          <path class="cls-31" d="M116.23,333.47c0,1.73-.81,3.13-1.81,3.13s-1.82-1.4-1.82-3.13.81-3.14,1.82-3.14S116.23,331.74,116.23,333.47Z"/>
        </g>
      </g>
      <g id="ojos">
        <g>
          <rect class="cls-32" x="137.81" y="329.21" width="12.82" height="16.58" rx="3.93"/>
          <rect class="cls-32" x="139.15" y="330.99" width="10.14" height="13.01" rx="3.93"/>
          <rect class="cls-33" x="140.86" y="332.67" width="7.03" height="10.13" rx="2.44"/>
          <path class="cls-34" d="M147.15,336.57h-5.78a.28.28,0,1,1,0-.55h5.78a.28.28,0,0,1,0,.55Z"/>
          <path class="cls-34" d="M147.15,337.78h-5.78a.28.28,0,1,1,0-.55h5.78a.28.28,0,0,1,0,.55Z"/>
          <path class="cls-34" d="M147.15,339h-5.78a.28.28,0,1,1,0-.55h5.78a.28.28,0,0,1,0,.55Z"/>
          <path class="cls-34" d="M146.41,334.26h-4.3a.28.28,0,0,1,0-.56h4.3a.28.28,0,1,1,0,.56Z"/>
          <path class="cls-34" d="M147.15,335.51h-5.78a.28.28,0,0,1-.28-.28.27.27,0,0,1,.28-.27h5.78a.27.27,0,0,1,.27.27A.28.28,0,0,1,147.15,335.51Z"/>
          <path class="cls-34" d="M147.15,340.52h-5.78a.28.28,0,1,1,0-.55h5.78a.28.28,0,0,1,0,.55Z"/>
          <path class="cls-34" d="M147.15,341.73h-5.78a.28.28,0,0,1,0-.56h5.78a.28.28,0,0,1,0,.56Z"/>
        </g>
        <g>
          <rect class="cls-32" x="158.25" y="329.21" width="12.82" height="16.58" rx="3.93"/>
          <rect class="cls-32" x="159.59" y="330.99" width="10.14" height="13.01" rx="3.93"/>
          <rect class="cls-33" x="161.3" y="332.67" width="7.03" height="10.13" rx="2.44"/>
          <path class="cls-34" d="M167.58,336.57h-5.77a.28.28,0,1,1,0-.55h5.77a.28.28,0,1,1,0,.55Z"/>
          <path class="cls-34" d="M167.58,337.78h-5.77a.28.28,0,1,1,0-.55h5.77a.28.28,0,1,1,0,.55Z"/>
          <path class="cls-34" d="M167.58,339h-5.77a.28.28,0,1,1,0-.55h5.77a.28.28,0,1,1,0,.55Z"/>
          <path class="cls-34" d="M166.85,334.26h-4.31a.28.28,0,1,1,0-.56h4.31a.28.28,0,1,1,0,.56Z"/>
          <path class="cls-34" d="M167.58,335.51h-5.77a.28.28,0,0,1-.28-.28.27.27,0,0,1,.28-.27h5.77a.27.27,0,0,1,.28.27A.28.28,0,0,1,167.58,335.51Z"/>
          <path class="cls-34" d="M167.58,340.52h-5.77a.28.28,0,1,1,0-.55h5.77a.28.28,0,1,1,0,.55Z"/>
          <path class="cls-34" d="M167.58,341.73h-5.77a.28.28,0,0,1,0-.56h5.77a.28.28,0,0,1,0,.56Z"/>
        </g>
      </g>
      <g id="boca">
        <path class="cls-35" d="M146.89,354.29c5.79.73,16.17,1.3,16.17,1.3s-9.18.93-15.17-.1S140.67,353.51,146.89,354.29Z"/>
      </g>
      <g id="brazoDerecho">
        <g>
          <ellipse class="cls-36" cx="97.42" cy="414.72" rx="11.94" ry="20.85" transform="matrix(0.96, -0.28, 0.28, 0.96, -112.72, 44.15)"/>
          <path class="cls-29" d="M101.19,432a.41.41,0,0,1-.41-.38.4.4,0,0,1,.38-.42,4.62,4.62,0,0,0,3.72-2.58c2.64-4.48,2.13-12.95-1.18-19.69-4-8.05-10.27-11.26-13.86-9.62a.41.41,0,0,1-.54-.19.4.4,0,0,1,.2-.53c4.51-2.07,11.21,2.42,14.93,10,3.42,6.95,3.91,15.74,1.15,20.43a5.49,5.49,0,0,1-4.37,3Z"/>
          <g>
            <path class="cls-6" d="M66.47,452.71c2.66-32.26,13.91-47.29,16.6-50.45a2.66,2.66,0,0,1,1.53-.91c2.24-.42,8.14-.57,14.93,7.07,4.69,5.28,4.51,14.79,4.21,15.28-3.11,5.18-22.64,37.77-27.54,48.71C70.87,484.3,65.33,466.5,66.47,452.71Z"/>
            <path class="cls-7" d="M99.57,408.45a26.63,26.63,0,0,0-6.19-5.29c.7.66,1.43,1.4,2.16,2.23,5.92,6.66,4.15,11.89,2.83,15.49-4.72,12.87-19.67,37.51-22.45,52.22.11-.21.21-.43.32-.66,4.9-10.94,24.43-43.53,27.54-48.71C104.08,423.23,104.26,413.73,99.57,408.45Z"/>
            <path class="cls-8" d="M81.76,413.65c-13.58,12.51-13.1,50.93-13.1,50.93s6.56-27.31,12.68-39.12S86.4,409.37,81.76,413.65Z"/>
            <path class="cls-7" d="M79.15,465.85a39.21,39.21,0,0,0,.53,5.49,9.13,9.13,0,0,0,2.87,2.34c-.11-2.3.45-14.45,2.28-17.74C85.48,454.78,79,463.64,79.15,465.85Z"/>
            <path class="cls-9" d="M85.14,456.29a.38.38,0,0,1-.31-.18c-3.58-5.67-11-9.89-17.66-6.55a.37.37,0,1,1-.34-.66c7.07-3.54,14.87.87,18.63,6.82a.37.37,0,0,1-.12.51A.36.36,0,0,1,85.14,456.29Z"/>
          </g>
          <g>
            <path class="cls-37" d="M89.65,422.78c-.17,5.47-4.34,9.78-9.32,9.63s-8.87-4.7-8.7-10.17,4.34-9.78,9.31-9.63S89.82,417.32,89.65,422.78Z"/>
            <g>
              <path class="cls-38" d="M74.47,423.36c-.12,1.84.92,3.76,2,5.23a18.27,18.27,0,0,0,2.17,2.46s5.74-1.45,7.33-4.71c.33-.69,1.83-5,1.83-5s.46-1-.39-1.51a25.62,25.62,0,0,1-2.92-1.63A8.65,8.65,0,0,0,82.54,417c-.55-.19-.8-.08-1.81,0a33.49,33.49,0,0,1-3.42-.09c-1,0-1.13,1.12-1.13,1.12A55.45,55.45,0,0,0,74.47,423.36Z"/>
              <path class="cls-39" d="M76.18,418a55.45,55.45,0,0,0-1.71,5.34c-.24,3.68,4.16,7.69,4.16,7.69h0s5.75-1.45,7.33-4.72c.33-.68,1.83-5,1.83-5s.46-1-.39-1.51a25.62,25.62,0,0,1-2.92-1.63A8.37,8.37,0,0,0,82.54,417c-.55-.2-.79-.09-1.81,0a31,31,0,0,1-3.42-.08C76.3,416.87,76.18,418,76.18,418Zm.9-.19.85,0a10,10,0,0,0,2.64,0c1.82-.35,2.38.57,3.25,1.19a16.68,16.68,0,0,0,2.24,1.29l.73.37a.71.71,0,0,1,0,.21l0,.06c-.57,1.64-1.57,4.41-1.8,4.87a7.86,7.86,0,0,1-3.75,3.1,19.93,19.93,0,0,1-2.22.87A18,18,0,0,1,77.4,428a8.34,8.34,0,0,1-1.78-4.74A33.57,33.57,0,0,1,77,418.08Z"/>
              <path class="cls-40" d="M74.47,423.36c-.14,2.14,1.28,4.38,2.5,5.89-1.11-1.48-2.24-3.49-2.11-5.4a55.46,55.46,0,0,1,1.7-5.33s.12-1.15,1.13-1.13a31,31,0,0,0,3.43.09c1-.08,1.26-.19,1.81,0a8.16,8.16,0,0,1,1.94,1.24,27.19,27.19,0,0,0,2.91,1.63l.08.05a.94.94,0,0,0-.46-.54,27.47,27.47,0,0,1-2.92-1.64A8.16,8.16,0,0,0,82.54,417c-.55-.2-.8-.09-1.81,0a31,31,0,0,1-3.42-.08c-1,0-1.13,1.12-1.13,1.12A55.45,55.45,0,0,0,74.47,423.36Z"/>
              <path class="cls-39" d="M80.2,423.46a.36.36,0,0,0,.09.33l-.07.27a.07.07,0,0,0,0,.09l.22.06a.08.08,0,0,0,.09-.06l.07-.26a.36.36,0,0,0,.24-.25.35.35,0,0,0-.25-.44A.37.37,0,0,0,80.2,423.46Z"/>
              <path class="cls-39" d="M80.21,421.63l-.14.52,1.59.42.14-.53a.82.82,0,1,0-1.59-.41Z"/>
              <path class="cls-39" d="M77.32,419.29s-1,3.37-1,3.94c-.21,2.73,2.87,5.89,2.87,5.89h0s4.08-1.13,5.23-3.58c.25-.51,1.36-3.72,1.36-3.72s.33-.77-.27-1.11a18.6,18.6,0,0,1-2-1.19c-.35-.26-.67-.47-.93-.63a3.92,3.92,0,0,0-.58-.31h0a2.37,2.37,0,0,0-1.2-.09,19.06,19.06,0,0,1-2.41,0C77.56,418.45,77.32,419.29,77.32,419.29Zm1.46,3a.46.46,0,0,1,.55-.32l.11,0,.14-.52a1.49,1.49,0,0,1,1.8-1.05,1.46,1.46,0,0,1,1,1.79l-.14.52.12,0a.43.43,0,0,1,.31.54l-.54,2a.44.44,0,0,1-.55.32l-3.07-.8a.44.44,0,0,1-.31-.54Z"/>
              <path class="cls-40" d="M76.27,423.23c-.15,2,1.4,4.15,2.28,5.22-.88-1.17-2-3-1.89-4.72,0-.58,1-3.94,1-3.94s.24-.85,1-.84a17.35,17.35,0,0,0,2.41,0,2.31,2.31,0,0,1,1.2.1h0a5,5,0,0,1,.58.32,10.28,10.28,0,0,1,.93.63,15.93,15.93,0,0,0,2,1.15.67.67,0,0,0-.34-.47,16.22,16.22,0,0,1-2-1.18c-.35-.26-.67-.47-.93-.63a3.92,3.92,0,0,0-.58-.31h0a2.17,2.17,0,0,0-1.19-.1,19.2,19.2,0,0,1-2.42,0c-.71,0-1,.83-1,.83S76.32,422.66,76.27,423.23Z"/>
            </g>
          </g>
        </g>
      </g>
    </g>
  </g>
</svg>
