<svg xmlns="http://www.w3.org/2000/svg" xmlns:xlink="http://www.w3.org/1999/xlink" width="1024" height="620" viewBox="0 0 1024 620">
  <defs>
    <style>
      .cls-1 {
        isolation: isolate;
      }

      .cls-2 {
        fill: none;
      }

      .cls-3, .cls-4 {
        fill: #51b2fb;
      }

      .cls-3, .cls-32 {
        opacity: 0.1;
      }

      .cls-4 {
        opacity: 0.2;
      }

      .cls-5 {
        fill: #e3ebfc;
      }

      .cls-6 {
        fill: #ccddfa;
      }

      .cls-7 {
        fill: #fafbff;
      }

      .cls-8 {
        fill: #80a7f6;
      }

      .cls-9 {
        fill: #9fbcfb;
      }

      .cls-10 {
        fill: #b8d0f9;
      }

      .cls-11, .cls-29, .cls-31 {
        fill: #207bff;
      }

      .cls-11, .cls-37 {
        opacity: 0.4;
      }

      .cls-12 {
        fill: #004bff;
        opacity: 0.5;
        mix-blend-mode: multiply;
      }

      .cls-13 {
        fill: #c5d8fa;
      }

      .cls-14 {
        fill: url(#_ÂÁ_Ï_ÌÌ_È_ËÂÌÚ_30);
      }

      .cls-15 {
        fill: #4aebff;
      }

      .cls-16, .cls-30 {
        fill: #fff;
      }

      .cls-17 {
        fill: #bef9ff;
      }

      .cls-18 {
        fill: url(#linear-gradient);
      }

      .cls-19 {
        fill: #ec1c24;
      }

      .cls-20 {
        fill: url(#linear-gradient-2);
      }

      .cls-21 {
        fill: url(#linear-gradient-3);
      }

      .cls-22 {
        fill: url(#linear-gradient-4);
      }

      .cls-23 {
        fill: url(#linear-gradient-5);
      }

      .cls-24 {
        fill: url(#linear-gradient-6);
      }

      .cls-25 {
        fill: url(#linear-gradient-7);
      }

      .cls-26 {
        fill: url(#_ÂÁ_Ï_ÌÌ_È_ËÂÌÚ_14);
      }

      .cls-27 {
        fill: url(#_ÂÁ_Ï_ÌÌ_È_ËÂÌÚ_18);
      }

      .cls-28 {
        fill: #4880f8;
      }

      .cls-30 {
        opacity: 0.8;
      }

      .cls-31 {
        opacity: 0.72;
      }

      .cls-32, .cls-33, .cls-34, .cls-35 {
        fill: #3ae6fb;
      }

      .cls-33 {
        opacity: 0.3;
      }

      .cls-35 {
        opacity: 0.7;
      }

      .cls-36 {
        fill: #93b4fb;
      }

      .cls-37 {
        mix-blend-mode: lighten;
        fill: url(#radial-gradient);
      }

      .cls-38 {
        fill: #00ffda;
      }

      .cls-39 {
        fill: #7fd1ca;
      }

      .cls-40 {
        fill: #1e1e1e;
      }
    </style>
    <radialGradient id="_ÂÁ_Ï_ÌÌ_È_ËÂÌÚ_30" data-name="¡ÂÁ˚ÏˇÌÌ˚È „‡‰ËÂÌÚ 30" cx="4402.49" cy="373.64" r="5.78" gradientTransform="translate(-4284.51)" gradientUnits="userSpaceOnUse">
      <stop offset="0" stop-color="#4aebff"/>
      <stop offset="1" stop-color="#00709e"/>
    </radialGradient>
    <linearGradient id="linear-gradient" x1="82.28" y1="272.65" x2="82.28" y2="304.53" gradientTransform="translate(45.19)" gradientUnits="userSpaceOnUse">
      <stop offset="0.02" stop-color="#dd2a21"/>
      <stop offset="0.06" stop-color="#c8201b"/>
      <stop offset="0.1" stop-color="#b71717"/>
      <stop offset="0.15" stop-color="#ac1113"/>
      <stop offset="0.22" stop-color="#a50e12"/>
      <stop offset="0.43" stop-color="#a30d11"/>
      <stop offset="0.79" stop-color="#6b0006"/>
    </linearGradient>
    <linearGradient id="linear-gradient-2" x1="73.03" y1="274.08" x2="73.03" y2="296.96" gradientTransform="translate(45.19)" gradientUnits="userSpaceOnUse">
      <stop offset="0" stop-color="#ad1a27"/>
      <stop offset="0.08" stop-color="#9e151f"/>
      <stop offset="0.28" stop-color="#7d090e"/>
      <stop offset="0.44" stop-color="#680304"/>
      <stop offset="0.56" stop-color="#610000"/>
      <stop offset="0.73" stop-color="#520000"/>
      <stop offset="1" stop-color="#3f0000"/>
    </linearGradient>
    <linearGradient id="linear-gradient-3" x1="862.66" y1="285.86" x2="877.66" y2="285.86" gradientTransform="matrix(-1, 0, 0, 1, 1015.73, 0)" gradientUnits="userSpaceOnUse">
      <stop offset="0" stop-color="#be1349"/>
      <stop offset="0.24" stop-color="#be124e"/>
      <stop offset="0.25" stop-color="#be124e"/>
      <stop offset="1" stop-color="#7a0025"/>
    </linearGradient>
    <linearGradient id="linear-gradient-4" x1="857.93" y1="293.46" x2="877.73" y2="293.46" gradientTransform="matrix(-1, 0, 0, 1, 1015.73, 0)" gradientUnits="userSpaceOnUse">
      <stop offset="0" stop-color="#282881"/>
      <stop offset="0.27" stop-color="#26257d"/>
      <stop offset="0.55" stop-color="#1f1b70"/>
      <stop offset="0.84" stop-color="#150c5b"/>
      <stop offset="1" stop-color="#0d004c"/>
    </linearGradient>
    <linearGradient id="linear-gradient-5" x1="862.61" y1="293.46" x2="877.66" y2="293.46" xlink:href="#linear-gradient-3"/>
    <linearGradient id="linear-gradient-6" x1="865.66" y1="285.79" x2="884.57" y2="285.79" xlink:href="#linear-gradient-4"/>
    <linearGradient id="linear-gradient-7" x1="87.46" y1="292.7" x2="87.46" y2="281.87" gradientTransform="translate(45.19)" gradientUnits="userSpaceOnUse">
      <stop offset="0" stop-color="#ed2d24"/>
      <stop offset="0.12" stop-color="#ed2824"/>
      <stop offset="0.25" stop-color="#ec1c24"/>
      <stop offset="1" stop-color="#74020d"/>
    </linearGradient>
    <linearGradient id="_ÂÁ_Ï_ÌÌ_È_ËÂÌÚ_14" data-name="¡ÂÁ˚ÏˇÌÌ˚È „‡‰ËÂÌÚ 14" x1="4359.35" y1="415.5" x2="4423.69" y2="415.5" gradientTransform="translate(-4295.07 14.34) rotate(-2.88)" gradientUnits="userSpaceOnUse">
      <stop offset="0" stop-color="#003a6b"/>
      <stop offset="1" stop-color="#00204c"/>
    </linearGradient>
    <linearGradient id="_ÂÁ_Ï_ÌÌ_È_ËÂÌÚ_18" data-name="¡ÂÁ˚ÏˇÌÌ˚È „‡‰ËÂÌÚ 18" x1="4381.89" y1="181.56" x2="4414.49" y2="236.48" gradientTransform="translate(-4284.51)" gradientUnits="userSpaceOnUse">
      <stop offset="0" stop-color="#cbd7e1"/>
      <stop offset="0.05" stop-color="#aec0d0"/>
      <stop offset="0.15" stop-color="#7998b2"/>
      <stop offset="0.26" stop-color="#4e7698"/>
      <stop offset="0.35" stop-color="#2c5c85"/>
      <stop offset="0.44" stop-color="#144976"/>
      <stop offset="0.53" stop-color="#053e6e"/>
      <stop offset="0.6" stop-color="#003a6b"/>
      <stop offset="1" stop-color="#00204c"/>
    </linearGradient>
    <radialGradient id="radial-gradient" cx="2909.23" cy="373.32" r="12.24" gradientTransform="matrix(0.74, 0.02, -0.03, 0.82, -2103.65, -82.03)" gradientUnits="userSpaceOnUse">
      <stop offset="0" stop-color="#00ddde" stop-opacity="0.52"/>
      <stop offset="0.09" stop-color="#2de6e7" stop-opacity="0.65"/>
      <stop offset="0.2" stop-color="#63f1f1" stop-opacity="0.8"/>
      <stop offset="0.3" stop-color="#8af8f9" stop-opacity="0.91"/>
      <stop offset="0.38" stop-color="#a2fdfd" stop-opacity="0.98"/>
      <stop offset="0.43" stop-color="#abffff"/>
      <stop offset="0.46" stop-color="#9ffcfd"/>
      <stop offset="0.51" stop-color="#7ff6f6"/>
      <stop offset="0.58" stop-color="#4aebeb"/>
      <stop offset="0.66" stop-color="#03dcdd"/>
      <stop offset="0.66" stop-color="#00dbdc"/>
      <stop offset="0.69" stop-color="#08dcdd" stop-opacity="0.97"/>
      <stop offset="0.74" stop-color="#1fdfe0" stop-opacity="0.88"/>
      <stop offset="0.8" stop-color="#44e5e5" stop-opacity="0.73"/>
      <stop offset="0.87" stop-color="#78eced" stop-opacity="0.53"/>
      <stop offset="0.94" stop-color="#baf5f6" stop-opacity="0.27"/>
      <stop offset="1" stop-color="#fff" stop-opacity="0"/>
    </radialGradient>
  </defs>
  <title>robot2</title>
  <g class="cls-1">
    <g id="Robot">
      <g id="fondo">
        <rect class="cls-2" width="1024" height="620"/>
      </g>
      <g id="sombra">
        <g>
          <ellipse class="cls-3" cx="102.49" cy="406.83" rx="46.37" ry="10.41"/>
          <path class="cls-4" d="M138.61,406.83c0,3.66-16.17,6.62-36.12,6.62s-36.12-3-36.12-6.62,16.17-6.62,36.12-6.62S138.61,403.18,138.61,406.83Z"/>
          <path class="cls-4" d="M124.23,406.83c0,2.2-9.73,4-21.74,4s-21.75-1.79-21.75-4,9.74-4,21.75-4S124.23,404.63,124.23,406.83Z"/>
        </g>
      </g>
      <g id="brazoIzquierdo">
        <g>
          <g>
            <path class="cls-5" d="M181.22,306.54c-6.78-32.22-19.93-46-23-48.81a2.61,2.61,0,0,0-1.65-.71c-2.29-.15-8.2.44-14,9-4,5.92-2.61,15.48-2.25,16,3.77,4.82,27.42,35.24,33.7,45.65C180.85,339,184.11,320.3,181.22,306.54Z"/>
            <path class="cls-6" d="M142.53,266.06A26.72,26.72,0,0,1,148,260a29,29,0,0,0-1.89,2.52c-5.05,7.46-2.62,12.52-.85,16,6.37,12.39,24.43,35.36,29.08,49.85l-.4-.64c-6.29-10.41-29.94-40.82-33.7-45.65C139.91,281.55,138.52,272,142.53,266.06Z"/>
            <path class="cls-7" d="M161,269.06c15.16,10.91,19.58,49.72,19.58,49.72s-10-26.71-17.64-37.86S155.79,265.33,161,269.06Z"/>
            <path class="cls-6" d="M170.23,321.39a42.36,42.36,0,0,1,.18,5.6,9.5,9.5,0,0,1-2.57,2.73c-.19-2.34-2.29-14.52-4.54-17.61C162.5,311,170.15,319.14,170.23,321.39Z"/>
            <path class="cls-8" d="M163,312.5a.37.37,0,0,0,.29-.22c2.85-6.17,9.71-11.36,16.79-8.83a.39.39,0,0,0,.48-.23.37.37,0,0,0-.22-.48c-7.51-2.68-14.74,2.75-17.73,9.23a.39.39,0,0,0,.19.5A.34.34,0,0,0,163,312.5Z"/>
          </g>
          <path class="cls-9" d="M158.75,272.05c-.88,10.06-5.09,17.91-9.42,17.53s-7.12-8.83-6.25-18.89,5.08-17.76,9.41-17.53C158.75,253.49,159.62,262,158.75,272.05Z"/>
        </g>
      </g>
      <g id="torso">
        <g>
          <path class="cls-5" d="M60.56,249.08c-4.49-.29-20.33,15.59-15.56,31s31.75,66.84,37.86,84.85,9.77,22.44,18.46,24.07,21.83,2.23,37.05-29.56S155.93,292,156.62,275s-1.08-23.7-7-25.63C135.79,244.86,60.56,249.08,60.56,249.08Z"/>
          <path class="cls-7" d="M132.23,355.7c11.8-33.44,10.38-69.38,9.28-86.41-.73-11.32-2.06-18-4.67-21.59-12.57-.71-30.94-.4-46.5.1,8.32,22,20.62,58.93,22.67,97,1.36,25.41-2.15,37.83-7,44.18C113.93,387.41,123.44,380.58,132.23,355.7Z"/>
          <path class="cls-10" d="M150.93,250.78c0,3.29-23.28,8.41-46.77,8.45s-46.8-5-46.8-8.3,23.29-3.59,46.78-3.63S150.93,247.48,150.93,250.78Z"/>
          <path class="cls-11" d="M136.73,251.45c0,2.28-16,5.82-32.22,5.85s-32.23-3.46-32.24-5.74,16-2.49,32.23-2.52S136.73,249.17,136.73,251.45Z"/>
          <path class="cls-12" d="M126.88,252.63c0,.88-11.06,2-21.84,2s-21.1-1-21.1-1.92,10.32-1.22,21.1-1.24S126.88,251.76,126.88,252.63Z"/>
          <path class="cls-13" d="M92.52,368.65C90,355.17,86.31,311.1,77.45,280c-4.44-15.59-14.89-26.59-25-23.1-7.18,2.47-10,14.85-7.44,23.18,4.76,15.41,31.75,66.84,37.86,84.85s9.77,22.44,18.46,24.07c4.48.84,10.13,1.39,16.64-2.59C109.15,387.79,96.66,391,92.52,368.65Z"/>
          <path class="cls-14" d="M123.62,375.21a15.79,15.79,0,0,1-5.35.88,24.63,24.63,0,0,1-6-.43,2.4,2.4,0,0,1-2.09-2.23h0a2.16,2.16,0,0,1,2.09-2.22s4.61.52,5.73.5a40.64,40.64,0,0,0,5.82-.54c1.15,0,2.23.34,1.88,2A2.85,2.85,0,0,1,123.62,375.21Z"/>
          <path class="cls-15" d="M122.88,375a16.63,16.63,0,0,1-4.63.62,24.94,24.94,0,0,1-5.17-.31c-1-.2-1.81-.72-1.81-1.59h0a1.71,1.71,0,0,1,1.81-1.58s4,.37,5,.36a43,43,0,0,0,5-.39c1,0,1.93.25,1.63,1.42C124.55,374.05,124.09,374.59,122.88,375Z"/>
          <path class="cls-8" d="M117,365.05c-10.58,0-23.56-2.3-37.56-8.05a.37.37,0,1,1,.29-.69c26.08,10.72,48.52,9.36,58.33,3.56a.37.37,0,1,1,.38.64C133.75,363.27,126.29,365.05,117,365.05Z"/>
          <path class="cls-16" d="M116.7,364.21c-10.59,0-23.56-2.29-37.56-8a.38.38,0,0,1-.21-.49.37.37,0,0,1,.49-.2c26.08,10.72,48.52,9.36,58.34,3.56a.37.37,0,0,1,.51.13.36.36,0,0,1-.13.51C133.47,362.43,126,364.21,116.7,364.21Z"/>
          <path class="cls-7" d="M154.65,257.77c2,40.75-3.87,60-3.87,60s5.61-30.79.43-60.55C150.5,253.17,154.34,251.4,154.65,257.77Z"/>
          <path class="cls-16" d="M61,254.93s4.64,2.79,21.59,4.36,39.28,1.28,39.28,1.28-20.57,2.72-39.36.7S61,254.93,61,254.93Z"/>
          <path class="cls-17" d="M120.75,372.34c-.82.07-1.78.12-2.72.13s-5-.36-5-.36a1.58,1.58,0,0,0-.38,0l1.83,3.33a34.13,34.13,0,0,0,3.72.11,16.77,16.77,0,0,0,4.31-.54Z"/>
          <g>
            <path class="cls-18" d="M116.67,285.7a14.39,14.39,0,0,1,9-13.34c.54,0,1.08.11,1.6.2a13.25,13.25,0,0,1,11,12.63c0,.14,0,.29,0,.43v.15h0A8.21,8.21,0,0,0,127.39,278c.81-.29.78-.29,0,0a7.75,7.75,0,0,0-2.77-.49,7.87,7.87,0,0,0-7.84,8.14v.07a7.74,7.74,0,0,0,7.77,8.06,7.92,7.92,0,0,0,2.52-.41,8.21,8.21,0,0,0,11.26-7.49,13.12,13.12,0,0,1-10.94,12.9,15.42,15.42,0,0,1-1.68.21A14.41,14.41,0,0,1,116.67,285.7Z"/>
            <path class="cls-19" d="M121.86,285.79a8.22,8.22,0,0,0,5.16,7.63,7.92,7.92,0,0,1-2.52.41,7.74,7.74,0,0,1-7.77-8.06v-.07a7.87,7.87,0,0,1,7.84-8.14,7.75,7.75,0,0,1,2.77.49c.83-.31.86-.31,0,0A8.21,8.21,0,0,0,121.86,285.79Z"/>
            <path class="cls-20" d="M124.5,272.31c.39,0,.77,0,1.15.05a14.4,14.4,0,0,0,0,26.68c-.36,0-.72,0-1.09,0a13.38,13.38,0,0,1-13.79-13.38v-.08C110.78,278.26,116.51,272.31,124.5,272.31Z"/>
            <path class="cls-21" d="M138.28,285.79v0Z"/>
            <path class="cls-22" d="M127.25,293.34c.86.31.85.32,0,0Z"/>
            <path class="cls-23" d="M127.25,293.34c.86.31.85.32,0,0Z"/>
            <path class="cls-24" d="M130.07,294a8.16,8.16,0,0,1-3-.59l.23-.08c.85.32.86.31,0,0a8,8,0,0,0,5.29-7.64v-.08a7.88,7.88,0,0,0-5.2-7.57l0,0a8.21,8.21,0,0,1,10.89,7.75v.15A8.21,8.21,0,0,1,130.07,294Z"/>
            <path class="cls-25" d="M130.07,294a8.16,8.16,0,0,1-3-.59l.23-.08c.85.32.86.31,0,0a8,8,0,0,0,5.29-7.64v-.08a7.88,7.88,0,0,0-5.2-7.57l0,0a8.21,8.21,0,0,1,10.89,7.75v.15A8.21,8.21,0,0,1,130.07,294Z"/>
          </g>
        </g>
      </g>
      <g id="cabeza">
        <g>
          <g>
            <path class="cls-5" d="M64.12,236.55c10.69,13.76,43.41,11.14,52.53,10.27s24.56-2.46,30.13-19.24,2.78-42.39-12.52-55.7S78,160.74,64.12,178.68,60.41,231.77,64.12,236.55Z"/>
            <path class="cls-16" d="M66.94,182.34c.62-.22,13.25-10,36.13-12,7.88-.67,20.15,0,28,1.1-.78-.83-12.1-7.37-35.44-4.94A46.06,46.06,0,0,0,66.94,182.34Z"/>
            <path class="cls-7" d="M108.54,178.27c-7.36.12-14.74.64-21.68,3.28l-.17.06c7.21,15.27,7.8,35.16,3.58,49.38a30,30,0,0,1-6.13,11.52c12.73,2.25,27,1.08,32.51.55,6-.57,14.83-1.47,21.71-6.86a36.28,36.28,0,0,0,2-5.21c4.27-14.41,3.61-34.63-3.87-50A118.61,118.61,0,0,0,108.54,178.27Z"/>
            <path class="cls-26" d="M81.91,191.82c4.25-5.77,15.82-7.28,30.32-8.14,18.71-1.12,25,2.27,27,4.43s5.23,12.91,4.52,23.35-.83,13.58-5.13,16.18-16.7,5.14-24.72,5.34c-15.19.37-22.85-.38-27.93-3.36-2.6-1.52-5.9-9.74-6.42-19.87S79.71,194.82,81.91,191.82Z"/>
            <path class="cls-27" d="M111.71,185.29c-9,.52-16.84,1.3-22.34,3.24,4.81,13.37,4.84,29.23,1.27,41,0,.13-.09.26-.13.39,4.81,1.39,11.7,1.73,22.75,1.46,7.69-.18,19.59-2.56,23.72-5a7.37,7.37,0,0,0,3.23-3.37,70,70,0,0,0-2.38-33.23,2.52,2.52,0,0,0-.27-.34C135.73,187.41,129.66,184.25,111.71,185.29Z"/>
            <path class="cls-9" d="M72.07,201.42c-.25,5.68-3.42,10.14-7.07,10s-6.42-4.89-6.17-10.57,3.42-10.14,7.08-10S72.33,195.75,72.07,201.42Z"/>
            <path class="cls-28" d="M69.18,201c-.18,4-2.12,7.13-4.34,7s-3.87-3.41-3.69-7.39,2.12-7.13,4.33-7S69.35,197,69.18,201Z"/>
            <path class="cls-29" d="M69.24,201.3l-.38,0,.38,0a14,14,0,0,0-1.67-7.56c-1.23-2.11-2.95-3.32-4.85-3.4-3.85-.17-7.21,4.46-7.47,10.33s2.66,10.79,6.52,11H62C65.74,211.64,69,207.06,69.24,201.3Zm-6.56-10.21c1.64.07,3.14,1.15,4.24,3a13.14,13.14,0,0,1,1.57,7.14c-.24,5.46-3.25,9.76-6.69,9.62s-6-4.72-5.8-10.17,3.13-9.63,6.5-9.63Z"/>
            <path class="cls-7" d="M62.22,214.57l2.69.09s1.14,11.15,4.35,17.7S77,241,77,241s-6.88-2.22-11-10.71C63.08,224.18,62.22,214.57,62.22,214.57Z"/>
            <path class="cls-30" d="M84.43,192.68h0a1.43,1.43,0,0,0,2,.49c1.3-.9,3.29-2.23,4.43-2.85,1.81-1,10.75-4.28,10.75-4.28s-9,.18-16.56,4.31A1.7,1.7,0,0,0,84.43,192.68Z"/>
          </g>
          <path class="cls-31" d="M77.41,200.12c0,1.76-.82,3.18-1.83,3.18s-1.82-1.42-1.82-3.18.82-3.19,1.82-3.19S77.41,198.36,77.41,200.12Z"/>
        </g>
      </g>
      <g id="ojos">
        <g>
          <rect class="cls-32" x="99.12" y="195.79" width="12.9" height="16.86" rx="3.93"/>
          <rect class="cls-32" x="100.48" y="197.6" width="10.2" height="13.23" rx="3.93"/>
          <rect class="cls-33" x="102.19" y="199.3" width="7.08" height="10.3" rx="2.44"/>
          <path class="cls-34" d="M108.52,203.27H102.7a.28.28,0,0,1-.28-.28.29.29,0,0,1,.28-.28h5.82a.29.29,0,0,1,.28.28A.28.28,0,0,1,108.52,203.27Z"/>
          <path class="cls-34" d="M108.52,204.5H102.7a.28.28,0,0,1-.28-.28.29.29,0,0,1,.28-.28h5.82a.29.29,0,0,1,.28.28A.28.28,0,0,1,108.52,204.5Z"/>
          <path class="cls-34" d="M108.52,205.78H102.7a.29.29,0,0,1,0-.57h5.82a.29.29,0,0,1,0,.57Z"/>
          <path class="cls-34" d="M107.78,200.92h-4.33a.29.29,0,0,1-.29-.28.28.28,0,0,1,.29-.28h4.33a.28.28,0,0,1,.28.28A.29.29,0,0,1,107.78,200.92Z"/>
          <path class="cls-34" d="M108.52,202.19H102.7a.28.28,0,0,1-.28-.28.29.29,0,0,1,.28-.28h5.82a.29.29,0,0,1,.28.28A.28.28,0,0,1,108.52,202.19Z"/>
          <path class="cls-34" d="M108.52,207.29H102.7a.29.29,0,0,1-.28-.28.28.28,0,0,1,.28-.28h5.82a.28.28,0,0,1,.28.28A.29.29,0,0,1,108.52,207.29Z"/>
          <path class="cls-34" d="M108.52,208.52H102.7a.29.29,0,0,1,0-.57h5.82a.29.29,0,0,1,0,.57Z"/>
        </g>
        <g>
          <rect class="cls-32" x="119.69" y="195.79" width="12.9" height="16.86" rx="3.93"/>
          <rect class="cls-32" x="121.04" y="197.6" width="10.2" height="13.23" rx="3.93"/>
          <rect class="cls-33" x="122.76" y="199.3" width="7.08" height="10.3" rx="2.44"/>
          <path class="cls-34" d="M129.08,203.27h-5.81A.27.27,0,0,1,123,203a.28.28,0,0,1,.28-.28h5.81a.28.28,0,0,1,.28.28A.27.27,0,0,1,129.08,203.27Z"/>
          <path class="cls-34" d="M129.08,204.5h-5.81a.27.27,0,0,1-.28-.28.28.28,0,0,1,.28-.28h5.81a.28.28,0,0,1,.28.28A.27.27,0,0,1,129.08,204.5Z"/>
          <path class="cls-34" d="M129.08,205.78h-5.81a.29.29,0,0,1,0-.57h5.81a.29.29,0,0,1,0,.57Z"/>
          <path class="cls-34" d="M128.34,200.92H124a.28.28,0,0,1-.28-.28.27.27,0,0,1,.28-.28h4.33a.27.27,0,0,1,.28.28A.28.28,0,0,1,128.34,200.92Z"/>
          <path class="cls-34" d="M129.08,202.19h-5.81a.27.27,0,0,1-.28-.28.28.28,0,0,1,.28-.28h5.81a.28.28,0,0,1,.28.28A.27.27,0,0,1,129.08,202.19Z"/>
          <path class="cls-34" d="M129.08,207.29h-5.81A.28.28,0,0,1,123,207a.27.27,0,0,1,.28-.28h5.81a.27.27,0,0,1,.28.28A.28.28,0,0,1,129.08,207.29Z"/>
          <path class="cls-34" d="M129.08,208.52h-5.81a.29.29,0,0,1,0-.57h5.81a.29.29,0,0,1,0,.57Z"/>
        </g>
      </g>
      <g id="boca">
        <path class="cls-35" d="M108.26,221.3c5.83.74,16.27,1.31,16.27,1.31s-9.24.94-15.26-.09S102,220.5,108.26,221.3Z"/>
      </g>
      <g id="brazoDerecho">
        <g>
          <path class="cls-36" d="M70,279.42c3.23,11.25.68,21.85-5.71,23.68s-14.17-5.8-17.4-17-.67-21.85,5.71-23.68S66.8,268.18,70,279.42Z"/>
          <path class="cls-29" d="M62.28,300.32a.41.41,0,0,1-.42-.38.42.42,0,0,1,.38-.43A4.65,4.65,0,0,0,66,296.89c2.66-4.56,2.15-13.16-1.19-20-4-8.19-10.33-11.46-13.95-9.79a.41.41,0,0,1-.34-.74c4.54-2.1,11.28,2.47,15,10.17,3.44,7.08,3.94,16,1.16,20.78a5.48,5.48,0,0,1-4.4,3Z"/>
          <g>
            <path class="cls-5" d="M27.34,321.37c2.68-32.81,14-48.09,16.7-51.3a2.63,2.63,0,0,1,1.54-.92c2.26-.44,8.19-.59,15,7.18,4.72,5.37,4.54,15,4.24,15.54-3.13,5.26-22.78,38.4-27.71,49.52C31.77,353.48,26.19,335.39,27.34,321.37Z"/>
            <path class="cls-6" d="M60.64,276.36A26.59,26.59,0,0,0,54.41,271c.71.67,1.44,1.41,2.18,2.26,6,6.77,4.18,12.09,2.85,15.75-4.75,13.09-19.8,38.14-22.59,53.1l.32-.68c4.93-11.12,24.58-44.26,27.71-49.52C65.18,291.4,65.36,281.73,60.64,276.36Z"/>
            <path class="cls-7" d="M42.73,281.65c-13.67,12.72-13.18,51.78-13.18,51.78s6.59-27.76,12.75-39.77S47.39,277.3,42.73,281.65Z"/>
            <path class="cls-6" d="M40.1,334.73a40.53,40.53,0,0,0,.53,5.58c.13.5,2.9,2.65,2.88,2.38-.1-2.34.46-14.69,2.3-18C46.46,323.47,39.9,332.48,40.1,334.73Z"/>
            <path class="cls-8" d="M46.13,325a.37.37,0,0,1-.32-.17c-3.6-5.77-11.05-10.06-17.77-6.67a.37.37,0,0,1-.5-.16.37.37,0,0,1,.16-.5c7.12-3.6,15,.88,18.74,6.93a.36.36,0,0,1-.12.51A.35.35,0,0,1,46.13,325Z"/>
          </g>
          <g>
            <path class="cls-37" d="M50.66,290.94c-.17,5.56-4.36,9.94-9.37,9.79s-8.93-4.79-8.76-10.34,4.36-9.95,9.37-9.8S50.83,285.38,50.66,290.94Z"/>
            <g>
              <path class="cls-38" d="M35.39,291.52a8.8,8.8,0,0,0,2,5.32,18.88,18.88,0,0,0,2.18,2.51s5.78-1.48,7.38-4.8c.33-.7,1.84-5.05,1.84-5.05s.46-1.05-.39-1.53a26.34,26.34,0,0,1-2.94-1.66,8.21,8.21,0,0,0-2-1.26c-.56-.2-.8-.08-1.82,0a31.4,31.4,0,0,1-3.45-.09c-1,0-1.13,1.15-1.13,1.15A55.8,55.8,0,0,0,35.39,291.52Z"/>
              <path class="cls-39" d="M37.11,286.1a56.71,56.71,0,0,0-1.72,5.42c-.24,3.75,4.18,7.83,4.18,7.83h0s5.79-1.48,7.38-4.8c.33-.7,1.84-5.05,1.84-5.05s.46-1.05-.39-1.53a27.26,27.26,0,0,1-2.94-1.66,8.21,8.21,0,0,0-2-1.26c-.56-.2-.8-.09-1.82,0a31.4,31.4,0,0,1-3.45-.09C37.23,284.92,37.11,286.1,37.11,286.1Zm.91-.2.85,0a10.12,10.12,0,0,0,2.65,0c1.84-.35,2.4.58,3.28,1.21a16,16,0,0,0,2.25,1.31l.73.38a.78.78,0,0,1,0,.21l0,.07c-.58,1.66-1.59,4.48-1.81,4.95a8,8,0,0,1-3.78,3.14,18.83,18.83,0,0,1-2.23.89,17.54,17.54,0,0,1-1.56-1.88,8.66,8.66,0,0,1-1.8-4.82,35.6,35.6,0,0,1,1.4-5.26A2.5,2.5,0,0,1,38,285.9Z"/>
              <path class="cls-40" d="M35.39,291.52c-.14,2.17,1.29,4.46,2.52,6C36.78,296,35.65,294,35.78,292a56.43,56.43,0,0,1,1.71-5.43s.13-1.17,1.14-1.15a31.4,31.4,0,0,0,3.45.09c1-.07,1.26-.19,1.82,0a8.21,8.21,0,0,1,2,1.26,27.2,27.2,0,0,0,2.93,1.66l.08,0a.91.91,0,0,0-.47-.55,29,29,0,0,1-2.93-1.66,8.21,8.21,0,0,0-2-1.26c-.56-.2-.8-.09-1.82,0a31.4,31.4,0,0,1-3.45-.09c-1,0-1.14,1.15-1.14,1.15S35.44,290.74,35.39,291.52Z"/>
              <path class="cls-39" d="M41.16,291.62a.35.35,0,0,0,.08.34l-.07.27a.08.08,0,0,0,.06.1l.21.05a.08.08,0,0,0,.1-.05l.07-.27a.37.37,0,0,0,.24-.26.36.36,0,1,0-.69-.18Z"/>
              <path class="cls-39" d="M41.16,289.76l-.14.53,1.6.43.14-.54a.82.82,0,0,0-.59-1A.83.83,0,0,0,41.16,289.76Z"/>
              <path class="cls-39" d="M38.25,287.39s-1,3.42-1,4c-.21,2.78,2.89,6,2.89,6h0s4.1-1.15,5.26-3.64c.25-.52,1.37-3.78,1.37-3.78s.33-.79-.27-1.14a18,18,0,0,1-2.07-1.2c-.35-.26-.67-.48-.93-.64a3.36,3.36,0,0,0-.59-.32h0a2.24,2.24,0,0,0-1.21-.1,17.64,17.64,0,0,1-2.43,0C38.5,286.53,38.25,287.39,38.25,287.39Zm1.48,3a.45.45,0,0,1,.55-.32l.11,0,.14-.53a1.48,1.48,0,1,1,2.86.75l-.14.53.12,0a.44.44,0,0,1,.31.55l-.54,2.08a.46.46,0,0,1-.55.33l-3.09-.82a.45.45,0,0,1-.32-.55Z"/>
              <path class="cls-40" d="M37.2,291.39c-.15,2,1.41,4.22,2.29,5.31-.89-1.19-2-3.08-1.9-4.81,0-.58,1-4,1-4s.25-.86,1-.85a17.64,17.64,0,0,0,2.43,0,2.29,2.29,0,0,1,1.2.1h0a5.72,5.72,0,0,1,.59.32c.26.16.58.38.94.64a16,16,0,0,0,2,1.18.67.67,0,0,0-.34-.48,16.61,16.61,0,0,1-2.06-1.2c-.36-.26-.68-.48-.94-.64a4.23,4.23,0,0,0-.59-.32h0a2.24,2.24,0,0,0-1.21-.1,19.22,19.22,0,0,1-2.42,0c-.72,0-1,.85-1,.85S37.25,290.81,37.2,291.39Z"/>
            </g>
          </g>
        </g>
      </g>
    </g>
  </g>
</svg>
