<svg xmlns="http://www.w3.org/2000/svg" xmlns:xlink="http://www.w3.org/1999/xlink" width="1025" height="620" viewBox="0 0 1025 620">
  <defs>
    <style>
      .cls-1 {
        isolation: isolate;
      }

      .cls-2 {
        fill: none;
      }

      .cls-3, .cls-4 {
        fill: #51b2fb;
      }

      .cls-3, .cls-32 {
        opacity: 0.1;
      }

      .cls-4 {
        opacity: 0.2;
      }

      .cls-5 {
        fill: #e3ebfc;
      }

      .cls-6 {
        fill: #ccddfa;
      }

      .cls-7 {
        fill: #fafbff;
      }

      .cls-8 {
        fill: #80a7f6;
      }

      .cls-9 {
        fill: #9fbcfb;
      }

      .cls-10 {
        fill: #b8d0f9;
      }

      .cls-11, .cls-29, .cls-31 {
        fill: #207bff;
      }

      .cls-11, .cls-37 {
        opacity: 0.4;
      }

      .cls-12 {
        fill: #004bff;
        opacity: 0.5;
        mix-blend-mode: multiply;
      }

      .cls-13 {
        fill: #c5d8fa;
      }

      .cls-14 {
        fill: url(#_ÂÁ_Ï_ÌÌ_È_ËÂÌÚ_30);
      }

      .cls-15 {
        fill: #4aebff;
      }

      .cls-16, .cls-30 {
        fill: #fff;
      }

      .cls-17 {
        fill: #bef9ff;
      }

      .cls-18 {
        fill: url(#linear-gradient);
      }

      .cls-19 {
        fill: #ec1c24;
      }

      .cls-20 {
        fill: url(#linear-gradient-2);
      }

      .cls-21 {
        fill: url(#linear-gradient-3);
      }

      .cls-22 {
        fill: url(#linear-gradient-4);
      }

      .cls-23 {
        fill: url(#linear-gradient-5);
      }

      .cls-24 {
        fill: url(#linear-gradient-6);
      }

      .cls-25 {
        fill: url(#linear-gradient-7);
      }

      .cls-26 {
        fill: url(#_ÂÁ_Ï_ÌÌ_È_ËÂÌÚ_14);
      }

      .cls-27 {
        fill: url(#_ÂÁ_Ï_ÌÌ_È_ËÂÌÚ_18);
      }

      .cls-28 {
        fill: #4880f8;
      }

      .cls-30 {
        opacity: 0.8;
      }

      .cls-31 {
        opacity: 0.72;
      }

      .cls-32, .cls-33, .cls-34, .cls-35 {
        fill: #3ae6fb;
      }

      .cls-33 {
        opacity: 0.3;
      }

      .cls-35 {
        opacity: 0.7;
      }

      .cls-36 {
        fill: #93b4fb;
      }

      .cls-37 {
        mix-blend-mode: lighten;
        fill: url(#radial-gradient);
      }

      .cls-38 {
        fill: #00ffda;
      }

      .cls-39 {
        fill: #7fd1ca;
      }

      .cls-40 {
        fill: #1e1e1e;
      }
    </style>
    <radialGradient id="_ÂÁ_Ï_ÌÌ_È_ËÂÌÚ_30" data-name="¡ÂÁ˚ÏˇÌÌ˚È „‡‰ËÂÌÚ 30" cx="4389.22" cy="278.67" r="5.26" gradientTransform="translate(-4284.51)" gradientUnits="userSpaceOnUse">
      <stop offset="0" stop-color="#4aebff"/>
      <stop offset="1" stop-color="#00709e"/>
    </radialGradient>
    <linearGradient id="linear-gradient" x1="68.15" y1="186.89" x2="68.15" y2="215.87" gradientTransform="translate(45.19)" gradientUnits="userSpaceOnUse">
      <stop offset="0.02" stop-color="#dd2a21"/>
      <stop offset="0.06" stop-color="#c8201b"/>
      <stop offset="0.1" stop-color="#b71717"/>
      <stop offset="0.15" stop-color="#ac1113"/>
      <stop offset="0.22" stop-color="#a50e12"/>
      <stop offset="0.43" stop-color="#a30d11"/>
      <stop offset="0.79" stop-color="#6b0006"/>
    </linearGradient>
    <linearGradient id="linear-gradient-2" x1="59.74" y1="188.18" x2="59.74" y2="208.98" gradientTransform="translate(45.19)" gradientUnits="userSpaceOnUse">
      <stop offset="0" stop-color="#ad1a27"/>
      <stop offset="0.08" stop-color="#9e151f"/>
      <stop offset="0.28" stop-color="#7d090e"/>
      <stop offset="0.44" stop-color="#680304"/>
      <stop offset="0.56" stop-color="#610000"/>
      <stop offset="0.73" stop-color="#520000"/>
      <stop offset="1" stop-color="#3f0000"/>
    </linearGradient>
    <linearGradient id="linear-gradient-3" x1="879.05" y1="198.89" x2="892.76" y2="198.89" gradientTransform="matrix(-1, 0, 0, 1, 1015.73, 0)" gradientUnits="userSpaceOnUse">
      <stop offset="0" stop-color="#be1349"/>
      <stop offset="0.24" stop-color="#be124e"/>
      <stop offset="0.25" stop-color="#be124e"/>
      <stop offset="1" stop-color="#7a0025"/>
    </linearGradient>
    <linearGradient id="linear-gradient-4" x1="874.82" y1="205.8" x2="892.82" y2="205.8" gradientTransform="matrix(-1, 0, 0, 1, 1015.73, 0)" gradientUnits="userSpaceOnUse">
      <stop offset="0" stop-color="#282881"/>
      <stop offset="0.27" stop-color="#26257d"/>
      <stop offset="0.55" stop-color="#1f1b70"/>
      <stop offset="0.84" stop-color="#150c5b"/>
      <stop offset="1" stop-color="#0d004c"/>
    </linearGradient>
    <linearGradient id="linear-gradient-5" x1="879.08" y1="205.8" x2="892.75" y2="205.8" xlink:href="#linear-gradient-3"/>
    <linearGradient id="linear-gradient-6" x1="881.85" y1="198.83" x2="899.04" y2="198.83" xlink:href="#linear-gradient-4"/>
    <linearGradient id="linear-gradient-7" x1="72.86" y1="205.11" x2="72.86" y2="195.27" gradientTransform="translate(45.19)" gradientUnits="userSpaceOnUse">
      <stop offset="0" stop-color="#ed2d24"/>
      <stop offset="0.12" stop-color="#ed2824"/>
      <stop offset="0.25" stop-color="#ec1c24"/>
      <stop offset="1" stop-color="#74020d"/>
    </linearGradient>
    <linearGradient id="_ÂÁ_Ï_ÌÌ_È_ËÂÌÚ_14" data-name="¡ÂÁ˚ÏˇÌÌ˚È „‡‰ËÂÌÚ 14" x1="4353.63" y1="335.05" x2="4412.1" y2="335.05" gradientTransform="translate(-4295.07 14.34) rotate(-2.88)" gradientUnits="userSpaceOnUse">
      <stop offset="0" stop-color="#003a6b"/>
      <stop offset="1" stop-color="#00204c"/>
    </linearGradient>
    <linearGradient id="_ÂÁ_Ï_ÌÌ_È_ËÂÌÚ_18" data-name="¡ÂÁ˚ÏˇÌÌ˚È „‡‰ËÂÌÚ 18" x1="4370.5" y1="104.09" x2="4400.13" y2="154.01" gradientTransform="translate(-4284.51)" gradientUnits="userSpaceOnUse">
      <stop offset="0" stop-color="#cbd7e1"/>
      <stop offset="0.05" stop-color="#aec0d0"/>
      <stop offset="0.15" stop-color="#7998b2"/>
      <stop offset="0.26" stop-color="#4e7698"/>
      <stop offset="0.35" stop-color="#2c5c85"/>
      <stop offset="0.44" stop-color="#144976"/>
      <stop offset="0.53" stop-color="#053e6e"/>
      <stop offset="0.6" stop-color="#003a6b"/>
      <stop offset="1" stop-color="#00204c"/>
    </linearGradient>
    <radialGradient id="radial-gradient" cx="2897.14" cy="267.35" r="11.13" gradientTransform="matrix(0.74, 0.02, -0.03, 0.82, -2103.65, -82.03)" gradientUnits="userSpaceOnUse">
      <stop offset="0" stop-color="#00ddde" stop-opacity="0.52"/>
      <stop offset="0.09" stop-color="#2de6e7" stop-opacity="0.65"/>
      <stop offset="0.2" stop-color="#63f1f1" stop-opacity="0.8"/>
      <stop offset="0.3" stop-color="#8af8f9" stop-opacity="0.91"/>
      <stop offset="0.38" stop-color="#a2fdfd" stop-opacity="0.98"/>
      <stop offset="0.43" stop-color="#abffff"/>
      <stop offset="0.46" stop-color="#9ffcfd"/>
      <stop offset="0.51" stop-color="#7ff6f6"/>
      <stop offset="0.58" stop-color="#4aebeb"/>
      <stop offset="0.66" stop-color="#03dcdd"/>
      <stop offset="0.66" stop-color="#00dbdc"/>
      <stop offset="0.69" stop-color="#08dcdd" stop-opacity="0.97"/>
      <stop offset="0.74" stop-color="#1fdfe0" stop-opacity="0.88"/>
      <stop offset="0.8" stop-color="#44e5e5" stop-opacity="0.73"/>
      <stop offset="0.87" stop-color="#78eced" stop-opacity="0.53"/>
      <stop offset="0.94" stop-color="#baf5f6" stop-opacity="0.27"/>
      <stop offset="1" stop-color="#fff" stop-opacity="0"/>
    </radialGradient>
  </defs>
  <title>robot</title>
  <g class="cls-1">
    <g id="Robot">
      <g id="fondo">
        <rect class="cls-2" width="1025" height="620"/>
      </g>
      <g id="sombra">
        <g>
          <ellipse class="cls-3" cx="91.13" cy="309.34" rx="42.14" ry="9.46"/>
          <path class="cls-4" d="M123.46,308.84c0,3.33-14.7,6-32.83,6s-32.83-2.69-32.83-6,14.7-6,32.83-6S123.46,305.52,123.46,308.84Z" transform="translate(0.5 0.5)"/>
          <ellipse class="cls-4" cx="91.13" cy="309.34" rx="19.77" ry="3.62"/>
        </g>
      </g>
      <g id="brazoIzquierdo">
        <g>
          <path class="cls-5" d="M182.61,179.73C156.2,201.84,137,201.92,137,201.92s-6.24-2.77-5.37-14.89a18,18,0,0,1,6.7-12.63s39.68-9.72,51.06-14S192.53,171.43,182.61,179.73Z" transform="translate(0.5 0.5)"/>
          <path class="cls-5" d="M182.61,179.73C156.2,201.84,137,201.92,137,201.92s-6.24-2.77-5.37-14.89a18,18,0,0,1,6.7-12.63s39.68-9.72,51.06-14S192.53,171.43,182.61,179.73Z" transform="translate(0.5 0.5)"/>
          <path class="cls-6" d="M184.18,174.24c-16.37,12.5-26.31,17-33.75,18.06-12.75,1.89-17.51-3.46-17.12-11.55a17.17,17.17,0,0,0-1.67,6.28c-.87,12.12,5.37,14.89,5.37,14.89s19.19-.08,45.6-22.19c6.86-5.74,12.91-14.83,12.24-18.49C194.47,162.11,193.93,166.79,184.18,174.24Z" transform="translate(0.5 0.5)"/>
          <path class="cls-5" d="M171.37,166.28c2.43-.82,5.61-3.81,6.73-5.56a19.48,19.48,0,0,0,1.88-4.83,3,3,0,0,1,2.16,2.55c.39,2.22-.83,4.73-1.27,5.9S171.37,166.28,171.37,166.28Z" transform="translate(0.5 0.5)"/>
          <path class="cls-7" d="M155.44,185.28a105.07,105.07,0,0,1-11.52,2.58c-1.9.27-1.57,2.14,0,2.14,3.4,0,9.41-1.51,17.45-4.16,4.71-1.54,20.49-10.07,27.36-18.21C188.23,167.86,174.64,180,155.44,185.28Z" transform="translate(0.5 0.5)"/>
          <path class="cls-8" d="M180.32,182.31h0a.37.37,0,0,1-.34-.39c.46-6.63-3-14.3-10.25-15.46a.35.35,0,0,1-.3-.41.36.36,0,0,1,.42-.3C177.51,167,181.15,175,180.68,182A.38.38,0,0,1,180.32,182.31Z" transform="translate(0.5 0.5)"/>
        </g>
        <path class="cls-9" d="M145.05,187.37c.54,9.16-2.22,16.77-6.16,17s-7.57-7-8.1-16.17,2.21-16.77,6.15-17S144.51,178.21,145.05,187.37Z" transform="translate(0.5 0.5)"/>
      </g>
      <g id="torso">
        <g>
          <path class="cls-5" d="M52.52,165.46c-4.08-.26-18.47,14.17-14.14,28.18s28.86,60.75,34.41,77.12,8.89,20.39,16.78,21.88,19.84,2,33.67-26.87,16-61.34,16.6-76.75-1-21.54-6.38-23.3C120.9,161.62,52.52,165.46,52.52,165.46Z" transform="translate(0.5 0.5)"/>
          <path class="cls-7" d="M117.66,262.37c10.73-30.39,9.44-63.06,8.44-78.54-.66-10.29-1.87-16.36-4.24-19.62-11.43-.64-28.13-.36-42.27.09,7.56,20,18.74,53.56,20.6,88.17,1.25,23.1-1.94,34.38-6.36,40.16C101,291.19,109.68,285,117.66,262.37Z" transform="translate(0.5 0.5)"/>
          <path class="cls-10" d="M134.66,167c0,3-21.16,7.64-42.51,7.68s-42.53-4.55-42.53-7.54,21.16-3.27,42.51-3.31S134.66,164,134.66,167Z" transform="translate(0.5 0.5)"/>
          <path class="cls-11" d="M121.76,167.62c0,2.07-14.58,5.29-29.29,5.31s-29.3-3.14-29.3-5.21,14.58-2.26,29.29-2.29S121.75,165.55,121.76,167.62Z" transform="translate(0.5 0.5)"/>
          <path class="cls-12" d="M112.81,168.69c0,.8-10.06,1.8-19.85,1.82s-19.18-1-19.18-1.75,9.37-1.11,19.17-1.12S112.8,167.9,112.81,168.69Z" transform="translate(0.5 0.5)"/>
          <path class="cls-13" d="M81.58,274.14c-2.27-12.25-5.65-52.3-13.71-80.57-4-14.17-13.53-24.17-22.73-21-6.52,2.25-9.1,13.5-6.76,21.07,4.33,14,28.86,60.75,34.41,77.12s8.89,20.39,16.78,21.88c4.07.76,9.21,1.26,15.13-2.36C96.69,291.54,85.34,294.42,81.58,274.14Z" transform="translate(0.5 0.5)"/>
          <path class="cls-14" d="M109.84,280.11a15,15,0,0,1-4.87.8,22.61,22.61,0,0,1-5.44-.4,2.18,2.18,0,0,1-1.9-2h0a2,2,0,0,1,1.91-2s4.18.47,5.2.46a38.22,38.22,0,0,0,5.29-.5c1,0,2,.31,1.71,1.81C111.6,278.94,111.11,279.63,109.84,280.11Z" transform="translate(0.5 0.5)"/>
          <path class="cls-15" d="M109.17,279.88a14.93,14.93,0,0,1-4.21.57,23.8,23.8,0,0,1-4.7-.28c-.88-.19-1.65-.65-1.65-1.45h0a1.56,1.56,0,0,1,1.65-1.43s3.62.33,4.5.32a37.7,37.7,0,0,0,4.57-.35c.91,0,1.76.22,1.48,1.29C110.69,279.05,110.27,279.54,109.17,279.88Z" transform="translate(0.5 0.5)"/>
          <path class="cls-8" d="M103.8,270.87c-9.62,0-21.42-2.09-34.14-7.32a.33.33,0,0,1-.18-.44.33.33,0,0,1,.44-.19c23.71,9.75,44.1,8.51,53,3.24a.34.34,0,1,1,.35.58C119.05,269.25,112.26,270.87,103.8,270.87Z" transform="translate(0.5 0.5)"/>
          <path class="cls-16" d="M103.55,270.1c-9.62,0-21.42-2.08-34.14-7.31a.33.33,0,0,1-.18-.44.33.33,0,0,1,.44-.19c23.71,9.74,44.1,8.51,53,3.24a.34.34,0,1,1,.35.58C118.79,268.49,112,270.1,103.55,270.1Z" transform="translate(0.5 0.5)"/>
          <path class="cls-7" d="M138.05,173.36c1.81,37-3.53,54.57-3.53,54.57s5.11-28,.4-55C134.27,169.18,137.76,167.57,138.05,173.36Z" transform="translate(0.5 0.5)"/>
          <path class="cls-16" d="M52.88,170.78s4.21,2.53,19.63,4,35.69,1.16,35.69,1.16-18.7,2.48-35.77.64S52.88,170.78,52.88,170.78Z" transform="translate(0.5 0.5)"/>
          <path class="cls-17" d="M107.23,277.49c-.75.06-1.61.12-2.47.12s-4.5-.32-4.5-.32a1.87,1.87,0,0,0-.34,0l1.66,3a30.73,30.73,0,0,0,3.38.1,15.75,15.75,0,0,0,3.92-.49Z" transform="translate(0.5 0.5)"/>
          <g>
            <path class="cls-18" d="M103.52,198.74a13.1,13.1,0,0,1,8.16-12.12,13.53,13.53,0,0,1,1.46.19,12.05,12.05,0,0,1,10,11.47c0,.13,0,.26,0,.4v.13h0a7.47,7.47,0,0,0-7.47-7.45,7.25,7.25,0,0,0-2.43.41c.73-.27.7-.27,0,0a7.32,7.32,0,0,0-2.52-.44,7.15,7.15,0,0,0-7.12,7.39v.07a7,7,0,0,0,7.06,7.33,7.42,7.42,0,0,0,2.29-.37A7.48,7.48,0,0,0,123.17,199a11.93,11.93,0,0,1-10,11.72,15.22,15.22,0,0,1-1.53.19A13.09,13.09,0,0,1,103.52,198.74Z" transform="translate(0.5 0.5)"/>
            <path class="cls-19" d="M108.24,198.83a7.47,7.47,0,0,0,4.69,6.94,7.42,7.42,0,0,1-2.29.37,7,7,0,0,1-7.06-7.33v-.07a7.15,7.15,0,0,1,7.12-7.39,7.32,7.32,0,0,1,2.52.44c.75-.28.78-.28,0,0A7.45,7.45,0,0,0,108.24,198.83Z" transform="translate(0.5 0.5)"/>
            <path class="cls-20" d="M110.64,186.58c.35,0,.7,0,1,0a13.09,13.09,0,0,0,0,24.25c-.32,0-.65,0-1,0a12.16,12.16,0,0,1-12.53-12.17v-.06A12.05,12.05,0,0,1,110.64,186.58Z" transform="translate(0.5 0.5)"/>
            <path class="cls-21" d="M123.17,198.83v0Z" transform="translate(0.5 0.5)"/>
            <path class="cls-22" d="M113.14,205.7c.78.27.77.28,0,0Z" transform="translate(0.5 0.5)"/>
            <path class="cls-23" d="M113.14,205.7c.78.27.77.28,0,0Z" transform="translate(0.5 0.5)"/>
            <path class="cls-24" d="M115.7,206.3a7.5,7.5,0,0,1-2.77-.53l.21-.07c.77.28.78.27,0,0a7.29,7.29,0,0,0,4.8-7v-.06a7.17,7.17,0,0,0-4.72-6.89h0a7.25,7.25,0,0,1,2.43-.41,7.47,7.47,0,0,1,7.47,7.45V199A7.47,7.47,0,0,1,115.7,206.3Z" transform="translate(0.5 0.5)"/>
            <path class="cls-25" d="M115.7,206.3a7.5,7.5,0,0,1-2.77-.53l.21-.07c.77.28.78.27,0,0a7.29,7.29,0,0,0,4.8-7v-.06a7.17,7.17,0,0,0-4.72-6.89h0a7.25,7.25,0,0,1,2.43-.41,7.47,7.47,0,0,1,7.47,7.45V199A7.47,7.47,0,0,1,115.7,206.3Z" transform="translate(0.5 0.5)"/>
          </g>
        </g>
      </g>
      <g id="cabeza">
        <g>
          <g>
            <path class="cls-5" d="M55.76,154.07c9.72,12.51,39.46,10.13,47.74,9.34s22.33-2.24,27.39-17.49,2.52-38.53-11.38-50.63S68.4,85.17,55.76,101.47,52.39,149.73,55.76,154.07Z" transform="translate(0.5 0.5)"/>
            <path class="cls-16" d="M58.33,104.8c.55-.2,12-9.13,32.83-10.91,7.16-.61,18.32,0,25.48,1-.71-.76-11-6.7-32.21-4.49A41.85,41.85,0,0,0,58.33,104.8Z" transform="translate(0.5 0.5)"/>
            <path class="cls-7" d="M96.14,101.11c-6.7.1-13.4.58-19.72,3a.59.59,0,0,1-.14.06c6.55,13.88,7.09,32,3.25,44.88A27.32,27.32,0,0,1,74,159.5c11.57,2,24.51,1,29.54.49,5.48-.52,13.48-1.33,19.73-6.24A30.67,30.67,0,0,0,125,149c3.89-13.09,3.29-31.48-3.51-45.42A107.73,107.73,0,0,0,96.14,101.11Z" transform="translate(0.5 0.5)"/>
            <path class="cls-26" d="M71.93,113.42c3.86-5.24,14.38-6.62,27.56-7.4,17-1,22.76,2.06,24.49,4s4.76,11.73,4.11,21.22-.76,12.35-4.66,14.71-15.18,4.67-22.47,4.85c-13.81.33-20.77-.34-25.39-3.05-2.36-1.39-5.36-8.85-5.83-18.06S69.93,116.14,71.93,113.42Z" transform="translate(0.5 0.5)"/>
            <path class="cls-27" d="M99,107.48c-8.19.48-15.3,1.18-20.3,3,4.37,12.16,4.4,26.57,1.15,37.23l-.12.36c4.38,1.27,10.64,1.57,20.68,1.33,7-.16,17.81-2.32,21.56-4.53a6.63,6.63,0,0,0,2.93-3.06,63.52,63.52,0,0,0-2.16-30.2,2.09,2.09,0,0,0-.24-.31C120.85,109.41,115.33,106.54,99,107.48Z" transform="translate(0.5 0.5)"/>
            <path class="cls-9" d="M63,122.15c-.23,5.15-3.11,9.21-6.43,9.07s-5.84-4.45-5.61-9.61,3.11-9.21,6.44-9.07S63.22,117,63,122.15Z" transform="translate(0.5 0.5)"/>
            <path class="cls-28" d="M60.36,121.76c-.16,3.62-1.93,6.48-3.94,6.39s-3.52-3.09-3.36-6.71S55,115,57,115.05,60.52,118.14,60.36,121.76Z" transform="translate(0.5 0.5)"/>
            <path class="cls-29" d="M60.41,122h0a12.59,12.59,0,0,0-1.51-6.86,5.55,5.55,0,0,0-4.42-3.1c-3.49-.15-6.55,4.06-6.78,9.4s2.42,9.8,5.92,10h.19C57.24,131.43,60.18,127.27,60.41,122Zm-6-9.27a4.87,4.87,0,0,1,3.86,2.75A12,12,0,0,1,59.73,122c-.22,5-2.95,8.87-6.08,8.75s-5.49-4.29-5.27-9.25,2.85-8.75,5.91-8.75Z" transform="translate(0.5 0.5)"/>
            <path class="cls-7" d="M54,134.1l2.45.08s1,10.14,4,16.08,7.08,7.86,7.08,7.86-6.26-2-10-9.74C54.82,142.83,54,134.1,54,134.1Z" transform="translate(0.5 0.5)"/>
            <path class="cls-30" d="M74.22,114.2h0a1.29,1.29,0,0,0,1.86.44c1.18-.81,3-2,4-2.59,1.64-.89,9.77-3.89,9.77-3.89a37.37,37.37,0,0,0-15.06,3.93A1.54,1.54,0,0,0,74.22,114.2Z" transform="translate(0.5 0.5)"/>
          </g>
          <path class="cls-31" d="M67.84,121c0,1.6-.74,2.9-1.66,2.9s-1.66-1.3-1.66-2.9.74-2.9,1.66-2.9S67.84,119.36,67.84,121Z" transform="translate(0.5 0.5)"/>
        </g>
      </g>
      <g id="ojos">
        <g>
          <rect class="cls-32" x="88.08" y="117.53" width="11.73" height="15.32" rx="3.93"/>
          <rect class="cls-32" x="89.3" y="119.18" width="9.27" height="12.03" rx="3.93"/>
          <rect class="cls-33" x="90.87" y="120.72" width="6.43" height="9.36" rx="2.44"/>
          <path class="cls-34" d="M96.11,123.83H90.83a.26.26,0,1,1,0-.51h5.28a.26.26,0,1,1,0,.51Z" transform="translate(0.5 0.5)"/>
          <path class="cls-34" d="M96.11,125H90.83a.26.26,0,0,1-.26-.26.26.26,0,0,1,.26-.25h5.28a.26.26,0,0,1,.26.25A.26.26,0,0,1,96.11,125Z" transform="translate(0.5 0.5)"/>
          <path class="cls-34" d="M96.11,126.1H90.83a.26.26,0,0,1-.26-.25.26.26,0,0,1,.26-.26h5.28a.26.26,0,0,1,.26.26A.26.26,0,0,1,96.11,126.1Z" transform="translate(0.5 0.5)"/>
          <path class="cls-34" d="M95.44,121.69H91.5a.26.26,0,0,1,0-.51h3.94a.26.26,0,0,1,0,.51Z" transform="translate(0.5 0.5)"/>
          <path class="cls-34" d="M96.11,122.85H90.83a.26.26,0,0,1-.26-.26.26.26,0,0,1,.26-.25h5.28a.26.26,0,0,1,.26.25A.26.26,0,0,1,96.11,122.85Z" transform="translate(0.5 0.5)"/>
          <path class="cls-34" d="M96.11,127.48H90.83a.26.26,0,0,1-.26-.26.26.26,0,0,1,.26-.25h5.28a.26.26,0,0,1,.26.25A.26.26,0,0,1,96.11,127.48Z" transform="translate(0.5 0.5)"/>
          <path class="cls-34" d="M96.11,128.59H90.83a.26.26,0,0,1-.26-.25.26.26,0,0,1,.26-.26h5.28a.26.26,0,0,1,.26.26A.26.26,0,0,1,96.11,128.59Z" transform="translate(0.5 0.5)"/>
        </g>
        <g>
          <rect class="cls-32" x="106.77" y="117.53" width="11.73" height="15.32" rx="3.93"/>
          <rect class="cls-32" x="108" y="119.18" width="9.27" height="12.03" rx="3.93"/>
          <rect class="cls-33" x="109.56" y="120.72" width="6.43" height="9.36" rx="2.44"/>
          <path class="cls-34" d="M114.8,123.83h-5.28a.26.26,0,0,1,0-.51h5.28a.26.26,0,1,1,0,.51Z" transform="translate(0.5 0.5)"/>
          <path class="cls-34" d="M114.8,125h-5.28a.26.26,0,0,1-.25-.26.25.25,0,0,1,.25-.25h5.28a.26.26,0,0,1,.26.25A.26.26,0,0,1,114.8,125Z" transform="translate(0.5 0.5)"/>
          <path class="cls-34" d="M114.8,126.1h-5.28a.25.25,0,0,1-.25-.25.26.26,0,0,1,.25-.26h5.28a.26.26,0,0,1,.26.26A.26.26,0,0,1,114.8,126.1Z" transform="translate(0.5 0.5)"/>
          <path class="cls-34" d="M114.13,121.69h-3.94a.26.26,0,0,1,0-.51h3.94a.26.26,0,1,1,0,.51Z" transform="translate(0.5 0.5)"/>
          <path class="cls-34" d="M114.8,122.85h-5.28a.26.26,0,0,1-.25-.26.25.25,0,0,1,.25-.25h5.28a.26.26,0,0,1,.26.25A.26.26,0,0,1,114.8,122.85Z" transform="translate(0.5 0.5)"/>
          <path class="cls-34" d="M114.8,127.48h-5.28a.26.26,0,0,1-.25-.26.25.25,0,0,1,.25-.25h5.28a.26.26,0,0,1,.26.25A.26.26,0,0,1,114.8,127.48Z" transform="translate(0.5 0.5)"/>
          <path class="cls-34" d="M114.8,128.59h-5.28a.25.25,0,0,1-.25-.25.26.26,0,0,1,.25-.26h5.28a.26.26,0,0,1,.26.26A.26.26,0,0,1,114.8,128.59Z" transform="translate(0.5 0.5)"/>
        </g>
      </g>
      <g id="boca">
        <path class="cls-35" d="M95.88,140.21c5.3.67,14.79,1.2,14.79,1.2s-8.4.85-13.87-.09S90.19,139.49,95.88,140.21Z" transform="translate(0.5 0.5)"/>
      </g>
      <g id="brazoDerecho">
        <g>
          <path class="cls-36" d="M61.14,193c2.93,10.22.61,19.86-5.19,21.52s-12.89-5.27-15.82-15.49-.61-19.85,5.19-21.52S58.2,182.82,61.14,193Z" transform="translate(0.5 0.5)"/>
          <path class="cls-29" d="M54.09,212a.37.37,0,0,1-.38-.35.37.37,0,0,1,.34-.39,4.24,4.24,0,0,0,3.41-2.38c2.41-4.14,1.95-12-1.08-18.19-3.61-7.44-9.39-10.41-12.68-8.9a.36.36,0,0,1-.49-.18.38.38,0,0,1,.18-.49c4.13-1.9,10.25,2.24,13.66,9.24,3.12,6.43,3.57,14.55,1.05,18.89a5,5,0,0,1-4,2.75Z" transform="translate(0.5 0.5)"/>
          <g>
            <path class="cls-5" d="M22.33,231.17c2.44-29.82,12.72-43.71,15.18-46.63a2.46,2.46,0,0,1,1.4-.84c2.05-.39,7.45-.53,13.65,6.53,4.29,4.88,4.13,13.67,3.85,14.13-2.84,4.78-20.7,34.9-25.18,45C26.36,260.36,21.29,243.91,22.33,231.17Z" transform="translate(0.5 0.5)"/>
            <path class="cls-6" d="M52.6,190.26a24.29,24.29,0,0,0-5.66-4.89c.64.61,1.31,1.29,2,2.06,5.41,6.16,3.8,11,2.59,14.31-4.32,11.9-18,34.68-20.54,48.27.1-.19.2-.4.29-.62,4.48-10.1,22.34-40.22,25.19-45C56.72,203.92,56.89,195.14,52.6,190.26Z" transform="translate(0.5 0.5)"/>
            <path class="cls-7" d="M36.32,195.06c-12.42,11.57-12,47.07-12,47.07s6-25.23,11.59-36.15S40.56,191.11,36.32,195.06Z" transform="translate(0.5 0.5)"/>
            <path class="cls-6" d="M33.93,243.31a37.36,37.36,0,0,0,.48,5.07A8.45,8.45,0,0,0,37,250.55c-.09-2.13.42-13.36,2.09-16.4C39.71,233.07,33.74,241.27,33.93,243.31Z" transform="translate(0.5 0.5)"/>
            <path class="cls-8" d="M39.41,234.47a.34.34,0,0,1-.29-.16c-3.28-5.24-10-9.15-16.15-6.06a.34.34,0,0,1-.46-.15.34.34,0,0,1,.15-.45c6.47-3.28,13.6.8,17,6.3a.34.34,0,0,1-.11.47A.41.41,0,0,1,39.41,234.47Z" transform="translate(0.5 0.5)"/>
          </g>
          <g>
            <path class="cls-37" d="M43.53,203.51c-.15,5.05-4,9-8.52,8.9s-8.12-4.35-8-9.4,4-9,8.52-8.9S43.68,198.45,43.53,203.51Z" transform="translate(0.5 0.5)"/>
            <g>
              <path class="cls-38" d="M29.65,204a8,8,0,0,0,1.81,4.83,17,17,0,0,0,2,2.28s5.25-1.34,6.7-4.36c.3-.63,1.68-4.59,1.68-4.59s.42-.95-.36-1.39a25.53,25.53,0,0,1-2.67-1.51A7.65,7.65,0,0,0,37,198.16c-.51-.18-.73-.08-1.65,0a28.4,28.4,0,0,1-3.14-.08c-.92,0-1,1-1,1S29.7,203.32,29.65,204Z" transform="translate(0.5 0.5)"/>
              <path class="cls-39" d="M31.21,199.11s-1.51,4.21-1.56,4.93c-.22,3.4,3.8,7.11,3.8,7.11h0s5.26-1.35,6.7-4.36c.3-.63,1.68-4.59,1.68-4.59s.41-1-.36-1.39a25.53,25.53,0,0,1-2.67-1.51A7.65,7.65,0,0,0,37,198.16c-.51-.18-.73-.08-1.65,0a31,31,0,0,1-3.14-.08C31.32,198,31.21,199.11,31.21,199.11Zm.82-.18.78,0a8.78,8.78,0,0,0,2.41,0c1.67-.32,2.18.53,3,1.1a16.35,16.35,0,0,0,2,1.2l.66.34a1.08,1.08,0,0,1,0,.19.17.17,0,0,0,0,.06c-.52,1.51-1.44,4.07-1.64,4.5a7.26,7.26,0,0,1-3.43,2.86,17.53,17.53,0,0,1-2,.81,17.25,17.25,0,0,1-1.42-1.71,7.74,7.74,0,0,1-1.63-4.38A32.3,32.3,0,0,1,32,199.16Z" transform="translate(0.5 0.5)"/>
              <path class="cls-40" d="M29.65,204c-.13,2,1.17,4.05,2.28,5.44a8.18,8.18,0,0,1-1.93-5c.05-.72,1.56-4.93,1.56-4.93s.11-1.07,1-1a25.92,25.92,0,0,0,3.13.08c.92-.07,1.15-.17,1.65,0a7.79,7.79,0,0,1,1.78,1.15,25.46,25.46,0,0,0,2.66,1.51l.07,0a.83.83,0,0,0-.42-.5,25.53,25.53,0,0,1-2.67-1.51A7.32,7.32,0,0,0,37,198.16c-.51-.19-.73-.08-1.65,0a28.57,28.57,0,0,1-3.14-.07c-.92,0-1,1-1,1S29.7,203.32,29.65,204Z" transform="translate(0.5 0.5)"/>
              <path class="cls-39" d="M34.89,204.13a.32.32,0,0,0,.08.31l-.07.25a.07.07,0,0,0,.05.08l.2,0s.08,0,.08,0l.07-.24a.35.35,0,0,0,.22-.24.33.33,0,1,0-.63-.16Z" transform="translate(0.5 0.5)"/>
              <path class="cls-39" d="M34.89,202.44l-.12.48,1.45.39.13-.49a.75.75,0,0,0-1.46-.38Z" transform="translate(0.5 0.5)"/>
              <path class="cls-39" d="M32.25,200.28s-.91,3.11-.95,3.64c-.2,2.52,2.62,5.44,2.62,5.44h0s3.73-1.05,4.78-3.31c.23-.47,1.24-3.43,1.24-3.43s.31-.72-.24-1a16.4,16.4,0,0,1-1.88-1.1c-.32-.24-.61-.43-.85-.58a3.42,3.42,0,0,0-.53-.29h0a2,2,0,0,0-1.1-.09,16,16,0,0,1-2.21,0C32.48,199.5,32.25,200.28,32.25,200.28ZM33.59,203a.42.42,0,0,1,.5-.3l.11,0,.12-.48a1.34,1.34,0,1,1,2.6.68l-.13.49.11,0a.42.42,0,0,1,.29.51l-.5,1.88a.41.41,0,0,1-.5.3l-2.81-.74a.42.42,0,0,1-.29-.5Z" transform="translate(0.5 0.5)"/>
              <path class="cls-40" d="M31.3,203.92c-.14,1.81,1.27,3.83,2.08,4.82-.81-1.08-1.85-2.8-1.73-4.36,0-.53,1-3.64,1-3.64s.22-.78.87-.77a16.14,16.14,0,0,0,2.21,0,2.09,2.09,0,0,1,1.09.09h0a3.4,3.4,0,0,1,.54.29,9.34,9.34,0,0,1,.85.58A14.75,14.75,0,0,0,40,202a.62.62,0,0,0-.31-.43,16.4,16.4,0,0,1-1.88-1.1,10.06,10.06,0,0,0-.85-.58,3.42,3.42,0,0,0-.53-.29h0a2,2,0,0,0-1.09-.09,17.61,17.61,0,0,1-2.2,0c-.65,0-.88.77-.88.77S31.34,203.39,31.3,203.92Z" transform="translate(0.5 0.5)"/>
            </g>
          </g>
        </g>
      </g>
    </g>
  </g>
</svg>
