<svg xmlns="http://www.w3.org/2000/svg" xmlns:xlink="http://www.w3.org/1999/xlink" width="1024" height="620" viewBox="0 0 1024 620">
  <defs>
    <style>
      .cls-1 {
        isolation: isolate;
      }

      .cls-2 {
        fill: none;
      }

      .cls-3, .cls-4 {
        fill: #51b2fb;
      }

      .cls-3, .cls-32 {
        opacity: 0.1;
      }

      .cls-4 {
        opacity: 0.2;
      }

      .cls-5 {
        fill: #e3ebfc;
      }

      .cls-6 {
        fill: #ccddfa;
      }

      .cls-7 {
        fill: #fafbff;
      }

      .cls-8 {
        fill: #80a7f6;
      }

      .cls-9 {
        fill: #9fbcfb;
      }

      .cls-10 {
        fill: #b8d0f9;
      }

      .cls-11, .cls-29, .cls-31 {
        fill: #207bff;
      }

      .cls-11, .cls-37 {
        opacity: 0.4;
      }

      .cls-12 {
        fill: #004bff;
        opacity: 0.5;
        mix-blend-mode: multiply;
      }

      .cls-13 {
        fill: #c5d8fa;
      }

      .cls-14 {
        fill: url(#_ÂÁ_Ï_ÌÌ_È_ËÂÌÚ_30);
      }

      .cls-15 {
        fill: #4aebff;
      }

      .cls-16, .cls-30 {
        fill: #fff;
      }

      .cls-17 {
        fill: #bef9ff;
      }

      .cls-18 {
        fill: url(#linear-gradient);
      }

      .cls-19 {
        fill: #ec1c24;
      }

      .cls-20 {
        fill: url(#linear-gradient-2);
      }

      .cls-21 {
        fill: url(#linear-gradient-3);
      }

      .cls-22 {
        fill: url(#linear-gradient-4);
      }

      .cls-23 {
        fill: url(#linear-gradient-5);
      }

      .cls-24 {
        fill: url(#linear-gradient-6);
      }

      .cls-25 {
        fill: url(#linear-gradient-7);
      }

      .cls-26 {
        fill: url(#_ÂÁ_Ï_ÌÌ_È_ËÂÌÚ_14);
      }

      .cls-27 {
        fill: url(#_ÂÁ_Ï_ÌÌ_È_ËÂÌÚ_18);
      }

      .cls-28 {
        fill: #4880f8;
      }

      .cls-30 {
        opacity: 0.8;
      }

      .cls-31 {
        opacity: 0.72;
      }

      .cls-32, .cls-33, .cls-34, .cls-35 {
        fill: #3ae6fb;
      }

      .cls-33 {
        opacity: 0.3;
      }

      .cls-35 {
        opacity: 0.7;
      }

      .cls-36 {
        fill: #93b4fb;
      }

      .cls-37 {
        mix-blend-mode: lighten;
        fill: url(#radial-gradient);
      }

      .cls-38 {
        fill: #00ffda;
      }

      .cls-39 {
        fill: #7fd1ca;
      }

      .cls-40 {
        fill: #1e1e1e;
      }
    </style>
    <radialGradient id="_ÂÁ_Ï_ÌÌ_È_ËÂÌÚ_30" data-name="¡ÂÁ˚ÏˇÌÌ˚È „‡‰ËÂÌÚ 30" cx="4418" cy="444.2" r="6.21" gradientTransform="translate(-4284.51)" gradientUnits="userSpaceOnUse">
      <stop offset="0" stop-color="#4aebff"/>
      <stop offset="1" stop-color="#00709e"/>
    </radialGradient>
    <linearGradient id="linear-gradient" x1="98.5" y1="335.75" x2="98.5" y2="369.99" gradientTransform="translate(45.19)" gradientUnits="userSpaceOnUse">
      <stop offset="0.02" stop-color="#dd2a21"/>
      <stop offset="0.06" stop-color="#c8201b"/>
      <stop offset="0.1" stop-color="#b71717"/>
      <stop offset="0.15" stop-color="#ac1113"/>
      <stop offset="0.22" stop-color="#a50e12"/>
      <stop offset="0.43" stop-color="#a30d11"/>
      <stop offset="0.79" stop-color="#6b0006"/>
    </linearGradient>
    <linearGradient id="linear-gradient-2" x1="88.55" y1="337.28" x2="88.55" y2="361.85" gradientTransform="translate(45.19)" gradientUnits="userSpaceOnUse">
      <stop offset="0" stop-color="#ad1a27"/>
      <stop offset="0.08" stop-color="#9e151f"/>
      <stop offset="0.28" stop-color="#7d090e"/>
      <stop offset="0.44" stop-color="#680304"/>
      <stop offset="0.56" stop-color="#610000"/>
      <stop offset="0.73" stop-color="#520000"/>
      <stop offset="1" stop-color="#3f0000"/>
    </linearGradient>
    <linearGradient id="linear-gradient-3" x1="844.77" y1="349.93" x2="860.66" y2="349.93" gradientTransform="matrix(-1, 0, 0, 1, 1015.73, 0)" gradientUnits="userSpaceOnUse">
      <stop offset="0" stop-color="#be1349"/>
      <stop offset="0.24" stop-color="#be124e"/>
      <stop offset="0.25" stop-color="#be124e"/>
      <stop offset="1" stop-color="#7a0025"/>
    </linearGradient>
    <linearGradient id="linear-gradient-4" x1="839.47" y1="358.1" x2="860.73" y2="358.1" gradientTransform="matrix(-1, 0, 0, 1, 1015.73, 0)" gradientUnits="userSpaceOnUse">
      <stop offset="0" stop-color="#282881"/>
      <stop offset="0.27" stop-color="#26257d"/>
      <stop offset="0.55" stop-color="#1f1b70"/>
      <stop offset="0.84" stop-color="#150c5b"/>
      <stop offset="1" stop-color="#0d004c"/>
    </linearGradient>
    <linearGradient id="linear-gradient-5" x1="844.5" y1="358.1" x2="860.66" y2="358.1" xlink:href="#linear-gradient-3"/>
    <linearGradient id="linear-gradient-6" x1="847.78" y1="349.86" x2="868.08" y2="349.86" xlink:href="#linear-gradient-4"/>
    <linearGradient id="linear-gradient-7" x1="104.06" y1="357.28" x2="104.06" y2="345.65" gradientTransform="translate(45.19)" gradientUnits="userSpaceOnUse">
      <stop offset="0" stop-color="#ed2d24"/>
      <stop offset="0.12" stop-color="#ed2824"/>
      <stop offset="0.25" stop-color="#ec1c24"/>
      <stop offset="1" stop-color="#74020d"/>
    </linearGradient>
    <linearGradient id="_ÂÁ_Ï_ÌÌ_È_ËÂÌÚ_14" data-name="¡ÂÁ˚ÏˇÌÌ˚È „‡‰ËÂÌÚ 14" x1="4369.06" y1="474.53" x2="4438.15" y2="474.53" gradientTransform="translate(-4295.07 14.34) rotate(-2.88)" gradientUnits="userSpaceOnUse">
      <stop offset="0" stop-color="#003a6b"/>
      <stop offset="1" stop-color="#00204c"/>
    </linearGradient>
    <linearGradient id="_ÂÁ_Ï_ÌÌ_È_ËÂÌÚ_18" data-name="¡ÂÁ˚ÏˇÌÌ˚È „‡‰ËÂÌÚ 18" x1="4395.88" y1="237.92" x2="4430.89" y2="296.9" gradientTransform="translate(-4284.51)" gradientUnits="userSpaceOnUse">
      <stop offset="0" stop-color="#cbd7e1"/>
      <stop offset="0.05" stop-color="#aec0d0"/>
      <stop offset="0.15" stop-color="#7998b2"/>
      <stop offset="0.26" stop-color="#4e7698"/>
      <stop offset="0.35" stop-color="#2c5c85"/>
      <stop offset="0.44" stop-color="#144976"/>
      <stop offset="0.53" stop-color="#053e6e"/>
      <stop offset="0.6" stop-color="#003a6b"/>
      <stop offset="1" stop-color="#00204c"/>
    </linearGradient>
    <radialGradient id="radial-gradient" cx="2925.18" cy="451.25" r="13.15" gradientTransform="matrix(0.74, 0.02, -0.03, 0.82, -2103.65, -82.03)" gradientUnits="userSpaceOnUse">
      <stop offset="0" stop-color="#00ddde" stop-opacity="0.52"/>
      <stop offset="0.09" stop-color="#2de6e7" stop-opacity="0.65"/>
      <stop offset="0.2" stop-color="#63f1f1" stop-opacity="0.8"/>
      <stop offset="0.3" stop-color="#8af8f9" stop-opacity="0.91"/>
      <stop offset="0.38" stop-color="#a2fdfd" stop-opacity="0.98"/>
      <stop offset="0.43" stop-color="#abffff"/>
      <stop offset="0.46" stop-color="#9ffcfd"/>
      <stop offset="0.51" stop-color="#7ff6f6"/>
      <stop offset="0.58" stop-color="#4aebeb"/>
      <stop offset="0.66" stop-color="#03dcdd"/>
      <stop offset="0.66" stop-color="#00dbdc"/>
      <stop offset="0.69" stop-color="#08dcdd" stop-opacity="0.97"/>
      <stop offset="0.74" stop-color="#1fdfe0" stop-opacity="0.88"/>
      <stop offset="0.8" stop-color="#44e5e5" stop-opacity="0.73"/>
      <stop offset="0.87" stop-color="#78eced" stop-opacity="0.53"/>
      <stop offset="0.94" stop-color="#baf5f6" stop-opacity="0.27"/>
      <stop offset="1" stop-color="#fff" stop-opacity="0"/>
    </radialGradient>
  </defs>
  <title>robot2</title>
  <g class="cls-1">
    <g id="Robot">
      <g id="fondo">
        <rect class="cls-2" width="1024" height="620"/>
      </g>
      <g id="sombra">
        <g>
          <ellipse class="cls-3" cx="116.85" cy="479.85" rx="49.8" ry="11.18"/>
          <ellipse class="cls-4" cx="116.85" cy="479.85" rx="38.79" ry="7.11"/>
          <ellipse class="cls-4" cx="116.85" cy="479.85" rx="23.36" ry="4.28"/>
        </g>
      </g>
      <g id="brazoIzquierdo">
        <g>
          <g>
            <path class="cls-5" d="M201.4,372.14c-7.27-34.6-21.39-49.35-24.7-52.41a2.88,2.88,0,0,0-1.77-.77c-2.46-.16-8.81.48-15,9.68-4.3,6.36-2.81,16.63-2.42,17.13,4.05,5.18,29.45,37.84,36.2,49C201,407,204.51,386.92,201.4,372.14Z" transform="translate(0 0)"/>
            <path class="cls-6" d="M159.85,328.68a28.65,28.65,0,0,1,5.92-6.57c-.67.81-1.34,1.7-2,2.7-5.43,8-2.82,13.45-.91,17.17,6.83,13.3,26.23,38,31.22,53.53-.14-.21-.28-.44-.43-.68-6.75-11.18-32.15-43.84-36.19-49C157.05,345.3,155.55,335,159.85,328.68Z" transform="translate(0 0)"/>
            <path class="cls-7" d="M179.65,331.89c16.28,11.72,21,53.4,21,53.4s-10.77-28.69-19-40.66S174.1,327.89,179.65,331.89Z" transform="translate(0 0)"/>
            <path class="cls-6" d="M189.61,388.09a47.29,47.29,0,0,1,.19,6c-.07.55-2.74,3.21-2.76,2.93-.2-2.51-2.46-15.6-4.88-18.91C181.31,377,189.52,385.67,189.61,388.09Z" transform="translate(0 0)"/>
            <path class="cls-8" d="M181.87,378.54a.39.39,0,0,0,.32-.23c3.06-6.63,10.42-12.21,18-9.49a.39.39,0,0,0,.51-.24.4.4,0,0,0-.24-.52c-8.06-2.87-15.82,3-19,9.91a.4.4,0,0,0,.19.54A.44.44,0,0,0,181.87,378.54Z" transform="translate(0 0)"/>
          </g>
          <path class="cls-9" d="M177.27,335.11c-.94,10.8-5.46,19.23-10.11,18.82s-7.65-9.48-6.71-20.28,5.45-19.08,10.11-18.83C177.28,315.17,178.21,324.3,177.27,335.11Z" transform="translate(0 0)"/>
        </g>
      </g>
      <g id="torso">
        <g>
          <path class="cls-5" d="M71.82,310.43C67,310.12,50,327.18,55.11,343.73s34.1,71.78,40.66,91.12,10.5,24.1,19.83,25.85S139,463.1,155.39,429s18.86-72.48,19.6-90.69-1.16-25.45-7.53-27.53C152.62,305.9,71.82,310.43,71.82,310.43Z" transform="translate(0 0)"/>
          <path class="cls-7" d="M148.79,424.94c12.68-35.91,11.15-74.51,10-92.8-.78-12.16-2.21-19.34-5-23.19-13.51-.76-33.23-.43-49.95.11,8.94,23.58,22.15,63.28,24.35,104.19,1.47,27.29-2.3,40.62-7.52,47.45C129.14,459,139.36,451.66,148.79,424.94Z" transform="translate(0 0)"/>
          <path class="cls-10" d="M168.88,312.26c0,3.54-25,9-50.23,9.07s-50.26-5.37-50.26-8.9,25-3.87,50.24-3.91S168.87,308.72,168.88,312.26Z" transform="translate(0 0)"/>
          <path class="cls-11" d="M153.63,313c0,2.45-17.23,6.25-34.6,6.28s-34.62-3.71-34.63-6.16,17.23-2.67,34.61-2.7S153.62,310.54,153.63,313Z" transform="translate(0 0)"/>
          <path class="cls-12" d="M143.05,314.25c0,.94-11.88,2.13-23.45,2.15s-22.66-1.13-22.67-2.07S108,313,119.59,313,143.05,313.32,143.05,314.25Z" transform="translate(0 0)"/>
          <path class="cls-13" d="M106.15,438.85C103.47,424.37,99.48,377,90,343.64c-4.77-16.74-16-28.55-26.86-24.81-7.71,2.66-10.76,15.95-8,24.9,5.12,16.55,34.1,71.78,40.66,91.12s10.5,24.1,19.83,25.85c4.81.91,10.88,1.5,17.87-2.78C124,459.4,110.59,462.81,106.15,438.85Z" transform="translate(0 0)"/>
          <path class="cls-14" d="M139.55,445.9a17,17,0,0,1-5.75.94,26.25,26.25,0,0,1-6.43-.47,2.58,2.58,0,0,1-2.25-2.39h0a2.33,2.33,0,0,1,2.25-2.38s4.95.55,6.15.54a44.07,44.07,0,0,0,6.25-.59c1.24,0,2.4.37,2,2.14A3.09,3.09,0,0,1,139.55,445.9Z" transform="translate(0 0)"/>
          <path class="cls-15" d="M138.75,445.63a17.29,17.29,0,0,1-5,.67,27.11,27.11,0,0,1-5.57-.33c-1-.22-1.94-.77-1.94-1.71h0a1.84,1.84,0,0,1,1.95-1.69s4.28.39,5.32.38a47.15,47.15,0,0,0,5.4-.41c1.07,0,2.07.26,1.75,1.52C140.55,444.65,140.05,445.23,138.75,445.63Z" transform="translate(0 0)"/>
          <path class="cls-8" d="M132.41,435c-11.37,0-25.3-2.46-40.34-8.64a.41.41,0,1,1,.31-.75c28,11.52,52.11,10.05,62.65,3.83a.4.4,0,0,1,.55.14.4.4,0,0,1-.14.55C150.42,433.07,142.41,435,132.41,435Z" transform="translate(0 0)"/>
          <path class="cls-16" d="M132.11,434.08c-11.36,0-25.3-2.46-40.33-8.64a.4.4,0,0,1-.22-.53.41.41,0,0,1,.52-.22c28,11.52,52.11,10.05,62.65,3.82a.41.41,0,0,1,.41.7C150.13,432.17,142.11,434.08,132.11,434.08Z" transform="translate(0 0)"/>
          <path class="cls-7" d="M172.88,319.77c2.14,43.77-4.17,64.48-4.17,64.48s6-33.07.47-65C168.42,314.83,172.54,312.93,172.88,319.77Z" transform="translate(0 0)"/>
          <path class="cls-16" d="M72.24,316.71s5,3,23.19,4.69,42.18,1.37,42.18,1.37-22.09,2.92-42.27.75S72.24,316.71,72.24,316.71Z" transform="translate(0 0)"/>
          <path class="cls-17" d="M136.46,442.81c-.88.07-1.9.13-2.91.14s-5.32-.38-5.32-.38a2.73,2.73,0,0,0-.41,0l2,3.59a36.6,36.6,0,0,0,4,.11,18.18,18.18,0,0,0,4.62-.58Z" transform="translate(0 0)"/>
          <g>
            <path class="cls-18" d="M132.08,349.76a15.46,15.46,0,0,1,9.65-14.32,13.94,13.94,0,0,1,1.72.22,14.24,14.24,0,0,1,11.84,13.55c0,.16,0,.31,0,.47v.16h0a8.8,8.8,0,0,0-11.7-8.32c.87-.31.83-.31-.06,0a8.61,8.61,0,0,0-3-.52,8.44,8.44,0,0,0-8.42,8.74v.08a8.31,8.31,0,0,0,8.34,8.65,8.55,8.55,0,0,0,2.71-.43,9,9,0,0,0,3.28.63,8.82,8.82,0,0,0,8.81-8.68,14.08,14.08,0,0,1-11.75,13.85,17.35,17.35,0,0,1-1.8.23A15.48,15.48,0,0,1,132.08,349.76Z" transform="translate(0 0)"/>
            <path class="cls-19" d="M137.66,349.86a8.82,8.82,0,0,0,5.54,8.2,8.55,8.55,0,0,1-2.71.43,8.31,8.31,0,0,1-8.34-8.65v-.08a8.44,8.44,0,0,1,8.42-8.74,8.61,8.61,0,0,1,3,.52c.89-.32.93-.32.06,0A8.81,8.81,0,0,0,137.66,349.86Z" transform="translate(0 0)"/>
            <path class="cls-20" d="M140.49,335.39c.42,0,.83,0,1.24.05a15.45,15.45,0,0,0,0,28.65c-.39,0-.78,0-1.17,0-8.58,0-14.81-6.47-14.81-14.37v-.08C125.76,341.78,131.91,335.39,140.49,335.39Z" transform="translate(0 0)"/>
            <path class="cls-21" d="M155.3,349.86c0,.05,0,.1,0,.15s0-.1,0-.16Z" transform="translate(0 0)"/>
            <path class="cls-22" d="M143.45,358c.92.33.9.34,0,0Z" transform="translate(0 0)"/>
            <path class="cls-23" d="M143.45,358c.92.33.9.34,0,0Z" transform="translate(0 0)"/>
            <path class="cls-24" d="M146.48,358.69a9,9,0,0,1-3.28-.63l.25-.09c.9.34.92.33,0,0a8.58,8.58,0,0,0,5.67-8.21v-.08a8.47,8.47,0,0,0-5.57-8.14h0a8.8,8.8,0,0,1,11.7,8.32c0,.06,0,.11,0,.16A8.82,8.82,0,0,1,146.48,358.69Z" transform="translate(0 0)"/>
            <path class="cls-25" d="M146.48,358.69a9,9,0,0,1-3.28-.63l.25-.09c.9.34.92.33,0,0a8.58,8.58,0,0,0,5.67-8.21v-.08a8.47,8.47,0,0,0-5.57-8.14h0a8.8,8.8,0,0,1,11.7,8.32c0,.06,0,.11,0,.16A8.82,8.82,0,0,1,146.48,358.69Z" transform="translate(0 0)"/>
          </g>
        </g>
      </g>
      <g id="cabeza">
        <g>
          <g>
            <path class="cls-5" d="M75.65,297c11.48,14.79,46.62,12,56.41,11s26.38-2.65,32.36-20.67,3-45.52-13.44-59.82-60.4-12-75.33,7.3S71.67,291.85,75.65,297Z" transform="translate(0 0)"/>
            <path class="cls-16" d="M78.68,238.76c.66-.24,14.23-10.79,38.8-12.89,8.46-.73,21.64,0,30.1,1.17-.84-.89-13-7.91-38.06-5.3A49.44,49.44,0,0,0,78.68,238.76Z" transform="translate(0 0)"/>
            <path class="cls-7" d="M123.36,234.39c-7.91.13-15.84.69-23.3,3.52l-.17.07c7.74,16.39,8.38,37.75,3.84,53a32.13,32.13,0,0,1-6.58,12.38c13.67,2.41,29,1.16,34.91.59,6.48-.62,15.93-1.58,23.31-7.37a35.89,35.89,0,0,0,2.14-5.6c4.6-15.47,3.88-37.19-4.15-53.66A127.5,127.5,0,0,0,123.36,234.39Z" transform="translate(0 0)"/>
            <path class="cls-26" d="M94.75,248.94c4.56-6.2,17-7.82,32.57-8.75,20.09-1.19,26.89,2.44,28.94,4.77s5.61,13.86,4.85,25.07-.89,14.59-5.51,17.38-17.94,5.52-26.55,5.73c-16.31.4-24.54-.4-30-3.6-2.79-1.64-6.33-10.46-6.89-21.34S92.39,252.16,94.75,248.94Z" transform="translate(0 0)"/>
            <path class="cls-27" d="M126.75,241.93c-9.67.56-18.08,1.39-24,3.48,5.17,14.36,5.21,31.39,1.37,44,0,.15-.1.28-.14.43,5.16,1.49,12.57,1.85,24.43,1.57,8.26-.2,21-2.75,25.47-5.36a7.83,7.83,0,0,0,3.47-3.61,75.12,75.12,0,0,0-2.55-35.69c-.1-.14-.2-.26-.29-.37C152.55,244.2,146,240.81,126.75,241.93Z" transform="translate(0 0)"/>
            <path class="cls-9" d="M84.19,259.25c-.27,6.1-3.67,10.89-7.6,10.72S69.7,264.71,70,258.62s3.67-10.89,7.6-10.71S84.46,253.16,84.19,259.25Z" transform="translate(0 0)"/>
            <path class="cls-28" d="M81.08,258.8c-.19,4.27-2.27,7.65-4.65,7.55s-4.16-3.66-4-7.94,2.27-7.65,4.65-7.55S81.27,254.52,81.08,258.8Z" transform="translate(0 0)"/>
            <path class="cls-29" d="M81.14,259.12l-.4,0,.4,0A14.94,14.94,0,0,0,79.35,251c-1.32-2.26-3.17-3.56-5.21-3.65-4.13-.18-7.74,4.8-8,11.1s2.86,11.58,7,11.77h.23C77.39,270.22,80.87,265.31,81.14,259.12Zm-7-11c1.76.08,3.38,1.24,4.56,3.26a14.15,14.15,0,0,1,1.68,7.67c-.26,5.86-3.49,10.48-7.18,10.33s-6.5-5.06-6.24-10.92,3.37-10.34,7-10.34Z" transform="translate(0 0)"/>
            <path class="cls-7" d="M73.61,273.38l2.88.1s1.23,12,4.68,19,8.35,9.28,8.35,9.28-7.38-2.39-11.8-11.51C74.54,283.69,73.61,273.38,73.61,273.38Z" transform="translate(0 0)"/>
            <path class="cls-30" d="M97.46,249.86v0a1.53,1.53,0,0,0,2.2.52c1.4-1,3.54-2.39,4.76-3.06,1.94-1.06,11.54-4.6,11.54-4.6s-9.62.2-17.78,4.64A1.82,1.82,0,0,0,97.46,249.86Z" transform="translate(0 0)"/>
          </g>
          <path class="cls-31" d="M89.92,257.85c0,1.89-.88,3.42-2,3.42s-2-1.53-2-3.42.88-3.42,2-3.42S89.92,256,89.92,257.85Z" transform="translate(0 0)"/>
        </g>
      </g>
      <g id="ojos">
        <g>
          <rect class="cls-32" x="113.24" y="253.21" width="13.86" height="18.11" rx="3.93"/>
          <rect class="cls-32" x="114.69" y="255.15" width="10.95" height="14.21" rx="3.93"/>
          <rect class="cls-33" x="116.54" y="256.98" width="7.6" height="11.06" rx="2.44"/>
          <path class="cls-34" d="M123.33,261.24h-6.24a.3.3,0,1,1,0-.6h6.24a.3.3,0,1,1,0,.6Z" transform="translate(0 0)"/>
          <path class="cls-34" d="M123.33,262.56h-6.24a.3.3,0,1,1,0-.6h6.24a.3.3,0,1,1,0,.6Z" transform="translate(0 0)"/>
          <path class="cls-34" d="M123.33,263.93h-6.24a.31.31,0,1,1,0-.61h6.24a.31.31,0,0,1,0,.61Z" transform="translate(0 0)"/>
          <path class="cls-34" d="M122.53,258.71h-4.65a.3.3,0,1,1,0-.6h4.65a.3.3,0,1,1,0,.6Z" transform="translate(0 0)"/>
          <path class="cls-34" d="M123.33,260.08h-6.24a.3.3,0,1,1,0-.6h6.24a.3.3,0,1,1,0,.6Z" transform="translate(0 0)"/>
          <path class="cls-34" d="M123.33,265.55h-6.24a.3.3,0,1,1,0-.6h6.24a.3.3,0,1,1,0,.6Z" transform="translate(0 0)"/>
          <path class="cls-34" d="M123.33,266.87h-6.24a.3.3,0,1,1,0-.6h6.24a.3.3,0,1,1,0,.6Z" transform="translate(0 0)"/>
        </g>
        <g>
          <rect class="cls-32" x="135.33" y="253.21" width="13.86" height="18.11" rx="3.93"/>
          <rect class="cls-32" x="136.78" y="255.15" width="10.95" height="14.21" rx="3.93"/>
          <rect class="cls-33" x="138.62" y="256.98" width="7.6" height="11.06" rx="2.44"/>
          <path class="cls-34" d="M145.41,261.24h-6.24a.3.3,0,0,1,0-.6h6.24a.3.3,0,1,1,0,.6Z" transform="translate(0 0)"/>
          <path class="cls-34" d="M145.41,262.56h-6.24a.3.3,0,0,1,0-.6h6.24a.3.3,0,1,1,0,.6Z" transform="translate(0 0)"/>
          <path class="cls-34" d="M145.41,263.93h-6.24a.31.31,0,0,1,0-.61h6.24a.31.31,0,1,1,0,.61Z" transform="translate(0 0)"/>
          <path class="cls-34" d="M144.62,258.71H140a.3.3,0,1,1,0-.6h4.65a.3.3,0,1,1,0,.6Z" transform="translate(0 0)"/>
          <path class="cls-34" d="M145.41,260.08h-6.24a.3.3,0,0,1,0-.6h6.24a.3.3,0,1,1,0,.6Z" transform="translate(0 0)"/>
          <path class="cls-34" d="M145.41,265.55h-6.24a.3.3,0,0,1,0-.6h6.24a.3.3,0,1,1,0,.6Z" transform="translate(0 0)"/>
          <path class="cls-34" d="M145.41,266.87h-6.24a.3.3,0,0,1,0-.6h6.24a.3.3,0,1,1,0,.6Z" transform="translate(0 0)"/>
        </g>
      </g>
      <g id="boca">
        <path class="cls-35" d="M123.06,280.6c6.25.79,17.47,1.41,17.47,1.41s-9.92,1-16.39-.1S116.33,279.74,123.06,280.6Z" transform="translate(0 0)"/>
      </g>
      <g id="brazoDerecho">
        <g>
          <path class="cls-36" d="M82,343c3.47,12.08.72,23.46-6.13,25.43s-15.23-6.22-18.69-18.3-.73-23.46,6.13-25.43S78.53,331,82,343Z" transform="translate(0 0)"/>
          <path class="cls-29" d="M73.67,365.47a.44.44,0,0,1,0-.87,5,5,0,0,0,4-2.82c2.85-4.89,2.3-14.13-1.28-21.49-4.27-8.8-11.1-12.31-15-10.51a.44.44,0,0,1-.58-.22A.42.42,0,0,1,61,329c4.88-2.26,12.12,2.64,16.14,10.91,3.69,7.6,4.22,17.2,1.24,22.32a5.9,5.9,0,0,1-4.72,3.25Z" transform="translate(0 0)"/>
          <g>
            <path class="cls-5" d="M36.15,388.07c2.88-35.24,15-51.64,17.93-55.1a2.85,2.85,0,0,1,1.66-1c2.42-.47,8.8-.63,16.13,7.71,5.07,5.77,4.87,16.15,4.55,16.69C73.06,362,52,397.63,46.66,409.58,40.9,422.56,34.91,403.13,36.15,388.07Z" transform="translate(0 0)"/>
            <path class="cls-6" d="M71.91,339.74A28.44,28.44,0,0,0,65.22,334a32.3,32.3,0,0,1,2.34,2.43c6.4,7.28,4.49,13,3.06,16.92-5.1,14.06-21.26,41-24.26,57,.11-.23.23-.47.34-.73,5.3-11.94,26.4-47.54,29.76-53.19C76.79,355.88,77,345.5,71.91,339.74Z" transform="translate(0 0)"/>
            <path class="cls-7" d="M52.67,345.41C38,359.08,38.52,401,38.52,401s7.08-29.82,13.69-42.72S57.68,340.74,52.67,345.41Z" transform="translate(0 0)"/>
            <path class="cls-6" d="M49.85,402.42a44,44,0,0,0,.57,6c.14.53,3.11,2.84,3.1,2.56-.11-2.52.49-15.78,2.47-19.38C56.69,390.32,49.63,400,49.85,402.42Z" transform="translate(0 0)"/>
            <path class="cls-8" d="M56.32,392a.42.42,0,0,1-.34-.19c-3.87-6.19-11.87-10.8-19.08-7.15a.4.4,0,1,1-.36-.72c7.64-3.87,16.07.95,20.13,7.45a.41.41,0,0,1-.13.55A.43.43,0,0,1,56.32,392Z" transform="translate(0 0)"/>
          </g>
          <g>
            <path class="cls-37" d="M61.2,355.39c-.19,6-4.69,10.68-10.07,10.51s-9.59-5.13-9.41-11.1,4.69-10.68,10.07-10.52S61.38,349.42,61.2,355.39Z" transform="translate(0 0)"/>
            <g>
              <path class="cls-38" d="M44.79,356c-.13,2,1,4.11,2.15,5.7a19.8,19.8,0,0,0,2.34,2.7s6.21-1.59,7.93-5.15c.35-.75,2-5.42,2-5.42s.49-1.13-.43-1.65a29,29,0,0,1-3.15-1.79,9.13,9.13,0,0,0-2.1-1.34c-.59-.22-.86-.09-1.95,0a35.89,35.89,0,0,1-3.7-.1c-1.09,0-1.22,1.23-1.22,1.23S44.85,355.17,44.79,356Z" transform="translate(0 0)"/>
              <path class="cls-39" d="M46.64,350.19s-1.79,5-1.85,5.82c-.26,4,4.49,8.41,4.49,8.41h0s6.21-1.59,7.91-5.16c.36-.74,2-5.42,2-5.42s.49-1.13-.43-1.64a30.5,30.5,0,0,1-3.15-1.78,8.92,8.92,0,0,0-2.1-1.35c-.59-.22-.86-.1-1.95,0a33.44,33.44,0,0,1-3.7-.09C46.77,348.93,46.64,350.19,46.64,350.19Zm1-.21.92,0a10.78,10.78,0,0,0,2.85,0c2-.38,2.57.62,3.52,1.3a18,18,0,0,0,2.42,1.41l.78.41a.93.93,0,0,1,0,.23.11.11,0,0,0,0,.06c-.62,1.79-1.7,4.82-1.94,5.32-.74,1.55-2.61,2.69-4.05,3.38a20.71,20.71,0,0,1-2.4.95,19.54,19.54,0,0,1-1.68-2c-.93-1.29-2-3.44-1.93-5.17a38.05,38.05,0,0,1,1.5-5.65A2.3,2.3,0,0,1,47.61,350Z" transform="translate(0 0)"/>
              <path class="cls-40" d="M44.79,356c-.15,2.33,1.39,4.78,2.7,6.43-1.2-1.62-2.42-3.81-2.28-5.89.06-.85,1.84-5.83,1.84-5.83s.13-1.26,1.23-1.23a33.37,33.37,0,0,0,3.7.09c1.09-.08,1.35-.2,2,0A8.92,8.92,0,0,1,56,351a29.49,29.49,0,0,0,3.15,1.78l.08.05a1,1,0,0,0-.5-.59,30.5,30.5,0,0,1-3.15-1.78,8.92,8.92,0,0,0-2.1-1.35c-.59-.22-.86-.1-1.95,0a33.37,33.37,0,0,1-3.7-.09c-1.09,0-1.23,1.23-1.23,1.23S44.85,355.17,44.79,356Z" transform="translate(0 0)"/>
              <path class="cls-39" d="M51,356.12a.38.38,0,0,0,.09.37l-.08.29a.09.09,0,0,0,.06.1l.23.06a.08.08,0,0,0,.1-.06l.08-.29a.39.39,0,0,0,.26-.27.38.38,0,1,0-.74-.2Z" transform="translate(0 0)"/>
              <path class="cls-39" d="M51,354.13l-.15.57,1.72.45.15-.57a.89.89,0,1,0-1.72-.45Z" transform="translate(0 0)"/>
              <path class="cls-39" d="M47.87,351.57s-1.08,3.68-1.13,4.3c-.23,3,3.1,6.43,3.1,6.43h0s4.41-1.23,5.65-3.9c.26-.56,1.47-4.06,1.47-4.06s.36-.85-.29-1.22a21.08,21.08,0,0,1-2.22-1.29,10.25,10.25,0,0,0-1-.69,3.83,3.83,0,0,0-.63-.34h0a2.52,2.52,0,0,0-1.29-.1,20.34,20.34,0,0,1-2.61,0C48.14,350.66,47.87,351.57,47.87,351.57Zm1.58,3.26a.48.48,0,0,1,.59-.34l.13,0,.15-.57a1.58,1.58,0,1,1,3.06.81l-.15.57.13,0a.48.48,0,0,1,.34.59l-.59,2.23a.48.48,0,0,1-.59.35l-3.31-.87a.5.5,0,0,1-.35-.6Z" transform="translate(0 0)"/>
              <path class="cls-40" d="M46.74,355.88c-.16,2.14,1.51,4.52,2.46,5.69-1-1.27-2.18-3.3-2-5.15.05-.63,1.13-4.31,1.13-4.31s.26-.92,1-.91a18.56,18.56,0,0,0,2.61,0,2.42,2.42,0,0,1,1.29.1h0a4.67,4.67,0,0,1,.62.35,10.25,10.25,0,0,1,1,.69A17.07,17.07,0,0,0,57,353.63a.73.73,0,0,0-.37-.51,20.12,20.12,0,0,1-2.22-1.29,10.25,10.25,0,0,0-1-.69,5.31,5.31,0,0,0-.63-.35h0a2.4,2.4,0,0,0-1.29-.1,20.23,20.23,0,0,1-2.61,0c-.77,0-1,.91-1,.91S46.79,355.25,46.74,355.88Z" transform="translate(0 0)"/>
            </g>
          </g>
        </g>
      </g>
    </g>
  </g>
</svg>
