<svg xmlns="http://www.w3.org/2000/svg" xmlns:xlink="http://www.w3.org/1999/xlink" width="1024" height="620" viewBox="0 0 1024 620">
  <defs>
    <style>
      .cls-1 {
        isolation: isolate;
      }

      .cls-2 {
        fill: none;
      }

      .cls-3, .cls-4 {
        fill: #51b2fb;
      }

      .cls-3, .cls-32 {
        opacity: 0.1;
      }

      .cls-4 {
        opacity: 0.2;
      }

      .cls-5 {
        fill: #e3ebfc;
      }

      .cls-6 {
        fill: #ccddfa;
      }

      .cls-7 {
        fill: #fafbff;
      }

      .cls-8 {
        fill: #80a7f6;
      }

      .cls-9 {
        fill: #9fbcfb;
      }

      .cls-10 {
        fill: #b8d0f9;
      }

      .cls-11, .cls-29, .cls-31 {
        fill: #207bff;
      }

      .cls-11, .cls-37 {
        opacity: 0.4;
      }

      .cls-12 {
        fill: #004bff;
        opacity: 0.5;
        mix-blend-mode: multiply;
      }

      .cls-13 {
        fill: #c5d8fa;
      }

      .cls-14 {
        fill: url(#_ÂÁ_Ï_ÌÌ_È_ËÂÌÚ_30);
      }

      .cls-15 {
        fill: #4aebff;
      }

      .cls-16, .cls-30 {
        fill: #fff;
      }

      .cls-17 {
        fill: #bef9ff;
      }

      .cls-18 {
        fill: url(#linear-gradient);
      }

      .cls-19 {
        fill: #ec1c24;
      }

      .cls-20 {
        fill: url(#linear-gradient-2);
      }

      .cls-21 {
        fill: url(#linear-gradient-3);
      }

      .cls-22 {
        fill: url(#linear-gradient-4);
      }

      .cls-23 {
        fill: url(#linear-gradient-5);
      }

      .cls-24 {
        fill: url(#linear-gradient-6);
      }

      .cls-25 {
        fill: url(#linear-gradient-7);
      }

      .cls-26 {
        fill: url(#_ÂÁ_Ï_ÌÌ_È_ËÂÌÚ_14);
      }

      .cls-27 {
        fill: url(#_ÂÁ_Ï_ÌÌ_È_ËÂÌÚ_18);
      }

      .cls-28 {
        fill: #4880f8;
      }

      .cls-30 {
        opacity: 0.8;
      }

      .cls-31 {
        opacity: 0.72;
      }

      .cls-32, .cls-33, .cls-34, .cls-35 {
        fill: #3ae6fb;
      }

      .cls-33 {
        opacity: 0.3;
      }

      .cls-35 {
        opacity: 0.7;
      }

      .cls-36 {
        fill: #93b4fb;
      }

      .cls-37 {
        mix-blend-mode: lighten;
        fill: url(#radial-gradient);
      }

      .cls-38 {
        fill: #00ffda;
      }

      .cls-39 {
        fill: #7fd1ca;
      }

      .cls-40 {
        fill: #1e1e1e;
      }
    </style>
    <radialGradient id="_ÂÁ_Ï_ÌÌ_È_ËÂÌÚ_30" data-name="¡ÂÁ˚ÏˇÌÌ˚È „‡‰ËÂÌÚ 30" cx="4500.53" cy="487.34" r="9.28" gradientTransform="translate(-4284.51)" gradientUnits="userSpaceOnUse">
      <stop offset="0" stop-color="#4aebff"/>
      <stop offset="1" stop-color="#00709e"/>
    </radialGradient>
    <linearGradient id="linear-gradient" x1="186.07" y1="325.26" x2="186.07" y2="376.43" gradientTransform="translate(45.19)" gradientUnits="userSpaceOnUse">
      <stop offset="0.02" stop-color="#dd2a21"/>
      <stop offset="0.06" stop-color="#c8201b"/>
      <stop offset="0.1" stop-color="#b71717"/>
      <stop offset="0.15" stop-color="#ac1113"/>
      <stop offset="0.22" stop-color="#a50e12"/>
      <stop offset="0.43" stop-color="#a30d11"/>
      <stop offset="0.79" stop-color="#6b0006"/>
    </linearGradient>
    <linearGradient id="linear-gradient-2" x1="171.21" y1="327.54" x2="171.21" y2="364.26" gradientTransform="translate(45.19)" gradientUnits="userSpaceOnUse">
      <stop offset="0" stop-color="#ad1a27"/>
      <stop offset="0.08" stop-color="#9e151f"/>
      <stop offset="0.28" stop-color="#7d090e"/>
      <stop offset="0.44" stop-color="#680304"/>
      <stop offset="0.56" stop-color="#610000"/>
      <stop offset="0.73" stop-color="#520000"/>
      <stop offset="1" stop-color="#3f0000"/>
    </linearGradient>
    <linearGradient id="linear-gradient-3" x1="743.2" y1="346.45" x2="767.47" y2="346.45" gradientTransform="matrix(-1, 0, 0, 1, 1015.73, 0)" gradientUnits="userSpaceOnUse">
      <stop offset="0" stop-color="#be1349"/>
      <stop offset="0.24" stop-color="#be124e"/>
      <stop offset="0.25" stop-color="#be124e"/>
      <stop offset="1" stop-color="#7a0025"/>
    </linearGradient>
    <linearGradient id="linear-gradient-4" x1="735.8" y1="358.65" x2="767.58" y2="358.65" gradientTransform="matrix(-1, 0, 0, 1, 1015.73, 0)" gradientUnits="userSpaceOnUse">
      <stop offset="0" stop-color="#282881"/>
      <stop offset="0.27" stop-color="#26257d"/>
      <stop offset="0.55" stop-color="#1f1b70"/>
      <stop offset="0.84" stop-color="#150c5b"/>
      <stop offset="1" stop-color="#0d004c"/>
    </linearGradient>
    <linearGradient id="linear-gradient-5" x1="743.32" y1="358.65" x2="767.47" y2="358.65" xlink:href="#linear-gradient-3"/>
    <linearGradient id="linear-gradient-6" x1="748.21" y1="346.35" x2="778.56" y2="346.35" xlink:href="#linear-gradient-4"/>
    <linearGradient id="linear-gradient-7" x1="194.38" y1="357.44" x2="194.38" y2="340.05" gradientTransform="translate(45.19)" gradientUnits="userSpaceOnUse">
      <stop offset="0" stop-color="#ed2d24"/>
      <stop offset="0.12" stop-color="#ed2824"/>
      <stop offset="0.25" stop-color="#ec1c24"/>
      <stop offset="1" stop-color="#74020d"/>
    </linearGradient>
    <linearGradient id="_ÂÁ_Ï_ÌÌ_È_ËÂÌÚ_14" data-name="¡ÂÁ˚ÏˇÌÌ˚È „‡‰ËÂÌÚ 14" x1="4433.28" y1="433.95" x2="4536.55" y2="433.95" gradientTransform="translate(-4295.07 14.34) rotate(-2.88)" gradientUnits="userSpaceOnUse">
      <stop offset="0" stop-color="#003a6b"/>
      <stop offset="1" stop-color="#00204c"/>
    </linearGradient>
    <linearGradient id="_ÂÁ_Ï_ÌÌ_È_ËÂÌÚ_18" data-name="¡ÂÁ˚ÏˇÌÌ˚È „‡‰ËÂÌÚ 18" x1="4467.47" y1="179.04" x2="4519.79" y2="267.19" gradientTransform="translate(-4284.51)" gradientUnits="userSpaceOnUse">
      <stop offset="0" stop-color="#cbd7e1"/>
      <stop offset="0.05" stop-color="#aec0d0"/>
      <stop offset="0.15" stop-color="#7998b2"/>
      <stop offset="0.26" stop-color="#4e7698"/>
      <stop offset="0.35" stop-color="#2c5c85"/>
      <stop offset="0.44" stop-color="#144976"/>
      <stop offset="0.53" stop-color="#053e6e"/>
      <stop offset="0.6" stop-color="#003a6b"/>
      <stop offset="1" stop-color="#00204c"/>
    </linearGradient>
    <radialGradient id="radial-gradient" cx="2981.74" cy="448.56" r="19.65" gradientTransform="matrix(0.74, 0.02, -0.03, 0.82, -2103.65, -82.03)" gradientUnits="userSpaceOnUse">
      <stop offset="0" stop-color="#00ddde" stop-opacity="0.52"/>
      <stop offset="0.09" stop-color="#2de6e7" stop-opacity="0.65"/>
      <stop offset="0.2" stop-color="#63f1f1" stop-opacity="0.8"/>
      <stop offset="0.3" stop-color="#8af8f9" stop-opacity="0.91"/>
      <stop offset="0.38" stop-color="#a2fdfd" stop-opacity="0.98"/>
      <stop offset="0.43" stop-color="#abffff"/>
      <stop offset="0.46" stop-color="#9ffcfd"/>
      <stop offset="0.51" stop-color="#7ff6f6"/>
      <stop offset="0.58" stop-color="#4aebeb"/>
      <stop offset="0.66" stop-color="#03dcdd"/>
      <stop offset="0.66" stop-color="#00dbdc"/>
      <stop offset="0.69" stop-color="#08dcdd" stop-opacity="0.97"/>
      <stop offset="0.74" stop-color="#1fdfe0" stop-opacity="0.88"/>
      <stop offset="0.8" stop-color="#44e5e5" stop-opacity="0.73"/>
      <stop offset="0.87" stop-color="#78eced" stop-opacity="0.53"/>
      <stop offset="0.94" stop-color="#baf5f6" stop-opacity="0.27"/>
      <stop offset="1" stop-color="#fff" stop-opacity="0"/>
    </radialGradient>
  </defs>
  <title>robot</title>
  <g class="cls-1">
    <g id="Robot">
      <g id="fondo">
        <rect class="cls-2" width="1024" height="620"/>
      </g>
      <g id="sombra">
        <g>
          <path class="cls-3" d="M265.57,540.62c0,9.23-33.32,16.71-74.42,16.71s-74.42-7.48-74.42-16.71,33.32-16.71,74.42-16.71S265.57,531.39,265.57,540.62Z"/>
          <path class="cls-4" d="M249.12,540.62c0,5.87-26,10.63-58,10.63s-58-4.76-58-10.63,25.95-10.63,58-10.63S249.12,534.75,249.12,540.62Z"/>
          <path class="cls-4" d="M226.05,540.62c0,3.53-15.62,6.4-34.9,6.4s-34.91-2.87-34.91-6.4,15.63-6.4,34.91-6.4S226.05,537.09,226.05,540.62Z"/>
        </g>
      </g>
      <g id="brazoIzquierdo">
        <g>
          <g>
            <path class="cls-5" d="M320.34,381.84c-10.88-51.71-32-73.76-36.93-78.34a4.37,4.37,0,0,0-2.64-1.15c-3.68-.23-13.16.72-22.47,14.47-6.44,9.5-4.2,24.85-3.62,25.6,6,7.74,44,56.56,54.1,73.27C319.75,433.87,325,403.93,320.34,381.84Z"/>
            <path class="cls-6" d="M258.24,316.88a42.75,42.75,0,0,1,8.84-9.82c-1,1.21-2,2.55-3,4-8.11,12-4.21,20.1-1.36,25.65,10.21,19.89,39.21,56.76,46.67,80-.22-.32-.43-.66-.65-1-10.09-16.71-48.05-65.53-54.1-73.28C254,341.73,251.81,326.38,258.24,316.88Z"/>
            <path class="cls-7" d="M287.83,321.68c24.33,17.52,31.42,79.81,31.42,79.81s-16.1-42.88-28.32-60.77S279.53,315.7,287.83,321.68Z"/>
            <path class="cls-6" d="M302.7,405.68c.14,3.63.6,6.62.29,9-.11.82-4.09,4.8-4.12,4.38-.3-3.76-3.68-23.31-7.29-28.27C290.3,389,302.57,402.06,302.7,405.68Z"/>
            <path class="cls-8" d="M291.15,391.4a.59.59,0,0,0,.47-.34c4.57-9.91,15.57-18.24,26.95-14.18a.6.6,0,1,0,.4-1.14c-12.05-4.3-23.65,4.42-28.44,14.81a.6.6,0,0,0,.29.8A.55.55,0,0,0,291.15,391.4Z"/>
          </g>
          <path class="cls-9" d="M284.27,326.49c-1.4,16.14-8.16,28.74-15.11,28.14s-11.43-14.18-10-30.32,8.14-28.51,15.1-28.14C284.28,296.69,285.67,310.34,284.27,326.49Z"/>
        </g>
      </g>
      <g id="torso">
        <g>
          <path class="cls-5" d="M123.85,287.42c-7.21-.47-32.62,25-25,49.76s51,107.28,60.77,136.18,15.69,36,29.63,38.64,35,3.58,59.46-47.44S276.94,356.24,278,329s-1.73-38-11.25-41.14C244.6,280.64,123.85,287.42,123.85,287.42Z"/>
          <path class="cls-7" d="M238.88,458.55c18.95-53.67,16.67-111.36,14.91-138.7-1.17-18.17-3.32-28.89-7.5-34.65-20.18-1.13-49.66-.64-74.64.16C185,320.6,204.75,379.94,208,441.07c2.2,40.79-3.43,60.71-11.23,70.92C209.52,509.45,224.79,498.48,238.88,458.55Z"/>
          <path class="cls-10" d="M268.91,290.15c0,5.28-37.37,13.5-75.07,13.56s-75.11-8-75.12-13.32,37.38-5.77,75.08-5.83S268.9,284.86,268.91,290.15Z"/>
          <path class="cls-11" d="M246.11,291.23c0,3.65-25.74,9.33-51.71,9.38s-51.74-5.55-51.75-9.21,25.75-4,51.73-4S246.11,287.57,246.11,291.23Z"/>
          <path class="cls-12" d="M230.31,293.12c0,1.4-17.76,3.18-35.06,3.21s-33.87-1.69-33.87-3.09,16.56-2,33.86-2S230.31,291.72,230.31,293.12Z"/>
          <path class="cls-13" d="M175.16,479.34c-4-21.64-10-92.37-24.2-142.29-7.13-25-23.9-42.68-40.14-37.08-11.52,4-16.08,23.83-11.94,37.21,7.65,24.73,51,107.28,60.77,136.18s15.69,36,29.63,38.64c7.18,1.35,16.26,2.24,26.71-4.17C201.85,510.05,181.8,515.15,175.16,479.34Z"/>
          <path class="cls-14" d="M225.07,489.87a25.43,25.43,0,0,1-8.59,1.41,39,39,0,0,1-9.62-.7c-1.79-.45-3.36-1.61-3.35-3.57h0a3.47,3.47,0,0,1,3.36-3.56s7.4.82,9.2.8a66.11,66.11,0,0,0,9.33-.87c1.85,0,3.59.54,3,3.2C228.17,487.81,227.31,489,225.07,489.87Z"/>
          <path class="cls-15" d="M223.88,489.47a26.34,26.34,0,0,1-7.42,1,41.54,41.54,0,0,1-8.31-.5c-1.55-.32-2.91-1.15-2.9-2.55h0a2.75,2.75,0,0,1,2.9-2.54s6.39.59,7.95.58a69.22,69.22,0,0,0,8.07-.62c1.6,0,3.1.38,2.62,2.28C226.57,488,225.82,488.88,223.88,489.47Z"/>
          <path class="cls-8" d="M214.4,473.55c-17,0-37.82-3.68-60.28-12.91a.6.6,0,1,1,.46-1.11c41.86,17.2,77.87,15,93.62,5.71a.6.6,0,0,1,.83.21.59.59,0,0,1-.22.82C241.33,470.7,229.35,473.55,214.4,473.55Z"/>
          <path class="cls-16" d="M214,472.21c-17,0-37.81-3.68-60.27-12.92a.59.59,0,0,1-.33-.78.6.6,0,0,1,.78-.33c41.86,17.21,77.88,15,93.63,5.71a.6.6,0,0,1,.61,1C240.88,469.36,228.91,472.21,214,472.21Z"/>
          <path class="cls-7" d="M274.88,301.37c3.21,65.41-6.22,96.36-6.22,96.36s9-49.42.7-97.19C268.22,294,274.38,291.15,274.88,301.37Z"/>
          <path class="cls-16" d="M124.48,296.8s7.44,4.48,34.66,7,63,2,63,2-33,4.37-63.16,1.13S124.48,296.8,124.48,296.8Z"/>
          <path class="cls-17" d="M220.46,485.25c-1.32.11-2.85.21-4.36.22s-7.95-.58-7.95-.58a3.15,3.15,0,0,0-.61.06l2.94,5.36c1.61.14,3.59.2,6,.17a27.16,27.16,0,0,0,6.92-.88Z"/>
          <g>
            <path class="cls-18" d="M213.92,346.19a23.12,23.12,0,0,1,14.41-21.41c.87.07,1.73.18,2.57.33a21.29,21.29,0,0,1,17.69,20.27c0,.23,0,.46,0,.69v.26a13.17,13.17,0,0,0-17.49-12.44c1.3-.47,1.25-.47-.08,0a12.83,12.83,0,0,0-4.45-.78c-7.35,0-12.58,5.94-12.58,13.06v.12c0,7.12,5.11,12.93,12.47,12.93a12.69,12.69,0,0,0,4.05-.65,13.18,13.18,0,0,0,18.07-12A21.05,21.05,0,0,1,231,367.27a23.81,23.81,0,0,1-2.69.33A23.09,23.09,0,0,1,213.92,346.19Z"/>
            <path class="cls-19" d="M222.24,346.35a13.19,13.19,0,0,0,8.29,12.24,12.69,12.69,0,0,1-4.05.65c-7.36,0-12.47-5.81-12.47-12.93v-.12c0-7.12,5.23-13.06,12.58-13.06a12.83,12.83,0,0,1,4.45.78c1.33-.49,1.38-.49.08,0A13.17,13.17,0,0,0,222.24,346.35Z"/>
            <path class="cls-20" d="M226.48,324.71c.62,0,1.24,0,1.85.07a23.1,23.1,0,0,0,0,42.82c-.58,0-1.16.07-1.76.07-12.81,0-22.13-9.67-22.13-21.48v-.12C204.46,334.26,213.66,324.71,226.48,324.71Z"/>
            <path class="cls-21" d="M248.61,346.35c0,.07,0,.14,0,.21s0-.15,0-.23Z"/>
            <path class="cls-22" d="M230.9,358.47c1.38.49,1.35.5,0,0Z"/>
            <path class="cls-23" d="M230.9,358.47c1.38.49,1.35.5,0,0Z"/>
            <path class="cls-24" d="M235.42,359.53a13.3,13.3,0,0,1-4.89-.94l.37-.12c1.35.5,1.38.49,0,0a12.86,12.86,0,0,0,8.48-12.28v-.12a12.65,12.65,0,0,0-8.33-12.16l.07,0a13.17,13.17,0,0,1,17.49,12.44c0,.08,0,.16,0,.23A13.18,13.18,0,0,1,235.42,359.53Z"/>
            <path class="cls-25" d="M235.42,359.53a13.3,13.3,0,0,1-4.89-.94l.37-.12c1.35.5,1.38.49,0,0a12.86,12.86,0,0,0,8.48-12.28v-.12a12.65,12.65,0,0,0-8.33-12.16l.07,0a13.17,13.17,0,0,1,17.49,12.44c0,.08,0,.16,0,.23A13.18,13.18,0,0,1,235.42,359.53Z"/>
          </g>
        </g>
      </g>
      <g id="cabeza">
        <g>
          <g>
            <path class="cls-5" d="M129.57,267.3c17.16,22.09,69.68,17.88,84.31,16.49s39.43-4,48.36-30.89,4.46-68-20.09-89.4-90.26-17.88-112.58,10.92S123.62,259.64,129.57,267.3Z"/>
            <path class="cls-16" d="M134.1,180.29c1-.35,21.26-16.11,58-19.26,12.64-1.09,32.34,0,45,1.75-1.26-1.33-19.42-11.82-56.89-7.92C171.05,155.81,149.86,161.53,134.1,180.29Z"/>
            <path class="cls-7" d="M200.87,173.77c-11.82.19-23.67,1-34.81,5.26l-.26.1c11.57,24.5,12.52,56.42,5.75,79.25a48.3,48.3,0,0,1-9.85,18.5c20.43,3.6,43.29,1.72,52.18.88,9.68-.92,23.8-2.36,34.84-11a56.47,56.47,0,0,0,3.2-8.36c6.86-23.12,5.8-55.58-6.2-80.2A190.35,190.35,0,0,0,200.87,173.77Z"/>
            <path class="cls-26" d="M158.12,195.52c6.82-9.27,25.39-11.69,48.67-13.08,30-1.79,40.19,3.65,43.25,7.12s8.4,20.71,7.25,37.48-1.33,21.8-8.22,26-26.82,8.25-39.69,8.56c-24.38.59-36.67-.59-44.82-5.38-4.17-2.45-9.47-15.64-10.3-31.9S154.59,200.32,158.12,195.52Z"/>
            <path class="cls-27" d="M206,185c-14.46.84-27,2.09-35.86,5.21,7.73,21.46,7.78,46.91,2,65.75l-.21.63c7.72,2.23,18.79,2.77,36.52,2.35,12.34-.3,31.45-4.11,38.07-8a11.86,11.86,0,0,0,5.18-5.41,112.19,112.19,0,0,0-3.82-53.34,5.08,5.08,0,0,0-.42-.54C244.51,188.44,234.76,183.36,206,185Z"/>
            <path class="cls-9" d="M142.34,210.93c-.41,9.1-5.5,16.27-11.37,16s-10.29-7.85-9.89-17,5.49-16.27,11.36-16S142.74,201.82,142.34,210.93Z"/>
            <path class="cls-28" d="M137.69,210.24c-.29,6.39-3.4,11.45-7,11.29s-6.21-5.47-5.93-11.86,3.4-11.44,7-11.29S138,203.85,137.69,210.24Z"/>
            <path class="cls-29" d="M137.78,210.72l-.6,0,.6,0a22.42,22.42,0,0,0-2.67-12.12c-2-3.39-4.75-5.33-7.8-5.46-6.17-.27-11.57,7.16-12,16.59S119.6,227,125.8,227.31h.33C132.18,227.32,137.37,220,137.78,210.72Zm-10.52-16.38c2.63.12,5,1.84,6.81,4.86a21.2,21.2,0,0,1,2.51,11.47c-.39,8.76-5.21,15.66-10.73,15.44s-9.71-7.57-9.32-16.33,5-15.45,10.45-15.45Z"/>
            <path class="cls-7" d="M126.52,232l4.31.15s1.84,17.89,7,28.4,12.49,13.88,12.49,13.88-11-3.58-17.64-17.2C127.91,247.45,126.52,232,126.52,232Z"/>
            <path class="cls-30" d="M162.17,196.89v0a2.29,2.29,0,0,0,3.29.78c2.09-1.43,5.29-3.57,7.12-4.57,2.9-1.58,17.24-6.88,17.24-6.88s-14.37.3-26.58,6.93A2.73,2.73,0,0,0,162.17,196.89Z"/>
          </g>
          <path class="cls-31" d="M150.9,208.83c0,2.83-1.31,5.12-2.93,5.12s-2.93-2.29-2.93-5.12,1.31-5.11,2.93-5.11S150.9,206,150.9,208.83Z"/>
        </g>
      </g>
      <g id="ojos">
        <g>
          <rect class="cls-32" x="185.75" y="201.89" width="20.71" height="27.06" rx="3.93"/>
          <rect class="cls-32" x="187.92" y="204.8" width="16.37" height="21.24" rx="3.93"/>
          <rect class="cls-33" x="190.68" y="207.52" width="11.36" height="16.54" rx="2.44"/>
          <path class="cls-34" d="M200.83,213.9H191.5a.45.45,0,1,1,0-.9h9.33a.45.45,0,1,1,0,.9Z"/>
          <path class="cls-34" d="M200.83,215.87H191.5a.45.45,0,1,1,0-.9h9.33a.45.45,0,1,1,0,.9Z"/>
          <path class="cls-34" d="M200.83,217.91H191.5a.45.45,0,0,1,0-.9h9.33a.45.45,0,0,1,0,.9Z"/>
          <path class="cls-34" d="M199.64,210.12h-6.95a.45.45,0,1,1,0-.9h6.95a.45.45,0,1,1,0,.9Z"/>
          <path class="cls-34" d="M200.83,212.16H191.5a.45.45,0,0,1,0-.9h9.33a.45.45,0,0,1,0,.9Z"/>
          <path class="cls-34" d="M200.83,220.34H191.5a.45.45,0,1,1,0-.9h9.33a.45.45,0,1,1,0,.9Z"/>
          <path class="cls-34" d="M200.83,222.31H191.5a.45.45,0,0,1,0-.9h9.33a.45.45,0,0,1,0,.9Z"/>
        </g>
        <g>
          <rect class="cls-32" x="218.76" y="201.89" width="20.71" height="27.06" rx="3.93"/>
          <rect class="cls-32" x="220.93" y="204.8" width="16.37" height="21.24" rx="3.93"/>
          <rect class="cls-33" x="223.69" y="207.52" width="11.36" height="16.54" rx="2.44"/>
          <path class="cls-34" d="M233.84,213.9h-9.33a.45.45,0,1,1,0-.9h9.33a.45.45,0,1,1,0,.9Z"/>
          <path class="cls-34" d="M233.84,215.87h-9.33a.45.45,0,1,1,0-.9h9.33a.45.45,0,1,1,0,.9Z"/>
          <path class="cls-34" d="M233.84,217.91h-9.33a.45.45,0,1,1,0-.9h9.33a.45.45,0,0,1,0,.9Z"/>
          <path class="cls-34" d="M232.65,210.12h-7a.45.45,0,1,1,0-.9h7a.45.45,0,1,1,0,.9Z"/>
          <path class="cls-34" d="M233.84,212.16h-9.33a.45.45,0,1,1,0-.9h9.33a.45.45,0,0,1,0,.9Z"/>
          <path class="cls-34" d="M233.84,220.34h-9.33a.45.45,0,1,1,0-.9h9.33a.45.45,0,1,1,0,.9Z"/>
          <path class="cls-34" d="M233.84,222.31h-9.33a.45.45,0,1,1,0-.9h9.33a.45.45,0,0,1,0,.9Z"/>
        </g>
      </g>
      <g id="boca">
        <path class="cls-35" d="M200.42,242.82c9.35,1.19,26.11,2.12,26.11,2.12s-14.82,1.51-24.5-.16S190.37,241.54,200.42,242.82Z"/>
      </g>
      <g id="brazoDerecho">
        <g>
          <path class="cls-36" d="M139.06,336.12c5.18,18.05,1.08,35.07-9.16,38s-22.75-9.31-27.94-27.36-1.08-35.06,9.17-38S133.88,318.07,139.06,336.12Z"/>
          <path class="cls-29" d="M126.61,369.67a.66.66,0,0,1-.67-.61.65.65,0,0,1,.61-.69c2.46-.16,4.49-1.58,6-4.22,4.26-7.31,3.44-21.12-1.9-32.12-6.39-13.14-16.6-18.38-22.4-15.71a.65.65,0,0,1-.86-.31.65.65,0,0,1,.32-.87c7.28-3.37,18.1,4,24.11,16.32,5.52,11.36,6.32,25.69,1.86,33.35-1.75,3-4.19,4.67-7.06,4.86Z"/>
          <g>
            <path class="cls-5" d="M70.53,403.45C74.84,350.78,93,326.26,97.34,321.1a4.22,4.22,0,0,1,2.48-1.47c3.62-.7,13.14-.94,24.11,11.53,7.57,8.62,7.28,24.13,6.79,24.94-5,8.45-36.56,61.64-44.47,79.49C77.64,455,68.69,426,70.53,403.45Z"/>
            <path class="cls-6" d="M124,331.21a42.91,42.91,0,0,0-10-8.63c1.14,1.08,2.31,2.28,3.5,3.63,9.55,10.87,6.7,19.42,4.57,25.28-7.63,21-31.78,61.23-36.26,85.24.17-.35.34-.71.51-1.1,7.91-17.84,39.45-71,44.48-79.48C131.27,355.34,131.56,339.83,124,331.21Z"/>
            <path class="cls-7" d="M95.23,339.69c-21.93,20.43-21.15,83.12-21.15,83.12S84.66,378.25,94.55,359,102.72,332.72,95.23,339.69Z"/>
            <path class="cls-6" d="M91,424.89c.33,3.61.25,6.65.85,9,.21.79,4.65,4.25,4.64,3.82-.17-3.76.73-23.58,3.68-29C101.23,406.81,90.69,421.28,91,424.89Z"/>
            <path class="cls-8" d="M100.69,409.28a.59.59,0,0,1-.51-.29c-5.78-9.25-17.74-16.14-28.52-10.69a.6.6,0,1,1-.54-1.07c11.41-5.78,24,1.42,30.08,11.13a.61.61,0,0,1-.19.83A.62.62,0,0,1,100.69,409.28Z"/>
          </g>
          <g>
            <path class="cls-37" d="M108,354.6c-.27,8.92-7,16-15,15.72s-14.33-7.68-14.06-16.6,7-16,15-15.72S108.24,345.68,108,354.6Z"/>
            <g>
              <path class="cls-38" d="M83.45,355.54c-.19,3,1.49,6.14,3.21,8.53a29.87,29.87,0,0,0,3.51,4s9.28-2.38,11.84-7.7c.53-1.12,3-8.1,3-8.1s.73-1.69-.64-2.46a45.13,45.13,0,0,1-4.71-2.67,14,14,0,0,0-3.13-2c-.89-.31-1.29-.13-2.92,0A50.88,50.88,0,0,1,88,345c-1.63-.05-1.83,1.83-1.83,1.83S83.54,354.28,83.45,355.54Z"/>
              <path class="cls-39" d="M86.21,346.83s-2.67,7.45-2.75,8.71c-.39,6,6.71,12.56,6.71,12.56h0s9.28-2.38,11.84-7.71c.53-1.11,3-8.1,3-8.1s.73-1.69-.64-2.45a45.13,45.13,0,0,1-4.71-2.67,13.41,13.41,0,0,0-3.14-2c-.88-.32-1.28-.13-2.91,0A51.31,51.31,0,0,1,88,345C86.41,345,86.21,346.83,86.21,346.83Zm1.46-.31,1.36,0a16.36,16.36,0,0,0,4.27,0c2.94-.56,3.84.93,5.25,2a26.64,26.64,0,0,0,3.62,2.1c.42.22.82.42,1.18.62a1.09,1.09,0,0,1-.07.34l0,.1c-.93,2.67-2.54,7.19-2.9,7.95-1.11,2.31-3.9,4-6.06,5a29.84,29.84,0,0,1-3.59,1.42,30.17,30.17,0,0,1-2.5-3c-1.39-1.94-3-5.14-2.88-7.73a56.28,56.28,0,0,1,2.23-8.45C87.55,346.86,87.67,346.52,87.67,346.52Z"/>
              <path class="cls-40" d="M83.45,355.54c-.23,3.49,2.07,7.16,4,9.61-1.8-2.42-3.62-5.68-3.41-8.8.08-1.26,2.75-8.71,2.75-8.71s.2-1.88,1.83-1.84a48.64,48.64,0,0,0,5.54.14c1.63-.12,2-.3,2.91,0a13.07,13.07,0,0,1,3.13,2,46.18,46.18,0,0,0,4.71,2.67.32.32,0,0,1,.12.08,1.46,1.46,0,0,0-.74-.89,43.39,43.39,0,0,1-4.71-2.67,13.27,13.27,0,0,0-3.13-2c-.89-.32-1.29-.14-2.92,0A48.46,48.46,0,0,1,88,345c-1.64,0-1.83,1.84-1.83,1.84S83.54,354.28,83.45,355.54Z"/>
              <path class="cls-39" d="M92.71,355.7a.61.61,0,0,0,.14.55l-.11.43a.12.12,0,0,0,.08.15l.35.09a.12.12,0,0,0,.15-.08l.12-.44a.58.58,0,0,0,0-1.12A.59.59,0,0,0,92.71,355.7Z"/>
              <path class="cls-39" d="M92.72,352.72l-.23.85,2.57.68.23-.86a1.33,1.33,0,1,0-2.57-.67Z"/>
              <path class="cls-39" d="M88.05,348.9s-1.62,5.5-1.68,6.43C86,359.79,91,364.94,91,364.94h0s6.59-1.85,8.45-5.84c.39-.84,2.19-6.07,2.19-6.07s.53-1.26-.43-1.82a29.68,29.68,0,0,1-3.32-1.93c-.56-.42-1.08-.77-1.5-1a5.94,5.94,0,0,0-.94-.51h0a3.54,3.54,0,0,0-1.93-.15,29.28,29.28,0,0,1-3.9,0C88.45,347.53,88.05,348.9,88.05,348.9Zm2.37,4.87a.72.72,0,0,1,.88-.51l.19,0,.22-.85a2.37,2.37,0,1,1,4.59,1.21l-.23.85.19.05a.73.73,0,0,1,.51.89l-.88,3.33a.72.72,0,0,1-.88.52l-5-1.3a.73.73,0,0,1-.51-.89Z"/>
              <path class="cls-40" d="M86.37,355.33c-.25,3.2,2.25,6.76,3.67,8.52-1.42-1.91-3.26-4.94-3.05-7.71.07-.94,1.69-6.43,1.69-6.43s.39-1.38,1.54-1.36a29.4,29.4,0,0,0,3.9,0,3.6,3.6,0,0,1,1.93.16h0a7.43,7.43,0,0,1,.93.52,15.84,15.84,0,0,1,1.51,1,25.35,25.35,0,0,0,3.24,1.88,1.1,1.1,0,0,0-.55-.76,27.35,27.35,0,0,1-3.31-1.93c-.57-.42-1.09-.77-1.51-1a5.94,5.94,0,0,0-.94-.51h0a3.72,3.72,0,0,0-1.93-.16,27.65,27.65,0,0,1-3.89,0c-1.15,0-1.55,1.36-1.55,1.36S86.44,354.39,86.37,355.33Z"/>
            </g>
          </g>
        </g>
      </g>
    </g>
  </g>
</svg>
