<svg xmlns="http://www.w3.org/2000/svg" xmlns:xlink="http://www.w3.org/1999/xlink" width="1024" height="620" viewBox="0 0 1024 620">
  <defs>
    <style>
      .cls-1 {
        isolation: isolate;
      }

      .cls-2 {
        fill: none;
      }

      .cls-3, .cls-4 {
        fill: #51b2fb;
      }

      .cls-3, .cls-32 {
        opacity: 0.1;
      }

      .cls-4 {
        opacity: 0.2;
      }

      .cls-5 {
        fill: #e3ebfc;
      }

      .cls-6 {
        fill: #ccddfa;
      }

      .cls-7 {
        fill: #fafbff;
      }

      .cls-8 {
        fill: #80a7f6;
      }

      .cls-9 {
        fill: #9fbcfb;
      }

      .cls-10 {
        fill: #b8d0f9;
      }

      .cls-11, .cls-29, .cls-31 {
        fill: #207bff;
      }

      .cls-11, .cls-37 {
        opacity: 0.4;
      }

      .cls-12 {
        fill: #004bff;
        opacity: 0.5;
        mix-blend-mode: multiply;
      }

      .cls-13 {
        fill: #c5d8fa;
      }

      .cls-14 {
        fill: url(#_ÂÁ_Ï_ÌÌ_È_ËÂÌÚ_30);
      }

      .cls-15 {
        fill: #4aebff;
      }

      .cls-16, .cls-30 {
        fill: #fff;
      }

      .cls-17 {
        fill: #bef9ff;
      }

      .cls-18 {
        fill: url(#linear-gradient);
      }

      .cls-19 {
        fill: #ec1c24;
      }

      .cls-20 {
        fill: url(#linear-gradient-2);
      }

      .cls-21 {
        fill: url(#linear-gradient-3);
      }

      .cls-22 {
        fill: url(#linear-gradient-4);
      }

      .cls-23 {
        fill: url(#linear-gradient-5);
      }

      .cls-24 {
        fill: url(#linear-gradient-6);
      }

      .cls-25 {
        fill: url(#linear-gradient-7);
      }

      .cls-26 {
        fill: url(#_ÂÁ_Ï_ÌÌ_È_ËÂÌÚ_14);
      }

      .cls-27 {
        fill: url(#_ÂÁ_Ï_ÌÌ_È_ËÂÌÚ_18);
      }

      .cls-28 {
        fill: #4880f8;
      }

      .cls-30 {
        opacity: 0.8;
      }

      .cls-31 {
        opacity: 0.72;
      }

      .cls-32, .cls-33, .cls-34, .cls-35 {
        fill: #3ae6fb;
      }

      .cls-33 {
        opacity: 0.3;
      }

      .cls-35 {
        opacity: 0.7;
      }

      .cls-36 {
        fill: #93b4fb;
      }

      .cls-37 {
        mix-blend-mode: lighten;
        fill: url(#radial-gradient);
      }

      .cls-38 {
        fill: #00ffda;
      }

      .cls-39 {
        fill: #7fd1ca;
      }

      .cls-40 {
        fill: #1e1e1e;
      }
    </style>
    <radialGradient id="_ÂÁ_Ï_ÌÌ_È_ËÂÌÚ_30" data-name="¡ÂÁ˚ÏˇÌÌ˚È „‡‰ËÂÌÚ 30" cx="4443.66" cy="381.31" r="7.12" gradientTransform="translate(-4284.51)" gradientUnits="userSpaceOnUse">
      <stop offset="0" stop-color="#4aebff"/>
      <stop offset="1" stop-color="#00709e"/>
    </radialGradient>
    <linearGradient id="linear-gradient" x1="125.65" y1="256.98" x2="125.65" y2="296.23" gradientTransform="translate(45.19)" gradientUnits="userSpaceOnUse">
      <stop offset="0.02" stop-color="#dd2a21"/>
      <stop offset="0.06" stop-color="#c8201b"/>
      <stop offset="0.1" stop-color="#b71717"/>
      <stop offset="0.15" stop-color="#ac1113"/>
      <stop offset="0.22" stop-color="#a50e12"/>
      <stop offset="0.43" stop-color="#a30d11"/>
      <stop offset="0.79" stop-color="#6b0006"/>
    </linearGradient>
    <linearGradient id="linear-gradient-2" x1="114.25" y1="258.74" x2="114.25" y2="286.91" gradientTransform="translate(45.19)" gradientUnits="userSpaceOnUse">
      <stop offset="0" stop-color="#ad1a27"/>
      <stop offset="0.08" stop-color="#9e151f"/>
      <stop offset="0.28" stop-color="#7d090e"/>
      <stop offset="0.44" stop-color="#680304"/>
      <stop offset="0.56" stop-color="#610000"/>
      <stop offset="0.73" stop-color="#520000"/>
      <stop offset="1" stop-color="#3f0000"/>
    </linearGradient>
    <linearGradient id="linear-gradient-3" x1="813.75" y1="273.24" x2="831.84" y2="273.24" gradientTransform="matrix(-1, 0, 0, 1, 1015.73, 0)" gradientUnits="userSpaceOnUse">
      <stop offset="0" stop-color="#be1349"/>
      <stop offset="0.24" stop-color="#be124e"/>
      <stop offset="0.25" stop-color="#be124e"/>
      <stop offset="1" stop-color="#7a0025"/>
    </linearGradient>
    <linearGradient id="linear-gradient-4" x1="807.55" y1="282.6" x2="831.93" y2="282.6" gradientTransform="matrix(-1, 0, 0, 1, 1015.73, 0)" gradientUnits="userSpaceOnUse">
      <stop offset="0" stop-color="#282881"/>
      <stop offset="0.27" stop-color="#26257d"/>
      <stop offset="0.55" stop-color="#1f1b70"/>
      <stop offset="0.84" stop-color="#150c5b"/>
      <stop offset="1" stop-color="#0d004c"/>
    </linearGradient>
    <linearGradient id="linear-gradient-5" x1="813.32" y1="282.6" x2="831.84" y2="282.6" xlink:href="#linear-gradient-3"/>
    <linearGradient id="linear-gradient-6" x1="817.07" y1="273.16" x2="840.35" y2="273.16" xlink:href="#linear-gradient-4"/>
    <linearGradient id="linear-gradient-7" x1="132.02" y1="281.67" x2="132.02" y2="268.34" gradientTransform="translate(45.19)" gradientUnits="userSpaceOnUse">
      <stop offset="0" stop-color="#ed2d24"/>
      <stop offset="0.12" stop-color="#ed2824"/>
      <stop offset="0.25" stop-color="#ec1c24"/>
      <stop offset="1" stop-color="#74020d"/>
    </linearGradient>
    <linearGradient id="_ÂÁ_Ï_ÌÌ_È_ËÂÌÚ_14" data-name="¡ÂÁ˚ÏˇÌÌ˚È „‡‰ËÂÌÚ 14" x1="4393.11" y1="387.01" x2="4472.32" y2="387.01" gradientTransform="translate(-4295.07 14.34) rotate(-2.88)" gradientUnits="userSpaceOnUse">
      <stop offset="0" stop-color="#003a6b"/>
      <stop offset="1" stop-color="#00204c"/>
    </linearGradient>
    <linearGradient id="_ÂÁ_Ï_ÌÌ_È_ËÂÌÚ_18" data-name="¡ÂÁ˚ÏˇÌÌ˚È „‡‰ËÂÌÚ 18" x1="4418.3" y1="144.84" x2="4458.44" y2="212.45" gradientTransform="translate(-4284.51)" gradientUnits="userSpaceOnUse">
      <stop offset="0" stop-color="#cbd7e1"/>
      <stop offset="0.05" stop-color="#aec0d0"/>
      <stop offset="0.15" stop-color="#7998b2"/>
      <stop offset="0.26" stop-color="#4e7698"/>
      <stop offset="0.35" stop-color="#2c5c85"/>
      <stop offset="0.44" stop-color="#144976"/>
      <stop offset="0.53" stop-color="#053e6e"/>
      <stop offset="0.6" stop-color="#003a6b"/>
      <stop offset="1" stop-color="#00204c"/>
    </linearGradient>
    <radialGradient id="radial-gradient" cx="2940.48" cy="358.47" r="15.07" gradientTransform="matrix(0.74, 0.02, -0.03, 0.82, -2103.65, -82.03)" gradientUnits="userSpaceOnUse">
      <stop offset="0" stop-color="#00ddde" stop-opacity="0.52"/>
      <stop offset="0.09" stop-color="#2de6e7" stop-opacity="0.65"/>
      <stop offset="0.2" stop-color="#63f1f1" stop-opacity="0.8"/>
      <stop offset="0.3" stop-color="#8af8f9" stop-opacity="0.91"/>
      <stop offset="0.38" stop-color="#a2fdfd" stop-opacity="0.98"/>
      <stop offset="0.43" stop-color="#abffff"/>
      <stop offset="0.46" stop-color="#9ffcfd"/>
      <stop offset="0.51" stop-color="#7ff6f6"/>
      <stop offset="0.58" stop-color="#4aebeb"/>
      <stop offset="0.66" stop-color="#03dcdd"/>
      <stop offset="0.66" stop-color="#00dbdc"/>
      <stop offset="0.69" stop-color="#08dcdd" stop-opacity="0.97"/>
      <stop offset="0.74" stop-color="#1fdfe0" stop-opacity="0.88"/>
      <stop offset="0.8" stop-color="#44e5e5" stop-opacity="0.73"/>
      <stop offset="0.87" stop-color="#78eced" stop-opacity="0.53"/>
      <stop offset="0.94" stop-color="#baf5f6" stop-opacity="0.27"/>
      <stop offset="1" stop-color="#fff" stop-opacity="0"/>
    </radialGradient>
  </defs>
  <title>robot</title>
  <g class="cls-1">
    <g id="Robot">
      <g id="Capa_17" data-name="Capa 17">
        <rect class="cls-2" width="1024" height="620"/>
      </g>
      <g id="sombra">
        <g>
          <path class="cls-3" d="M197.16,422.18c0,7.07-25.56,12.81-57.08,12.81S83,429.25,83,422.18s25.56-12.82,57.09-12.82S197.16,415.1,197.16,422.18Z"/>
          <ellipse class="cls-4" cx="140.08" cy="422.18" rx="44.47" ry="8.15"/>
          <path class="cls-4" d="M166.85,422.18c0,2.71-12,4.9-26.77,4.9s-26.78-2.19-26.78-4.9,12-4.91,26.78-4.91S166.85,419.47,166.85,422.18Z"/>
        </g>
      </g>
      <g id="brazoIzquierdo">
        <g>
          <g>
            <path class="cls-5" d="M237,298.7c-8.34-39.66-24.52-56.57-28.32-60.09a3.35,3.35,0,0,0-2-.88c-2.82-.18-10.09.55-17.23,11.1-4.94,7.29-3.22,19.06-2.78,19.63,4.64,6,33.76,43.39,41.5,56.21C236.55,338.61,240.57,315.64,237,298.7Z"/>
            <path class="cls-6" d="M189.37,248.87a33.28,33.28,0,0,1,6.78-7.53c-.76.93-1.54,2-2.31,3.1-6.23,9.19-3.23,15.42-1.05,19.68,7.83,15.26,30.08,43.53,35.8,61.37-.16-.25-.33-.5-.5-.78-7.73-12.82-36.85-50.26-41.49-56.2C186.15,267.93,184.44,256.16,189.37,248.87Z"/>
            <path class="cls-7" d="M212.07,252.56c18.66,13.43,24.1,61.22,24.1,61.22s-12.35-32.89-21.72-46.62S205.7,248,212.07,252.56Z"/>
            <path class="cls-6" d="M223.48,317a52.45,52.45,0,0,1,.22,6.89c-.08.63-3.14,3.69-3.16,3.36-.24-2.88-2.83-17.88-5.6-21.68C214,304.21,223.38,314.21,223.48,317Z"/>
            <path class="cls-8" d="M214.61,306a.47.47,0,0,0,.37-.27c3.5-7.6,11.94-14,20.67-10.88a.46.46,0,0,0,.59-.28A.47.47,0,0,0,236,294c-9.25-3.29-18.14,3.4-21.82,11.37a.46.46,0,0,0,.47.65Z"/>
          </g>
          <path class="cls-9" d="M209.34,256.24c-1.07,12.39-6.26,22.05-11.59,21.59S189,267,190.06,254.57s6.24-21.86,11.58-21.58C209.35,233.39,210.41,243.86,209.34,256.24Z"/>
        </g>
      </g>
      <g id="torso">
        <g>
          <path class="cls-5" d="M88.46,228c-5.53-.36-25,19.2-19.16,38.17s39.09,82.29,46.61,104.45,12,27.63,22.74,29.64,26.86,2.75,45.6-36.39,21.63-83.08,22.48-104-1.33-29.17-8.64-31.55C181.08,222.76,88.46,228,88.46,228Z"/>
          <path class="cls-7" d="M176.69,359.22c14.53-41.16,12.78-85.41,11.43-106.38-.89-13.94-2.54-22.16-5.75-26.58-15.48-.87-38.09-.49-57.25.13,10.24,27,25.39,72.54,27.91,119.43,1.68,31.28-2.64,46.57-8.62,54.39C154.17,398.26,165.88,389.86,176.69,359.22Z"/>
          <path class="cls-10" d="M199.72,230.06c0,4.05-28.66,10.35-57.58,10.4s-57.61-6.16-57.62-10.22,28.67-4.42,57.59-4.47S199.71,226,199.72,230.06Z"/>
          <path class="cls-11" d="M182.23,230.88c0,2.81-19.74,7.17-39.66,7.2s-39.69-4.26-39.69-7.07,19.75-3.06,39.67-3.09S182.23,228.08,182.23,230.88Z"/>
          <path class="cls-12" d="M170.11,232.34c0,1.07-13.61,2.43-26.89,2.46s-26-1.3-26-2.37,12.71-1.5,26-1.53S170.11,231.26,170.11,232.34Z"/>
          <path class="cls-13" d="M127.81,375.17c-3.07-16.59-7.65-70.85-18.56-109.14-5.46-19.19-18.33-32.73-30.79-28.44-8.84,3-12.33,18.28-9.16,28.54,5.87,19,39.09,82.29,46.61,104.45s12,27.63,22.74,29.64c5.5,1,12.47,1.72,20.48-3.19C148.29,398.73,132.9,402.64,127.81,375.17Z"/>
          <path class="cls-14" d="M166.09,383.25a19.49,19.49,0,0,1-6.59,1.08,30.24,30.24,0,0,1-7.37-.53c-1.38-.35-2.58-1.24-2.57-2.74h0a2.67,2.67,0,0,1,2.58-2.74s5.67.63,7.05.62a50.37,50.37,0,0,0,7.16-.67c1.42,0,2.75.42,2.32,2.45A3.53,3.53,0,0,1,166.09,383.25Z"/>
          <path class="cls-15" d="M165.19,383a20.67,20.67,0,0,1-5.7.77,31.14,31.14,0,0,1-6.38-.39c-1.18-.25-2.22-.88-2.22-1.95h0a2.11,2.11,0,0,1,2.23-1.95s4.9.45,6.1.44a53.2,53.2,0,0,0,6.19-.47c1.22,0,2.37.29,2,1.75C167.24,381.82,166.67,382.49,165.19,383Z"/>
          <path class="cls-8" d="M157.91,370.73c-13,0-29-2.82-46.24-9.9a.46.46,0,0,1-.25-.6.47.47,0,0,1,.6-.26c32.11,13.2,59.74,11.53,71.82,4.39a.46.46,0,1,1,.47.79C178.56,368.55,169.38,370.73,157.91,370.73Z"/>
          <path class="cls-16" d="M157.57,369.7c-13,0-29-2.82-46.24-9.9a.46.46,0,0,1,.35-.86c32.11,13.2,59.74,11.52,71.82,4.38a.46.46,0,0,1,.47.8C178.22,367.51,169,369.7,157.57,369.7Z"/>
          <path class="cls-7" d="M204.3,238.66c2.46,50.18-4.77,73.92-4.77,73.92s6.91-37.91.54-74.55C199.19,233,203.92,230.82,204.3,238.66Z"/>
          <path class="cls-16" d="M88.94,235.16s5.71,3.43,26.58,5.37,48.35,1.57,48.35,1.57-25.32,3.36-48.45.86S88.94,235.16,88.94,235.16Z"/>
          <path class="cls-17" d="M162.56,379.71c-1,.08-2.19.16-3.34.16s-6.1-.44-6.1-.44a3.57,3.57,0,0,0-.47,0l2.25,4.11a44.13,44.13,0,0,0,4.59.14,21.4,21.4,0,0,0,5.31-.67Z"/>
          <g>
            <path class="cls-18" d="M157.54,273a17.73,17.73,0,0,1,11.05-16.42c.67.05,1.33.14,2,.25a16.34,16.34,0,0,1,13.57,15.55c0,.17,0,.35,0,.53v.2A10.11,10.11,0,0,0,174,263.05a10,10,0,0,0-3.3.56c1-.36,1-.36-.06,0A9.71,9.71,0,0,0,157.61,273v.09c0,5.46,3.92,9.92,9.56,9.92a9.63,9.63,0,0,0,3.12-.5,9.94,9.94,0,0,0,3.75.72,10.11,10.11,0,0,0,10.11-9.94,16.16,16.16,0,0,1-13.48,15.88,19.65,19.65,0,0,1-2.06.25A17.72,17.72,0,0,1,157.54,273Z"/>
            <path class="cls-19" d="M163.93,273.16a10.11,10.11,0,0,0,6.36,9.39,9.63,9.63,0,0,1-3.12.5c-5.64,0-9.56-4.46-9.56-9.92V273a9.71,9.71,0,0,1,13.07-9.41c1-.38,1.06-.38.06,0A10.08,10.08,0,0,0,163.93,273.16Z"/>
            <path class="cls-20" d="M167.17,256.57c.48,0,1,0,1.42.05a17.72,17.72,0,0,0,0,32.84c-.45,0-.89.06-1.35.06-9.83,0-17-7.42-17-16.48V273C150.29,263.89,157.34,256.57,167.17,256.57Z"/>
            <path class="cls-21" d="M184.15,273.16v0Z"/>
            <path class="cls-22" d="M170.56,282.46Z"/>
            <path class="cls-23" d="M170.56,282.46Z"/>
            <path class="cls-24" d="M174,283.27a9.94,9.94,0,0,1-3.75-.72l.27-.09h0a9.86,9.86,0,0,0,6.51-9.42V273a9.68,9.68,0,0,0-6.39-9.32l.06,0a10,10,0,0,1,3.3-.56,10.11,10.11,0,0,1,10.11,10.1v.18A10.11,10.11,0,0,1,174,283.27Z"/>
            <path class="cls-25" d="M174,283.27a9.94,9.94,0,0,1-3.75-.72l.27-.09h0a9.86,9.86,0,0,0,6.51-9.42V273a9.68,9.68,0,0,0-6.39-9.32l.06,0a10,10,0,0,1,3.3-.56,10.11,10.11,0,0,1,10.11,10.1v.18A10.11,10.11,0,0,1,174,283.27Z"/>
          </g>
        </g>
      </g>
      <g id="cabeza">
        <g>
          <g>
            <path class="cls-5" d="M92.85,212.53c13.16,16.95,53.44,13.72,64.66,12.65s30.25-3,37.09-23.69,3.43-52.19-15.4-68.58S110,119.2,92.85,141.29,88.28,206.65,92.85,212.53Z"/>
            <path class="cls-16" d="M96.32,145.79c.75-.26,16.31-12.36,44.48-14.77,9.69-.83,24.81,0,34.51,1.34-1-1-14.9-9.07-43.64-6.08C124.66,127,108.41,131.4,96.32,145.79Z"/>
            <path class="cls-7" d="M147.54,140.79c-9.07.14-18.16.78-26.71,4l-.2.08c8.88,18.79,9.61,43.28,4.41,60.79a37,37,0,0,1-7.55,14.19c15.67,2.76,33.21,1.32,40,.67,7.43-.7,18.26-1.81,26.73-8.45a43,43,0,0,0,2.45-6.41c5.26-17.74,4.45-42.64-4.76-61.52A146,146,0,0,0,147.54,140.79Z"/>
            <path class="cls-26" d="M114.75,157.47c5.22-7.11,19.47-9,37.32-10,23-1.37,30.83,2.8,33.18,5.46s6.44,15.89,5.56,28.75-1,16.72-6.31,19.92-20.56,6.33-30.44,6.57c-18.7.45-28.13-.46-34.38-4.13-3.2-1.88-7.26-12-7.9-24.47S112,161.16,114.75,157.47Z"/>
            <path class="cls-27" d="M151.43,149.43c-11.09.64-20.73,1.6-27.51,4,5.93,16.46,6,36,1.57,50.43,0,.17-.11.32-.16.49,5.92,1.71,14.41,2.12,28,1.8,9.47-.22,24.12-3.15,29.2-6.14a9,9,0,0,0,4-4.14,86,86,0,0,0-2.92-40.92,3.68,3.68,0,0,0-.33-.41C181,152,173.53,148.14,151.43,149.43Z"/>
            <path class="cls-9" d="M102.63,169.29c-.31,7-4.21,12.48-8.71,12.28s-7.9-6-7.59-13,4.21-12.48,8.72-12.28S103,162.31,102.63,169.29Z"/>
            <path class="cls-28" d="M99.07,168.77c-.22,4.9-2.61,8.77-5.34,8.65s-4.76-4.19-4.54-9.09,2.61-8.78,5.33-8.66S99.29,163.86,99.07,168.77Z"/>
            <path class="cls-29" d="M99.14,169.13l-.46,0,.46,0a17.11,17.11,0,0,0-2-9.3c-1.51-2.59-3.64-4.08-6-4.19-4.73-.2-8.87,5.5-9.19,12.73s3.28,13.28,8,13.49h.25C94.84,181.86,98.83,176.23,99.14,169.13Zm-8.07-12.56c2,.09,3.87,1.41,5.22,3.73a16.17,16.17,0,0,1,1.93,8.79c-.3,6.72-4,12-8.23,11.85s-7.45-5.81-7.15-12.53,3.87-11.85,8-11.85Z"/>
            <path class="cls-7" d="M90.5,185.48l3.31.11s1.41,13.73,5.36,21.79S108.75,218,108.75,218s-8.47-2.74-13.53-13.19C91.57,197.3,90.5,185.48,90.5,185.48Z"/>
            <path class="cls-30" d="M117.85,158.52v0a1.76,1.76,0,0,0,2.52.6c1.6-1.1,4.05-2.74,5.46-3.51,2.23-1.21,13.23-5.27,13.23-5.27s-11,.23-20.39,5.31A2.09,2.09,0,0,0,117.85,158.52Z"/>
          </g>
          <ellipse class="cls-31" cx="106.96" cy="167.68" rx="2.25" ry="3.92"/>
        </g>
      </g>
      <g id="ojos">
        <g>
          <rect class="cls-32" x="135.94" y="162.36" width="15.89" height="20.76" rx="3.93"/>
          <rect class="cls-32" x="137.6" y="164.59" width="12.56" height="16.29" rx="3.93"/>
          <rect class="cls-33" x="139.72" y="166.68" width="8.71" height="12.68" rx="2.44"/>
          <path class="cls-34" d="M147.5,171.57h-7.16a.35.35,0,0,1-.34-.35.34.34,0,0,1,.34-.34h7.16a.35.35,0,0,1,.35.34A.35.35,0,0,1,147.5,171.57Z"/>
          <path class="cls-34" d="M147.5,173.08h-7.16a.35.35,0,0,1,0-.69h7.16a.35.35,0,1,1,0,.69Z"/>
          <path class="cls-34" d="M147.5,174.65h-7.16a.35.35,0,0,1-.34-.35.34.34,0,0,1,.34-.34h7.16a.35.35,0,0,1,.35.34A.35.35,0,0,1,147.5,174.65Z"/>
          <path class="cls-34" d="M146.59,168.67h-5.33a.35.35,0,1,1,0-.69h5.33a.35.35,0,0,1,0,.69Z"/>
          <path class="cls-34" d="M147.5,170.24h-7.16a.35.35,0,0,1-.34-.35.34.34,0,0,1,.34-.34h7.16a.35.35,0,0,1,.35.34A.35.35,0,0,1,147.5,170.24Z"/>
          <path class="cls-34" d="M147.5,176.51h-7.16a.35.35,0,0,1,0-.69h7.16a.35.35,0,1,1,0,.69Z"/>
          <path class="cls-34" d="M147.5,178h-7.16a.34.34,0,0,1-.34-.34.35.35,0,0,1,.34-.35h7.16a.35.35,0,0,1,.35.35A.35.35,0,0,1,147.5,178Z"/>
        </g>
        <g>
          <rect class="cls-32" x="161.25" y="162.36" width="15.89" height="20.76" rx="3.93"/>
          <rect class="cls-32" x="162.92" y="164.59" width="12.56" height="16.29" rx="3.93"/>
          <rect class="cls-33" x="165.03" y="166.68" width="8.71" height="12.68" rx="2.44"/>
          <path class="cls-34" d="M172.82,171.57h-7.16a.35.35,0,0,1-.34-.35.34.34,0,0,1,.34-.34h7.16a.34.34,0,0,1,.34.34A.35.35,0,0,1,172.82,171.57Z"/>
          <path class="cls-34" d="M172.82,173.08h-7.16a.35.35,0,0,1,0-.69h7.16a.35.35,0,0,1,0,.69Z"/>
          <path class="cls-34" d="M172.82,174.65h-7.16a.35.35,0,0,1-.34-.35.34.34,0,0,1,.34-.34h7.16a.34.34,0,0,1,.34.34A.35.35,0,0,1,172.82,174.65Z"/>
          <path class="cls-34" d="M171.91,168.67h-5.34a.35.35,0,0,1,0-.69h5.34a.35.35,0,0,1,0,.69Z"/>
          <path class="cls-34" d="M172.82,170.24h-7.16a.35.35,0,0,1-.34-.35.34.34,0,0,1,.34-.34h7.16a.34.34,0,0,1,.34.34A.35.35,0,0,1,172.82,170.24Z"/>
          <path class="cls-34" d="M172.82,176.51h-7.16a.35.35,0,0,1,0-.69h7.16a.35.35,0,0,1,0,.69Z"/>
          <path class="cls-34" d="M172.82,178h-7.16a.34.34,0,0,1-.34-.34.35.35,0,0,1,.34-.35h7.16a.35.35,0,0,1,.34.35A.34.34,0,0,1,172.82,178Z"/>
        </g>
      </g>
      <g id="boca">
        <path class="cls-35" d="M147.19,193.76c7.17.91,20,1.62,20,1.62s-11.38,1.16-18.79-.12S139.48,192.77,147.19,193.76Z"/>
      </g>
      <g id="brazoDerecho">
        <g>
          <path class="cls-36" d="M100.12,265.32c4,13.84.83,26.89-7,29.15s-17.45-7.14-21.42-21-.83-26.9,7-29.15S96.15,251.48,100.12,265.32Z"/>
          <path class="cls-29" d="M90.58,291.05a.5.5,0,0,1,0-1,5.73,5.73,0,0,0,4.62-3.23c3.26-5.61,2.64-16.2-1.46-24.64-4.9-10.08-12.73-14.1-17.18-12.05a.5.5,0,1,1-.42-.9c5.59-2.59,13.89,3,18.49,12.52,4.24,8.71,4.85,19.7,1.43,25.57a6.76,6.76,0,0,1-5.42,3.73Z"/>
          <g>
            <path class="cls-5" d="M47.56,317c3.3-40.39,17.24-59.2,20.56-63.16a3.31,3.31,0,0,1,1.9-1.13c2.78-.53,10.08-.72,18.49,8.85,5.81,6.61,5.59,18.5,5.22,19.13-3.86,6.47-28,47.27-34.12,61C53,356.5,46.15,334.22,47.56,317Z"/>
            <path class="cls-6" d="M88.56,261.55a33.2,33.2,0,0,0-7.67-6.62c.88.83,1.77,1.75,2.69,2.79,7.33,8.34,5.14,14.89,3.5,19.39-5.85,16.12-24.37,47-27.81,65.38q.19-.4.39-.84c6.07-13.69,30.26-54.49,34.12-61C94.15,280.06,94.37,268.16,88.56,261.55Z"/>
            <path class="cls-7" d="M66.51,268.06c-16.83,15.67-16.23,63.75-16.23,63.75s8.12-34.18,15.7-49S72.25,262.71,66.51,268.06Z"/>
            <path class="cls-6" d="M63.27,333.41a52,52,0,0,0,.65,6.87c.16.61,3.57,3.26,3.55,2.93-.12-2.89.57-18.09,2.83-22.21C71.11,319.54,63,330.64,63.27,333.41Z"/>
            <path class="cls-8" d="M70.69,321.43a.47.47,0,0,1-.39-.22c-4.43-7.09-13.61-12.38-21.87-8.2a.46.46,0,0,1-.42-.82c8.76-4.43,18.42,1.09,23.07,8.54a.45.45,0,0,1-.15.63A.42.42,0,0,1,70.69,321.43Z"/>
          </g>
          <g>
            <path class="cls-37" d="M76.28,279.49c-.21,6.85-5.38,12.25-11.55,12.06s-11-5.89-10.78-12.74,5.37-12.24,11.54-12.05S76.48,272.65,76.28,279.49Z"/>
            <g>
              <path class="cls-38" d="M57.47,280.21c-.15,2.31,1.14,4.71,2.46,6.55a23.45,23.45,0,0,0,2.69,3.09s7.12-1.82,9.08-5.91c.41-.86,2.27-6.21,2.27-6.21s.57-1.3-.49-1.89a33.55,33.55,0,0,1-3.61-2,10.39,10.39,0,0,0-2.4-1.54c-.69-.25-1-.11-2.24,0a40.69,40.69,0,0,1-4.24-.1c-1.26,0-1.41,1.4-1.41,1.4S57.54,279.25,57.47,280.21Z"/>
              <path class="cls-39" d="M59.58,273.53s-2,5.72-2.11,6.68c-.3,4.61,5.15,9.64,5.15,9.64h0s7.12-1.83,9.08-5.91c.41-.86,2.27-6.22,2.27-6.22s.57-1.29-.49-1.88a35.12,35.12,0,0,1-3.61-2,10,10,0,0,0-2.41-1.55c-.67-.25-1-.11-2.23,0a38.29,38.29,0,0,1-4.25-.1C59.73,272.09,59.58,273.53,59.58,273.53Zm1.12-.23,1,0a12.68,12.68,0,0,0,3.27,0c2.26-.43,3,.71,4,1.49a21.46,21.46,0,0,0,2.78,1.62l.9.47a.85.85,0,0,1,0,.26.21.21,0,0,0,0,.07c-.71,2.05-2,5.52-2.23,6.1-.85,1.78-3,3.09-4.64,3.87A21,21,0,0,1,63,288.32,24,24,0,0,1,61.1,286c-1.06-1.48-2.34-3.94-2.21-5.93a43.25,43.25,0,0,1,1.72-6.48A2.82,2.82,0,0,1,60.7,273.3Z"/>
              <path class="cls-40" d="M57.47,280.21c-.17,2.68,1.59,5.49,3.1,7.38-1.38-1.86-2.78-4.36-2.62-6.76.07-1,2.11-6.68,2.11-6.68s.15-1.44,1.41-1.41a37.94,37.94,0,0,0,4.24.11c1.25-.09,1.55-.23,2.24,0a10.05,10.05,0,0,1,2.4,1.54,32.61,32.61,0,0,0,3.61,2l.1.06a1.17,1.17,0,0,0-.58-.68,33.55,33.55,0,0,1-3.61-2,10.05,10.05,0,0,0-2.4-1.54c-.69-.25-1-.11-2.24,0a37.94,37.94,0,0,1-4.24-.11c-1.26,0-1.41,1.42-1.41,1.42S57.54,279.25,57.47,280.21Z"/>
              <path class="cls-39" d="M64.57,280.33a.47.47,0,0,0,.11.43l-.09.33a.09.09,0,0,0,.07.11l.27.07a.08.08,0,0,0,.11-.06l.09-.34a.43.43,0,0,0,.3-.31.45.45,0,1,0-.86-.23Z"/>
              <path class="cls-39" d="M64.58,278.05l-.18.65,2,.52.17-.65a1,1,0,0,0-.73-1.26A1,1,0,0,0,64.58,278.05Z"/>
              <path class="cls-39" d="M61,275.12s-1.24,4.22-1.3,4.93c-.26,3.42,3.55,7.37,3.55,7.37h0s5.05-1.41,6.48-4.48c.3-.64,1.68-4.65,1.68-4.65s.41-1-.33-1.4a20.79,20.79,0,0,1-2.54-1.48c-.44-.32-.83-.59-1.16-.79a4.22,4.22,0,0,0-.72-.39h0a2.8,2.8,0,0,0-1.48-.11,24.36,24.36,0,0,1-3,0C61.3,274.07,61,275.12,61,275.12Zm1.81,3.74a.56.56,0,0,1,.68-.4l.14,0,.18-.66a1.82,1.82,0,1,1,3.51.93l-.17.66.14,0a.55.55,0,0,1,.39.68L67,282.7a.55.55,0,0,1-.68.4l-3.8-1a.56.56,0,0,1-.39-.68Z"/>
              <path class="cls-40" d="M59.71,280.05c-.19,2.46,1.72,5.19,2.81,6.54-1.09-1.47-2.5-3.79-2.34-5.92.06-.72,1.3-4.93,1.3-4.93s.3-1.05,1.18-1a22.64,22.64,0,0,0,3,0,2.7,2.7,0,0,1,1.48.13h0a5.11,5.11,0,0,1,.72.39c.33.2.72.47,1.16.79a21.22,21.22,0,0,0,2.48,1.45.83.83,0,0,0-.42-.59,21.57,21.57,0,0,1-2.54-1.48c-.44-.32-.83-.59-1.16-.79a5.11,5.11,0,0,0-.72-.39h0a2.7,2.7,0,0,0-1.48-.13,22.64,22.64,0,0,1-3,0c-.88,0-1.18,1-1.18,1S59.76,279.33,59.71,280.05Z"/>
            </g>
          </g>
        </g>
      </g>
    </g>
  </g>
</svg>
