<svg xmlns="http://www.w3.org/2000/svg" xmlns:xlink="http://www.w3.org/1999/xlink" width="1024" height="620" viewBox="0 0 1024 620">
  <defs>
    <style>
      .cls-1 {
        isolation: isolate;
      }

      .cls-2 {
        fill: none;
      }

      .cls-3, .cls-4 {
        fill: #51b2fb;
      }

      .cls-3, .cls-32 {
        opacity: 0.1;
      }

      .cls-4 {
        opacity: 0.2;
      }

      .cls-5 {
        fill: #e3ebfc;
      }

      .cls-6 {
        fill: #ccddfa;
      }

      .cls-7 {
        fill: #fafbff;
      }

      .cls-8 {
        fill: #80a7f6;
      }

      .cls-9 {
        fill: #9fbcfb;
      }

      .cls-10 {
        fill: #b8d0f9;
      }

      .cls-11, .cls-29, .cls-31 {
        fill: #207bff;
      }

      .cls-11, .cls-37 {
        opacity: 0.4;
      }

      .cls-12 {
        fill: #004bff;
        opacity: 0.5;
        mix-blend-mode: multiply;
      }

      .cls-13 {
        fill: #c5d8fa;
      }

      .cls-14 {
        fill: url(#_ÂÁ_Ï_ÌÌ_È_ËÂÌÚ_30);
      }

      .cls-15 {
        fill: #4aebff;
      }

      .cls-16, .cls-30 {
        fill: #fff;
      }

      .cls-17 {
        fill: #bef9ff;
      }

      .cls-18 {
        fill: url(#linear-gradient);
      }

      .cls-19 {
        fill: #ec1c24;
      }

      .cls-20 {
        fill: url(#linear-gradient-2);
      }

      .cls-21 {
        fill: url(#linear-gradient-3);
      }

      .cls-22 {
        fill: url(#linear-gradient-4);
      }

      .cls-23 {
        fill: url(#linear-gradient-5);
      }

      .cls-24 {
        fill: url(#linear-gradient-6);
      }

      .cls-25 {
        fill: url(#linear-gradient-7);
      }

      .cls-26 {
        fill: url(#_ÂÁ_Ï_ÌÌ_È_ËÂÌÚ_14);
      }

      .cls-27 {
        fill: url(#_ÂÁ_Ï_ÌÌ_È_ËÂÌÚ_18);
      }

      .cls-28 {
        fill: #4880f8;
      }

      .cls-30 {
        opacity: 0.8;
      }

      .cls-31 {
        opacity: 0.72;
      }

      .cls-32, .cls-33, .cls-34, .cls-35 {
        fill: #3ae6fb;
      }

      .cls-33 {
        opacity: 0.3;
      }

      .cls-35 {
        opacity: 0.7;
      }

      .cls-36 {
        fill: #93b4fb;
      }

      .cls-37 {
        mix-blend-mode: lighten;
        fill: url(#radial-gradient);
      }

      .cls-38 {
        fill: #00ffda;
      }

      .cls-39 {
        fill: #7fd1ca;
      }

      .cls-40 {
        fill: #1e1e1e;
      }
    </style>
    <radialGradient id="_ÂÁ_Ï_ÌÌ_È_ËÂÌÚ_30" data-name="¡ÂÁ˚ÏˇÌÌ˚È „‡‰ËÂÌÚ 30" cx="4678.17" cy="494.09" r="6.37" gradientTransform="translate(-4284.51)" gradientUnits="userSpaceOnUse">
      <stop offset="0" stop-color="#4aebff"/>
      <stop offset="1" stop-color="#00709e"/>
    </radialGradient>
    <linearGradient id="linear-gradient" x1="358.93" y1="382.78" x2="358.93" y2="417.92" gradientTransform="translate(45.19)" gradientUnits="userSpaceOnUse">
      <stop offset="0.02" stop-color="#dd2a21"/>
      <stop offset="0.06" stop-color="#c8201b"/>
      <stop offset="0.1" stop-color="#b71717"/>
      <stop offset="0.15" stop-color="#ac1113"/>
      <stop offset="0.22" stop-color="#a50e12"/>
      <stop offset="0.43" stop-color="#a30d11"/>
      <stop offset="0.79" stop-color="#6b0006"/>
    </linearGradient>
    <linearGradient id="linear-gradient-2" x1="348.73" y1="384.35" x2="348.73" y2="409.57" gradientTransform="translate(45.19)" gradientUnits="userSpaceOnUse">
      <stop offset="0" stop-color="#ad1a27"/>
      <stop offset="0.08" stop-color="#9e151f"/>
      <stop offset="0.28" stop-color="#7d090e"/>
      <stop offset="0.44" stop-color="#680304"/>
      <stop offset="0.56" stop-color="#610000"/>
      <stop offset="0.73" stop-color="#520000"/>
      <stop offset="1" stop-color="#3f0000"/>
    </linearGradient>
    <linearGradient id="linear-gradient-3" x1="583.66" y1="397.34" x2="599.93" y2="397.34" gradientTransform="matrix(-1, 0, 0, 1, 1015.73, 0)" gradientUnits="userSpaceOnUse">
      <stop offset="0" stop-color="#be1349"/>
      <stop offset="0.24" stop-color="#be124e"/>
      <stop offset="0.25" stop-color="#be124e"/>
      <stop offset="1" stop-color="#7a0025"/>
    </linearGradient>
    <linearGradient id="linear-gradient-4" x1="578.18" y1="405.72" x2="600" y2="405.72" gradientTransform="matrix(-1, 0, 0, 1, 1015.73, 0)" gradientUnits="userSpaceOnUse">
      <stop offset="0" stop-color="#282881"/>
      <stop offset="0.27" stop-color="#26257d"/>
      <stop offset="0.55" stop-color="#1f1b70"/>
      <stop offset="0.84" stop-color="#150c5b"/>
      <stop offset="1" stop-color="#0d004c"/>
    </linearGradient>
    <linearGradient id="linear-gradient-5" x1="583.34" y1="405.72" x2="599.93" y2="405.72" xlink:href="#linear-gradient-3"/>
    <linearGradient id="linear-gradient-6" x1="586.7" y1="397.27" x2="607.55" y2="397.27" xlink:href="#linear-gradient-4"/>
    <linearGradient id="linear-gradient-7" x1="364.64" y1="404.88" x2="364.64" y2="392.95" gradientTransform="translate(45.19)" gradientUnits="userSpaceOnUse">
      <stop offset="0" stop-color="#ed2d24"/>
      <stop offset="0.12" stop-color="#ed2824"/>
      <stop offset="0.25" stop-color="#ec1c24"/>
      <stop offset="1" stop-color="#74020d"/>
    </linearGradient>
    <linearGradient id="_ÂÁ_Ï_ÌÌ_È_ËÂÌÚ_14" data-name="¡ÂÁ˚ÏˇÌÌ˚È „‡‰ËÂÌÚ 14" x1="4625.54" y1="532.77" x2="4696.46" y2="532.77" gradientTransform="translate(-4295.07 14.34) rotate(-2.88)" gradientUnits="userSpaceOnUse">
      <stop offset="0" stop-color="#003a6b"/>
      <stop offset="1" stop-color="#00204c"/>
    </linearGradient>
    <linearGradient id="_ÂÁ_Ï_ÌÌ_È_ËÂÌÚ_18" data-name="¡ÂÁ˚ÏˇÌÌ˚È „‡‰ËÂÌÚ 18" x1="4655.47" y1="282.38" x2="4691.39" y2="342.91" gradientTransform="translate(-4284.51)" gradientUnits="userSpaceOnUse">
      <stop offset="0" stop-color="#cbd7e1"/>
      <stop offset="0.05" stop-color="#aec0d0"/>
      <stop offset="0.15" stop-color="#7998b2"/>
      <stop offset="0.26" stop-color="#4e7698"/>
      <stop offset="0.35" stop-color="#2c5c85"/>
      <stop offset="0.44" stop-color="#144976"/>
      <stop offset="0.53" stop-color="#053e6e"/>
      <stop offset="0.6" stop-color="#003a6b"/>
      <stop offset="1" stop-color="#00204c"/>
    </linearGradient>
    <radialGradient id="radial-gradient" cx="3275.18" cy="499.45" r="13.5" gradientTransform="matrix(0.74, 0.02, -0.03, 0.82, -2103.65, -82.03)" gradientUnits="userSpaceOnUse">
      <stop offset="0" stop-color="#00ddde" stop-opacity="0.52"/>
      <stop offset="0.09" stop-color="#2de6e7" stop-opacity="0.65"/>
      <stop offset="0.2" stop-color="#63f1f1" stop-opacity="0.8"/>
      <stop offset="0.3" stop-color="#8af8f9" stop-opacity="0.91"/>
      <stop offset="0.38" stop-color="#a2fdfd" stop-opacity="0.98"/>
      <stop offset="0.43" stop-color="#abffff"/>
      <stop offset="0.46" stop-color="#9ffcfd"/>
      <stop offset="0.51" stop-color="#7ff6f6"/>
      <stop offset="0.58" stop-color="#4aebeb"/>
      <stop offset="0.66" stop-color="#03dcdd"/>
      <stop offset="0.66" stop-color="#00dbdc"/>
      <stop offset="0.69" stop-color="#08dcdd" stop-opacity="0.97"/>
      <stop offset="0.74" stop-color="#1fdfe0" stop-opacity="0.88"/>
      <stop offset="0.8" stop-color="#44e5e5" stop-opacity="0.73"/>
      <stop offset="0.87" stop-color="#78eced" stop-opacity="0.53"/>
      <stop offset="0.94" stop-color="#baf5f6" stop-opacity="0.27"/>
      <stop offset="1" stop-color="#fff" stop-opacity="0"/>
    </radialGradient>
  </defs>
  <title>robot</title>
  <g class="cls-1">
    <g id="Robot">
      <g id="Capa_20" data-name="Capa 20">
        <rect class="cls-2" width="1024" height="620"/>
      </g>
      <g id="sombra">
        <g>
          <path class="cls-3" d="M427.69,530.68c0,6.34-22.88,11.47-51.11,11.47s-51.11-5.13-51.11-11.47,22.88-11.48,51.11-11.48S427.69,524.34,427.69,530.68Z" transform="translate(-0.5 -0.5)"/>
          <ellipse class="cls-4" cx="376.08" cy="530.18" rx="39.81" ry="7.3"/>
          <path class="cls-4" d="M400.55,530.68c0,2.43-10.73,4.39-24,4.39s-24-2-24-4.39,10.73-4.39,24-4.39S400.55,528.25,400.55,530.68Z" transform="translate(-0.5 -0.5)"/>
        </g>
      </g>
      <g id="brazoIzquierdo">
        <g>
          <g>
            <path class="cls-5" d="M463.36,420.13c-7.47-35.51-22-50.65-25.36-53.79a2.9,2.9,0,0,0-1.82-.79c-2.52-.16-9,.49-15.43,9.93-4.41,6.53-2.88,17.07-2.48,17.58,4.15,5.32,30.22,38.84,37.15,50.32C463,455.86,466.55,435.3,463.36,420.13Z" transform="translate(-0.5 -0.5)"/>
            <path class="cls-6" d="M420.71,375.52a29.51,29.51,0,0,1,6.08-6.74c-.69.83-1.38,1.75-2.08,2.77-5.57,8.23-2.89,13.81-.94,17.62,7,13.66,26.93,39,32.05,54.95-.14-.22-.29-.45-.44-.7-6.93-11.48-33-45-37.15-50.32C417.83,392.58,416.3,382,420.71,375.52Z" transform="translate(-0.5 -0.5)"/>
            <path class="cls-7" d="M441,378.82c16.71,12,21.58,54.81,21.58,54.81s-11.05-29.45-19.45-41.73S435.33,374.71,441,378.82Z" transform="translate(-0.5 -0.5)"/>
            <path class="cls-6" d="M451.25,436.5a46.38,46.38,0,0,1,.2,6.18c-.08.56-2.81,3.29-2.83,3-.21-2.58-2.53-16-5-19.41C442.73,425.07,451.16,434,451.25,436.5Z" transform="translate(-0.5 -0.5)"/>
            <path class="cls-8" d="M443.31,426.7a.41.41,0,0,0,.33-.24c3.14-6.8,10.69-12.53,18.5-9.74a.41.41,0,1,0,.28-.78c-8.27-2.95-16.24,3-19.53,10.18a.4.4,0,0,0,.2.54A.35.35,0,0,0,443.31,426.7Z" transform="translate(-0.5 -0.5)"/>
          </g>
          <path class="cls-9" d="M438.59,382.12c-1,11.09-5.61,19.74-10.37,19.32s-7.86-9.73-6.89-20.82,5.59-19.57,10.37-19.32C438.6,361.66,439.55,371,438.59,382.12Z" transform="translate(-0.5 -0.5)"/>
        </g>
      </g>
      <g id="torso">
        <g>
          <path class="cls-5" d="M330.36,356.8C325.42,356.48,308,374,313.22,391s35,73.67,41.73,93.52S365.72,509.22,375.3,511s24.05,2.46,40.83-32.57,19.36-74.39,20.12-93.09-1.19-26.11-7.73-28.24C413.29,352.14,330.36,356.8,330.36,356.8Z" transform="translate(-0.5 -0.5)"/>
          <path class="cls-7" d="M409.36,474.32c13-36.86,11.44-76.48,10.24-95.25-.81-12.48-2.28-19.84-5.15-23.79-13.86-.78-34.11-.44-51.26.11,9.17,24.2,22.73,64.95,25,106.93,1.5,28-2.37,41.69-7.72,48.7C389.19,509.27,399.68,501.74,409.36,474.32Z" transform="translate(-0.5 -0.5)"/>
          <path class="cls-10" d="M430,358.67c0,3.63-25.66,9.27-51.56,9.32s-51.57-5.52-51.58-9.15,25.67-4,51.56-4S430,355,430,358.67Z" transform="translate(-0.5 -0.5)"/>
          <path class="cls-11" d="M414.32,359.41c0,2.52-17.67,6.42-35.51,6.45s-35.53-3.82-35.53-6.33,17.68-2.74,35.52-2.77S414.32,356.9,414.32,359.41Z" transform="translate(-0.5 -0.5)"/>
          <path class="cls-12" d="M403.47,360.72c0,1-12.19,2.18-24.07,2.2s-23.26-1.16-23.26-2.12,11.37-1.35,23.25-1.37S403.47,359.76,403.47,360.72Z" transform="translate(-0.5 -0.5)"/>
          <path class="cls-13" d="M365.6,488.59c-2.75-14.85-6.85-63.43-16.62-97.71-4.89-17.18-16.41-29.3-27.56-25.46-7.92,2.73-11.05,16.37-8.2,25.55,5.25,17,35,73.67,41.73,93.52S365.72,509.22,375.3,511c4.93.93,11.16,1.54,18.34-2.86C383.93,509.69,370.16,513.19,365.6,488.59Z" transform="translate(-0.5 -0.5)"/>
          <path class="cls-14" d="M399.87,495.83a17.75,17.75,0,0,1-5.9,1,27,27,0,0,1-6.6-.48,2.64,2.64,0,0,1-2.3-2.46h0a2.38,2.38,0,0,1,2.31-2.44s5.07.56,6.31.55a45.66,45.66,0,0,0,6.41-.6c1.27,0,2.46.37,2.08,2.2A3.19,3.19,0,0,1,399.87,495.83Z" transform="translate(-0.5 -0.5)"/>
          <path class="cls-15" d="M399.06,495.56a18.6,18.6,0,0,1-5.1.69,28.93,28.93,0,0,1-5.71-.35c-1.06-.22-2-.79-2-1.75h0a1.89,1.89,0,0,1,2-1.74s4.39.4,5.46.4a47.06,47.06,0,0,0,5.54-.43c1.1,0,2.13.26,1.79,1.56C400.9,494.55,400.39,495.15,399.06,495.56Z" transform="translate(-0.5 -0.5)"/>
          <path class="cls-8" d="M392.55,484.62c-11.67,0-26-2.52-41.4-8.87a.42.42,0,0,1-.23-.54.41.41,0,0,1,.54-.22c28.75,11.82,53.48,10.31,64.3,3.92a.41.41,0,0,1,.56.15.4.4,0,0,1-.14.56C411,482.66,402.81,484.62,392.55,484.62Z" transform="translate(-0.5 -0.5)"/>
          <path class="cls-16" d="M392.24,483.7c-11.66,0-26-2.53-41.39-8.87a.41.41,0,1,1,.31-.76c28.75,11.81,53.48,10.31,64.3,3.92a.41.41,0,0,1,.56.14.42.42,0,0,1-.14.57C410.73,481.74,402.51,483.7,392.24,483.7Z" transform="translate(-0.5 -0.5)"/>
          <path class="cls-7" d="M434.08,366.38c2.2,44.92-4.27,66.18-4.27,66.18s6.19-33.94.48-66.75C429.5,361.31,433.73,359.36,434.08,366.38Z" transform="translate(-0.5 -0.5)"/>
          <path class="cls-16" d="M330.8,363.24s5.11,3.08,23.8,4.81,43.28,1.41,43.28,1.41-22.67,3-43.37.77S330.8,363.24,330.8,363.24Z" transform="translate(-0.5 -0.5)"/>
          <path class="cls-17" d="M396.71,492.66c-.91.07-2,.14-3,.15s-5.46-.4-5.46-.4a1.87,1.87,0,0,0-.42,0l2,3.68c1.11.1,2.47.14,4.11.12a19.08,19.08,0,0,0,4.75-.6Z" transform="translate(-0.5 -0.5)"/>
          <g>
            <path class="cls-18" d="M392.21,397.16a15.88,15.88,0,0,1,9.9-14.7,17.11,17.11,0,0,1,1.77.22A14.64,14.64,0,0,1,416,396.6c0,.16,0,.32,0,.48v.16h0a9,9,0,0,0-12-8.54c.89-.32.86-.32-.06,0a8.68,8.68,0,0,0-11.69,8.43v.08c0,4.89,3.51,8.88,8.56,8.88a8.77,8.77,0,0,0,2.79-.45,8.92,8.92,0,0,0,3.35.65,9,9,0,0,0,9-8.9A14.45,14.45,0,0,1,404,411.63a15.85,15.85,0,0,1-1.85.23A15.86,15.86,0,0,1,392.21,397.16Z" transform="translate(-0.5 -0.5)"/>
            <path class="cls-19" d="M397.93,397.27a9,9,0,0,0,5.7,8.4,8.77,8.77,0,0,1-2.79.45c-5,0-8.56-4-8.56-8.88v-.08A8.68,8.68,0,0,1,404,388.73c.92-.34.95-.34.06,0A9.06,9.06,0,0,0,397.93,397.27Z" transform="translate(-0.5 -0.5)"/>
            <path class="cls-20" d="M400.84,382.41c.43,0,.85,0,1.27,0a15.86,15.86,0,0,0,0,29.4c-.39,0-.79.05-1.2.05-8.8,0-15.2-6.64-15.2-14.75v-.08C385.72,389,392,382.41,400.84,382.41Z" transform="translate(-0.5 -0.5)"/>
            <path class="cls-21" d="M416,397.27c0,.05,0,.1,0,.15s0-.11,0-.17Z" transform="translate(-0.5 -0.5)"/>
            <path class="cls-22" d="M403.87,405.59Z" transform="translate(-0.5 -0.5)"/>
            <path class="cls-23" d="M403.87,405.59Z" transform="translate(-0.5 -0.5)"/>
            <path class="cls-24" d="M407,406.32a8.92,8.92,0,0,1-3.35-.65l.24-.08h0a8.83,8.83,0,0,0,5.83-8.43v-.08a8.68,8.68,0,0,0-5.72-8.35l0,0a9,9,0,0,1,12,8.54c0,.06,0,.11,0,.17A9,9,0,0,1,407,406.32Z" transform="translate(-0.5 -0.5)"/>
            <path class="cls-25" d="M407,406.32a8.92,8.92,0,0,1-3.35-.65l.24-.08h0a8.83,8.83,0,0,0,5.83-8.43v-.08a8.68,8.68,0,0,0-5.72-8.35l0,0a9,9,0,0,1,12,8.54c0,.06,0,.11,0,.17A9,9,0,0,1,407,406.32Z" transform="translate(-0.5 -0.5)"/>
          </g>
        </g>
      </g>
      <g id="cabeza">
        <g>
          <g>
            <path class="cls-5" d="M334.29,343c11.79,15.18,47.85,12.28,57.9,11.33s27.08-2.72,33.21-21.21,3.06-46.73-13.8-61.4-62-12.28-77.31,7.5S330.21,337.72,334.29,343Z" transform="translate(-0.5 -0.5)"/>
            <path class="cls-16" d="M337.4,283.23c.68-.24,14.6-11.06,39.82-13.23,8.68-.74,22.22,0,30.9,1.21-.86-.92-13.33-8.12-39.06-5.44C362.78,266.42,348.23,270.35,337.4,283.23Z" transform="translate(-0.5 -0.5)"/>
            <path class="cls-7" d="M383.26,278.75c-8.12.13-16.26.71-23.91,3.61l-.18.08c7.95,16.82,8.6,38.74,3.95,54.42a33,33,0,0,1-6.76,12.7c14,2.47,29.73,1.19,35.83.61,6.65-.64,16.35-1.62,23.93-7.57a38.37,38.37,0,0,0,2.19-5.74c4.72-15.88,4-38.17-4.26-55.08A131,131,0,0,0,383.26,278.75Z" transform="translate(-0.5 -0.5)"/>
            <path class="cls-26" d="M353.9,293.69c4.68-6.36,17.44-8,33.42-9,20.62-1.23,27.6,2.5,29.7,4.89s5.77,14.22,5,25.73-.91,15-5.65,17.84-18.41,5.66-27.25,5.88c-16.74.41-25.18-.41-30.78-3.7-2.86-1.68-6.5-10.73-7.07-21.9S351.47,297,353.9,293.69Z" transform="translate(-0.5 -0.5)"/>
            <path class="cls-27" d="M386.74,286.49c-9.93.57-18.55,1.43-24.62,3.57,5.31,14.74,5.34,32.22,1.4,45.15l-.15.44c5.31,1.53,12.91,1.9,25.08,1.61,8.48-.2,21.6-2.82,26.15-5.49a8.11,8.11,0,0,0,3.55-3.71,76.88,76.88,0,0,0-2.62-36.63,4.18,4.18,0,0,0-.29-.38C413.22,288.82,406.53,285.34,386.74,286.49Z" transform="translate(-0.5 -0.5)"/>
            <path class="cls-9" d="M343.06,304.27c-.28,6.25-3.77,11.18-7.8,11s-7.08-5.4-6.8-11.65,3.77-11.18,7.8-11S343.34,298,343.06,304.27Z" transform="translate(-0.5 -0.5)"/>
            <path class="cls-28" d="M339.87,303.8c-.2,4.39-2.34,7.86-4.78,7.75s-4.27-3.75-4.07-8.14,2.33-7.86,4.78-7.75S340.06,299.41,339.87,303.8Z" transform="translate(-0.5 -0.5)"/>
            <path class="cls-29" d="M339.93,304.13l-.41,0,.41,0a15.3,15.3,0,0,0-1.84-8.33c-1.35-2.32-3.25-3.65-5.35-3.75-4.24-.18-7.94,4.92-8.23,11.4s2.94,11.88,7.19,12.07h.23C336.08,315.53,339.65,310.48,339.93,304.13Zm-7.22-11.25c1.8.08,3.46,1.27,4.67,3.34a14.57,14.57,0,0,1,1.73,7.87c-.27,6-3.58,10.76-7.37,10.61s-6.67-5.2-6.4-11.22,3.46-10.61,7.17-10.61Z" transform="translate(-0.5 -0.5)"/>
            <path class="cls-7" d="M332.2,318.76l3,.11s1.26,12.28,4.8,19.5,8.57,9.53,8.57,9.53-7.58-2.46-12.11-11.81C333.15,329.35,332.2,318.76,332.2,318.76Z" transform="translate(-0.5 -0.5)"/>
            <path class="cls-30" d="M356.68,294.63v0a1.57,1.57,0,0,0,2.25.53c1.44-1,3.63-2.45,4.9-3.14,2-1.08,11.84-4.72,11.84-4.72s-9.88.2-18.26,4.76A1.87,1.87,0,0,0,356.68,294.63Z" transform="translate(-0.5 -0.5)"/>
          </g>
          <path class="cls-31" d="M348.94,302.83c0,1.94-.9,3.51-2,3.51s-2-1.57-2-3.51.9-3.51,2-3.51S348.94,300.89,348.94,302.83Z" transform="translate(-0.5 -0.5)"/>
        </g>
      </g>
      <g id="ojos">
        <g>
          <rect class="cls-32" x="372.37" y="297.56" width="14.22" height="18.58" rx="3.93"/>
          <rect class="cls-32" x="373.86" y="299.56" width="11.24" height="14.59" rx="3.93"/>
          <rect class="cls-33" x="375.76" y="301.43" width="7.8" height="11.36" rx="2.44"/>
          <path class="cls-34" d="M383.23,306.31h-6.41a.31.31,0,1,1,0-.62h6.41a.31.31,0,0,1,0,.62Z" transform="translate(-0.5 -0.5)"/>
          <path class="cls-34" d="M383.23,307.66h-6.41a.31.31,0,1,1,0-.62h6.41a.31.31,0,0,1,0,.62Z" transform="translate(-0.5 -0.5)"/>
          <path class="cls-34" d="M383.23,309.07h-6.41a.31.31,0,1,1,0-.62h6.41a.31.31,0,0,1,0,.62Z" transform="translate(-0.5 -0.5)"/>
          <path class="cls-34" d="M382.41,303.72h-4.77a.31.31,0,0,1-.31-.31.31.31,0,0,1,.31-.31h4.77a.31.31,0,0,1,.31.31A.31.31,0,0,1,382.41,303.72Z" transform="translate(-0.5 -0.5)"/>
          <path class="cls-34" d="M383.23,305.12h-6.41a.31.31,0,0,1,0-.62h6.41a.31.31,0,0,1,0,.62Z" transform="translate(-0.5 -0.5)"/>
          <path class="cls-34" d="M383.23,310.74h-6.41a.31.31,0,0,1-.31-.31.31.31,0,0,1,.31-.31h6.41a.31.31,0,0,1,.31.31A.31.31,0,0,1,383.23,310.74Z" transform="translate(-0.5 -0.5)"/>
          <path class="cls-34" d="M383.23,312.09h-6.41a.31.31,0,1,1,0-.62h6.41a.31.31,0,0,1,0,.62Z" transform="translate(-0.5 -0.5)"/>
        </g>
        <g>
          <rect class="cls-32" x="395.04" y="297.56" width="14.22" height="18.58" rx="3.93"/>
          <rect class="cls-32" x="396.53" y="299.56" width="11.24" height="14.59" rx="3.93"/>
          <rect class="cls-33" x="398.42" y="301.43" width="7.8" height="11.36" rx="2.44"/>
          <path class="cls-34" d="M405.89,306.31h-6.4a.31.31,0,0,1,0-.62h6.4a.31.31,0,0,1,0,.62Z" transform="translate(-0.5 -0.5)"/>
          <path class="cls-34" d="M405.89,307.66h-6.4a.31.31,0,0,1,0-.62h6.4a.31.31,0,0,1,0,.62Z" transform="translate(-0.5 -0.5)"/>
          <path class="cls-34" d="M405.89,309.07h-6.4a.31.31,0,0,1,0-.62h6.4a.31.31,0,0,1,0,.62Z" transform="translate(-0.5 -0.5)"/>
          <path class="cls-34" d="M405.08,303.72H400.3a.31.31,0,0,1-.31-.31.31.31,0,0,1,.31-.31h4.78a.31.31,0,0,1,.31.31A.31.31,0,0,1,405.08,303.72Z" transform="translate(-0.5 -0.5)"/>
          <path class="cls-34" d="M405.89,305.12h-6.4a.31.31,0,0,1,0-.62h6.4a.31.31,0,0,1,0,.62Z" transform="translate(-0.5 -0.5)"/>
          <path class="cls-34" d="M405.89,310.74h-6.4a.31.31,0,0,1-.31-.31.3.3,0,0,1,.31-.31h6.4a.31.31,0,0,1,.31.31A.31.31,0,0,1,405.89,310.74Z" transform="translate(-0.5 -0.5)"/>
          <path class="cls-34" d="M405.89,312.09h-6.4a.31.31,0,1,1,0-.62h6.4a.31.31,0,0,1,0,.62Z" transform="translate(-0.5 -0.5)"/>
        </g>
      </g>
      <g id="boca">
        <path class="cls-35" d="M383,326.17c6.42.82,17.93,1.46,17.93,1.46s-10.18,1-16.82-.11S376,325.3,383,326.17Z" transform="translate(-0.5 -0.5)"/>
      </g>
      <g id="brazoDerecho">
        <g>
          <path class="cls-36" d="M340.81,390.24c3.56,12.4.74,24.08-6.29,26.1s-15.63-6.39-19.19-18.78-.74-24.08,6.3-26.1S337.25,377.85,340.81,390.24Z" transform="translate(-0.5 -0.5)"/>
          <path class="cls-29" d="M332.26,413.28a.44.44,0,0,1-.46-.42.45.45,0,0,1,.42-.47,5.12,5.12,0,0,0,4.13-2.89c2.93-5,2.37-14.51-1.3-22.06-4.39-9-11.4-12.63-15.38-10.79a.45.45,0,1,1-.38-.81c5-2.31,12.43,2.71,16.56,11.21,3.79,7.79,4.34,17.64,1.28,22.9a6.06,6.06,0,0,1-4.85,3.33Z" transform="translate(-0.5 -0.5)"/>
          <g>
            <path class="cls-5" d="M293.75,436.48c2.95-36.17,15.43-53,18.41-56.55a2.93,2.93,0,0,1,1.7-1c2.48-.48,9-.65,16.55,7.92,5.21,5.92,5,16.57,4.67,17.13-3.45,5.8-25.11,42.32-30.54,54.58C298.63,471.88,292.49,451.93,293.75,436.48Z" transform="translate(-0.5 -0.5)"/>
            <path class="cls-6" d="M330.46,386.87a29.08,29.08,0,0,0-6.87-5.92,33.93,33.93,0,0,1,2.4,2.49c6.57,7.46,4.61,13.33,3.14,17.36-5.24,14.43-21.82,42-24.9,58.53.12-.24.24-.48.35-.75,5.44-12.25,27.1-48.78,30.55-54.58C335.46,403.44,335.66,392.79,330.46,386.87Z" transform="translate(-0.5 -0.5)"/>
            <path class="cls-7" d="M310.71,392.7c-15.06,14-14.53,57.08-14.53,57.08s7.27-30.6,14.06-43.84S315.85,387.91,310.71,392.7Z" transform="translate(-0.5 -0.5)"/>
            <path class="cls-6" d="M307.81,451.2a45.61,45.61,0,0,0,.59,6.15c.14.55,3.19,2.92,3.18,2.63-.12-2.58.5-16.2,2.53-19.88C314.83,438.79,307.59,448.73,307.81,451.2Z" transform="translate(-0.5 -0.5)"/>
            <path class="cls-8" d="M314.46,440.48a.42.42,0,0,1-.35-.19c-4-6.36-12.18-11.09-19.58-7.34a.42.42,0,0,1-.38-.74c7.84-4,16.49,1,20.66,7.64a.42.42,0,0,1-.13.57A.46.46,0,0,1,314.46,440.48Z" transform="translate(-0.5 -0.5)"/>
          </g>
          <g>
            <path class="cls-37" d="M319.46,402.94c-.19,6.12-4.81,11-10.33,10.79s-9.85-5.27-9.66-11.4,4.81-11,10.33-10.8S319.64,396.81,319.46,402.94Z" transform="translate(-0.5 -0.5)"/>
            <g>
              <path class="cls-38" d="M302.62,403.58c-.13,2.06,1,4.22,2.21,5.86a20,20,0,0,0,2.4,2.76s6.38-1.63,8.13-5.28c.37-.77,2-5.57,2-5.57s.5-1.16-.44-1.69a28.75,28.75,0,0,1-3.24-1.83,9.34,9.34,0,0,0-2.15-1.38c-.61-.22-.88-.1-2,0a37.83,37.83,0,0,1-3.8-.1c-1.12,0-1.26,1.26-1.26,1.26S302.68,402.71,302.62,403.58Z" transform="translate(-0.5 -0.5)"/>
              <path class="cls-39" d="M304.51,397.6s-1.83,5.11-1.89,6c-.26,4.13,4.61,8.62,4.61,8.62h0s6.38-1.63,8.13-5.29c.37-.76,2-5.56,2-5.56s.5-1.16-.44-1.69a27.83,27.83,0,0,1-3.23-1.83,9.21,9.21,0,0,0-2.16-1.38c-.61-.22-.88-.1-2,0a32.84,32.84,0,0,1-3.8-.09C304.65,396.31,304.51,397.6,304.51,397.6Zm1-.21.93,0a11.4,11.4,0,0,0,2.93,0c2-.39,2.64.63,3.61,1.33a18.62,18.62,0,0,0,2.49,1.45c.28.14.56.28.81.42a1.89,1.89,0,0,1-.05.23.15.15,0,0,0,0,.07c-.64,1.83-1.74,4.94-2,5.46-.76,1.59-2.68,2.76-4.16,3.47a19.93,19.93,0,0,1-2.47,1,20.89,20.89,0,0,1-1.71-2.07c-1-1.33-2.1-3.53-2-5.31a39.19,39.19,0,0,1,1.54-5.8S305.52,397.39,305.52,397.39Z" transform="translate(-0.5 -0.5)"/>
              <path class="cls-40" d="M302.62,403.58c-.15,2.39,1.42,4.91,2.78,6.6-1.24-1.66-2.49-3.9-2.35-6,.06-.87,1.89-6,1.89-6s.14-1.3,1.26-1.27a35.07,35.07,0,0,0,3.8.1c1.12-.09,1.39-.21,2,0a9.12,9.12,0,0,1,2.15,1.39,30.4,30.4,0,0,0,3.24,1.83l.08,0a1.08,1.08,0,0,0-.51-.61,30.4,30.4,0,0,1-3.24-1.83,9,9,0,0,0-2.15-1.38c-.61-.22-.88-.1-2,0a35.25,35.25,0,0,1-3.8-.09c-1.12,0-1.26,1.26-1.26,1.26S302.68,402.71,302.62,403.58Z" transform="translate(-0.5 -0.5)"/>
              <path class="cls-39" d="M309,403.69a.36.36,0,0,0,.1.37l-.08.31a.08.08,0,0,0,.06.1l.24.06a.09.09,0,0,0,.1-.06l.08-.3a.42.42,0,0,0,.27-.28.4.4,0,1,0-.77-.2Z" transform="translate(-0.5 -0.5)"/>
              <path class="cls-39" d="M309,401.64l-.15.59,1.77.46.15-.58a.92.92,0,0,0-.65-1.13A.93.93,0,0,0,309,401.64Z" transform="translate(-0.5 -0.5)"/>
              <path class="cls-39" d="M305.78,399s-1.11,3.77-1.16,4.41c-.23,3.07,3.18,6.6,3.18,6.6h0s4.53-1.26,5.81-4c.26-.57,1.5-4.16,1.5-4.16s.37-.87-.3-1.25a20.57,20.57,0,0,1-2.27-1.33c-.39-.29-.74-.53-1-.71a5.12,5.12,0,0,0-.65-.35h0a2.49,2.49,0,0,0-1.33-.11,19.56,19.56,0,0,1-2.67,0C306.05,398.08,305.78,399,305.78,399Zm1.63,3.35a.49.49,0,0,1,.6-.36l.13,0,.15-.59a1.63,1.63,0,1,1,3.15.83l-.15.58.13,0a.5.5,0,0,1,.35.61l-.61,2.29a.49.49,0,0,1-.6.35l-3.41-.89a.5.5,0,0,1-.35-.61Z" transform="translate(-0.5 -0.5)"/>
              <path class="cls-40" d="M304.62,403.44c-.17,2.19,1.55,4.64,2.52,5.85-1-1.31-2.24-3.4-2.09-5.3.05-.64,1.16-4.41,1.16-4.41s.27-.95,1.06-.94a19.56,19.56,0,0,0,2.67,0,2.49,2.49,0,0,1,1.33.11h0a4.56,4.56,0,0,1,.64.35c.3.18.65.42,1,.7a16.85,16.85,0,0,0,2.22,1.3.75.75,0,0,0-.38-.53,18.92,18.92,0,0,1-2.27-1.32c-.39-.29-.74-.53-1-.71a5.12,5.12,0,0,0-.65-.35h0a2.47,2.47,0,0,0-1.32-.11,21.45,21.45,0,0,1-2.68,0c-.79,0-1.06.93-1.06.93S304.67,402.79,304.62,403.44Z" transform="translate(-0.5 -0.5)"/>
            </g>
          </g>
        </g>
      </g>
    </g>
  </g>
</svg>
