<svg xmlns="http://www.w3.org/2000/svg" xmlns:xlink="http://www.w3.org/1999/xlink" width="1024" height="619" viewBox="0 0 1024 619">
  <defs>
    <style>
      .cls-1 {
        isolation: isolate;
      }

      .cls-2 {
        fill: none;
      }

      .cls-3, .cls-4 {
        fill: #51b2fb;
      }

      .cls-3, .cls-32 {
        opacity: 0.1;
      }

      .cls-4 {
        opacity: 0.2;
      }

      .cls-5 {
        fill: #e3ebfc;
      }

      .cls-6 {
        fill: #ccddfa;
      }

      .cls-7 {
        fill: #fafbff;
      }

      .cls-8 {
        fill: #80a7f6;
      }

      .cls-9 {
        fill: #9fbcfb;
      }

      .cls-10 {
        fill: #b8d0f9;
      }

      .cls-11, .cls-29, .cls-31 {
        fill: #207bff;
      }

      .cls-11, .cls-37 {
        opacity: 0.4;
      }

      .cls-12 {
        fill: #004bff;
        opacity: 0.5;
        mix-blend-mode: multiply;
      }

      .cls-13 {
        fill: #c5d8fa;
      }

      .cls-14 {
        fill: url(#_ÂÁ_Ï_ÌÌ_È_ËÂÌÚ_30);
      }

      .cls-15 {
        fill: #4aebff;
      }

      .cls-16, .cls-30 {
        fill: #fff;
      }

      .cls-17 {
        fill: #bef9ff;
      }

      .cls-18 {
        fill: url(#linear-gradient);
      }

      .cls-19 {
        fill: #ec1c24;
      }

      .cls-20 {
        fill: url(#linear-gradient-2);
      }

      .cls-21 {
        fill: url(#linear-gradient-3);
      }

      .cls-22 {
        fill: url(#linear-gradient-4);
      }

      .cls-23 {
        fill: url(#linear-gradient-5);
      }

      .cls-24 {
        fill: url(#linear-gradient-6);
      }

      .cls-25 {
        fill: url(#linear-gradient-7);
      }

      .cls-26 {
        fill: url(#_ÂÁ_Ï_ÌÌ_È_ËÂÌÚ_14);
      }

      .cls-27 {
        fill: url(#_ÂÁ_Ï_ÌÌ_È_ËÂÌÚ_18);
      }

      .cls-28 {
        fill: #4880f8;
      }

      .cls-30 {
        opacity: 0.8;
      }

      .cls-31 {
        opacity: 0.72;
      }

      .cls-32, .cls-33, .cls-34, .cls-35 {
        fill: #3ae6fb;
      }

      .cls-33 {
        opacity: 0.3;
      }

      .cls-35 {
        opacity: 0.7;
      }

      .cls-36 {
        fill: #93b4fb;
      }

      .cls-37 {
        mix-blend-mode: lighten;
        fill: url(#radial-gradient);
      }

      .cls-38 {
        fill: #00ffda;
      }

      .cls-39 {
        fill: #7fd1ca;
      }

      .cls-40 {
        fill: #1e1e1e;
      }
    </style>
    <radialGradient id="_ÂÁ_Ï_ÌÌ_È_ËÂÌÚ_30" data-name="¡ÂÁ˚ÏˇÌÌ˚È „‡‰ËÂÌÚ 30" cx="4659.01" cy="481.68" r="7.08" gradientTransform="translate(-4284.51)" gradientUnits="userSpaceOnUse">
      <stop offset="0" stop-color="#4aebff"/>
      <stop offset="1" stop-color="#00709e"/>
    </radialGradient>
    <linearGradient id="linear-gradient" x1="340.93" y1="358.06" x2="340.93" y2="397.09" gradientTransform="translate(45.19)" gradientUnits="userSpaceOnUse">
      <stop offset="0.02" stop-color="#dd2a21"/>
      <stop offset="0.06" stop-color="#c8201b"/>
      <stop offset="0.1" stop-color="#b71717"/>
      <stop offset="0.15" stop-color="#ac1113"/>
      <stop offset="0.22" stop-color="#a50e12"/>
      <stop offset="0.43" stop-color="#a30d11"/>
      <stop offset="0.79" stop-color="#6b0006"/>
    </linearGradient>
    <linearGradient id="linear-gradient-2" x1="329.6" y1="359.8" x2="329.6" y2="387.81" gradientTransform="translate(45.19)" gradientUnits="userSpaceOnUse">
      <stop offset="0" stop-color="#ad1a27"/>
      <stop offset="0.08" stop-color="#9e151f"/>
      <stop offset="0.28" stop-color="#7d090e"/>
      <stop offset="0.44" stop-color="#680304"/>
      <stop offset="0.56" stop-color="#610000"/>
      <stop offset="0.73" stop-color="#520000"/>
      <stop offset="1" stop-color="#3f0000"/>
    </linearGradient>
    <linearGradient id="linear-gradient-3" x1="598.48" y1="374.22" x2="616.64" y2="374.22" gradientTransform="matrix(-1, 0, 0, 1, 1015.73, 0)" gradientUnits="userSpaceOnUse">
      <stop offset="0" stop-color="#be1349"/>
      <stop offset="0.24" stop-color="#be124e"/>
      <stop offset="0.25" stop-color="#be124e"/>
      <stop offset="1" stop-color="#7a0025"/>
    </linearGradient>
    <linearGradient id="linear-gradient-4" x1="592.48" y1="383.53" x2="616.72" y2="383.53" gradientTransform="matrix(-1, 0, 0, 1, 1015.73, 0)" gradientUnits="userSpaceOnUse">
      <stop offset="0" stop-color="#282881"/>
      <stop offset="0.27" stop-color="#26257d"/>
      <stop offset="0.55" stop-color="#1f1b70"/>
      <stop offset="0.84" stop-color="#150c5b"/>
      <stop offset="1" stop-color="#0d004c"/>
    </linearGradient>
    <linearGradient id="linear-gradient-5" x1="598.21" y1="383.53" x2="616.64" y2="383.53" xlink:href="#linear-gradient-3"/>
    <linearGradient id="linear-gradient-6" x1="601.95" y1="374.15" x2="625.1" y2="374.15" xlink:href="#linear-gradient-4"/>
    <linearGradient id="linear-gradient-7" x1="347.27" y1="382.61" x2="347.27" y2="369.35" gradientTransform="translate(45.19)" gradientUnits="userSpaceOnUse">
      <stop offset="0" stop-color="#ed2d24"/>
      <stop offset="0.12" stop-color="#ed2824"/>
      <stop offset="0.25" stop-color="#ec1c24"/>
      <stop offset="1" stop-color="#74020d"/>
    </linearGradient>
    <linearGradient id="_ÂÁ_Ï_ÌÌ_È_ËÂÌÚ_14" data-name="¡ÂÁ˚ÏˇÌÌ˚È „‡‰ËÂÌÚ 14" x1="4603.35" y1="499.25" x2="4682.11" y2="499.25" gradientTransform="translate(-4295.07 14.34) rotate(-2.88)" gradientUnits="userSpaceOnUse">
      <stop offset="0" stop-color="#003a6b"/>
      <stop offset="1" stop-color="#00204c"/>
    </linearGradient>
    <linearGradient id="_ÂÁ_Ï_ÌÌ_È_ËÂÌÚ_18" data-name="¡ÂÁ˚ÏˇÌÌ˚È „‡‰ËÂÌÚ 18" x1="4633.79" y1="246.54" x2="4673.7" y2="313.77" gradientTransform="translate(-4284.51)" gradientUnits="userSpaceOnUse">
      <stop offset="0" stop-color="#cbd7e1"/>
      <stop offset="0.05" stop-color="#aec0d0"/>
      <stop offset="0.15" stop-color="#7998b2"/>
      <stop offset="0.26" stop-color="#4e7698"/>
      <stop offset="0.35" stop-color="#2c5c85"/>
      <stop offset="0.44" stop-color="#144976"/>
      <stop offset="0.53" stop-color="#053e6e"/>
      <stop offset="0.6" stop-color="#003a6b"/>
      <stop offset="1" stop-color="#00204c"/>
    </linearGradient>
    <radialGradient id="radial-gradient" cx="3235.84" cy="473.13" r="14.99" gradientTransform="matrix(0.74, 0.02, -0.03, 0.82, -2103.65, -82.03)" gradientUnits="userSpaceOnUse">
      <stop offset="0" stop-color="#00ddde" stop-opacity="0.52"/>
      <stop offset="0.09" stop-color="#2de6e7" stop-opacity="0.65"/>
      <stop offset="0.2" stop-color="#63f1f1" stop-opacity="0.8"/>
      <stop offset="0.3" stop-color="#8af8f9" stop-opacity="0.91"/>
      <stop offset="0.38" stop-color="#a2fdfd" stop-opacity="0.98"/>
      <stop offset="0.43" stop-color="#abffff"/>
      <stop offset="0.46" stop-color="#9ffcfd"/>
      <stop offset="0.51" stop-color="#7ff6f6"/>
      <stop offset="0.58" stop-color="#4aebeb"/>
      <stop offset="0.66" stop-color="#03dcdd"/>
      <stop offset="0.66" stop-color="#00dbdc"/>
      <stop offset="0.69" stop-color="#08dcdd" stop-opacity="0.97"/>
      <stop offset="0.74" stop-color="#1fdfe0" stop-opacity="0.88"/>
      <stop offset="0.8" stop-color="#44e5e5" stop-opacity="0.73"/>
      <stop offset="0.87" stop-color="#78eced" stop-opacity="0.53"/>
      <stop offset="0.94" stop-color="#baf5f6" stop-opacity="0.27"/>
      <stop offset="1" stop-color="#fff" stop-opacity="0"/>
    </radialGradient>
  </defs>
  <title>robot</title>
  <g class="cls-1">
    <g id="Robot">
      <g id="fondo">
        <rect class="cls-2" width="1024" height="619"/>
      </g>
      <g id="sombra">
        <g>
          <ellipse class="cls-3" cx="355.03" cy="521.82" rx="56.76" ry="12.74"/>
          <ellipse class="cls-4" cx="355.03" cy="521.82" rx="44.22" ry="8.1"/>
          <path class="cls-4" d="M382.15,522.32c0,2.7-11.92,4.88-26.62,4.88s-26.62-2.18-26.62-4.88,11.92-4.88,26.62-4.88S382.15,519.63,382.15,522.32Z" transform="translate(-0.5 -0.5)"/>
        </g>
      </g>
      <g id="brazoIzquierdo">
        <g>
          <g>
            <path class="cls-5" d="M451.91,399.54c-8.3-39.44-24.39-56.25-28.16-59.74a3.29,3.29,0,0,0-2-.88c-2.8-.18-10,.54-17.14,11-4.9,7.25-3.2,19-2.76,19.53,4.61,5.9,33.57,43.14,41.26,55.88C451.46,439.22,455.45,416.39,451.91,399.54Z" transform="translate(-0.5 -0.5)"/>
            <path class="cls-6" d="M404.55,350a32.46,32.46,0,0,1,6.74-7.49c-.76.92-1.53,1.94-2.3,3.08-6.19,9.14-3.22,15.33-1,19.56,7.78,15.18,29.9,43.29,35.59,61-.16-.24-.32-.5-.49-.77-7.69-12.75-36.65-50-41.26-55.89C401.35,369,399.64,357.24,404.55,350Z" transform="translate(-0.5 -0.5)"/>
            <path class="cls-7" d="M427.12,353.66c18.55,13.36,24,60.87,24,60.87s-12.28-32.7-21.6-46.35S420.78,349.1,427.12,353.66Z" transform="translate(-0.5 -0.5)"/>
            <path class="cls-6" d="M438.46,417.72a52,52,0,0,1,.22,6.86c-.08.63-3.12,3.66-3.14,3.34-.24-2.86-2.81-17.78-5.56-21.56C429,405,438.36,415,438.46,417.72Z" transform="translate(-0.5 -0.5)"/>
            <path class="cls-8" d="M429.65,406.84a.47.47,0,0,0,.36-.27c3.49-7.55,11.87-13.91,20.55-10.81a.46.46,0,0,0,.31-.87c-9.19-3.28-18,3.37-21.7,11.3a.47.47,0,0,0,.23.61A.44.44,0,0,0,429.65,406.84Z" transform="translate(-0.5 -0.5)"/>
          </g>
          <path class="cls-9" d="M424.4,357.32c-1.07,12.32-6.22,21.93-11.52,21.47s-8.72-10.82-7.65-23.13,6.21-21.74,11.52-21.46C424.41,334.6,425.47,345,424.4,357.32Z" transform="translate(-0.5 -0.5)"/>
        </g>
      </g>
      <g id="torso">
        <g>
          <path class="cls-5" d="M304.2,329.2c-5.5-.35-24.88,19.09-19,38S324,449,331.5,471s12,27.47,22.61,29.47,26.71,2.73,45.35-36.18S421,381.69,421.8,360.93s-1.32-29-8.58-31.38C396.3,324,304.2,329.2,304.2,329.2Z" transform="translate(-0.5 -0.5)"/>
          <path class="cls-7" d="M391.94,459.72c14.45-40.93,12.71-84.93,11.37-105.78-.9-13.86-2.53-22-5.72-26.43-15.4-.86-37.88-.49-56.93.13,10.18,26.87,25.24,72.13,27.75,118.76,1.67,31.1-2.62,46.3-8.57,54.08C369.54,498.54,381.19,490.18,391.94,459.72Z" transform="translate(-0.5 -0.5)"/>
          <path class="cls-10" d="M414.84,331.28c0,4-28.5,10.3-57.26,10.35s-57.29-6.12-57.29-10.16,28.51-4.4,57.26-4.45S414.83,327.25,414.84,331.28Z" transform="translate(-0.5 -0.5)"/>
          <path class="cls-11" d="M397.45,332.11c0,2.79-19.63,7.12-39.44,7.15s-39.46-4.23-39.47-7,19.64-3.05,39.45-3.08S397.45,329.32,397.45,332.11Z" transform="translate(-0.5 -0.5)"/>
          <path class="cls-12" d="M385.4,333.55c0,1.07-13.54,2.43-26.74,2.45s-25.83-1.29-25.83-2.36,12.63-1.49,25.82-1.51S385.39,332.49,385.4,333.55Z" transform="translate(-0.5 -0.5)"/>
          <path class="cls-13" d="M343.34,475.58c-3.06-16.5-7.62-70.45-18.46-108.52-5.44-19.09-18.23-32.55-30.62-28.28-8.79,3-12.26,18.17-9.1,28.38C291,386,324,449,331.5,471s12,27.47,22.61,29.47c5.47,1,12.4,1.71,20.37-3.18C363.69,499,348.4,502.9,343.34,475.58Z" transform="translate(-0.5 -0.5)"/>
          <path class="cls-14" d="M381.4,483.61a19.33,19.33,0,0,1-6.55,1.08,30,30,0,0,1-7.34-.53c-1.36-.35-2.56-1.23-2.55-2.73h0a2.65,2.65,0,0,1,2.56-2.72s5.64.63,7,.62a50,50,0,0,0,7.12-.67c1.41,0,2.73.42,2.3,2.44C383.77,482,383.11,483,381.4,483.61Z" transform="translate(-0.5 -0.5)"/>
          <path class="cls-15" d="M380.5,483.31a20.07,20.07,0,0,1-5.67.77,31.65,31.65,0,0,1-6.34-.38c-1.18-.25-2.21-.88-2.21-1.95h0a2.08,2.08,0,0,1,2.22-1.93s4.87.45,6.06.44a53.9,53.9,0,0,0,6.16-.48c1.22,0,2.36.3,2,1.74C382.54,482.19,382,482.86,380.5,483.31Z" transform="translate(-0.5 -0.5)"/>
          <path class="cls-8" d="M373.26,471.17c-12.95,0-28.84-2.81-46-9.85a.46.46,0,1,1,.35-.85c31.92,13.12,59.39,11.46,71.4,4.36a.46.46,0,0,1,.47.79C393.8,469,384.67,471.17,373.26,471.17Z" transform="translate(-0.5 -0.5)"/>
          <path class="cls-16" d="M372.92,470.14c-12.95,0-28.84-2.8-46-9.85a.45.45,0,0,1-.25-.6.47.47,0,0,1,.6-.25c31.93,13.13,59.39,11.46,71.41,4.36a.46.46,0,0,1,.63.16.47.47,0,0,1-.17.63C393.46,468,384.33,470.14,372.92,470.14Z" transform="translate(-0.5 -0.5)"/>
          <path class="cls-7" d="M419.39,339.84c2.45,49.89-4.74,73.5-4.74,73.5s6.87-37.69.53-74.13C414.31,334.21,419,332.05,419.39,339.84Z" transform="translate(-0.5 -0.5)"/>
          <path class="cls-16" d="M304.68,336.36s5.68,3.41,26.44,5.34,48.07,1.56,48.07,1.56S354,346.6,331,344.12,304.68,336.36,304.68,336.36Z" transform="translate(-0.5 -0.5)"/>
          <path class="cls-17" d="M377.88,480.09c-1,.09-2.17.16-3.32.17s-6.06-.44-6.06-.44a2.49,2.49,0,0,0-.47,0l2.24,4.09c1.23.11,2.74.15,4.56.13a20.69,20.69,0,0,0,5.28-.67Z" transform="translate(-0.5 -0.5)"/>
          <g>
            <path class="cls-18" d="M372.89,374a17.63,17.63,0,0,1,11-16.33,18,18,0,0,1,2,.25,16.23,16.23,0,0,1,13.49,15.46c0,.17,0,.35,0,.53v.18h0A10.05,10.05,0,0,0,386,364.64c1-.35,1-.35-.06,0a9.87,9.87,0,0,0-3.4-.59c-5.61,0-9.59,4.53-9.59,10v.09c0,5.43,3.89,9.86,9.5,9.86a9.78,9.78,0,0,0,3.1-.49,10.07,10.07,0,0,0,13.78-9.18A16.06,16.06,0,0,1,386,390.1a16.88,16.88,0,0,1-2.05.26A17.63,17.63,0,0,1,372.89,374Z" transform="translate(-0.5 -0.5)"/>
            <path class="cls-19" d="M379.24,374.15a10.07,10.07,0,0,0,6.33,9.34,9.78,9.78,0,0,1-3.1.49c-5.61,0-9.5-4.43-9.5-9.86V374c0-5.43,4-10,9.59-10a9.87,9.87,0,0,1,3.4.59c1-.37,1.05-.37.06,0A10.07,10.07,0,0,0,379.24,374.15Z" transform="translate(-0.5 -0.5)"/>
            <path class="cls-20" d="M382.47,357.64c.48,0,.95,0,1.41.06a17.62,17.62,0,0,0,0,32.66c-.44,0-.88.05-1.34.05-9.77,0-16.88-7.38-16.88-16.38v-.09C365.68,364.93,372.7,357.64,382.47,357.64Z" transform="translate(-0.5 -0.5)"/>
            <path class="cls-21" d="M399.35,374.15v0Z" transform="translate(-0.5 -0.5)"/>
            <path class="cls-22" d="M385.84,383.39Z" transform="translate(-0.5 -0.5)"/>
            <path class="cls-23" d="M385.84,383.39Z" transform="translate(-0.5 -0.5)"/>
            <path class="cls-24" d="M389.3,384.2a10,10,0,0,1-3.73-.71l.27-.1h0a9.8,9.8,0,0,0,6.48-9.36v-.09a9.66,9.66,0,0,0-6.36-9.28l.06,0a10.05,10.05,0,0,1,13.33,9.49v.18A10,10,0,0,1,389.3,384.2Z" transform="translate(-0.5 -0.5)"/>
            <path class="cls-25" d="M389.3,384.2a10,10,0,0,1-3.73-.71l.27-.1h0a9.8,9.8,0,0,0,6.48-9.36v-.09a9.66,9.66,0,0,0-6.36-9.28l.06,0a10.05,10.05,0,0,1,13.33,9.49v.18A10,10,0,0,1,389.3,384.2Z" transform="translate(-0.5 -0.5)"/>
          </g>
        </g>
      </g>
      <g id="cabeza">
        <g>
          <g>
            <path class="cls-5" d="M308.56,313.86c13.09,16.85,53.15,13.64,64.31,12.57s30.07-3,36.88-23.55,3.4-51.9-15.32-68.19-68.84-13.64-85.87,8.33S304,308,308.56,313.86Z" transform="translate(-0.5 -0.5)"/>
            <path class="cls-16" d="M312,247.5c.75-.27,16.22-12.3,44.23-14.7,9.64-.82,24.66,0,34.31,1.34-1-1-14.81-9-43.39-6C340.2,228.83,324,233.19,312,247.5Z" transform="translate(-0.5 -0.5)"/>
            <path class="cls-7" d="M363,242.52c-9,.14-18.06.78-26.56,4l-.19.08c8.82,18.69,9.55,43,4.38,60.44a36.7,36.7,0,0,1-7.51,14.11c15.58,2.75,33,1.32,39.8.67,7.38-.7,18.15-1.79,26.57-8.4a41.59,41.59,0,0,0,2.44-6.38c5.23-17.63,4.42-42.39-4.73-61.17A145.48,145.48,0,0,0,363,242.52Z" transform="translate(-0.5 -0.5)"/>
            <path class="cls-26" d="M330.34,259.11c5.2-7.07,19.37-8.92,37.12-10,22.9-1.37,30.65,2.78,33,5.42s6.4,15.8,5.53,28.59-1,16.63-6.28,19.81-20.45,6.29-30.26,6.53c-18.6.45-28-.46-34.19-4.11-3.18-1.87-7.22-11.92-7.85-24.32S327.65,262.78,330.34,259.11Z" transform="translate(-0.5 -0.5)"/>
            <path class="cls-27" d="M366.82,251.11c-11,.64-20.61,1.59-27.35,4,5.89,16.37,5.93,35.79,1.55,50.15,0,.16-.1.32-.16.48,5.9,1.7,14.33,2.11,27.85,1.79,9.42-.22,24-3.13,29-6.1a9,9,0,0,0,4-4.12,85.52,85.52,0,0,0-2.92-40.68c-.11-.16-.22-.3-.32-.42C396.23,253.71,388.79,249.83,366.82,251.11Z" transform="translate(-0.5 -0.5)"/>
            <path class="cls-9" d="M318.3,270.86c-.31,6.95-4.19,12.41-8.66,12.22s-7.86-6-7.55-12.94,4.19-12.41,8.66-12.21S318.61,263.92,318.3,270.86Z" transform="translate(-0.5 -0.5)"/>
            <path class="cls-28" d="M314.75,270.34c-.21,4.87-2.59,8.73-5.3,8.61s-4.74-4.17-4.52-9.05,2.59-8.72,5.3-8.6S315,265.47,314.75,270.34Z" transform="translate(-0.5 -0.5)"/>
            <path class="cls-29" d="M314.83,270.71l-.46,0,.46,0a17.08,17.08,0,0,0-2-9.25c-1.51-2.58-3.62-4.06-6-4.17-4.7-.2-8.82,5.47-9.14,12.66s3.26,13.2,8,13.41h.26C310.55,283.36,314.51,277.76,314.83,270.71Zm-8-12.5c2,.09,3.85,1.41,5.19,3.71a16,16,0,0,1,1.92,8.75c-.3,6.68-4,11.94-8.18,11.77s-7.41-5.77-7.11-12.45,3.84-11.78,8-11.78Z" transform="translate(-0.5 -0.5)"/>
            <path class="cls-7" d="M306.24,287l3.29.11s1.39,13.65,5.33,21.66,9.52,10.59,9.52,10.59-8.42-2.73-13.46-13.12C307.3,298.72,306.24,287,306.24,287Z" transform="translate(-0.5 -0.5)"/>
            <path class="cls-30" d="M333.43,260.16v0a1.74,1.74,0,0,0,2.5.59c1.6-1.1,4-2.73,5.44-3.49,2.21-1.2,13.15-5.24,13.15-5.24s-11,.22-20.28,5.28A2.09,2.09,0,0,0,333.43,260.16Z" transform="translate(-0.5 -0.5)"/>
          </g>
          <path class="cls-31" d="M324.84,269.26c0,2.16-1,3.9-2.24,3.9s-2.24-1.74-2.24-3.9,1-3.9,2.24-3.9S324.84,267.11,324.84,269.26Z" transform="translate(-0.5 -0.5)"/>
        </g>
      </g>
      <g id="ojos">
        <g>
          <rect class="cls-32" x="350.91" y="263.47" width="15.8" height="20.64" rx="3.93"/>
          <rect class="cls-32" x="352.57" y="265.69" width="12.49" height="16.2" rx="3.93"/>
          <rect class="cls-33" x="354.67" y="267.77" width="8.66" height="12.61" rx="2.44"/>
          <path class="cls-34" d="M362.91,273.13H355.8a.35.35,0,0,1-.35-.35.35.35,0,0,1,.35-.34h7.11a.35.35,0,0,1,.35.34A.35.35,0,0,1,362.91,273.13Z" transform="translate(-0.5 -0.5)"/>
          <path class="cls-34" d="M362.91,274.63H355.8a.35.35,0,0,1-.35-.34.35.35,0,0,1,.35-.35h7.11a.35.35,0,0,1,.35.35A.35.35,0,0,1,362.91,274.63Z" transform="translate(-0.5 -0.5)"/>
          <path class="cls-34" d="M362.91,276.19H355.8a.35.35,0,0,1-.35-.34.35.35,0,0,1,.35-.35h7.11a.35.35,0,0,1,.35.35A.35.35,0,0,1,362.91,276.19Z" transform="translate(-0.5 -0.5)"/>
          <path class="cls-34" d="M362,270.25H356.7a.35.35,0,0,1-.34-.35.34.34,0,0,1,.34-.34H362a.34.34,0,0,1,.34.34A.35.35,0,0,1,362,270.25Z" transform="translate(-0.5 -0.5)"/>
          <path class="cls-34" d="M362.91,271.81H355.8a.35.35,0,0,1-.35-.35.35.35,0,0,1,.35-.34h7.11a.35.35,0,0,1,.35.34A.35.35,0,0,1,362.91,271.81Z" transform="translate(-0.5 -0.5)"/>
          <path class="cls-34" d="M362.91,278H355.8a.35.35,0,0,1-.35-.34.35.35,0,0,1,.35-.35h7.11a.35.35,0,0,1,.35.35A.35.35,0,0,1,362.91,278Z" transform="translate(-0.5 -0.5)"/>
          <path class="cls-34" d="M362.91,279.54H355.8a.34.34,0,1,1,0-.68h7.11a.34.34,0,1,1,0,.68Z" transform="translate(-0.5 -0.5)"/>
        </g>
        <g>
          <rect class="cls-32" x="376.09" y="263.47" width="15.8" height="20.64" rx="3.93"/>
          <rect class="cls-32" x="377.74" y="265.69" width="12.49" height="16.2" rx="3.93"/>
          <rect class="cls-33" x="379.85" y="267.77" width="8.66" height="12.61" rx="2.44"/>
          <path class="cls-34" d="M388.09,273.13H381a.35.35,0,0,1-.34-.35.34.34,0,0,1,.34-.34h7.12a.34.34,0,0,1,.34.34A.35.35,0,0,1,388.09,273.13Z" transform="translate(-0.5 -0.5)"/>
          <path class="cls-34" d="M388.09,274.63H381a.34.34,0,0,1-.34-.34.35.35,0,0,1,.34-.35h7.12a.35.35,0,0,1,.34.35A.34.34,0,0,1,388.09,274.63Z" transform="translate(-0.5 -0.5)"/>
          <path class="cls-34" d="M388.09,276.19H381a.34.34,0,0,1-.34-.34.35.35,0,0,1,.34-.35h7.12a.35.35,0,0,1,.34.35A.34.34,0,0,1,388.09,276.19Z" transform="translate(-0.5 -0.5)"/>
          <path class="cls-34" d="M387.18,270.25h-5.3a.35.35,0,0,1-.35-.35.35.35,0,0,1,.35-.34h5.3a.34.34,0,0,1,.34.34A.35.35,0,0,1,387.18,270.25Z" transform="translate(-0.5 -0.5)"/>
          <path class="cls-34" d="M388.09,271.81H381a.35.35,0,0,1-.34-.35.34.34,0,0,1,.34-.34h7.12a.34.34,0,0,1,.34.34A.35.35,0,0,1,388.09,271.81Z" transform="translate(-0.5 -0.5)"/>
          <path class="cls-34" d="M388.09,278H381a.34.34,0,0,1-.34-.34.35.35,0,0,1,.34-.35h7.12a.35.35,0,0,1,.34.35A.34.34,0,0,1,388.09,278Z" transform="translate(-0.5 -0.5)"/>
          <path class="cls-34" d="M388.09,279.54H381a.34.34,0,1,1,0-.68h7.12a.34.34,0,1,1,0,.68Z" transform="translate(-0.5 -0.5)"/>
        </g>
      </g>
      <g id="boca">
        <path class="cls-35" d="M362.6,295.19c7.13.91,19.92,1.61,19.92,1.61s-11.31,1.15-18.69-.12S354.94,294.21,362.6,295.19Z" transform="translate(-0.5 -0.5)"/>
      </g>
      <g id="brazoDerecho">
        <g>
          <path class="cls-36" d="M315.8,366.35c3.95,13.76.83,26.74-7,29s-17.35-7.1-21.3-20.87-.83-26.74,7-29S311.85,352.58,315.8,366.35Z" transform="translate(-0.5 -0.5)"/>
          <path class="cls-29" d="M306.31,391.94a.5.5,0,0,1-.05-1,5.69,5.69,0,0,0,4.59-3.21c3.25-5.58,2.63-16.11-1.45-24.5-4.87-10-12.66-14-17.08-12a.5.5,0,0,1-.66-.24.49.49,0,0,1,.24-.66c5.56-2.57,13.81,3,18.39,12.44,4.21,8.67,4.82,19.6,1.42,25.44a6.7,6.7,0,0,1-5.38,3.7Z" transform="translate(-0.5 -0.5)"/>
          <g>
            <path class="cls-5" d="M263.53,417.7c3.29-40.17,17.14-58.87,20.45-62.81a3.24,3.24,0,0,1,1.89-1.12c2.76-.53,10-.72,18.39,8.8,5.77,6.57,5.55,18.4,5.18,19-3.83,6.44-27.89,47-33.92,60.62C269,457,262.13,434.86,263.53,417.7Z" transform="translate(-0.5 -0.5)"/>
            <path class="cls-6" d="M304.31,362.6a33.05,33.05,0,0,0-7.63-6.58c.87.82,1.76,1.74,2.67,2.77,7.29,8.29,5.11,14.81,3.49,19.28-5.83,16-24.24,46.7-27.66,65,.13-.26.26-.54.39-.83,6-13.61,30.09-54.18,33.92-60.62C309.86,381,310.08,369.18,304.31,362.6Z" transform="translate(-0.5 -0.5)"/>
            <path class="cls-7" d="M282.38,369.07c-16.74,15.58-16.14,63.4-16.14,63.4s8.07-34,15.61-48.69S288.09,363.75,282.38,369.07Z" transform="translate(-0.5 -0.5)"/>
            <path class="cls-6" d="M279.16,434.05a49.71,49.71,0,0,0,.64,6.83c.16.61,3.55,3.24,3.54,2.92-.13-2.87.56-18,2.81-22.08C287,420.27,278.91,431.3,279.16,434.05Z" transform="translate(-0.5 -0.5)"/>
            <path class="cls-8" d="M286.54,422.14a.44.44,0,0,1-.39-.21c-4.41-7.06-13.53-12.32-21.75-8.15a.47.47,0,0,1-.62-.21.46.46,0,0,1,.2-.61c8.71-4.41,18.32,1.08,22.94,8.48a.47.47,0,0,1-.14.64A.53.53,0,0,1,286.54,422.14Z" transform="translate(-0.5 -0.5)"/>
          </g>
          <g>
            <path class="cls-37" d="M292.09,380.44c-.21,6.81-5.35,12.18-11.48,12s-10.93-5.86-10.72-12.66,5.34-12.18,11.47-12S292.3,373.64,292.09,380.44Z" transform="translate(-0.5 -0.5)"/>
            <g>
              <path class="cls-38" d="M273.39,381.16c-.15,2.29,1.13,4.68,2.45,6.51a22.31,22.31,0,0,0,2.67,3.07s7.08-1.81,9-5.88c.4-.85,2.26-6.17,2.26-6.17s.56-1.29-.49-1.88a32.28,32.28,0,0,1-3.59-2,10.39,10.39,0,0,0-2.39-1.53c-.68-.25-1-.11-2.22,0a40,40,0,0,1-4.22-.11c-1.25,0-1.4,1.4-1.4,1.4S273.46,380.2,273.39,381.16Z" transform="translate(-0.5 -0.5)"/>
              <path class="cls-39" d="M275.49,374.52s-2,5.68-2.1,6.64c-.3,4.58,5.12,9.58,5.12,9.58h0s7.08-1.81,9-5.88c.4-.85,2.26-6.18,2.26-6.18s.56-1.28-.49-1.87a33.75,33.75,0,0,1-3.59-2,10,10,0,0,0-2.39-1.54c-.68-.25-1-.11-2.22,0a37.92,37.92,0,0,1-4.23-.1C275.64,373.08,275.49,374.52,275.49,374.52Zm1.12-.24,1,0a11.7,11.7,0,0,0,3.25,0c2.24-.42,2.93.72,4,1.49a20.4,20.4,0,0,0,2.76,1.6l.89.47a.8.8,0,0,1-.05.26.41.41,0,0,1,0,.08c-.71,2-1.94,5.48-2.21,6.06-.85,1.77-3,3.07-4.62,3.85a22.76,22.76,0,0,1-2.74,1.08,22.4,22.4,0,0,1-1.91-2.3c-1.05-1.47-2.33-3.92-2.2-5.89a43.35,43.35,0,0,1,1.71-6.44A2.28,2.28,0,0,1,276.61,374.28Z" transform="translate(-0.5 -0.5)"/>
              <path class="cls-40" d="M273.39,381.16c-.17,2.66,1.58,5.46,3.08,7.33-1.37-1.84-2.76-4.34-2.6-6.71a68.35,68.35,0,0,1,2.1-6.65s.15-1.43,1.39-1.4a37.65,37.65,0,0,0,4.22.11c1.25-.09,1.55-.23,2.23,0a10.39,10.39,0,0,1,2.39,1.54,34,34,0,0,0,3.59,2,.47.47,0,0,1,.09.06,1.15,1.15,0,0,0-.57-.68,33.75,33.75,0,0,1-3.59-2,9.85,9.85,0,0,0-2.39-1.54c-.68-.25-1-.11-2.22,0a37.51,37.51,0,0,1-4.22-.11c-1.25,0-1.4,1.41-1.4,1.41S273.46,380.2,273.39,381.16Z" transform="translate(-0.5 -0.5)"/>
              <path class="cls-39" d="M280.45,381.28a.46.46,0,0,0,.11.42l-.09.33a.09.09,0,0,0,.07.11l.26.07a.09.09,0,0,0,.12-.06l.08-.34a.44.44,0,0,0,0-.85A.44.44,0,0,0,280.45,381.28Z" transform="translate(-0.5 -0.5)"/>
              <path class="cls-39" d="M280.46,379l-.18.65,2,.51.17-.65a1,1,0,1,0-2-.51Z" transform="translate(-0.5 -0.5)"/>
              <path class="cls-39" d="M276.9,376.1s-1.24,4.19-1.29,4.9c-.26,3.4,3.53,7.33,3.53,7.33h0s5-1.41,6.45-4.46c.3-.63,1.67-4.62,1.67-4.62s.41-1-.33-1.39a22.8,22.8,0,0,1-2.53-1.47c-.43-.33-.82-.59-1.14-.79a5.15,5.15,0,0,0-.72-.39h0a2.78,2.78,0,0,0-1.47-.11,24.2,24.2,0,0,1-3,0C277.2,375.05,276.9,376.1,276.9,376.1Zm1.8,3.71a.55.55,0,0,1,.67-.39l.15,0,.17-.65a1.8,1.8,0,1,1,3.49.92l-.17.66.15,0a.56.56,0,0,1,.39.68l-.67,2.54a.55.55,0,0,1-.68.4l-3.78-1a.55.55,0,0,1-.39-.68Z" transform="translate(-0.5 -0.5)"/>
              <path class="cls-40" d="M275.61,381c-.19,2.44,1.72,5.16,2.8,6.5-1.08-1.46-2.49-3.77-2.32-5.88.05-.72,1.29-4.91,1.29-4.91s.3-1,1.17-1a22.36,22.36,0,0,0,3,0,2.82,2.82,0,0,1,1.47.12h0a5.81,5.81,0,0,1,.71.39c.33.2.72.47,1.15.79a19.67,19.67,0,0,0,2.47,1.44.83.83,0,0,0-.42-.59,20,20,0,0,1-2.53-1.47c-.43-.32-.82-.58-1.14-.78a5.15,5.15,0,0,0-.72-.39h0a2.84,2.84,0,0,0-1.47-.12,22.49,22.49,0,0,1-3,0c-.87,0-1.17,1-1.17,1S275.66,380.28,275.61,381Z" transform="translate(-0.5 -0.5)"/>
            </g>
          </g>
        </g>
      </g>
    </g>
  </g>
</svg>
