<svg xmlns="http://www.w3.org/2000/svg" xmlns:xlink="http://www.w3.org/1999/xlink" width="1024" height="620" viewBox="0 0 1024 620">
  <defs>
    <style>
      .cls-1 {
        isolation: isolate;
      }

      .cls-2 {
        fill: none;
      }

      .cls-3, .cls-4 {
        fill: #51b2fb;
      }

      .cls-3, .cls-32 {
        opacity: 0.1;
      }

      .cls-4 {
        opacity: 0.2;
      }

      .cls-5 {
        fill: #e3ebfc;
      }

      .cls-6 {
        fill: #ccddfa;
      }

      .cls-7 {
        fill: #fafbff;
      }

      .cls-8 {
        fill: #80a7f6;
      }

      .cls-9 {
        fill: #9fbcfb;
      }

      .cls-10 {
        fill: #b8d0f9;
      }

      .cls-11, .cls-29, .cls-31 {
        fill: #207bff;
      }

      .cls-11, .cls-37 {
        opacity: 0.4;
      }

      .cls-12 {
        fill: #004bff;
        opacity: 0.5;
        mix-blend-mode: multiply;
      }

      .cls-13 {
        fill: #c5d8fa;
      }

      .cls-14 {
        fill: url(#_ÂÁ_Ï_ÌÌ_È_ËÂÌÚ_30);
      }

      .cls-15 {
        fill: #4aebff;
      }

      .cls-16, .cls-30 {
        fill: #fff;
      }

      .cls-17 {
        fill: #bef9ff;
      }

      .cls-18 {
        fill: url(#linear-gradient);
      }

      .cls-19 {
        fill: #ec1c24;
      }

      .cls-20 {
        fill: url(#linear-gradient-2);
      }

      .cls-21 {
        fill: url(#linear-gradient-3);
      }

      .cls-22 {
        fill: url(#linear-gradient-4);
      }

      .cls-23 {
        fill: url(#linear-gradient-5);
      }

      .cls-24 {
        fill: url(#linear-gradient-6);
      }

      .cls-25 {
        fill: url(#linear-gradient-7);
      }

      .cls-26 {
        fill: url(#_ÂÁ_Ï_ÌÌ_È_ËÂÌÚ_14);
      }

      .cls-27 {
        fill: url(#_ÂÁ_Ï_ÌÌ_È_ËÂÌÚ_18);
      }

      .cls-28 {
        fill: #4880f8;
      }

      .cls-30 {
        opacity: 0.8;
      }

      .cls-31 {
        opacity: 0.72;
      }

      .cls-32, .cls-33, .cls-34, .cls-35 {
        fill: #3ae6fb;
      }

      .cls-33 {
        opacity: 0.3;
      }

      .cls-35 {
        opacity: 0.7;
      }

      .cls-36 {
        fill: #93b4fb;
      }

      .cls-37 {
        mix-blend-mode: lighten;
        fill: url(#radial-gradient);
      }

      .cls-38 {
        fill: #00ffda;
      }

      .cls-39 {
        fill: #7fd1ca;
      }

      .cls-40 {
        fill: #1e1e1e;
      }
    </style>
    <radialGradient id="_ÂÁ_Ï_ÌÌ_È_ËÂÌÚ_30" data-name="¡ÂÁ˚ÏˇÌÌ˚È „‡‰ËÂÌÚ 30" cx="3730.06" cy="435.76" r="7.77" gradientTransform="matrix(-1, 0, 0, 1, 4568.39, 0)" gradientUnits="userSpaceOnUse">
      <stop offset="0" stop-color="#4aebff"/>
      <stop offset="1" stop-color="#00709e"/>
    </radialGradient>
    <linearGradient id="linear-gradient" x1="833.49" y1="300.1" x2="833.49" y2="342.93" gradientUnits="userSpaceOnUse">
      <stop offset="0.02" stop-color="#dd2a21"/>
      <stop offset="0.06" stop-color="#c8201b"/>
      <stop offset="0.1" stop-color="#b71717"/>
      <stop offset="0.15" stop-color="#ac1113"/>
      <stop offset="0.22" stop-color="#a50e12"/>
      <stop offset="0.43" stop-color="#a30d11"/>
      <stop offset="0.79" stop-color="#6b0006"/>
    </linearGradient>
    <linearGradient id="linear-gradient-2" x1="821.05" y1="302.01" x2="821.05" y2="332.75" gradientUnits="userSpaceOnUse">
      <stop offset="0" stop-color="#ad1a27"/>
      <stop offset="0.08" stop-color="#9e151f"/>
      <stop offset="0.28" stop-color="#7d090e"/>
      <stop offset="0.44" stop-color="#680304"/>
      <stop offset="0.56" stop-color="#610000"/>
      <stop offset="0.73" stop-color="#520000"/>
      <stop offset="1" stop-color="#3f0000"/>
    </linearGradient>
    <linearGradient id="linear-gradient-3" x1="102.95" y1="317.84" x2="122.82" y2="317.84" gradientTransform="matrix(-1, 0, 0, 1, 970.53, 0)" gradientUnits="userSpaceOnUse">
      <stop offset="0" stop-color="#be1349"/>
      <stop offset="0.24" stop-color="#be124e"/>
      <stop offset="0.25" stop-color="#be124e"/>
      <stop offset="1" stop-color="#7a0025"/>
    </linearGradient>
    <linearGradient id="linear-gradient-4" x1="96.31" y1="328.05" x2="122.91" y2="328.05" gradientTransform="matrix(-1, 0, 0, 1, 970.53, 0)" gradientUnits="userSpaceOnUse">
      <stop offset="0" stop-color="#282881"/>
      <stop offset="0.27" stop-color="#26257d"/>
      <stop offset="0.55" stop-color="#1f1b70"/>
      <stop offset="0.84" stop-color="#150c5b"/>
      <stop offset="1" stop-color="#0d004c"/>
    </linearGradient>
    <linearGradient id="linear-gradient-5" x1="102.6" y1="328.05" x2="122.82" y2="328.05" xlink:href="#linear-gradient-3"/>
    <linearGradient id="linear-gradient-6" x1="106.7" y1="317.75" x2="132.1" y2="317.75" xlink:href="#linear-gradient-4"/>
    <linearGradient id="linear-gradient-7" x1="840.44" y1="327.03" x2="840.44" y2="312.49" gradientUnits="userSpaceOnUse">
      <stop offset="0" stop-color="#ed2d24"/>
      <stop offset="0.12" stop-color="#ed2824"/>
      <stop offset="0.25" stop-color="#ec1c24"/>
      <stop offset="1" stop-color="#74020d"/>
    </linearGradient>
    <linearGradient id="_ÂÁ_Ï_ÌÌ_È_ËÂÌÚ_14" data-name="¡ÂÁ˚ÏˇÌÌ˚È „‡‰ËÂÌÚ 14" x1="3674.26" y1="386.94" x2="3760.69" y2="386.94" gradientTransform="matrix(-1, -0.05, -0.05, 1, 4578.95, 14.34)" gradientUnits="userSpaceOnUse">
      <stop offset="0" stop-color="#003a6b"/>
      <stop offset="1" stop-color="#00204c"/>
    </linearGradient>
    <linearGradient id="_ÂÁ_Ï_ÌÌ_È_ËÂÌÚ_18" data-name="¡ÂÁ˚ÏˇÌÌ˚È „‡‰ËÂÌÚ 18" x1="3702.39" y1="177.72" x2="3746.18" y2="251.5" gradientTransform="matrix(-1, 0, 0, 1, 4568.39, 0)" gradientUnits="userSpaceOnUse">
      <stop offset="0" stop-color="#cbd7e1"/>
      <stop offset="0.05" stop-color="#aec0d0"/>
      <stop offset="0.15" stop-color="#7998b2"/>
      <stop offset="0.26" stop-color="#4e7698"/>
      <stop offset="0.35" stop-color="#2c5c85"/>
      <stop offset="0.44" stop-color="#144976"/>
      <stop offset="0.53" stop-color="#053e6e"/>
      <stop offset="0.6" stop-color="#003a6b"/>
      <stop offset="1" stop-color="#00204c"/>
    </linearGradient>
    <radialGradient id="radial-gradient" cx="1968.11" cy="440.09" r="16.45" gradientTransform="matrix(-0.74, 0.02, 0.03, 0.82, 2387.53, -82.03)" gradientUnits="userSpaceOnUse">
      <stop offset="0" stop-color="#00ddde" stop-opacity="0.52"/>
      <stop offset="0.09" stop-color="#2de6e7" stop-opacity="0.65"/>
      <stop offset="0.2" stop-color="#63f1f1" stop-opacity="0.8"/>
      <stop offset="0.3" stop-color="#8af8f9" stop-opacity="0.91"/>
      <stop offset="0.38" stop-color="#a2fdfd" stop-opacity="0.98"/>
      <stop offset="0.43" stop-color="#abffff"/>
      <stop offset="0.46" stop-color="#9ffcfd"/>
      <stop offset="0.51" stop-color="#7ff6f6"/>
      <stop offset="0.58" stop-color="#4aebeb"/>
      <stop offset="0.66" stop-color="#03dcdd"/>
      <stop offset="0.66" stop-color="#00dbdc"/>
      <stop offset="0.69" stop-color="#08dcdd" stop-opacity="0.97"/>
      <stop offset="0.74" stop-color="#1fdfe0" stop-opacity="0.88"/>
      <stop offset="0.8" stop-color="#44e5e5" stop-opacity="0.73"/>
      <stop offset="0.87" stop-color="#78eced" stop-opacity="0.53"/>
      <stop offset="0.94" stop-color="#baf5f6" stop-opacity="0.27"/>
      <stop offset="1" stop-color="#fff" stop-opacity="0"/>
    </radialGradient>
  </defs>
  <title>robot</title>
  <g class="cls-1">
    <g id="base">
      <rect class="cls-2" width="1024" height="620"/>
    </g>
    <g id="Robot">
      <g id="sombra">
        <g>
          <ellipse class="cls-3" cx="859.15" cy="480.36" rx="62.29" ry="13.98"/>
          <ellipse class="cls-4" cx="859.15" cy="480.36" rx="48.52" ry="8.89"/>
          <path class="cls-4" d="M829.93,480.36c0,2.95,13.08,5.35,29.22,5.35s29.21-2.4,29.21-5.35S875.28,475,859.15,475,829.93,477.4,829.93,480.36Z"/>
        </g>
      </g>
      <g id="brazoIquierdo">
        <g>
          <g>
            <path class="cls-5" d="M751,347.46c9.11-43.28,26.77-61.73,30.91-65.57a3.56,3.56,0,0,1,2.21-1c3.08-.2,11,.6,18.81,12.11,5.38,7.95,3.51,20.8,3,21.42-5.05,6.49-36.83,47.35-45.27,61.33C751.51,391,747.13,366,751,347.46Z"/>
            <path class="cls-6" d="M803,293.09a35.68,35.68,0,0,0-7.39-8.22c.83,1,1.68,2.13,2.52,3.38,6.8,10,3.53,16.83,1.15,21.47-8.55,16.65-32.82,47.51-39.07,67,.18-.27.36-.55.54-.85,8.45-14,40.22-54.85,45.28-61.33C806.51,313.89,808.38,301,803,293.09Z"/>
            <path class="cls-7" d="M778.23,297.11c-20.36,14.66-26.3,66.8-26.3,66.8s13.47-35.89,23.7-50.86S785.18,292.1,778.23,297.11Z"/>
            <path class="cls-6" d="M765.78,367.41c-.11,3-.5,5.55-.24,7.53.09.68,3.42,4,3.45,3.66.25-3.14,3.08-19.51,6.1-23.66C776.16,353.48,765.89,364.38,765.78,367.41Z"/>
            <path class="cls-8" d="M775.45,355.46a.48.48,0,0,1-.39-.28c-3.83-8.3-13-15.27-22.56-11.88a.5.5,0,1,1-.34-.94c10.09-3.6,19.8,3.7,23.81,12.39a.49.49,0,0,1-.25.67A.42.42,0,0,1,775.45,355.46Z"/>
          </g>
          <path class="cls-9" d="M781.21,301.13c1.17,13.51,6.83,24.06,12.64,23.55s9.57-11.86,8.4-25.38-6.82-23.85-12.64-23.55C781.2,276.19,780,287.62,781.21,301.13Z"/>
        </g>
      </g>
      <g id="torso">
        <g>
          <path class="cls-5" d="M915.48,268.43c6-.39,27.3,20.95,20.9,41.65s-42.65,89.79-50.86,114-13.14,30.14-24.81,32.34-29.32,3-49.77-39.71S787.35,326,786.42,303.25s1.45-31.83,9.42-34.43C814.41,262.76,915.48,268.43,915.48,268.43Z"/>
          <path class="cls-7" d="M819.2,411.66c-15.86-44.92-14-93.21-12.48-116.08,1-15.21,2.78-24.19,6.28-29,16.89-.94,41.56-.53,62.47.14C864.29,296.21,847.77,345.87,845,397c-1.84,34.13,2.87,50.81,9.4,59.35C843.77,454.26,831,445.09,819.2,411.66Z"/>
          <path class="cls-10" d="M794.07,270.71c0,4.43,31.27,11.3,62.83,11.36s62.86-6.72,62.87-11.15-31.29-4.83-62.84-4.88S794.07,266.29,794.07,270.71Z"/>
          <path class="cls-11" d="M813.15,271.62c0,3.06,21.54,7.81,43.28,7.85s43.3-4.65,43.31-7.71-21.56-3.34-43.29-3.38S813.15,268.56,813.15,271.62Z"/>
          <path class="cls-12" d="M826.37,273.21c0,1.17,14.86,2.65,29.34,2.68s28.35-1.42,28.35-2.59-13.86-1.63-28.34-1.66S826.38,272,826.37,273.21Z"/>
          <path class="cls-13" d="M872.53,429.06c3.35-18.1,8.35-77.31,20.25-119.09,6-20.94,20-35.72,33.6-31,9.65,3.32,13.46,19.94,10,31.14-6.41,20.7-42.65,89.79-50.86,114s-13.14,30.14-24.81,32.34c-6,1.13-13.61,1.87-22.35-3.49C850.19,454.77,867,459,872.53,429.06Z"/>
          <path class="cls-14" d="M830.76,437.88a21.28,21.28,0,0,0,7.19,1.18,33.77,33.77,0,0,0,8-.58c1.5-.38,2.81-1.35,2.8-3h0a2.91,2.91,0,0,0-2.81-3s-6.19.69-7.7.68a55.4,55.4,0,0,1-7.81-.74c-1.55,0-3,.46-2.53,2.68C828.16,436.15,828.88,437.18,830.76,437.88Z"/>
          <path class="cls-15" d="M831.75,437.55a22.17,22.17,0,0,0,6.22.84,34.75,34.75,0,0,0,6.95-.42c1.3-.27,2.43-1,2.43-2.13h0a2.31,2.31,0,0,0-2.44-2.13s-5.34.49-6.65.49a57.81,57.81,0,0,1-6.75-.53c-1.34,0-2.6.33-2.19,1.91C829.5,436.32,830.13,437.05,831.75,437.55Z"/>
          <path class="cls-8" d="M839.69,424.22c14.22,0,31.65-3.08,50.45-10.81a.5.5,0,0,0,.28-.65.51.51,0,0,0-.66-.28c-35,14.4-65.18,12.57-78.36,4.78a.51.51,0,0,0-.69.18.49.49,0,0,0,.17.69C817.15,421.83,827.18,424.22,839.69,424.22Z"/>
          <path class="cls-16" d="M840.06,423.1c14.22,0,31.65-3.08,50.45-10.81a.51.51,0,0,0,.28-.66.5.5,0,0,0-.66-.27c-35,14.4-65.18,12.57-78.36,4.78a.5.5,0,1,0-.52.86C817.52,420.71,827.55,423.1,840.06,423.1Z"/>
          <path class="cls-7" d="M789.07,280.11c-2.69,54.75,5.2,80.65,5.2,80.65s-7.54-41.36-.58-81.35C794.64,273.93,789.49,271.55,789.07,280.11Z"/>
          <path class="cls-16" d="M915,276.28s-6.23,3.75-29,5.87-52.76,1.71-52.76,1.71,27.63,3.66,52.87.94S915,276.28,915,276.28Z"/>
          <path class="cls-17" d="M834.62,434c1.1.09,2.38.17,3.64.18s6.65-.49,6.65-.49a3,3,0,0,1,.52.05L843,438.24a46.18,46.18,0,0,1-5,.15,22.94,22.94,0,0,1-5.79-.73Z"/>
          <g>
            <path class="cls-18" d="M819,317.62A19.33,19.33,0,0,1,831,299.71a18.85,18.85,0,0,1,2.15.27,17.8,17.8,0,0,1,14.81,17c0,.19,0,.39,0,.58v.22a11,11,0,0,0-14.64-10.42c1.09-.38,1-.39-.07,0a10.42,10.42,0,0,0-3.72-.66c-6.16,0-10.53,5-10.53,10.93v.1c0,6,4.27,10.83,10.43,10.83a10.72,10.72,0,0,0,3.4-.55A11,11,0,0,0,848,317.93a17.63,17.63,0,0,1-14.7,17.33,18.2,18.2,0,0,1-2.25.28A19.34,19.34,0,0,1,819,317.62Z"/>
            <path class="cls-19" d="M825.94,317.75A11,11,0,0,0,832.88,328a10.72,10.72,0,0,1-3.4.55c-6.16,0-10.43-4.87-10.43-10.83v-.1c0-6,4.37-10.93,10.53-10.93a10.42,10.42,0,0,1,3.72.66c1.12-.42,1.16-.41.07,0A11,11,0,0,0,825.94,317.75Z"/>
            <path class="cls-20" d="M829.48,299.64c.53,0,1,0,1.55.07a19.33,19.33,0,0,0,0,35.83c-.49,0-1,.06-1.47.06-10.73,0-18.52-8.1-18.52-18v-.1C811.06,307.64,818.75,299.64,829.48,299.64Z"/>
            <path class="cls-21" d="M848,317.75c0,.06,0,.12,0,.18s0-.13,0-.19Z"/>
            <path class="cls-22" d="M833.18,327.9c1.16.41,1.14.42,0,0Z"/>
            <path class="cls-23" d="M833.18,327.9c1.16.41,1.14.42,0,0Z"/>
            <path class="cls-24" d="M837,328.79a11,11,0,0,1-4.09-.79l.3-.1c1.14.42,1.16.41,0,0a10.78,10.78,0,0,0,7.11-10.28v-.1a10.58,10.58,0,0,0-7-10.17l.06,0A11,11,0,0,1,848,317.74c0,.06,0,.13,0,.19A11,11,0,0,1,837,328.79Z"/>
            <path class="cls-25" d="M837,328.79a11,11,0,0,1-4.09-.79l.3-.1c1.14.42,1.16.41,0,0a10.78,10.78,0,0,0,7.11-10.28v-.1a10.58,10.58,0,0,0-7-10.17l.06,0A11,11,0,0,1,848,317.74c0,.06,0,.13,0,.19A11,11,0,0,1,837,328.79Z"/>
          </g>
        </g>
      </g>
      <g id="cabeza">
        <g>
          <g>
            <path class="cls-5" d="M910.69,251.59c-14.36,18.49-58.32,15-70.57,13.8s-33-3.3-40.47-25.85-3.74-56.94,16.81-74.83,75.55-15,94.23,9.14S915.67,245.18,910.69,251.59Z"/>
            <path class="cls-16" d="M906.9,178.77c-.83-.29-17.8-13.49-48.54-16.13-10.58-.9-27.07,0-37.65,1.47,1-1.11,16.25-9.9,47.61-6.63C876,158.28,893.7,163.07,906.9,178.77Z"/>
            <path class="cls-7" d="M851,173.31c9.89.15,19.81.86,29.14,4.4l.21.09c-9.68,20.5-10.47,47.22-4.8,66.32a40.43,40.43,0,0,0,8.23,15.49c-17.09,3-36.23,1.44-43.67.73-8.1-.77-19.92-2-29.16-9.22a47.08,47.08,0,0,1-2.68-7c-5.74-19.35-4.85-46.52,5.2-67.12A159.26,159.26,0,0,1,851,173.31Z"/>
            <path class="cls-26" d="M886.79,191.51c-5.7-7.75-21.25-9.78-40.73-10.94-25.14-1.5-33.64,3.05-36.21,6s-7,17.34-6.06,31.37,1.11,18.25,6.88,21.74,22.44,6.9,33.22,7.17c20.4.49,30.69-.5,37.51-4.51,3.49-2,7.93-13.08,8.62-26.7S889.75,195.53,886.79,191.51Z"/>
            <path class="cls-27" d="M846.76,182.73c12.1.71,22.62,1.75,30,4.36-6.48,18-6.52,39.27-1.71,55,0,.18.12.35.17.53-6.46,1.87-15.72,2.32-30.56,2-10.33-.25-26.33-3.44-31.87-6.7a9.85,9.85,0,0,1-4.33-4.52,94,94,0,0,1,3.19-44.65,3.54,3.54,0,0,1,.36-.45C814.49,185.58,822.65,181.33,846.76,182.73Z"/>
            <path class="cls-9" d="M900,204.41c.34,7.62,4.6,13.62,9.51,13.4s8.62-6.57,8.28-14.19-4.59-13.63-9.5-13.41S899.67,196.79,900,204.41Z"/>
            <path class="cls-28" d="M903.9,203.84c.23,5.34,2.84,9.57,5.82,9.44s5.19-4.57,5-9.92-2.85-9.58-5.82-9.45S903.66,198.49,903.9,203.84Z"/>
            <path class="cls-29" d="M913.57,218.13h.28c5.18-.23,9.11-6.83,8.76-14.72s-4.87-14.11-10-13.88c-2.56.11-4.87,1.73-6.53,4.57a18.82,18.82,0,0,0-2.24,10.15l.51,0-.51,0C904.16,212,908.51,218.13,913.57,218.13Zm-.71-27.61c4.53,0,8.42,5.72,8.74,12.93s-3.17,13.46-7.8,13.67-8.65-5.6-9-12.93a17.72,17.72,0,0,1,2.1-9.59c1.48-2.53,3.5-4,5.7-4.08Z"/>
            <path class="cls-7" d="M913.24,222.07l-3.61.13s-1.53,15-5.85,23.77-10.45,11.61-10.45,11.61,9.24-3,14.77-14.39C912.08,235,913.24,222.07,913.24,222.07Z"/>
            <path class="cls-30" d="M883.4,192.66v0a1.91,1.91,0,0,1-2.75.65c-1.75-1.2-4.42-3-6-3.83-2.43-1.32-14.43-5.75-14.43-5.75s12,.25,22.25,5.8A2.28,2.28,0,0,1,883.4,192.66Z"/>
          </g>
          <path class="cls-31" d="M892.83,202.65c0,2.37,1.1,4.29,2.46,4.29s2.45-1.92,2.45-4.29-1.1-4.28-2.45-4.28S892.83,200.29,892.83,202.65Z"/>
        </g>
      </g>
      <g id="ojos">
        <g id="ojo2">
          <rect class="cls-32" x="846.33" y="196.84" width="17.34" height="22.65" rx="3.93" transform="translate(1710 416.33) rotate(180)"/>
          <rect class="cls-32" x="848.15" y="199.28" width="13.7" height="17.78" rx="3.93" transform="translate(1710 416.33) rotate(180)"/>
          <rect class="cls-33" x="850.04" y="201.56" width="9.51" height="13.84" rx="2.44" transform="translate(1709.58 416.96) rotate(180)"/>
          <path class="cls-34" d="M851.05,206.9h7.81a.38.38,0,0,0,0-.76h-7.81a.38.38,0,0,0,0,.76Z"/>
          <path class="cls-34" d="M851.05,208.54h7.81a.37.37,0,0,0,.37-.37.38.38,0,0,0-.37-.38h-7.81a.38.38,0,0,0-.38.38A.37.37,0,0,0,851.05,208.54Z"/>
          <path class="cls-34" d="M851.05,210.26h7.81a.38.38,0,0,0,0-.76h-7.81a.38.38,0,1,0,0,.76Z"/>
          <path class="cls-34" d="M852,203.73h5.82a.38.38,0,1,0,0-.75H852a.38.38,0,1,0,0,.75Z"/>
          <path class="cls-34" d="M851.05,205.44h7.81a.38.38,0,0,0,0-.75h-7.81a.38.38,0,1,0,0,.75Z"/>
          <path class="cls-34" d="M851.05,212.29h7.81a.38.38,0,0,0,0-.76h-7.81a.38.38,0,1,0,0,.76Z"/>
          <path class="cls-34" d="M851.05,213.94h7.81a.38.38,0,0,0,0-.76h-7.81a.38.38,0,0,0,0,.76Z"/>
        </g>
        <g id="ojo1">
          <rect class="cls-32" x="818.7" y="196.84" width="17.34" height="22.65" rx="3.93" transform="translate(1654.74 416.33) rotate(180)"/>
          <rect class="cls-32" x="820.52" y="199.28" width="13.7" height="17.78" rx="3.93" transform="translate(1654.74 416.33) rotate(180)"/>
          <rect class="cls-33" x="822.41" y="201.56" width="9.51" height="13.84" rx="2.44" transform="translate(1654.32 416.96) rotate(180)"/>
          <path class="cls-34" d="M823.42,206.9h7.81a.38.38,0,0,0,0-.76h-7.81a.38.38,0,0,0,0,.76Z"/>
          <path class="cls-34" d="M823.42,208.54h7.81a.37.37,0,0,0,.38-.37.38.38,0,0,0-.38-.38h-7.81a.38.38,0,0,0-.38.38A.37.37,0,0,0,823.42,208.54Z"/>
          <path class="cls-34" d="M823.42,210.26h7.81a.38.38,0,1,0,0-.76h-7.81a.38.38,0,0,0,0,.76Z"/>
          <path class="cls-34" d="M824.42,203.73h5.81a.38.38,0,1,0,0-.75h-5.81a.38.38,0,1,0,0,.75Z"/>
          <path class="cls-34" d="M823.42,205.44h7.81a.38.38,0,1,0,0-.75h-7.81a.38.38,0,1,0,0,.75Z"/>
          <path class="cls-34" d="M823.42,212.29h7.81a.38.38,0,0,0,0-.76h-7.81a.38.38,0,0,0,0,.76Z"/>
          <path class="cls-34" d="M823.42,213.94h7.81a.38.38,0,0,0,0-.76h-7.81a.38.38,0,0,0,0,.76Z"/>
        </g>
      </g>
      <g id="boca">
        <path class="cls-35" d="M851.39,231.11c-7.83,1-21.86,1.77-21.86,1.77s12.41,1.26,20.51-.14S859.8,230,851.39,231.11Z"/>
      </g>
      <g id="brazoDerecho">
        <g>
          <path class="cls-36" d="M902.75,309.19c-4.34,15.11-.91,29.35,7.67,31.81s19-7.78,23.37-22.89.91-29.35-7.67-31.81S907.08,294.09,902.75,309.19Z"/>
          <path class="cls-29" d="M913.16,337.27a.54.54,0,0,0,.56-.51.55.55,0,0,0-.51-.58c-2.05-.13-3.75-1.31-5-3.52-3.57-6.12-2.88-17.68,1.59-26.89,5.34-11,13.89-15.39,18.75-13.15a.54.54,0,0,0,.72-.26.55.55,0,0,0-.27-.73c-6.1-2.81-15.15,3.32-20.18,13.66-4.62,9.51-5.29,21.51-1.56,27.92a7.38,7.38,0,0,0,5.91,4.06Z"/>
          <g>
            <path class="cls-5" d="M960.1,365.54c-3.6-44.07-18.81-64.6-22.43-68.92a3.66,3.66,0,0,0-2.08-1.23c-3-.58-11-.79-20.18,9.65-6.33,7.22-6.09,20.2-5.69,20.88,4.21,7.07,30.61,51.59,37.23,66.52C954.15,408.69,961.64,384.38,960.1,365.54Z"/>
            <path class="cls-6" d="M915.36,305.08a35.94,35.94,0,0,1,8.37-7.22c-1,.9-1.93,1.9-2.93,3-8,9.1-5.61,16.25-3.83,21.16,6.39,17.59,26.61,51.24,30.36,71.34-.15-.29-.29-.59-.43-.92-6.62-14.93-33-59.45-37.23-66.52C909.27,325.28,909,312.3,915.36,305.08Z"/>
            <path class="cls-7" d="M939.43,312.18c18.36,17.1,17.71,69.57,17.71,69.57s-8.87-37.29-17.14-53.43S933.16,306.34,939.43,312.18Z"/>
            <path class="cls-6" d="M943,383.49c-.27,3-.21,5.56-.71,7.5-.17.66-3.89,3.55-3.88,3.2.14-3.15-.61-19.74-3.09-24.24C934.41,368.36,943.23,380.47,943,383.49Z"/>
            <path class="cls-8" d="M934.86,370.42a.51.51,0,0,0,.43-.23c4.84-7.75,14.85-13.52,23.87-8.95a.5.5,0,0,0,.45-.9c-9.55-4.84-20.1,1.19-25.18,9.31a.52.52,0,0,0,.17.7A.48.48,0,0,0,934.86,370.42Z"/>
          </g>
          <g>
            <path class="cls-37" d="M928.77,324.66c.23,7.47,5.86,13.36,12.59,13.16s12-6.43,11.77-13.9-5.86-13.36-12.59-13.15S928.54,317.19,928.77,324.66Z"/>
            <g>
              <path class="cls-38" d="M949.29,325.45c.16,2.51-1.25,5.14-2.69,7.14a24.52,24.52,0,0,1-2.93,3.37s-7.77-2-9.91-6.45c-.44-.93-2.48-6.78-2.48-6.78s-.61-1.41.53-2.06a34.61,34.61,0,0,0,4-2.23,11.58,11.58,0,0,1,2.62-1.69c.74-.26,1.07-.11,2.44,0a42.28,42.28,0,0,0,4.63-.12c1.37,0,1.53,1.54,1.53,1.54S949.21,324.39,949.29,325.45Z"/>
              <path class="cls-39" d="M945.45,316.62a42.35,42.35,0,0,1-4.63.12c-1.37-.1-1.7-.25-2.44,0a11.58,11.58,0,0,0-2.62,1.69,35.48,35.48,0,0,1-4,2.23c-1.14.65-.53,2.06-.53,2.06s2,5.85,2.48,6.78c2.14,4.46,9.91,6.45,9.91,6.45h0s5.94-5.48,5.62-10.51a76.17,76.17,0,0,0-2.31-7.29S946.82,316.58,945.45,316.62Zm.42,1.61a49.06,49.06,0,0,1,1.87,7.07c.14,2.17-1.26,4.85-2.42,6.47a25.31,25.31,0,0,1-2.09,2.53,25.32,25.32,0,0,1-3-1.19c-1.81-.86-4.15-2.29-5.07-4.23-.31-.63-1.66-4.41-2.43-6.65l0-.08a1,1,0,0,1-.05-.29l1-.51a23.6,23.6,0,0,0,3-1.76c1.18-.85,1.93-2.1,4.4-1.63a13.64,13.64,0,0,0,3.57,0l1.14,0S945.86,318.19,945.87,318.23Z"/>
              <path class="cls-40" d="M947,318.16s-.16-1.58-1.53-1.54a42.28,42.28,0,0,1-4.63.12c-1.37-.1-1.7-.26-2.44,0a11.58,11.58,0,0,0-2.62,1.69,34.61,34.61,0,0,1-4,2.23,1.3,1.3,0,0,0-.62.75l.1-.07a36.13,36.13,0,0,0,3.94-2.23,10.9,10.9,0,0,1,2.63-1.69c.74-.27,1.07-.12,2.44,0a40.2,40.2,0,0,0,4.63-.11c1.37,0,1.53,1.54,1.53,1.54s2.23,6.23,2.31,7.28c.17,2.61-1.36,5.35-2.86,7.37,1.65-2.05,3.57-5.12,3.38-8A76.17,76.17,0,0,0,947,318.16Z"/>
              <path class="cls-39" d="M941.54,325.58a.51.51,0,0,1-.12.46l.1.36a.11.11,0,0,1-.07.13l-.3.07a.09.09,0,0,1-.12-.07l-.1-.36a.51.51,0,0,1-.33-.34.49.49,0,0,1,.35-.6A.48.48,0,0,1,941.54,325.58Z"/>
              <path class="cls-39" d="M941.53,323.08l.19.72-2.15.57-.19-.72a1.11,1.11,0,1,1,2.15-.57Z"/>
              <path class="cls-39" d="M944.15,318.75a23.26,23.26,0,0,1-3.26,0,3,3,0,0,0-1.62.13h0a5.39,5.39,0,0,0-.79.42c-.35.22-.79.51-1.26.87a24.9,24.9,0,0,1-2.77,1.61c-.81.47-.36,1.53-.36,1.53s1.5,4.38,1.83,5.07c1.56,3.35,7.07,4.89,7.07,4.89h0s4.15-4.31,3.87-8c-.06-.78-1.41-5.38-1.41-5.38S945.11,318.74,944.15,318.75Zm0,8a.6.6,0,0,1-.42.74l-4.15,1.1a.6.6,0,0,1-.74-.44l-.74-2.79a.61.61,0,0,1,.43-.74l.16,0-.19-.72a2,2,0,1,1,3.83-1l.19.72.16-.05a.61.61,0,0,1,.74.44Z"/>
              <path class="cls-40" d="M945.44,319.89s-.33-1.15-1.29-1.14a23.26,23.26,0,0,1-3.26,0,3.1,3.1,0,0,0-1.62.13h0a5.39,5.39,0,0,0-.79.42,14.74,14.74,0,0,0-1.26.87,24.9,24.9,0,0,1-2.77,1.61.92.92,0,0,0-.46.64,20.57,20.57,0,0,0,2.71-1.58c.47-.35.9-.64,1.26-.86a5.8,5.8,0,0,1,.78-.43h0a2.94,2.94,0,0,1,1.61-.13,26.77,26.77,0,0,0,3.26,0c1,0,1.29,1.14,1.29,1.14s1.36,4.59,1.42,5.38c.18,2.31-1.36,4.86-2.55,6.45,1.18-1.47,3.28-4.45,3.07-7.13C946.79,324.49,945.44,319.89,945.44,319.89Z"/>
            </g>
          </g>
        </g>
      </g>
    </g>
  </g>
</svg>
