<svg xmlns="http://www.w3.org/2000/svg" xmlns:xlink="http://www.w3.org/1999/xlink" width="1024" height="620" viewBox="0 0 1024 620">
  <defs>
    <style>
      .cls-1 {
        isolation: isolate;
      }

      .cls-2 {
        fill: none;
      }

      .cls-3, .cls-4 {
        fill: #51b2fb;
      }

      .cls-3, .cls-32 {
        opacity: 0.1;
      }

      .cls-4 {
        opacity: 0.2;
      }

      .cls-5 {
        fill: #e3ebfc;
      }

      .cls-6 {
        fill: #ccddfa;
      }

      .cls-7 {
        fill: #fafbff;
      }

      .cls-8 {
        fill: #80a7f6;
      }

      .cls-9 {
        fill: #9fbcfb;
      }

      .cls-10 {
        fill: #b8d0f9;
      }

      .cls-11, .cls-29, .cls-31 {
        fill: #207bff;
      }

      .cls-11, .cls-37 {
        opacity: 0.4;
      }

      .cls-12 {
        fill: #004bff;
        opacity: 0.5;
        mix-blend-mode: multiply;
      }

      .cls-13 {
        fill: #c5d8fa;
      }

      .cls-14 {
        fill: url(#_ÂÁ_Ï_ÌÌ_È_ËÂÌÚ_30);
      }

      .cls-15 {
        fill: #4aebff;
      }

      .cls-16, .cls-30 {
        fill: #fff;
      }

      .cls-17 {
        fill: #bef9ff;
      }

      .cls-18 {
        fill: url(#linear-gradient);
      }

      .cls-19 {
        fill: #ec1c24;
      }

      .cls-20 {
        fill: url(#linear-gradient-2);
      }

      .cls-21 {
        fill: url(#linear-gradient-3);
      }

      .cls-22 {
        fill: url(#linear-gradient-4);
      }

      .cls-23 {
        fill: url(#linear-gradient-5);
      }

      .cls-24 {
        fill: url(#linear-gradient-6);
      }

      .cls-25 {
        fill: url(#linear-gradient-7);
      }

      .cls-26 {
        fill: url(#_ÂÁ_Ï_ÌÌ_È_ËÂÌÚ_14);
      }

      .cls-27 {
        fill: url(#_ÂÁ_Ï_ÌÌ_È_ËÂÌÚ_18);
      }

      .cls-28 {
        fill: #4880f8;
      }

      .cls-30 {
        opacity: 0.8;
      }

      .cls-31 {
        opacity: 0.72;
      }

      .cls-32, .cls-33, .cls-34, .cls-35 {
        fill: #3ae6fb;
      }

      .cls-33 {
        opacity: 0.3;
      }

      .cls-35 {
        opacity: 0.7;
      }

      .cls-36 {
        fill: #93b4fb;
      }

      .cls-37 {
        mix-blend-mode: lighten;
        fill: url(#radial-gradient);
      }

      .cls-38 {
        fill: #00ffda;
      }

      .cls-39 {
        fill: #7fd1ca;
      }

      .cls-40 {
        fill: #1e1e1e;
      }
    </style>
    <radialGradient id="_ÂÁ_Ï_ÌÌ_È_ËÂÌÚ_30" data-name="¡ÂÁ˚ÏˇÌÌ˚È „‡‰ËÂÌÚ 30" cx="4420.14" cy="394.22" r="6.32" gradientTransform="translate(-3558.73 18.47) scale(0.83 0.84)" gradientUnits="userSpaceOnUse">
      <stop offset="0" stop-color="#4aebff"/>
      <stop offset="1" stop-color="#00709e"/>
    </radialGradient>
    <linearGradient id="linear-gradient" x1="82.41" y1="256.56" x2="82.41" y2="285.76" gradientTransform="translate(45.19)" gradientUnits="userSpaceOnUse">
      <stop offset="0.02" stop-color="#dd2a21"/>
      <stop offset="0.06" stop-color="#c8201b"/>
      <stop offset="0.1" stop-color="#b71717"/>
      <stop offset="0.15" stop-color="#ac1113"/>
      <stop offset="0.22" stop-color="#a50e12"/>
      <stop offset="0.43" stop-color="#a30d11"/>
      <stop offset="0.79" stop-color="#6b0006"/>
    </linearGradient>
    <linearGradient id="linear-gradient-2" x1="73.99" y1="257.86" x2="73.99" y2="278.82" gradientTransform="translate(45.19)" gradientUnits="userSpaceOnUse">
      <stop offset="0" stop-color="#ad1a27"/>
      <stop offset="0.08" stop-color="#9e151f"/>
      <stop offset="0.28" stop-color="#7d090e"/>
      <stop offset="0.44" stop-color="#680304"/>
      <stop offset="0.56" stop-color="#610000"/>
      <stop offset="0.73" stop-color="#520000"/>
      <stop offset="1" stop-color="#3f0000"/>
    </linearGradient>
    <linearGradient id="linear-gradient-3" x1="864.91" y1="268.65" x2="878.5" y2="268.65" gradientTransform="matrix(-1, 0, 0, 1, 1015.73, 0)" gradientUnits="userSpaceOnUse">
      <stop offset="0" stop-color="#be1349"/>
      <stop offset="0.24" stop-color="#be124e"/>
      <stop offset="0.25" stop-color="#be124e"/>
      <stop offset="1" stop-color="#7a0025"/>
    </linearGradient>
    <linearGradient id="linear-gradient-4" x1="860.57" y1="275.62" x2="878.56" y2="275.62" gradientTransform="matrix(-1, 0, 0, 1, 1015.73, 0)" gradientUnits="userSpaceOnUse">
      <stop offset="0" stop-color="#282881"/>
      <stop offset="0.27" stop-color="#26257d"/>
      <stop offset="0.55" stop-color="#1f1b70"/>
      <stop offset="0.84" stop-color="#150c5b"/>
      <stop offset="1" stop-color="#0d004c"/>
    </linearGradient>
    <linearGradient id="linear-gradient-5" x1="864.82" y1="275.62" x2="878.5" y2="275.62" xlink:href="#linear-gradient-3"/>
    <linearGradient id="linear-gradient-6" x1="867.59" y1="268.6" x2="884.78" y2="268.6" xlink:href="#linear-gradient-4"/>
    <linearGradient id="linear-gradient-7" x1="87.11" y1="274.92" x2="87.11" y2="265" gradientTransform="translate(45.19)" gradientUnits="userSpaceOnUse">
      <stop offset="0" stop-color="#ed2d24"/>
      <stop offset="0.12" stop-color="#ed2824"/>
      <stop offset="0.25" stop-color="#ec1c24"/>
      <stop offset="1" stop-color="#74020d"/>
    </linearGradient>
    <linearGradient id="_ÂÁ_Ï_ÌÌ_È_ËÂÌÚ_14" data-name="¡ÂÁ˚ÏˇÌÌ˚È „‡‰ËÂÌÚ 14" x1="4364.39" y1="404.89" x2="4422.86" y2="404.89" gradientTransform="translate(-4295.07 14.34) rotate(-2.88)" gradientUnits="userSpaceOnUse">
      <stop offset="0" stop-color="#003a6b"/>
      <stop offset="1" stop-color="#00204c"/>
    </linearGradient>
    <linearGradient id="_ÂÁ_Ï_ÌÌ_È_ËÂÌÚ_18" data-name="¡ÂÁ˚ÏˇÌÌ˚È „‡‰ËÂÌÚ 18" x1="4384.69" y1="173.2" x2="4414.45" y2="223.34" gradientTransform="translate(-4284.51)" gradientUnits="userSpaceOnUse">
      <stop offset="0" stop-color="#cbd7e1"/>
      <stop offset="0.05" stop-color="#aec0d0"/>
      <stop offset="0.15" stop-color="#7998b2"/>
      <stop offset="0.26" stop-color="#4e7698"/>
      <stop offset="0.35" stop-color="#2c5c85"/>
      <stop offset="0.44" stop-color="#144976"/>
      <stop offset="0.53" stop-color="#053e6e"/>
      <stop offset="0.6" stop-color="#003a6b"/>
      <stop offset="1" stop-color="#00204c"/>
    </linearGradient>
    <radialGradient id="radial-gradient" cx="2924.06" cy="388.64" r="13.37" gradientTransform="matrix(0.62, 0.02, -0.02, 0.69, -1744.18, -50.32)" gradientUnits="userSpaceOnUse">
      <stop offset="0" stop-color="#00ddde" stop-opacity="0.52"/>
      <stop offset="0.09" stop-color="#2de6e7" stop-opacity="0.65"/>
      <stop offset="0.2" stop-color="#63f1f1" stop-opacity="0.8"/>
      <stop offset="0.3" stop-color="#8af8f9" stop-opacity="0.91"/>
      <stop offset="0.38" stop-color="#a2fdfd" stop-opacity="0.98"/>
      <stop offset="0.43" stop-color="#abffff"/>
      <stop offset="0.46" stop-color="#9ffcfd"/>
      <stop offset="0.51" stop-color="#7ff6f6"/>
      <stop offset="0.58" stop-color="#4aebeb"/>
      <stop offset="0.66" stop-color="#03dcdd"/>
      <stop offset="0.66" stop-color="#00dbdc"/>
      <stop offset="0.69" stop-color="#08dcdd" stop-opacity="0.97"/>
      <stop offset="0.74" stop-color="#1fdfe0" stop-opacity="0.88"/>
      <stop offset="0.8" stop-color="#44e5e5" stop-opacity="0.73"/>
      <stop offset="0.87" stop-color="#78eced" stop-opacity="0.53"/>
      <stop offset="0.94" stop-color="#baf5f6" stop-opacity="0.27"/>
      <stop offset="1" stop-color="#fff" stop-opacity="0"/>
    </radialGradient>
  </defs>
  
  <g class="cls-1">
    <g id="Robot">
      <g id="fondo">
        <rect class="cls-2" width="1024" height="620"/>
      </g>
      <g id="sombra">
        <g>
          <ellipse class="cls-3" cx="104.89" cy="379.46" rx="42.14" ry="9.54"/>
          <path class="cls-4" d="M137.72,379.46c0,3.35-14.7,6.07-32.83,6.07s-32.83-2.72-32.83-6.07,14.7-6.06,32.83-6.06S137.72,376.12,137.72,379.46Z"/>
          <path class="cls-4" d="M124.65,379.46c0,2-8.84,3.66-19.76,3.66s-19.76-1.64-19.76-3.66,8.84-3.65,19.76-3.65S124.65,377.45,124.65,379.46Z"/>
        </g>
      </g>
      <g id="brazoIzquierdo">
        <g>
          <g>
            <path class="cls-5" d="M178,288.85c-6.16-29.51-18.11-42.09-20.91-44.7a2.42,2.42,0,0,0-1.5-.66c-2.08-.13-7.45.41-12.72,8.26-3.64,5.42-2.38,14.18-2,14.6,3.42,4.42,24.92,32.28,30.63,41.82C177.71,318.54,180.67,301.46,178,288.85Z"/>
            <path class="cls-6" d="M142.88,251.78a24.1,24.1,0,0,1,5-5.6c-.56.69-1.13,1.45-1.71,2.3-4.59,6.84-2.38,11.47-.77,14.64,5.78,11.35,22.2,32.39,26.43,45.66l-.37-.58c-5.71-9.54-27.21-37.39-30.63-41.81C140.5,266,139.24,257.2,142.88,251.78Z"/>
            <path class="cls-7" d="M159.63,254.52c13.78,10,17.79,45.55,17.79,45.55s-9.11-24.47-16-34.68S154.93,251.11,159.63,254.52Z"/>
            <path class="cls-6" d="M168.06,302.45a40.16,40.16,0,0,1,.16,5.14,8.48,8.48,0,0,1-2.34,2.49c-.17-2.14-2.08-13.3-4.13-16.13C161,293,168,300.39,168.06,302.45Z"/>
            <path class="cls-8" d="M161.51,294.31a.37.37,0,0,0,.27-.2c2.59-5.65,8.82-10.41,15.26-8.09a.33.33,0,0,0,.43-.21.34.34,0,0,0-.2-.44c-6.83-2.45-13.39,2.52-16.11,8.45a.35.35,0,0,0,.17.46A.29.29,0,0,0,161.51,294.31Z"/>
          </g>
          <path class="cls-9" d="M157.62,257.26c-.8,9.21-4.62,16.4-8.56,16.06s-6.47-8.09-5.68-17.3S148,239.75,151.93,240C157.62,240.26,158.41,248.05,157.62,257.26Z"/>
        </g>
      </g>
      <g id="torso">
        <g>
          <path class="cls-5" d="M66.78,235c-4.08-.26-18.47,14.29-14.14,28.4s28.86,61.23,34.41,77.72,8.89,20.55,16.78,22.05,19.84,2,33.67-27.07,16-61.82,16.59-77.36-1-21.7-6.37-23.47C135.16,231.1,66.78,235,66.78,235Z"/>
          <path class="cls-7" d="M131.92,332.63c10.72-30.63,9.43-63.56,8.44-79.16-.66-10.37-1.88-16.48-4.25-19.77-11.43-.64-28.12-.37-42.26.09,7.56,20.11,18.74,54,20.6,88.87,1.24,23.27-2,34.64-6.36,40.46C115.29,361.67,123.94,355.42,131.92,332.63Z"/>
          <path class="cls-10" d="M148.92,236.52c0,3-21.16,7.71-42.51,7.74s-42.53-4.58-42.53-7.6,21.16-3.29,42.51-3.33S148.91,233.51,148.92,236.52Z"/>
          <path class="cls-11" d="M136,237.14c0,2.09-14.57,5.33-29.28,5.35s-29.3-3.17-29.3-5.25S92,235,106.72,234.93,136,235.05,136,237.14Z"/>
          <path class="cls-12" d="M127.06,238.22c0,.8-10,1.81-19.85,1.83S88,239.09,88,238.29s9.38-1.12,19.18-1.13S127.06,237.42,127.06,238.22Z"/>
          <path class="cls-13" d="M95.84,344.49c-2.27-12.34-5.66-52.71-13.71-81.2-4-14.28-13.53-24.35-22.72-21.16-6.53,2.26-9.11,13.6-6.77,21.23C57,277.48,81.5,324.59,87.05,341.08s8.89,20.55,16.78,22.05c4.07.77,9.21,1.28,15.13-2.38C111,362,99.59,364.93,95.84,344.49Z"/>
          <path class="cls-14" d="M124.1,350.5a14.45,14.45,0,0,1-4.87.81,22.05,22.05,0,0,1-5.44-.4,2.19,2.19,0,0,1-1.9-2h0a2,2,0,0,1,1.9-2s4.19.47,5.21.46a38.22,38.22,0,0,0,5.29-.5c1,0,2,.31,1.71,1.82A2.63,2.63,0,0,1,124.1,350.5Z"/>
          <path class="cls-15" d="M123.43,350.28a15,15,0,0,1-4.21.57,23.06,23.06,0,0,1-4.71-.29c-.87-.18-1.64-.65-1.64-1.45h0a1.56,1.56,0,0,1,1.65-1.45s3.62.34,4.5.33a40.18,40.18,0,0,0,4.57-.35c.9,0,1.75.22,1.48,1.3C124.94,349.44,124.52,349.94,123.43,350.28Z"/>
          <path class="cls-8" d="M118.05,341.19c-9.61,0-21.41-2.1-34.13-7.37a.34.34,0,0,1-.18-.45.33.33,0,0,1,.44-.18c23.7,9.81,44.1,8.57,53,3.25a.35.35,0,0,1,.35.6C133.3,339.56,126.52,341.19,118.05,341.19Z"/>
          <path class="cls-16" d="M117.8,340.42c-9.62,0-21.41-2.1-34.13-7.37a.34.34,0,0,1,.26-.63c23.7,9.82,44.1,8.57,53,3.26a.33.33,0,0,1,.47.12.34.34,0,0,1-.12.47C133.05,338.8,126.27,340.42,117.8,340.42Z"/>
          <path class="cls-7" d="M152.3,242.93c1.82,37.33-3.52,55-3.52,55s5.1-28.2.39-55.47C148.53,238.72,152,237.09,152.3,242.93Z"/>
          <path class="cls-16" d="M67.14,240.32s4.21,2.56,19.62,4,35.7,1.17,35.7,1.17-18.7,2.49-35.77.64S67.14,240.32,67.14,240.32Z"/>
          <path class="cls-17" d="M121.49,347.87c-.75.06-1.62.11-2.47.12s-4.5-.33-4.5-.33a2.07,2.07,0,0,0-.35,0l1.67,3.06a33.44,33.44,0,0,0,3.38.1,15.32,15.32,0,0,0,3.92-.5Z"/>
          <g>
            <path class="cls-18" d="M117.78,268.51a13.19,13.19,0,0,1,8.16-12.22,13.86,13.86,0,0,1,1.46.19,12.09,12.09,0,0,1,10,11.56c0,.13,0,.26,0,.4v.15a7.49,7.49,0,0,0-7.46-7.52,7.62,7.62,0,0,0-2.44.41c.74-.26.71-.26,0,0a7.17,7.17,0,0,0-9.64,7v.06a7.07,7.07,0,0,0,7,7.39,7.16,7.16,0,0,0,2.3-.38,7.31,7.31,0,0,0,2.77.54,7.49,7.49,0,0,0,7.46-7.4,12,12,0,0,1-9.94,11.81,11,11,0,0,1-1.53.19A13.16,13.16,0,0,1,117.78,268.51Z"/>
            <path class="cls-19" d="M122.5,268.6a7.52,7.52,0,0,0,4.69,7,7.16,7.16,0,0,1-2.3.38,7.07,7.07,0,0,1-7-7.39v-.06a7.17,7.17,0,0,1,9.64-7c.75-.28.78-.28,0,0A7.53,7.53,0,0,0,122.5,268.6Z"/>
            <path class="cls-20" d="M124.89,256.25c.36,0,.71,0,1,0a13.22,13.22,0,0,0,0,24.43c-.33,0-.65,0-1,0a12.2,12.2,0,0,1-12.53-12.25v-.07A12.09,12.09,0,0,1,124.89,256.25Z"/>
            <path class="cls-21" d="M137.42,268.6v0Z"/>
            <path class="cls-22" d="M127.4,275.51c.78.28.76.29,0,0Z"/>
            <path class="cls-23" d="M127.4,275.51c.78.28.76.29,0,0Z"/>
            <path class="cls-24" d="M130,276.12a7.31,7.31,0,0,1-2.77-.54l.21-.07c.76.29.78.28,0,0a7.33,7.33,0,0,0,4.8-7v-.07a7.21,7.21,0,0,0-4.72-6.94l0,0a7.62,7.62,0,0,1,2.44-.41,7.49,7.49,0,0,1,7.46,7.52v.13A7.49,7.49,0,0,1,130,276.12Z"/>
            <path class="cls-25" d="M130,276.12a7.31,7.31,0,0,1-2.77-.54l.21-.07c.76.29.78.28,0,0a7.33,7.33,0,0,0,4.8-7v-.07a7.21,7.21,0,0,0-4.72-6.94l0,0a7.62,7.62,0,0,1,2.44-.41,7.49,7.49,0,0,1,7.46,7.52v.13A7.49,7.49,0,0,1,130,276.12Z"/>
          </g>
        </g>
      </g>
      <g id="cabeza">
        <g>
          <g>
            <path class="cls-5" d="M70,223.48c9.72,12.61,39.46,10.21,47.74,9.41s22.33-2.25,27.38-17.62,2.53-38.83-11.37-51S82.66,154,70,170.48,66.65,219.11,70,223.48Z"/>
            <path class="cls-16" d="M72.59,173.83c.55-.2,12-9.2,32.83-11,7.16-.62,18.32,0,25.48,1-.71-.76-11-6.75-32.21-4.52A41.69,41.69,0,0,0,72.59,173.83Z"/>
            <path class="cls-7" d="M110.4,170.11c-6.7.1-13.41.58-19.72,3l-.14.06c6.55,14,7.09,32.2,3.25,45.22A27.69,27.69,0,0,1,88.22,229c11.56,2.06,24.51,1,29.54.5,5.48-.52,13.48-1.34,19.73-6.28a31.33,31.33,0,0,0,1.81-4.78c3.89-13.19,3.28-31.72-3.51-45.77A107.22,107.22,0,0,0,110.4,170.11Z"/>
            <path class="cls-26" d="M86.19,182.52c3.86-5.29,14.38-6.67,27.56-7.46,17-1,22.75,2.08,24.49,4.06s4.75,11.82,4.1,21.39-.75,12.44-4.66,14.82-15.18,4.71-22.46,4.88c-13.81.34-20.77-.33-25.39-3.07-2.36-1.4-5.36-8.92-5.83-18.2S84.19,185.26,86.19,182.52Z"/>
            <path class="cls-27" d="M113.27,176.53c-8.19.48-15.3,1.19-20.31,3,4.38,12.24,4.41,26.77,1.16,37.52l-.12.36c4.38,1.27,10.64,1.58,20.68,1.34,7-.17,17.81-2.35,21.56-4.57a6.72,6.72,0,0,0,2.93-3.08A64.5,64.5,0,0,0,137,180.64a2.09,2.09,0,0,0-.24-.31C135.1,178.48,129.58,175.58,113.27,176.53Z"/>
            <path class="cls-9" d="M77.25,191.31c-.23,5.2-3.11,9.29-6.43,9.14S65,196,65.21,190.77s3.11-9.28,6.44-9.14S77.48,186.12,77.25,191.31Z"/>
            <path class="cls-28" d="M74.62,190.92c-.16,3.65-1.93,6.53-3.94,6.44s-3.52-3.12-3.36-6.76,1.93-6.54,3.94-6.45S74.78,187.28,74.62,190.92Z"/>
            <path class="cls-29" d="M74.67,191.2l-.34,0,.34,0a12.78,12.78,0,0,0-1.51-6.92,5.54,5.54,0,0,0-4.42-3.12c-3.49-.15-6.55,4.09-6.78,9.47s2.42,9.88,5.92,10h.19C71.5,200.67,74.44,196.48,74.67,191.2Zm-6-9.35a4.88,4.88,0,0,1,3.86,2.77A12.2,12.2,0,0,1,74,191.17c-.22,5-2.95,8.94-6.08,8.81s-5.49-4.32-5.27-9.32,2.85-8.82,5.91-8.82Z"/>
            <path class="cls-7" d="M68.29,203.36l2.45.08s1,10.21,4,16.21,7.07,7.92,7.07,7.92-6.25-2-10-9.82C69.08,212.15,68.29,203.36,68.29,203.36Z"/>
            <path class="cls-30" d="M88.48,183.3v0a1.29,1.29,0,0,0,1.86.44c1.18-.82,3-2,4-2.61,1.64-.9,9.76-3.92,9.76-3.92a37.17,37.17,0,0,0-15,4A1.56,1.56,0,0,0,88.48,183.3Z"/>
          </g>
          <path class="cls-31" d="M82.1,190.12c0,1.61-.74,2.92-1.66,2.92s-1.66-1.31-1.66-2.92.74-2.92,1.66-2.92S82.1,188.5,82.1,190.12Z"/>
        </g>
      </g>
      <g id="ojos">
        <g>
          <rect class="cls-32" x="101.83" y="186.15" width="11.73" height="15.44" rx="3.93"/>
          <rect class="cls-32" x="103.06" y="187.81" width="9.27" height="12.12" rx="3.93"/>
          <rect class="cls-33" x="104.62" y="189.37" width="6.43" height="9.44" rx="2.44"/>
          <path class="cls-34" d="M110.37,193h-5.28a.26.26,0,1,1,0-.52h5.28a.26.26,0,0,1,0,.52Z"/>
          <path class="cls-34" d="M110.37,194.13h-5.28a.26.26,0,1,1,0-.51h5.28a.26.26,0,1,1,0,.51Z"/>
          <path class="cls-34" d="M110.37,195.3h-5.28a.26.26,0,0,1,0-.52h5.28a.26.26,0,1,1,0,.52Z"/>
          <path class="cls-34" d="M109.7,190.85h-3.94a.26.26,0,0,1,0-.51h3.94a.26.26,0,0,1,0,.51Z"/>
          <path class="cls-34" d="M110.37,192h-5.28a.26.26,0,0,1,0-.52h5.28a.26.26,0,1,1,0,.52Z"/>
          <path class="cls-34" d="M110.37,196.69h-5.28a.26.26,0,0,1,0-.52h5.28a.26.26,0,1,1,0,.52Z"/>
          <path class="cls-34" d="M110.37,197.81h-5.28a.26.26,0,0,1,0-.52h5.28a.26.26,0,1,1,0,.52Z"/>
        </g>
        <g>
          <rect class="cls-32" x="120.52" y="186.15" width="11.73" height="15.44" rx="3.93"/>
          <rect class="cls-32" x="121.75" y="187.81" width="9.27" height="12.12" rx="3.93"/>
          <rect class="cls-33" x="123.31" y="189.37" width="6.43" height="9.44" rx="2.44"/>
          <path class="cls-34" d="M129.06,193h-5.28a.26.26,0,1,1,0-.52h5.28a.26.26,0,0,1,0,.52Z"/>
          <path class="cls-34" d="M129.06,194.13h-5.28a.26.26,0,1,1,0-.51h5.28a.26.26,0,1,1,0,.51Z"/>
          <path class="cls-34" d="M129.06,195.3h-5.28a.26.26,0,0,1,0-.52h5.28a.26.26,0,1,1,0,.52Z"/>
          <path class="cls-34" d="M128.39,190.85h-3.94a.26.26,0,1,1,0-.51h3.94a.26.26,0,0,1,0,.51Z"/>
          <path class="cls-34" d="M129.06,192h-5.28a.26.26,0,0,1,0-.52h5.28a.26.26,0,0,1,0,.52Z"/>
          <path class="cls-34" d="M129.06,196.69h-5.28a.26.26,0,0,1,0-.52h5.28a.26.26,0,1,1,0,.52Z"/>
          <path class="cls-34" d="M129.06,197.81h-5.28a.26.26,0,0,1,0-.52h5.28a.26.26,0,1,1,0,.52Z"/>
        </g>
      </g>
      <g id="boca">
        <path class="cls-35" d="M110.14,209.52c5.29.68,14.79,1.2,14.79,1.2s-8.4.86-13.88-.09S104.45,208.79,110.14,209.52Z"/>
      </g>
      <g id="brazoDerecho">
        <g>
          <path class="cls-36" d="M75.4,262.76c2.93,10.3.61,20-5.19,21.69s-12.89-5.31-15.82-15.61-.61-20,5.19-21.69S72.46,252.46,75.4,262.76Z"/>
          <path class="cls-29" d="M68.35,281.91a.38.38,0,0,1,0-.75,4.25,4.25,0,0,0,3.41-2.4c2.41-4.18,2-12.06-1.08-18.33-3.61-7.5-9.39-10.5-12.68-9a.36.36,0,0,1-.49-.18.37.37,0,0,1,.18-.49c4.13-1.92,10.25,2.26,13.66,9.31,3.12,6.48,3.57,14.66,1,19a5,5,0,0,1-4,2.77Z"/>
          <g>
            <path class="cls-5" d="M36.59,301.18c2.44-30.05,12.73-44.05,15.18-47a2.35,2.35,0,0,1,1.41-.84c2-.4,7.44-.54,13.65,6.58,4.28,4.92,4.12,13.77,3.84,14.23C67.83,279,50,309.34,45.49,319.52,40.62,330.6,35.55,314,36.59,301.18Z"/>
            <path class="cls-6" d="M66.86,260A24.36,24.36,0,0,0,61.2,255c.65.62,1.31,1.3,2,2.07,5.41,6.21,3.8,11.08,2.59,14.43-4.32,12-18,34.94-20.53,48.64l.29-.62C50,309.37,67.87,279,70.71,274.19,71,273.73,71.15,264.88,66.86,260Z"/>
            <path class="cls-7" d="M50.58,264.8c-12.42,11.65-12,47.43-12,47.43s6-25.43,11.59-36.43S54.82,260.82,50.58,264.8Z"/>
            <path class="cls-6" d="M48.19,313.42a38,38,0,0,0,.48,5.11,8.48,8.48,0,0,0,2.62,2.18c-.09-2.15.42-13.46,2.09-16.52C54,303.1,48,311.36,48.19,313.42Z"/>
            <path class="cls-8" d="M53.67,304.51a.34.34,0,0,1-.29-.16c-3.27-5.28-10.05-9.22-16.15-6.1a.34.34,0,0,1-.45-.15.35.35,0,0,1,.15-.47c6.46-3.29,13.59.81,17,6.35a.35.35,0,0,1-.11.48A.41.41,0,0,1,53.67,304.51Z"/>
          </g>
          <g>
            <path class="cls-37" d="M57.79,273.31c-.15,5.09-4,9.1-8.52,9s-8.12-4.38-8-9.47,4-9.11,8.52-9S57.94,268.21,57.79,273.31Z"/>
            <g>
              <path class="cls-38" d="M43.91,273.84a8.07,8.07,0,0,0,1.82,4.87,16.81,16.81,0,0,0,2,2.3s5.26-1.36,6.7-4.4c.3-.63,1.68-4.62,1.68-4.62s.42-1-.36-1.4a22.72,22.72,0,0,1-2.67-1.53,8.16,8.16,0,0,0-1.77-1.15c-.51-.18-.73-.07-1.65,0a31.09,31.09,0,0,1-3.14-.08c-.92,0-1,1-1,1S44,273.12,43.91,273.84Z"/>
              <path class="cls-39" d="M45.47,268.87s-1.51,4.25-1.56,5c-.22,3.43,3.8,7.17,3.8,7.17h0s5.26-1.36,6.7-4.4c.3-.63,1.68-4.62,1.68-4.62s.42-1-.36-1.4a25.75,25.75,0,0,1-2.67-1.52,7.13,7.13,0,0,0-1.77-1.15c-.5-.19-.73-.08-1.65,0a26.14,26.14,0,0,1-3.14-.08C45.58,267.8,45.47,268.87,45.47,268.87Zm.83-.17h.77a9.17,9.17,0,0,0,2.41,0c1.67-.32,2.18.53,3,1.1a15.34,15.34,0,0,0,2,1.21c.24.12.46.23.66.35a.68.68,0,0,1,0,.19.11.11,0,0,0,0,.06c-.52,1.52-1.44,4.1-1.64,4.54A7.3,7.3,0,0,1,50,279.07a19.57,19.57,0,0,1-2,.81,17.57,17.57,0,0,1-1.42-1.72A7.94,7.94,0,0,1,45,273.74a33.14,33.14,0,0,1,1.26-4.82Z"/>
              <path class="cls-40" d="M43.91,273.84c-.13,2,1.17,4.09,2.29,5.49a8.31,8.31,0,0,1-1.94-5c.05-.72,1.56-5,1.56-5s.11-1.07,1-1.05a25.92,25.92,0,0,0,3.13.08c.92-.07,1.15-.17,1.65,0a7,7,0,0,1,1.78,1.15,25.68,25.68,0,0,0,2.66,1.52l.07,0a.83.83,0,0,0-.42-.5,25.75,25.75,0,0,1-2.67-1.52,7.13,7.13,0,0,0-1.77-1.15c-.51-.19-.73-.09-1.65,0a26.14,26.14,0,0,1-3.14-.08c-.92,0-1,1.05-1,1.05S44,273.12,43.91,273.84Z"/>
              <path class="cls-39" d="M49.15,273.93a.31.31,0,0,0,.08.31l-.06.25a.08.08,0,0,0,0,.09l.2.05a.07.07,0,0,0,.09-.05l.06-.25a.3.3,0,0,0,.22-.23.33.33,0,0,0-.23-.41A.34.34,0,0,0,49.15,273.93Z"/>
              <path class="cls-39" d="M49.15,272.23l-.12.49,1.45.38.13-.48a.76.76,0,1,0-1.46-.39Z"/>
              <path class="cls-39" d="M46.51,270.05s-.91,3.14-.95,3.67c-.19,2.55,2.62,5.48,2.62,5.48h0s3.73-1.05,4.79-3.33c.22-.47,1.23-3.46,1.23-3.46s.31-.72-.24-1a15.52,15.52,0,0,1-1.87-1.1c-.32-.24-.62-.44-.86-.59a3.42,3.42,0,0,0-.53-.29h0a2,2,0,0,0-1.1-.09,17.79,17.79,0,0,1-2.21,0C46.74,269.27,46.51,270.05,46.51,270.05Zm1.34,2.78a.41.41,0,0,1,.5-.29l.11,0,.13-.49a1.34,1.34,0,0,1,1.64-1,1.36,1.36,0,0,1,1,1.66l-.13.49.11,0a.42.42,0,0,1,.29.51l-.5,1.9a.41.41,0,0,1-.5.3l-2.81-.75a.4.4,0,0,1-.28-.5Z"/>
              <path class="cls-40" d="M45.56,273.72c-.14,1.83,1.27,3.86,2.08,4.86-.81-1.08-1.85-2.82-1.73-4.4,0-.53,1-3.67,1-3.67s.22-.78.87-.77a17.77,17.77,0,0,0,2.21,0,2,2,0,0,1,1.09.09h0a4,4,0,0,1,.53.29c.24.15.53.35.85.59a13.59,13.59,0,0,0,1.83,1.07.62.62,0,0,0-.31-.43,15.52,15.52,0,0,1-1.87-1.1c-.32-.24-.62-.44-.86-.59a3.42,3.42,0,0,0-.53-.29h0a2,2,0,0,0-1.1-.09,17.63,17.63,0,0,1-2.2,0c-.65,0-.88.77-.88.77S45.6,273.19,45.56,273.72Z"/>
            </g>
          </g>
        </g>
      </g>
    </g>
  </g>
</svg>
