<svg xmlns="http://www.w3.org/2000/svg" xmlns:xlink="http://www.w3.org/1999/xlink" width="1025" height="621" viewBox="0 0 1025 621">
  <defs>
    <style>
      .cls-1 {
        isolation: isolate;
      }

      .cls-16, .cls-2, .cls-30 {
        fill: #fff;
      }

      .cls-2 {
        stroke: #000;
        stroke-miterlimit: 10;
        opacity: 0;
      }

      .cls-3, .cls-4 {
        fill: #51b2fb;
      }

      .cls-3, .cls-32 {
        opacity: 0.1;
      }

      .cls-4 {
        opacity: 0.2;
      }

      .cls-5 {
        fill: #e3ebfc;
      }

      .cls-6 {
        fill: #ccddfa;
      }

      .cls-7 {
        fill: #fafbff;
      }

      .cls-8 {
        fill: #80a7f6;
      }

      .cls-9 {
        fill: #9fbcfb;
      }

      .cls-10 {
        fill: #b8d0f9;
      }

      .cls-11, .cls-29, .cls-31 {
        fill: #207bff;
      }

      .cls-11 {
        opacity: 0.4;
      }

      .cls-12 {
        fill: #004bff;
        opacity: 0.5;
        mix-blend-mode: multiply;
      }

      .cls-13 {
        fill: #c5d8fa;
      }

      .cls-14 {
        fill: url(#_ÂÁ_Ï_ÌÌ_È_ËÂÌÚ_30);
      }

      .cls-15 {
        fill: #4aebff;
      }

      .cls-17 {
        fill: #bef9ff;
      }

      .cls-18 {
        fill: url(#linear-gradient);
      }

      .cls-19 {
        fill: #ec1c24;
      }

      .cls-20 {
        fill: url(#linear-gradient-2);
      }

      .cls-21 {
        fill: url(#linear-gradient-3);
      }

      .cls-22 {
        fill: url(#linear-gradient-4);
      }

      .cls-23 {
        fill: url(#linear-gradient-5);
      }

      .cls-24 {
        fill: url(#linear-gradient-6);
      }

      .cls-25 {
        fill: url(#linear-gradient-7);
      }

      .cls-26 {
        fill: url(#_ÂÁ_Ï_ÌÌ_È_ËÂÌÚ_14);
      }

      .cls-27 {
        fill: url(#_ÂÁ_Ï_ÌÌ_È_ËÂÌÚ_18);
      }

      .cls-28 {
        fill: #4880f8;
      }

      .cls-30 {
        opacity: 0.8;
      }

      .cls-31 {
        opacity: 0.72;
      }

      .cls-32, .cls-33, .cls-34, .cls-35 {
        fill: #3ae6fb;
      }

      .cls-33 {
        opacity: 0.3;
      }

      .cls-35 {
        opacity: 0.7;
      }

      .cls-36 {
        fill: #93b4fb;
      }
    </style>
    <radialGradient id="_ÂÁ_Ï_ÌÌ_È_ËÂÌÚ_30" data-name="¡ÂÁ˚ÏˇÌÌ˚È „‡‰ËÂÌÚ 30" cx="3647.17" cy="329.26" r="5.26" gradientTransform="matrix(-1, 0, 0, 1, 4568.39, 0)" gradientUnits="userSpaceOnUse">
      <stop offset="0" stop-color="#4aebff"/>
      <stop offset="1" stop-color="#00709e"/>
    </radialGradient>
    <linearGradient id="linear-gradient" x1="917.94" y1="237.35" x2="917.94" y2="266.37" gradientUnits="userSpaceOnUse">
      <stop offset="0.02" stop-color="#dd2a21"/>
      <stop offset="0.06" stop-color="#c8201b"/>
      <stop offset="0.1" stop-color="#b71717"/>
      <stop offset="0.15" stop-color="#ac1113"/>
      <stop offset="0.22" stop-color="#a50e12"/>
      <stop offset="0.43" stop-color="#a30d11"/>
      <stop offset="0.79" stop-color="#6b0006"/>
    </linearGradient>
    <linearGradient id="linear-gradient-2" x1="909.52" y1="238.64" x2="909.52" y2="259.47" gradientUnits="userSpaceOnUse">
      <stop offset="0" stop-color="#ad1a27"/>
      <stop offset="0.08" stop-color="#9e151f"/>
      <stop offset="0.28" stop-color="#7d090e"/>
      <stop offset="0.44" stop-color="#680304"/>
      <stop offset="0.56" stop-color="#610000"/>
      <stop offset="0.73" stop-color="#520000"/>
      <stop offset="1" stop-color="#3f0000"/>
    </linearGradient>
    <linearGradient id="linear-gradient-3" x1="29.8" y1="249.37" x2="42.95" y2="249.37" gradientTransform="matrix(-1, 0, 0, 1, 970.53, 0)" gradientUnits="userSpaceOnUse">
      <stop offset="0" stop-color="#be1349"/>
      <stop offset="0.24" stop-color="#be124e"/>
      <stop offset="0.25" stop-color="#be124e"/>
      <stop offset="1" stop-color="#7a0025"/>
    </linearGradient>
    <linearGradient id="linear-gradient-4" x1="25" y1="256.29" x2="43.01" y2="256.29" gradientTransform="matrix(-1, 0, 0, 1, 970.53, 0)" gradientUnits="userSpaceOnUse">
      <stop offset="0" stop-color="#282881"/>
      <stop offset="0.27" stop-color="#26257d"/>
      <stop offset="0.55" stop-color="#1f1b70"/>
      <stop offset="0.84" stop-color="#150c5b"/>
      <stop offset="1" stop-color="#0d004c"/>
    </linearGradient>
    <linearGradient id="linear-gradient-5" x1="29.26" y1="256.29" x2="42.95" y2="256.29" xlink:href="#linear-gradient-3"/>
    <linearGradient id="linear-gradient-6" x1="32.03" y1="249.31" x2="49.24" y2="249.31" xlink:href="#linear-gradient-4"/>
    <linearGradient id="linear-gradient-7" x1="922.65" y1="255.6" x2="922.65" y2="245.74" gradientUnits="userSpaceOnUse">
      <stop offset="0" stop-color="#ed2d24"/>
      <stop offset="0.12" stop-color="#ed2824"/>
      <stop offset="0.25" stop-color="#ec1c24"/>
      <stop offset="1" stop-color="#74020d"/>
    </linearGradient>
    <linearGradient id="_ÂÁ_Ï_ÌÌ_È_ËÂÌÚ_14" data-name="¡ÂÁ˚ÏˇÌÌ˚È „‡‰ËÂÌÚ 14" x1="3609.91" y1="348.04" x2="3668.46" y2="348.04" gradientTransform="matrix(-1, -0.05, -0.05, 1, 4578.95, 14.34)" gradientUnits="userSpaceOnUse">
      <stop offset="0" stop-color="#003a6b"/>
      <stop offset="1" stop-color="#00204c"/>
    </linearGradient>
    <linearGradient id="_ÂÁ_Ï_ÌÌ_È_ËÂÌÚ_18" data-name="¡ÂÁ˚ÏˇÌÌ˚È „‡‰ËÂÌÚ 18" x1="3628.42" y1="154.44" x2="3658.09" y2="204.42" gradientTransform="matrix(-1, 0, 0, 1, 4568.39, 0)" gradientUnits="userSpaceOnUse">
      <stop offset="0" stop-color="#cbd7e1"/>
      <stop offset="0.05" stop-color="#aec0d0"/>
      <stop offset="0.15" stop-color="#7998b2"/>
      <stop offset="0.26" stop-color="#4e7698"/>
      <stop offset="0.35" stop-color="#2c5c85"/>
      <stop offset="0.44" stop-color="#144976"/>
      <stop offset="0.53" stop-color="#053e6e"/>
      <stop offset="0.6" stop-color="#003a6b"/>
      <stop offset="1" stop-color="#00204c"/>
    </linearGradient>
  </defs>
  
  <g class="cls-1">
    <g id="Robot">
      <g id="fondo">
        <rect class="cls-2" x="0.5" y="0.5" width="1024" height="620"/>
      </g>
      <g id="sombra">
        <g>
          <path class="cls-3" d="M893.12,359.47c0,5.24,18.9,9.48,42.21,9.48s42.2-4.24,42.2-9.48-18.9-9.47-42.2-9.47S893.12,354.24,893.12,359.47Z" transform="translate(1 1)"/>
          <ellipse class="cls-4" cx="936.33" cy="360.47" rx="32.87" ry="6.03"/>
          <path class="cls-4" d="M915.53,359.47c0,2,8.86,3.63,19.8,3.63s19.79-1.62,19.79-3.63-8.86-3.62-19.79-3.62S915.53,357.47,915.53,359.47Z" transform="translate(1 1)"/>
        </g>
      </g>
      <g id="brazoIzquierdo">
        <g>
          <g>
            <path class="cls-5" d="M862.07,269.43C868.24,240.11,880.2,227.61,883,225a2.47,2.47,0,0,1,1.5-.65c2.08-.13,7.46.41,12.74,8.21,3.65,5.38,2.38,14.09,2,14.51-3.43,4.39-25,32.08-30.68,41.55C862.4,298.94,859.43,282,862.07,269.43Z" transform="translate(1 1)"/>
            <path class="cls-6" d="M897.28,232.6a24.3,24.3,0,0,0-5-5.57c.57.69,1.14,1.45,1.71,2.29,4.6,6.8,2.39,11.4.78,14.55-5.79,11.28-22.24,32.18-26.47,45.37l.37-.58c5.72-9.47,27.25-37.15,30.67-41.55C899.66,246.69,900.93,238,897.28,232.6Z" transform="translate(1 1)"/>
            <path class="cls-7" d="M880.5,235.32c-13.79,9.93-17.81,45.26-17.81,45.26s9.12-24.32,16-34.46S885.21,231.93,880.5,235.32Z" transform="translate(1 1)"/>
            <path class="cls-6" d="M872.07,283a36.2,36.2,0,0,0-.16,5.1,8.41,8.41,0,0,0,2.33,2.48c.17-2.12,2.09-13.21,4.14-16C879.1,273.51,872.14,280.9,872.07,283Z" transform="translate(1 1)"/>
            <path class="cls-8" d="M878.62,274.86a.37.37,0,0,1-.27-.2c-2.59-5.61-8.83-10.34-15.28-8a.34.34,0,0,1-.23-.64c6.84-2.44,13.41,2.51,16.13,8.4a.34.34,0,0,1-.16.45A.32.32,0,0,1,878.62,274.86Z" transform="translate(1 1)"/>
          </g>
          <path class="cls-9" d="M882.52,238.05c.8,9.15,4.63,16.3,8.57,15.95s6.48-8,5.69-17.19-4.62-16.16-8.57-16C882.51,221.15,881.73,228.89,882.52,238.05Z" transform="translate(1 1)"/>
        </g>
      </g>
      <g id="torso">
        <g>
          <path class="cls-5" d="M973.49,215.89c4.08-.26,18.5,14.19,14.16,28.22s-28.9,60.83-34.46,77.22-8.9,20.43-16.81,21.91-19.86,2-33.71-26.9-16-61.42-16.62-76.86,1-21.56,6.39-23.32C905,212.05,973.49,215.89,973.49,215.89Z" transform="translate(1 1)"/>
          <path class="cls-7" d="M908.26,312.93c-10.74-30.43-9.45-63.14-8.45-78.65.66-10.3,1.88-16.38,4.25-19.64,11.44-.64,28.16-.37,42.32.09-7.57,20-18.77,53.63-20.63,88.3-1.24,23.12,2,34.42,6.37,40.21C924.91,341.8,916.25,335.58,908.26,312.93Z" transform="translate(1 1)"/>
          <path class="cls-10" d="M891.23,217.44c0,3,21.19,7.66,42.57,7.69s42.59-4.55,42.6-7.55-21.2-3.27-42.58-3.31S891.24,214.44,891.23,217.44Z" transform="translate(1 1)"/>
          <path class="cls-11" d="M904.16,218.05c0,2.08,14.6,5.3,29.32,5.32s29.34-3.15,29.35-5.22-14.61-2.26-29.33-2.29S904.16,216,904.16,218.05Z" transform="translate(1 1)"/>
          <path class="cls-12" d="M913.12,219.13c0,.79,10.07,1.8,19.88,1.82s19.2-1,19.21-1.76-9.39-1.1-19.21-1.12S913.12,218.34,913.12,219.13Z" transform="translate(1 1)"/>
          <path class="cls-13" d="M944.39,324.72c2.27-12.26,5.66-52.38,13.72-80.68,4-14.19,13.56-24.2,22.77-21,6.53,2.25,9.11,13.52,6.77,21.1-4.34,14-28.9,60.83-34.46,77.22s-8.9,20.43-16.81,21.91c-4.07.77-9.22,1.27-15.14-2.36C929.26,342.14,940.63,345,944.39,324.72Z" transform="translate(1 1)"/>
          <path class="cls-14" d="M916.09,330.69a14.7,14.7,0,0,0,4.87.81,22.74,22.74,0,0,0,5.46-.4,2.19,2.19,0,0,0,1.9-2h0a2,2,0,0,0-1.91-2s-4.19.47-5.21.46a36.56,36.56,0,0,1-5.3-.5c-1,0-2,.31-1.71,1.82C914.33,329.53,914.82,330.22,916.09,330.69Z" transform="translate(1 1)"/>
          <path class="cls-15" d="M916.76,330.47A15,15,0,0,0,921,331a24,24,0,0,0,4.72-.28c.88-.19,1.64-.66,1.64-1.45h0a1.56,1.56,0,0,0-1.65-1.44s-3.62.34-4.5.33a40.22,40.22,0,0,1-4.58-.35c-.91,0-1.76.22-1.48,1.29C915.24,329.64,915.66,330.13,916.76,330.47Z" transform="translate(1 1)"/>
          <path class="cls-8" d="M922.14,321.44c9.63,0,21.44-2.08,34.18-7.32a.34.34,0,0,0,.19-.45.34.34,0,0,0-.44-.18c-23.74,9.76-44.17,8.52-53.1,3.24a.33.33,0,0,0-.46.12.32.32,0,0,0,.12.46C906.87,319.83,913.66,321.44,922.14,321.44Z" transform="translate(1 1)"/>
          <path class="cls-16" d="M922.39,320.68c9.64,0,21.45-2.09,34.19-7.32a.35.35,0,0,0,.18-.45.33.33,0,0,0-.44-.18c-23.74,9.75-44.16,8.51-53.1,3.23a.34.34,0,0,0-.34.59C907.12,319.06,913.92,320.68,922.39,320.68Z" transform="translate(1 1)"/>
          <path class="cls-7" d="M887.85,223.8c-1.83,37.1,3.52,54.65,3.52,54.65s-5.11-28-.39-55.12C891.62,219.62,888.13,218,887.85,223.8Z" transform="translate(1 1)"/>
          <path class="cls-16" d="M973.13,221.21s-4.22,2.54-19.65,4-35.75,1.16-35.75,1.16,18.72,2.48,35.82.63S973.13,221.21,973.13,221.21Z" transform="translate(1 1)"/>
          <path class="cls-17" d="M918.71,328.08c.74.06,1.61.11,2.47.12s4.5-.33,4.5-.33a2,2,0,0,1,.35,0l-1.67,3a30.84,30.84,0,0,1-3.39.1,15.32,15.32,0,0,1-3.92-.5Z" transform="translate(1 1)"/>
          <g>
            <path class="cls-18" d="M908.11,249.22a13.11,13.11,0,0,1,8.17-12.14,13.67,13.67,0,0,1,1.45.19,12.07,12.07,0,0,1,10,11.49c0,.13,0,.26,0,.39v.14h0a7.49,7.49,0,0,0-7.48-7.47,7.62,7.62,0,0,0-2.44.41c.74-.26.71-.26,0,0a7.19,7.19,0,0,0-9.66,7v.07a7,7,0,0,0,7.07,7.33,7.15,7.15,0,0,0,2.3-.37,7.45,7.45,0,0,0,10.24-6.82,11.93,11.93,0,0,1-9.95,11.74,15.22,15.22,0,0,1-1.53.19A13.09,13.09,0,0,1,908.11,249.22Z" transform="translate(1 1)"/>
            <path class="cls-19" d="M912.83,249.31a7.46,7.46,0,0,0,4.7,6.94,7.15,7.15,0,0,1-2.3.37,7,7,0,0,1-7.07-7.33v-.07a7.19,7.19,0,0,1,9.66-7c.75-.28.78-.28,0,0A7.49,7.49,0,0,0,912.83,249.31Z" transform="translate(1 1)"/>
            <path class="cls-20" d="M915.23,237c.35,0,.7,0,1,0a13.1,13.1,0,0,0,0,24.28c-.33,0-.66,0-1,0a12.18,12.18,0,0,1-12.55-12.18v-.07A12.07,12.07,0,0,1,915.23,237Z" transform="translate(1 1)"/>
            <path class="cls-21" d="M927.78,249.31a.49.49,0,0,1,0,.12s0-.09,0-.13Z" transform="translate(1 1)"/>
            <path class="cls-22" d="M917.73,256.18c.79.28.77.29,0,0Z" transform="translate(1 1)"/>
            <path class="cls-23" d="M917.73,256.18c.79.28.77.29,0,0Z" transform="translate(1 1)"/>
            <path class="cls-24" d="M920.3,256.79a7.51,7.51,0,0,1-2.77-.54l.2-.07c.77.29.79.28,0,0a7.29,7.29,0,0,0,4.82-7v-.07a7.17,7.17,0,0,0-4.73-6.89l0,0a7.62,7.62,0,0,1,2.44-.41,7.49,7.49,0,0,1,7.48,7.47s0,.09,0,.13A7.47,7.47,0,0,1,920.3,256.79Z" transform="translate(1 1)"/>
            <path class="cls-25" d="M920.3,256.79a7.51,7.51,0,0,1-2.77-.54l.2-.07c.77.29.79.28,0,0a7.29,7.29,0,0,0,4.82-7v-.07a7.17,7.17,0,0,0-4.73-6.89l0,0a7.62,7.62,0,0,1,2.44-.41,7.49,7.49,0,0,1,7.48,7.47s0,.09,0,.13A7.47,7.47,0,0,1,920.3,256.79Z" transform="translate(1 1)"/>
          </g>
        </g>
      </g>
      <g id="cabeza">
        <g>
          <g>
            <path class="cls-5" d="M970.24,204.49c-9.73,12.52-39.51,10.13-47.8,9.34S900.08,211.6,895,196.32s-2.54-38.58,11.39-50.69,51.18-10.14,63.83,6.18S973.62,200.14,970.24,204.49Z" transform="translate(1 1)"/>
            <path class="cls-16" d="M967.67,155.15c-.55-.2-12-9.14-32.88-10.93-7.16-.61-18.34,0-25.51,1,.71-.76,11-6.71,32.26-4.5A41.91,41.91,0,0,1,967.67,155.15Z" transform="translate(1 1)"/>
            <path class="cls-7" d="M929.81,151.45c6.71.1,13.42.58,19.74,3l.15.06c-6.56,13.89-7.1,32-3.26,44.94A27.38,27.38,0,0,0,952,209.92c-11.58,2-24.55,1-29.58.5-5.49-.53-13.5-1.34-19.76-6.25a32.29,32.29,0,0,1-1.82-4.74c-3.89-13.12-3.28-31.52,3.52-45.48A107.55,107.55,0,0,1,929.81,151.45Z" transform="translate(1 1)"/>
            <path class="cls-26" d="M954.05,163.78c-3.86-5.25-14.39-6.63-27.59-7.41-17-1-22.79,2.06-24.53,4s-4.76,11.75-4.11,21.25.75,12.37,4.66,14.73,15.21,4.68,22.51,4.86c13.82.33,20.79-.34,25.41-3.06,2.37-1.39,5.37-8.86,5.84-18.08S956.06,166.51,954.05,163.78Z" transform="translate(1 1)"/>
            <path class="cls-27" d="M926.93,157.83c8.2.48,15.33,1.19,20.34,3-4.39,12.17-4.41,26.6-1.16,37.28l.12.36c-4.38,1.26-10.65,1.57-20.71,1.33-7-.17-17.83-2.33-21.59-4.54a6.68,6.68,0,0,1-2.93-3.06,63.59,63.59,0,0,1,2.16-30.25c.08-.11.16-.22.24-.31C905.07,159.76,910.6,156.88,926.93,157.83Z" transform="translate(1 1)"/>
            <path class="cls-9" d="M963,172.52c.23,5.16,3.11,9.23,6.44,9.08s5.84-4.45,5.61-9.62-3.11-9.23-6.44-9.08S962.78,167.35,963,172.52Z" transform="translate(1 1)"/>
            <path class="cls-28" d="M965.64,172.13c.16,3.62,1.93,6.49,4,6.4s3.52-3.1,3.36-6.72-1.93-6.49-4-6.4S965.48,168.51,965.64,172.13Z" transform="translate(1 1)"/>
            <path class="cls-29" d="M972.2,181.81h.19c3.51-.16,6.17-4.63,5.93-10s-3.3-9.56-6.8-9.41a5.55,5.55,0,0,0-4.42,3.1,12.63,12.63,0,0,0-1.51,6.87h0C965.82,177.65,968.77,181.81,972.2,181.81Zm-.48-18.7c3.06,0,5.7,3.88,5.92,8.76s-2.15,9.12-5.28,9.26-5.87-3.79-6.09-8.76a12,12,0,0,1,1.42-6.5,4.91,4.91,0,0,1,3.86-2.76Z" transform="translate(1 1)"/>
            <path class="cls-7" d="M972,184.49l-2.44.08s-1,10.15-4,16.1-7.09,7.87-7.09,7.87,6.26-2,10-9.75C971.19,193.23,972,184.49,972,184.49Z" transform="translate(1 1)"/>
            <path class="cls-30" d="M951.76,164.56h0a1.29,1.29,0,0,1-1.86.44c-1.19-.81-3-2-4-2.59-1.64-.89-9.78-3.9-9.78-3.9a37.4,37.4,0,0,1,15.07,3.93A1.54,1.54,0,0,1,951.76,164.56Z" transform="translate(1 1)"/>
          </g>
          <ellipse class="cls-31" cx="960.81" cy="172.33" rx="1.66" ry="2.9"/>
        </g>
      </g>
      <g id="ojos">
        <g>
          <rect class="cls-32" x="926.64" y="167.39" width="11.75" height="15.34" rx="3.93" transform="translate(1866.03 351.13) rotate(180)"/>
          <rect class="cls-32" x="927.87" y="169.04" width="9.28" height="12.04" rx="3.93" transform="translate(1866.03 351.13) rotate(180)"/>
          <rect class="cls-33" x="929.15" y="170.59" width="6.44" height="9.38" rx="2.44" transform="translate(1865.74 351.56) rotate(180)"/>
          <path class="cls-34" d="M929.84,174.2h5.29a.25.25,0,0,0,.25-.25.26.26,0,0,0-.25-.26h-5.29a.26.26,0,0,0-.26.26A.26.26,0,0,0,929.84,174.2Z" transform="translate(1 1)"/>
          <path class="cls-34" d="M929.84,175.32h5.29a.26.26,0,0,0,0-.51h-5.29a.26.26,0,1,0,0,.51Z" transform="translate(1 1)"/>
          <path class="cls-34" d="M929.84,176.48h5.29a.26.26,0,0,0,0-.51h-5.29a.26.26,0,1,0,0,.51Z" transform="translate(1 1)"/>
          <path class="cls-34" d="M930.51,172.06h3.94a.26.26,0,1,0,0-.51h-3.94a.26.26,0,0,0,0,.51Z" transform="translate(1 1)"/>
          <path class="cls-34" d="M929.84,173.22h5.29a.26.26,0,0,0,0-.51h-5.29a.26.26,0,1,0,0,.51Z" transform="translate(1 1)"/>
          <path class="cls-34" d="M929.84,177.86h5.29a.26.26,0,0,0,0-.52h-5.29a.26.26,0,1,0,0,.52Z" transform="translate(1 1)"/>
          <path class="cls-34" d="M929.84,179h5.29a.25.25,0,0,0,.25-.25.26.26,0,0,0-.25-.26h-5.29a.26.26,0,0,0-.26.26A.26.26,0,0,0,929.84,179Z" transform="translate(1 1)"/>
        </g>
        <g>
          <rect class="cls-32" x="907.92" y="167.39" width="11.75" height="15.34" rx="3.93" transform="translate(1828.59 351.13) rotate(180)"/>
          <rect class="cls-32" x="909.16" y="169.04" width="9.28" height="12.04" rx="3.93" transform="translate(1828.59 351.13) rotate(180)"/>
          <rect class="cls-33" x="910.43" y="170.59" width="6.44" height="9.38" rx="2.44" transform="translate(1828.31 351.56) rotate(180)"/>
          <path class="cls-34" d="M911.12,174.2h5.29a.26.26,0,0,0,.26-.25.26.26,0,0,0-.26-.26h-5.29a.26.26,0,0,0-.26.26A.26.26,0,0,0,911.12,174.2Z" transform="translate(1 1)"/>
          <path class="cls-34" d="M911.12,175.32h5.29a.26.26,0,1,0,0-.51h-5.29a.26.26,0,1,0,0,.51Z" transform="translate(1 1)"/>
          <path class="cls-34" d="M911.12,176.48h5.29a.26.26,0,1,0,0-.51h-5.29a.26.26,0,1,0,0,.51Z" transform="translate(1 1)"/>
          <path class="cls-34" d="M911.79,172.06h4a.26.26,0,0,0,0-.51h-4a.26.26,0,0,0,0,.51Z" transform="translate(1 1)"/>
          <path class="cls-34" d="M911.12,173.22h5.29a.26.26,0,1,0,0-.51h-5.29a.26.26,0,1,0,0,.51Z" transform="translate(1 1)"/>
          <path class="cls-34" d="M911.12,177.86h5.29a.26.26,0,1,0,0-.52h-5.29a.26.26,0,1,0,0,.52Z" transform="translate(1 1)"/>
          <path class="cls-34" d="M911.12,179h5.29a.26.26,0,0,0,.26-.25.26.26,0,0,0-.26-.26h-5.29a.26.26,0,0,0-.26.26A.26.26,0,0,0,911.12,179Z" transform="translate(1 1)"/>
        </g>
      </g>
      <g id="boca">
        <path class="cls-35" d="M930.07,190.61c-5.3.67-14.81,1.2-14.81,1.2s8.41.85,13.89-.09S935.77,189.88,930.07,190.61Z" transform="translate(1 1)"/>
      </g>
      <g id="brazoDerecho">
        <g>
          <path class="cls-36" d="M964.11,243.57c-2.94,10.24-.62,19.88,5.19,21.55s12.9-5.27,15.84-15.51.62-19.88-5.19-21.55S967.05,233.34,964.11,243.57Z" transform="translate(1 1)"/>
          <path class="cls-29" d="M969.78,263.07c-5.07-1.88-6.45-10.85-3.08-20S977,228,982,229.86s6.46,10.84,3.08,20c-3,8-8.59,13.56-13.35,13.56A5.71,5.71,0,0,1,969.78,263.07Zm-2.44-19.76c-3.24,8.8-2,17.37,2.67,19.12s11.2-4,14.45-12.81,2-17.38-2.67-19.12a5.09,5.09,0,0,0-1.78-.31C975.55,230.19,970.2,235.57,967.34,243.31Z" transform="translate(1 1)"/>
          <g>
            <path class="cls-5" d="M1006,218.94c-6.36,29.28-18.75,36.92-25.05,40.24-1.85,1-8.36,3.75-11.77-.6-4-5.12.08-16.29,1.16-18.06,4.2-6.84,23.45-31.38,29.23-40.82C1005.83,189.43,1008.69,206.43,1006,218.94Z" transform="translate(1 1)"/>
            <path class="cls-6" d="M970.31,240.52c.71-1.16,1.86-2.83,3.3-4.85,4.22-5.79,11.7-15.73,17.8-24.19,3.41-4.7,6.39-8.93,8.13-11.78.1-.15.19-.3.29-.44-4.4,13.16-20.87,33.84-26.71,45-1.6,3.07-5.62,9.48-1.52,16.15a5.9,5.9,0,0,1-2.45-1.86C965.13,253.46,969.23,242.29,970.31,240.52Z" transform="translate(1 1)"/>
            <path class="cls-7" d="M987.32,252.93c13.86-9.84,18.11-45.14,18.11-45.14s-9.29,24.26-16.28,34.35S982.59,256.29,987.32,252.93Z" transform="translate(1 1)"/>
            <path class="cls-6" d="M996.06,205.36a38.78,38.78,0,0,0,.2-5.1,8.51,8.51,0,0,0-2.32-2.5c-.19,2.13-2.18,13.2-4.24,16C989,214.75,996,207.41,996.06,205.36Z" transform="translate(1 1)"/>
            <path class="cls-8" d="M989.46,213.41a.32.32,0,0,1,.26.19c2.56,5.64,8.77,10.41,15.23,8.15a.34.34,0,1,1,.23.64c-6.85,2.4-13.4-2.59-16.08-8.5a.35.35,0,0,1,.17-.46A.41.41,0,0,1,989.46,213.41Z" transform="translate(1 1)"/>
          </g>
        </g>
      </g>
    </g>
  </g>
</svg>
