<svg xmlns="http://www.w3.org/2000/svg" xmlns:xlink="http://www.w3.org/1999/xlink" width="1024" height="620" viewBox="0 0 1024 620">
  <defs>
    <style>
      .cls-1 {
        isolation: isolate;
      }

      .cls-2 {
        fill: none;
      }

      .cls-3, .cls-4 {
        fill: #51b2fb;
      }

      .cls-3, .cls-32 {
        opacity: 0.1;
      }

      .cls-4 {
        opacity: 0.2;
      }

      .cls-5 {
        fill: #9fbcfb;
      }

      .cls-6 {
        fill: #e3ebfc;
      }

      .cls-7 {
        fill: #ccddfa;
      }

      .cls-8 {
        fill: #fafbff;
      }

      .cls-9 {
        fill: #80a7f6;
      }

      .cls-10 {
        fill: #b8d0f9;
      }

      .cls-11, .cls-29, .cls-31 {
        fill: #207bff;
      }

      .cls-11, .cls-37 {
        opacity: 0.4;
      }

      .cls-12 {
        fill: #004bff;
        opacity: 0.5;
        mix-blend-mode: multiply;
      }

      .cls-13 {
        fill: #c5d8fa;
      }

      .cls-14 {
        fill: url(#_ÂÁ_Ï_ÌÌ_È_ËÂÌÚ_30);
      }

      .cls-15 {
        fill: #4aebff;
      }

      .cls-16, .cls-30 {
        fill: #fff;
      }

      .cls-17 {
        fill: #bef9ff;
      }

      .cls-18 {
        fill: url(#linear-gradient);
      }

      .cls-19 {
        fill: #ec1c24;
      }

      .cls-20 {
        fill: url(#linear-gradient-2);
      }

      .cls-21 {
        fill: url(#linear-gradient-3);
      }

      .cls-22 {
        fill: url(#linear-gradient-4);
      }

      .cls-23 {
        fill: url(#linear-gradient-5);
      }

      .cls-24 {
        fill: url(#linear-gradient-6);
      }

      .cls-25 {
        fill: url(#linear-gradient-7);
      }

      .cls-26 {
        fill: url(#_ÂÁ_Ï_ÌÌ_È_ËÂÌÚ_14);
      }

      .cls-27 {
        fill: url(#_ÂÁ_Ï_ÌÌ_È_ËÂÌÚ_18);
      }

      .cls-28 {
        fill: #4880f8;
      }

      .cls-30 {
        opacity: 0.8;
      }

      .cls-31 {
        opacity: 0.72;
      }

      .cls-32, .cls-33, .cls-34, .cls-35 {
        fill: #3ae6fb;
      }

      .cls-33 {
        opacity: 0.3;
      }

      .cls-35 {
        opacity: 0.7;
      }

      .cls-36 {
        fill: #93b4fb;
      }

      .cls-37 {
        mix-blend-mode: lighten;
        fill: url(#radial-gradient);
      }

      .cls-38 {
        fill: #00ffda;
      }

      .cls-39 {
        fill: #7fd1ca;
      }

      .cls-40 {
        fill: #1e1e1e;
      }
    </style>
    <radialGradient id="_ÂÁ_Ï_ÌÌ_È_ËÂÌÚ_30" data-name="¡ÂÁ˚ÏˇÌÌ˚È „‡‰ËÂÌÚ 30" cx="4415.18" cy="499.05" r="5.11" gradientTransform="translate(-4284.51)" gradientUnits="userSpaceOnUse">
      <stop offset="0" stop-color="#4aebff"/>
      <stop offset="1" stop-color="#00709e"/>
    </radialGradient>
    <linearGradient id="linear-gradient" x1="93.86" y1="409.89" x2="93.86" y2="438.04" gradientTransform="translate(45.19)" gradientUnits="userSpaceOnUse">
      <stop offset="0.02" stop-color="#dd2a21"/>
      <stop offset="0.06" stop-color="#c8201b"/>
      <stop offset="0.1" stop-color="#b71717"/>
      <stop offset="0.15" stop-color="#ac1113"/>
      <stop offset="0.22" stop-color="#a50e12"/>
      <stop offset="0.43" stop-color="#a30d11"/>
      <stop offset="0.79" stop-color="#6b0006"/>
    </linearGradient>
    <linearGradient id="linear-gradient-2" x1="85.68" y1="411.15" x2="85.68" y2="431.35" gradientTransform="translate(45.19)" gradientUnits="userSpaceOnUse">
      <stop offset="0" stop-color="#ad1a27"/>
      <stop offset="0.08" stop-color="#9e151f"/>
      <stop offset="0.28" stop-color="#7d090e"/>
      <stop offset="0.44" stop-color="#680304"/>
      <stop offset="0.56" stop-color="#610000"/>
      <stop offset="0.73" stop-color="#520000"/>
      <stop offset="1" stop-color="#3f0000"/>
    </linearGradient>
    <linearGradient id="linear-gradient-3" x1="854.09" y1="421.55" x2="867.33" y2="421.55" gradientTransform="matrix(-1, 0, 0, 1, 1015.73, 0)" gradientUnits="userSpaceOnUse">
      <stop offset="0" stop-color="#be1349"/>
      <stop offset="0.24" stop-color="#be124e"/>
      <stop offset="0.25" stop-color="#be124e"/>
      <stop offset="1" stop-color="#7a0025"/>
    </linearGradient>
    <linearGradient id="linear-gradient-4" x1="849.91" y1="428.26" x2="867.39" y2="428.26" gradientTransform="matrix(-1, 0, 0, 1, 1015.73, 0)" gradientUnits="userSpaceOnUse">
      <stop offset="0" stop-color="#282881"/>
      <stop offset="0.27" stop-color="#26257d"/>
      <stop offset="0.55" stop-color="#1f1b70"/>
      <stop offset="0.84" stop-color="#150c5b"/>
      <stop offset="1" stop-color="#0d004c"/>
    </linearGradient>
    <linearGradient id="linear-gradient-5" x1="854.04" y1="428.26" x2="867.33" y2="428.26" xlink:href="#linear-gradient-3"/>
    <linearGradient id="linear-gradient-6" x1="856.73" y1="421.49" x2="873.43" y2="421.49" xlink:href="#linear-gradient-4"/>
    <linearGradient id="linear-gradient-7" x1="98.43" y1="427.59" x2="98.43" y2="418.03" gradientTransform="translate(45.19)" gradientUnits="userSpaceOnUse">
      <stop offset="0" stop-color="#ed2d24"/>
      <stop offset="0.12" stop-color="#ed2824"/>
      <stop offset="0.25" stop-color="#ec1c24"/>
      <stop offset="1" stop-color="#74020d"/>
    </linearGradient>
    <linearGradient id="_ÂÁ_Ï_ÌÌ_È_ËÂÌÚ_14" data-name="¡ÂÁ˚ÏˇÌÌ˚È „‡‰ËÂÌÚ 14" x1="4369.25" y1="560.76" x2="4426.05" y2="560.76" gradientTransform="translate(-4295.07 14.34) rotate(-2.88)" gradientUnits="userSpaceOnUse">
      <stop offset="0" stop-color="#003a6b"/>
      <stop offset="1" stop-color="#00204c"/>
    </linearGradient>
    <linearGradient id="_ÂÁ_Ï_ÌÌ_È_ËÂÌÚ_18" data-name="¡ÂÁ˚ÏˇÌÌ˚È „‡‰ËÂÌÚ 18" x1="4396.99" y1="329.46" x2="4425.77" y2="377.95" gradientTransform="translate(-4284.51)" gradientUnits="userSpaceOnUse">
      <stop offset="0" stop-color="#cbd7e1"/>
      <stop offset="0.05" stop-color="#aec0d0"/>
      <stop offset="0.15" stop-color="#7998b2"/>
      <stop offset="0.26" stop-color="#4e7698"/>
      <stop offset="0.35" stop-color="#2c5c85"/>
      <stop offset="0.44" stop-color="#144976"/>
      <stop offset="0.53" stop-color="#053e6e"/>
      <stop offset="0.6" stop-color="#003a6b"/>
      <stop offset="1" stop-color="#00204c"/>
    </linearGradient>
    <radialGradient id="radial-gradient" cx="2943.95" cy="536.71" r="10.81" gradientTransform="matrix(0.74, 0.02, -0.03, 0.82, -2103.65, -82.03)" gradientUnits="userSpaceOnUse">
      <stop offset="0" stop-color="#00ddde" stop-opacity="0.52"/>
      <stop offset="0.09" stop-color="#2de6e7" stop-opacity="0.65"/>
      <stop offset="0.2" stop-color="#63f1f1" stop-opacity="0.8"/>
      <stop offset="0.3" stop-color="#8af8f9" stop-opacity="0.91"/>
      <stop offset="0.38" stop-color="#a2fdfd" stop-opacity="0.98"/>
      <stop offset="0.43" stop-color="#abffff"/>
      <stop offset="0.46" stop-color="#9ffcfd"/>
      <stop offset="0.51" stop-color="#7ff6f6"/>
      <stop offset="0.58" stop-color="#4aebeb"/>
      <stop offset="0.66" stop-color="#03dcdd"/>
      <stop offset="0.66" stop-color="#00dbdc"/>
      <stop offset="0.69" stop-color="#08dcdd" stop-opacity="0.97"/>
      <stop offset="0.74" stop-color="#1fdfe0" stop-opacity="0.88"/>
      <stop offset="0.8" stop-color="#44e5e5" stop-opacity="0.73"/>
      <stop offset="0.87" stop-color="#78eced" stop-opacity="0.53"/>
      <stop offset="0.94" stop-color="#baf5f6" stop-opacity="0.27"/>
      <stop offset="1" stop-color="#fff" stop-opacity="0"/>
    </radialGradient>
  </defs>
  <title>robot2</title>
  <g class="cls-1">
    <g id="Robot">
      <g id="fondo">
        <rect class="cls-2" width="1024" height="620"/>
      </g>
      <g id="sombra">
        <g>
          <ellipse class="cls-3" cx="116.99" cy="528.35" rx="40.94" ry="9.19"/>
          <path class="cls-4" d="M148.88,528.35c0,3.23-14.28,5.85-31.89,5.85s-31.89-2.62-31.89-5.85,14.28-5.84,31.89-5.84S148.88,525.13,148.88,528.35Z"/>
          <path class="cls-4" d="M136.19,528.35c0,1.95-8.6,3.52-19.2,3.52s-19.2-1.57-19.2-3.52,8.59-3.52,19.2-3.52S136.19,526.41,136.19,528.35Z"/>
        </g>
      </g>
      <g id="BrazoIzqMedio">
        <path class="cls-5" d="M169.85,410.36c.52,8.9-2.16,16.29-6,16.52s-7.36-6.81-7.88-15.71,2.16-16.29,6-16.52S169.32,401.46,169.85,410.36Z"/>
      </g>
      <g id="brazoIzquierdo">
        <g>
          <g>
            <path class="cls-6" d="M193.6,378.6c-8.39,32.39-23.5,43.3-23.5,43.3s-6.5,1.33-12.66-8.74a17.4,17.4,0,0,1-1.83-13.77S181.48,369.3,188,359.48,196.75,366.44,193.6,378.6Z"/>
            <path class="cls-6" d="M193.6,378.6c-8.39,32.39-23.5,43.3-23.5,43.3s-6.5,1.33-12.66-8.74a17.4,17.4,0,0,1-1.83-13.77S181.48,369.3,188,359.48,196.75,366.44,193.6,378.6Z"/>
            <path class="cls-7" d="M191.74,373.37c-5.87,19.13-11.22,28.27-16.47,33.34-9,8.7-15.8,7.16-20.06.55a16.93,16.93,0,0,0,2.23,5.9c6.16,10.07,12.66,8.74,12.66,8.74s15.11-10.91,23.5-43.3c2.18-8.41,1.82-19-.77-21.52C193,358,195.23,362,191.74,373.37Z"/>
            <path class="cls-6" d="M177.12,374.32c1.46-2,2.28-6.18,2.18-8.19a19.19,19.19,0,0,0-1.25-4.88,2.88,2.88,0,0,1,3.16.8c1.56,1.53,2,4.2,2.32,5.37S177.12,374.32,177.12,374.32Z"/>
            <path class="cls-8" d="M175.26,398.33a102.12,102.12,0,0,1-7.64,8.55c-1.35,1.28,0,2.58,1.2,1.7,2.68-1.93,6.58-6.51,11.44-13.15,2.85-3.88,10.5-19.53,11.34-29.84C191.34,366.05,187.44,383.3,175.26,398.33Z"/>
            <path class="cls-9" d="M193.24,381.94h0a.35.35,0,0,1-.48-.11c-3.39-5.5-10.44-9.62-16.83-6.43a.36.36,0,0,1-.48-.16.35.35,0,0,1,.16-.47c6.77-3.38,14.2.92,17.75,6.69A.35.35,0,0,1,193.24,381.94Z"/>
          </g>
          <path class="cls-5" d="M170.72,410.28c.52,8.9-2.15,16.29-6,16.52s-7.35-6.81-7.88-15.71,2.16-16.29,6-16.51S170.2,401.38,170.72,410.28Z"/>
        </g>
      </g>
      <g id="torso">
        <g>
          <path class="cls-6" d="M80,389.08c-4-.26-17.95,13.76-13.74,27.37s28,59,33.43,74.91,8.63,19.81,16.3,21.25,19.27,2,32.71-26.09,15.51-59.59,16.11-74.56-.95-20.92-6.19-22.63C146.39,385.35,80,389.08,80,389.08Z"/>
          <path class="cls-8" d="M143.24,483.21c10.42-29.52,9.17-61.26,8.2-76.29-.64-10-1.82-15.9-4.12-19.06-11.1-.62-27.32-.35-41.06.09,7.35,19.38,18.21,52,20,85.65,1.21,22.43-1.89,33.39-6.18,39C127.09,511.21,135.49,505.18,143.24,483.21Z"/>
          <path class="cls-10" d="M159.76,390.58c0,2.91-20.56,7.42-41.3,7.46s-41.31-4.42-41.32-7.33,20.57-3.17,41.31-3.21S159.75,387.67,159.76,390.58Z"/>
          <path class="cls-11" d="M147.22,391.17c0,2-14.16,5.14-28.45,5.16s-28.46-3.05-28.46-5.06,14.17-2.2,28.45-2.22S147.22,389.16,147.22,391.17Z"/>
          <path class="cls-12" d="M138.53,392.22c0,.77-9.77,1.74-19.29,1.76s-18.63-.93-18.63-1.7,9.11-1.08,18.63-1.09S138.52,391.45,138.53,392.22Z"/>
          <path class="cls-13" d="M108.19,494.64c-2.2-11.89-5.49-50.8-13.31-78.26C91,402.61,81.73,392.9,72.8,396c-6.34,2.19-8.84,13.11-6.57,20.47,4.21,13.61,28,59,33.43,74.91s8.63,19.81,16.3,21.25c4,.74,8.94,1.23,14.69-2.29C122.87,511.54,111.84,514.35,108.19,494.64Z"/>
          <path class="cls-14" d="M135.64,500.44a14.11,14.11,0,0,1-4.72.78,21.48,21.48,0,0,1-5.29-.39,2.13,2.13,0,0,1-1.85-2h0a1.92,1.92,0,0,1,1.86-2s4.06.45,5,.44a36,36,0,0,0,5.14-.48c1,0,2,.3,1.66,1.76A2.53,2.53,0,0,1,135.64,500.44Z"/>
          <path class="cls-15" d="M135,500.22a14.53,14.53,0,0,1-4.08.55,22.68,22.68,0,0,1-4.57-.27c-.86-.18-1.6-.63-1.6-1.4h0a1.51,1.51,0,0,1,1.6-1.4s3.52.32,4.37.32a39.1,39.1,0,0,0,4.44-.34c.88,0,1.71.21,1.44,1.25C136.47,499.41,136.06,499.89,135,500.22Z"/>
          <path class="cls-9" d="M129.77,491.46c-9.34,0-20.79-2-33.15-7.1a.33.33,0,1,1,.25-.61c23,9.46,42.84,8.26,51.5,3.14a.33.33,0,0,1,.34.57C144.59,489.89,138,491.46,129.77,491.46Z"/>
          <path class="cls-16" d="M129.53,490.72c-9.34,0-20.8-2-33.16-7.1a.33.33,0,0,1-.18-.43.34.34,0,0,1,.44-.18c23,9.46,42.83,8.26,51.5,3.14a.33.33,0,0,1,.33.57C144.34,489.15,137.76,490.72,129.53,490.72Z"/>
          <path class="cls-8" d="M163,396.75c1.77,36-3.42,53-3.42,53s5-27.19.39-53.46C159.38,392.69,162.77,391.13,163,396.75Z"/>
          <path class="cls-16" d="M80.32,394.24s4.09,2.46,19.06,3.85,34.67,1.13,34.67,1.13-18.16,2.4-34.74.62S80.32,394.24,80.32,394.24Z"/>
          <path class="cls-17" d="M133.11,497.9c-.73.06-1.57.11-2.4.12s-4.37-.32-4.37-.32a1.76,1.76,0,0,0-.33,0l1.61,2.95a32,32,0,0,0,3.29.09,14.9,14.9,0,0,0,3.8-.48Z"/>
          <g>
            <path class="cls-18" d="M129.51,421.41a12.71,12.71,0,0,1,7.93-11.78q.72.06,1.41.18A11.71,11.71,0,0,1,148.58,421c0,.12,0,.25,0,.38v.13h0a7.25,7.25,0,0,0-9.62-6.84c.72-.26.69-.26,0,0a7.2,7.2,0,0,0-2.45-.43,7,7,0,0,0-6.92,7.18v.07a6.84,6.84,0,0,0,6.86,7.12,7,7,0,0,0,2.23-.36,7.27,7.27,0,0,0,9.94-6.62A11.58,11.58,0,0,1,138.93,433a12,12,0,0,1-1.48.18A12.68,12.68,0,0,1,129.51,421.41Z"/>
            <path class="cls-19" d="M134.09,421.49a7.26,7.26,0,0,0,4.56,6.74,7,7,0,0,1-2.23.36,6.84,6.84,0,0,1-6.86-7.12v-.07a7,7,0,0,1,6.92-7.18,7.2,7.2,0,0,1,2.45.43c.73-.27.76-.27,0,0A7.25,7.25,0,0,0,134.09,421.49Z"/>
            <path class="cls-20" d="M136.42,409.59c.34,0,.68,0,1,0a12.7,12.7,0,0,0,0,23.55c-.32,0-.64,0-1,0a11.81,11.81,0,0,1-12.17-11.82v-.06A11.7,11.7,0,0,1,136.42,409.59Z"/>
            <path class="cls-21" d="M148.59,421.49v0Z"/>
            <path class="cls-22" d="M138.85,428.16Z"/>
            <path class="cls-23" d="M138.85,428.16Z"/>
            <path class="cls-24" d="M141.34,428.74a7.27,7.27,0,0,1-2.69-.51l.2-.07h0a7.08,7.08,0,0,0,4.67-6.76v-.06a7,7,0,0,0-4.59-6.69h0a7.25,7.25,0,0,1,9.62,6.84v.13A7.24,7.24,0,0,1,141.34,428.74Z"/>
            <path class="cls-25" d="M141.34,428.74a7.27,7.27,0,0,1-2.69-.51l.2-.07h0a7.08,7.08,0,0,0,4.67-6.76v-.06a7,7,0,0,0-4.59-6.69h0a7.25,7.25,0,0,1,9.62,6.84v.13A7.24,7.24,0,0,1,141.34,428.74Z"/>
          </g>
        </g>
      </g>
      <g id="cabeza">
        <g>
          <g>
            <path class="cls-6" d="M83.12,378c9.43,12.15,38.32,9.84,46.37,9.07s21.69-2.17,26.6-17,2.45-37.42-11.05-49.17-49.65-9.84-61.92,6S79.84,373.8,83.12,378Z"/>
            <path class="cls-16" d="M85.61,330.15c.54-.19,11.69-8.86,31.89-10.6a133.18,133.18,0,0,1,24.75,1c-.69-.73-10.68-6.51-31.29-4.36A40.63,40.63,0,0,0,85.61,330.15Z"/>
            <path class="cls-8" d="M122.34,326.56c-6.51.11-13,.57-19.15,2.89l-.15.06c6.37,13.48,6.89,31,3.16,43.59a26.47,26.47,0,0,1-5.41,10.18c11.24,2,23.81,1,28.7.48,5.32-.5,13.09-1.29,19.17-6.06a31.09,31.09,0,0,0,1.75-4.6c3.78-12.72,3.19-30.57-3.41-44.11A104.78,104.78,0,0,0,122.34,326.56Z"/>
            <path class="cls-26" d="M98.82,338.53c3.75-5.1,14-6.43,26.77-7.2,16.52-1,22.11,2,23.79,3.92s4.62,11.39,4,20.61-.73,12-4.53,14.29-14.74,4.54-21.82,4.71c-13.42.33-20.18-.33-24.66-3-2.29-1.35-5.21-8.6-5.66-17.55S96.88,341.17,98.82,338.53Z"/>
            <path class="cls-27" d="M125.13,332.76c-8,.46-14.87,1.14-19.73,2.86,4.25,11.81,4.28,25.81,1.13,36.17l-.12.35c4.25,1.22,10.33,1.52,20.09,1.29,6.79-.16,17.3-2.26,20.94-4.4a6.48,6.48,0,0,0,2.85-3,61.72,61.72,0,0,0-2.1-29.34q-.12-.16-.24-.3C146.34,334.63,141,331.84,125.13,332.76Z"/>
            <path class="cls-5" d="M90.14,347c-.23,5-3,8.95-6.25,8.81s-5.67-4.32-5.45-9.33,3-9,6.25-8.81S90.36,342,90.14,347Z"/>
            <path class="cls-28" d="M87.58,346.63c-.16,3.51-1.87,6.29-3.83,6.2s-3.41-3-3.26-6.52,1.87-6.29,3.83-6.21S87.74,343.11,87.58,346.63Z"/>
            <path class="cls-29" d="M87.63,346.89h0a12.32,12.32,0,0,0-1.47-6.67,5.37,5.37,0,0,0-4.29-3c-3.39-.15-6.36,3.94-6.59,9.12S77.63,355.86,81,356h.18C84.55,356,87.41,352,87.63,346.89Zm-5.79-9a4.73,4.73,0,0,1,3.75,2.67A11.66,11.66,0,0,1,87,346.86c-.21,4.82-2.86,8.62-5.9,8.49s-5.34-4.16-5.13-9,2.77-8.5,5.75-8.5Z"/>
            <path class="cls-8" d="M81.44,358.61l2.37.08s1,9.84,3.84,15.62S94.52,382,94.52,382s-6.07-2-9.7-9.46C82.2,367.09,81.44,358.61,81.44,358.61Z"/>
            <path class="cls-30" d="M101.05,339.28h0a1.26,1.26,0,0,0,1.81.43c1.15-.79,2.91-2,3.92-2.51,1.59-.87,9.48-3.78,9.48-3.78a36.24,36.24,0,0,0-14.62,3.81A1.49,1.49,0,0,0,101.05,339.28Z"/>
          </g>
          <path class="cls-31" d="M94.85,345.85c0,1.55-.72,2.81-1.61,2.81s-1.62-1.26-1.62-2.81.72-2.81,1.62-2.81S94.85,344.3,94.85,345.85Z"/>
        </g>
      </g>
      <g id="ojos">
        <g>
          <rect class="cls-32" x="114.02" y="342.03" width="11.39" height="14.88" rx="3.93"/>
          <rect class="cls-32" x="115.21" y="343.63" width="9" height="11.68" rx="3.93"/>
          <rect class="cls-33" x="116.73" y="345.13" width="6.25" height="9.1" rx="2.44"/>
          <path class="cls-34" d="M122.31,348.64h-5.13a.25.25,0,0,1,0-.5h5.13a.25.25,0,0,1,0,.5Z"/>
          <path class="cls-34" d="M122.31,349.72h-5.13a.25.25,0,0,1,0-.5h5.13a.25.25,0,0,1,0,.5Z"/>
          <path class="cls-34" d="M122.31,350.84h-5.13a.25.25,0,1,1,0-.49h5.13a.25.25,0,1,1,0,.49Z"/>
          <path class="cls-34" d="M121.66,346.56h-3.83a.25.25,0,1,1,0-.5h3.83a.25.25,0,0,1,0,.5Z"/>
          <path class="cls-34" d="M122.31,347.68h-5.13a.25.25,0,1,1,0-.49h5.13a.25.25,0,1,1,0,.49Z"/>
          <path class="cls-34" d="M122.31,352.18h-5.13a.25.25,0,0,1-.25-.25.25.25,0,0,1,.25-.25h5.13a.25.25,0,0,1,.25.25A.25.25,0,0,1,122.31,352.18Z"/>
          <path class="cls-34" d="M122.31,353.26h-5.13a.25.25,0,1,1,0-.49h5.13a.25.25,0,1,1,0,.49Z"/>
        </g>
        <g>
          <rect class="cls-32" x="132.17" y="342.03" width="11.39" height="14.88" rx="3.93"/>
          <rect class="cls-32" x="133.37" y="343.63" width="9" height="11.68" rx="3.93"/>
          <rect class="cls-33" x="134.88" y="345.13" width="6.25" height="9.1" rx="2.44"/>
          <path class="cls-34" d="M140.47,348.64h-5.14a.25.25,0,0,1,0-.5h5.14a.25.25,0,1,1,0,.5Z"/>
          <path class="cls-34" d="M140.47,349.72h-5.14a.25.25,0,0,1,0-.5h5.14a.25.25,0,1,1,0,.5Z"/>
          <path class="cls-34" d="M140.47,350.84h-5.14a.25.25,0,0,1,0-.49h5.14a.25.25,0,1,1,0,.49Z"/>
          <path class="cls-34" d="M139.81,346.56H136a.25.25,0,0,1,0-.5h3.82a.25.25,0,0,1,0,.5Z"/>
          <path class="cls-34" d="M140.47,347.68h-5.14a.25.25,0,0,1,0-.49h5.14a.25.25,0,1,1,0,.49Z"/>
          <path class="cls-34" d="M140.47,352.18h-5.14a.25.25,0,0,1-.24-.25.25.25,0,0,1,.24-.25h5.14a.26.26,0,0,1,.25.25A.25.25,0,0,1,140.47,352.18Z"/>
          <path class="cls-34" d="M140.47,353.26h-5.14a.25.25,0,0,1,0-.49h5.14a.25.25,0,1,1,0,.49Z"/>
        </g>
      </g>
      <g id="boca">
        <path class="cls-35" d="M122.09,364.55c5.14.65,14.36,1.16,14.36,1.16s-8.16.83-13.48-.09S116.56,363.84,122.09,364.55Z"/>
      </g>
      <g id="brazoDerecho">
        <g>
          <path class="cls-36" d="M88.33,415.87c2.86,9.93.6,19.28-5,20.9s-12.51-5.12-15.36-15-.59-19.29,5-20.91S85.48,405.94,88.33,415.87Z"/>
          <path class="cls-29" d="M81.49,434.32a.36.36,0,0,1,0-.71,4.14,4.14,0,0,0,3.32-2.32c2.34-4,1.89-11.62-1-17.67-3.51-7.23-9.13-10.12-12.32-8.64a.37.37,0,0,1-.48-.18.36.36,0,0,1,.18-.47c4-1.86,10,2.17,13.26,9,3,6.25,3.48,14.14,1,18.35a4.82,4.82,0,0,1-3.88,2.67Z"/>
          <g>
            <path class="cls-6" d="M50.64,452.9c2.37-29,12.36-42.46,14.74-45.3a2.45,2.45,0,0,1,1.37-.81c2-.38,7.23-.51,13.26,6.35,4.16,4.74,4,13.27,3.74,13.72-2.76,4.64-20.11,33.9-24.47,43.72C54.55,481.25,49.63,465.28,50.64,452.9Z"/>
            <path class="cls-7" d="M80,413.17a23.42,23.42,0,0,0-5.5-4.75c.63.59,1.27,1.25,1.93,2,5.25,6,3.69,10.68,2.51,13.9C74.78,435.88,61.5,458,59,471.21l.28-.6c4.35-9.82,21.7-39.08,24.46-43.72C84.05,426.44,84.21,417.91,80,413.17Z"/>
            <path class="cls-8" d="M64.23,417.83c-12.07,11.24-11.64,45.72-11.64,45.72S58.41,439,63.85,428.44,68.35,414,64.23,417.83Z"/>
            <path class="cls-7" d="M61.91,464.69a35.76,35.76,0,0,0,.46,4.93,8.39,8.39,0,0,0,2.55,2.11c-.09-2.07.4-13,2-15.93C67.53,454.75,61.73,462.71,61.91,464.69Z"/>
            <path class="cls-9" d="M67.23,456.11A.33.33,0,0,1,67,456c-3.18-5.09-9.76-8.88-15.69-5.88a.33.33,0,0,1-.3-.59c6.28-3.18,13.21.78,16.55,6.12a.33.33,0,0,1-.11.46A.34.34,0,0,1,67.23,456.11Z"/>
          </g>
          <g>
            <path class="cls-37" d="M71.23,426c-.15,4.91-3.85,8.78-8.27,8.65s-7.89-4.23-7.74-9.13,3.86-8.78,8.28-8.65S71.38,421.12,71.23,426Z"/>
            <g>
              <path class="cls-38" d="M57.75,426.55a7.73,7.73,0,0,0,1.76,4.69,16.86,16.86,0,0,0,1.93,2.22s5.11-1.31,6.51-4.24c.29-.62,1.63-4.46,1.63-4.46s.41-.92-.35-1.35a21.72,21.72,0,0,1-2.59-1.47,8.12,8.12,0,0,0-1.72-1.11c-.49-.17-.71-.07-1.61,0a29.17,29.17,0,0,1-3-.08c-.9,0-1,1-1,1S57.8,425.85,57.75,426.55Z"/>
              <path class="cls-39" d="M59.26,421.76a48.33,48.33,0,0,0-1.51,4.79c-.22,3.3,3.69,6.91,3.69,6.91h0s5.11-1.31,6.51-4.24c.29-.61,1.63-4.46,1.63-4.46s.4-.93-.35-1.35A23.92,23.92,0,0,1,66.64,422a6.87,6.87,0,0,0-1.73-1.11c-.48-.18-.7-.08-1.6,0a29.09,29.09,0,0,1-3-.08C59.37,420.72,59.26,421.76,59.26,421.76Zm.81-.17h.75a8.64,8.64,0,0,0,2.34,0c1.62-.31,2.12.51,2.89,1.07a15.18,15.18,0,0,0,2,1.15l.65.34a.65.65,0,0,1,0,.19l0,.05c-.51,1.47-1.4,4-1.6,4.38a7,7,0,0,1-3.33,2.77,15.09,15.09,0,0,1-2,.78,17.08,17.08,0,0,1-1.38-1.65,7.56,7.56,0,0,1-1.58-4.26A30.91,30.91,0,0,1,60,421.81,1.94,1.94,0,0,1,60.07,421.59Z"/>
              <path class="cls-40" d="M57.75,426.55c-.13,1.92,1.13,3.94,2.22,5.29A8,8,0,0,1,58.09,427c0-.69,1.52-4.79,1.52-4.79s.1-1,1-1a26.76,26.76,0,0,0,3,.08c.89-.07,1.11-.17,1.6,0A7.17,7.17,0,0,1,67,422.39a27.15,27.15,0,0,0,2.59,1.47l.07,0a.86.86,0,0,0-.41-.49,21.72,21.72,0,0,1-2.59-1.47,7.24,7.24,0,0,0-1.72-1.1c-.49-.18-.71-.08-1.61,0a26.8,26.8,0,0,1-3-.07c-.9,0-1,1-1,1A48.33,48.33,0,0,0,57.75,426.55Z"/>
              <path class="cls-39" d="M62.84,426.64a.3.3,0,0,0,.08.3l-.07.24a.07.07,0,0,0,0,.08l.19.05s.08,0,.08-.05l.07-.24a.29.29,0,0,0,.21-.22.32.32,0,1,0-.61-.16Z"/>
              <path class="cls-39" d="M62.84,425l-.12.46,1.41.38.13-.47a.73.73,0,0,0-.52-.9A.74.74,0,0,0,62.84,425Z"/>
              <path class="cls-39" d="M60.28,422.9s-.89,3-.93,3.53c-.19,2.46,2.54,5.29,2.54,5.29h0s3.62-1,4.65-3.21c.21-.46,1.2-3.34,1.2-3.34s.29-.7-.24-1a16.77,16.77,0,0,1-1.82-1.06,7.85,7.85,0,0,0-.83-.57,2.8,2.8,0,0,0-.52-.28h0a2,2,0,0,0-1.06-.08,16.83,16.83,0,0,1-2.15,0C60.5,422.14,60.28,422.9,60.28,422.9Zm1.3,2.68a.4.4,0,0,1,.48-.29l.11,0,.12-.47a1.3,1.3,0,1,1,2.52.66l-.12.47.1,0a.4.4,0,0,1,.28.49l-.48,1.83a.4.4,0,0,1-.49.29l-2.72-.72a.4.4,0,0,1-.28-.49Z"/>
              <path class="cls-40" d="M59.35,426.43c-.14,1.76,1.24,3.72,2,4.69a7.12,7.12,0,0,1-1.68-4.24c0-.52.93-3.54.93-3.54s.22-.76.85-.75a16.68,16.68,0,0,0,2.14,0,2,2,0,0,1,1.06.09h0a5.12,5.12,0,0,1,.52.28c.23.14.51.34.82.57a13.21,13.21,0,0,0,1.79,1,.61.61,0,0,0-.31-.41,15.46,15.46,0,0,1-1.82-1.07,9.37,9.37,0,0,0-.83-.56,3.19,3.19,0,0,0-.51-.28h0a2,2,0,0,0-1.06-.08,16.68,16.68,0,0,1-2.14,0c-.64,0-.85.75-.85.75S59.39,425.92,59.35,426.43Z"/>
            </g>
          </g>
        </g>
      </g>
    </g>
  </g>
</svg>
